<svg xmlns="http://www.w3.org/2000/svg" viewBox="0 0 3480.67 3323.3"><title>Asset 1</title><g id="Layer_2" data-name="Layer 2"><g id="Layer_1-2" data-name="Layer 1"><path d="M2911.72,2058.78c3.89,48.75,52.36,81.48,42.51,137.83-35.59,29.31-62.34,68.73-78.47,118.24-8.51,26.13-14,62.82-54.8,74.22l-13.15-29.78h-42.09c-15.86,22.6-98.53,93.79-120.41,97.92-38.48,7.28-70.6,25.21-100.83,48.75-6.52,5.09-16.73,5.14-24.62,8.83-64.67,30.25-130.18,59.37-180.64,112.28-5.72,6-7.86,15.42-13.36,26.75-55.82,14.75-101.07,69.94-174,58.9l-51.42,57.62-80.17-19.56v-30.39l-56.21-17.92c-1.46,9.63-3.3,21.82-4.45,29.41l-83.3,83.45-24.63-16.08-7.08,25.83c-45,1-77.64,28.3-104.25,59.68l-37-2.15c5.9-8,9-12.3,16-21.73l-54-34.73-61.48,63.07-6.16-8.33c-25.32,7.74-50.29,17.08-76.06,22.77-26.42,5.82-53.63,8.06-75,11.1l-25.34-22.62,33.63-37.85-85-55.33-68.28,75.43c-18.76-41-36.65-80.18-59.37-129.89-4.09,24.34-6.21,37-9.45,56.29l-61.11-15.85-31.51,42.48c-46.06-10.43-63.33-54.85-86.33-92.43-22.25-50.89,34.58-87,26.38-134.29l-51.21-83.76,48.37-42.59v-40.1c-9.15-14.38-20-31.41-32.7-51.44L1012.4,2401c-12-4.17-26.5-9.4-41.1-14.16-32.64-10.64-61.59-24-77.22-59.09-6.36-14.3-24.84-23.21-38.46-35.14-17-52.88-20.89-110-16.15-170.36L864,2100c-1.31-4.15-2.34-7.42-3.38-10.68-2.67-8.36-8-16.82-7.66-25.06,10-256.42-22.28-512-15.07-768.38,2.92-103.74.48-207.62.48-310.58C784.47,969,769.34,919,739,883.57c-8.69-10.15-13-26.36-23.48-32.25-49.94-28-81.66-75.78-124.82-110.57-31-25-65.19-48.22-118.11-44.21-5.5,10.49-14.39,27.42-23.28,44.34l-9.17-8.68v31.43H323.6L296.47,807.2h-66.8L104.4,871.63.66,809.55c-2.91-32.79,3-51.35,32.94-57.2,117.29-22.93,184.13-47.28,278.94-114.44,47.37-33.55,86.64-78.53,127.92-116.81V418.38c0-45-2.37-90.14.71-134.91,2.79-40.56,11.54-80.7,18.51-126.58h150.7V86.94c13-5.72,25-15.43,37.1-15.62C732.7,70,818,70.22,903.18,71c14.28.13,28.52,5.38,46.58,9v53.32c52.41,33.66,125.59,27.33,152.24,93.52,38,.63,27.06-41.84,58.2-52.12l56.37,27.77,96.84-58.23,55.51,37.64c34.11-10.73,19.5-40.9,25.48-64.94l60.84-41.44c71.11,22.63,137.4,7.6,200.73-33.32,34.9-22.56,68.69-51.88,121.62-39.16-3.25,10.56-6.18,20.12-10.89,35.44,11.75,35.21,53.14,34.08,84,45.16,46.54,16.72,89.59,37.66,131.73,68.54l141.41,20.41,53.53,44.45,10-5.78,35.93,167.79,49.43,33.2c32.67,11.3,62.16-17.25,93.11-31.51,32.41-14.92,58.64-43.24,88.91-66.75,50-5,77.94-54.57,128.94-70.75h95.62c-13.36,13.34-27.55,27.53-41.75,41.72,55.33,3.14,100.35-18.19,154.86-36L2821,281.11l-27.54,30c10.22,16.76,20,32.77,35.48,58.22,8.75-21.14,12.48-30.15,17-41.07h35.61v34.76l-80.63,22.18v75.13l-43.07,24.92V639.54c-19.12,47.72-69.66,78.18-55.87,140.08l-36.07,1.84c-60.25,96-148.57,153.52-258.9,188.84l-82.45,64.06,34,2.68,82.14-58.77c54.81,16.59,55.24,16.61,88.6,3.82v55.45c8-4.89,12.12-7.66,16.46-10,38.69-20.62,77.42-41.17,119.39-63.46l29.24,45.86c33-8,60-42.45,100.4-27.76,4.13,20.89,8.34,42.19,13.34,67.52-12.82,20.71-29.5,47-45.5,73.67-13.86,23.13-17.11,54.19-48.62,63.92,1.65,32.76,48.7,58.15,13.51,102.77l61.13,26-35.34,6.57,37.34,40.37,79.68,17.77c0,28.33-4.73,59.43,1.34,88.26s19.41,56,9.16,88.2l-48.41,31.19h77.85l31.13,73c-5,13-10,26.06-15,39.15l9.35,7.15,37-25.46,34.83,18.22L2969.71,1741c3.65,19.47-10.73,43.9,20.85,57.88,59.74-33.62,121.63,23.39,182.92,4.34,67.07,39.46,67.07,39.46,81.84,66.29l51.82,16.53,23.39-23.39h60c8.62,8.63,17,17,27.87,27.87h60.35c9.7,30.35-20.28,35.09-30.11,54.49-52.8.18-103.46,15.13-155.71,35.66l13.61,48.14h-63.28c-27.49,43.15-55,86.28-83.66,131.27l-29.43-44.47c-27.22,58.78-84.75,94.42-110.39,157.9l-15.85-31.92c2.8-18.69,13.91-41.66,7-55.66-23.84-48-50.14-95.86-99.18-127.11.85,1.74,1.78.82,2.7-.11l-9.9-11.61-4.49,4.48C2903.9,2054.84,2907.78,2058.15,2911.72,2058.78Z"/><path d="M2930.7,324.58h-37.6c12-19.46,20.64-33.58,30.31-49.33l-19.3-35.8,30.28-42,63.46,20.94c-5.41,18.12-10.88,36.44-18.9,63.32Z"/><path d="M1432.5,3320.11c5.61-65.33,39.54-106.91,67.68-163.26,13.32,31.92,22.48,53.88,31.66,75.9l-35.61,47.39c-3.33.62-17.73.24-28.72,6.17C1456,3292.49,1447.86,3304.77,1432.5,3320.11Z"/><path d="M3005.62,69c2.26,9.4,3.8,19.06,7,28.12,2.91,8.26,7.63,15.88,12.85,26.4L2975.59,156c-2-5.89-6.55-12.21-5.37-17.17,5.55-23.29,12.67-46.21,19.23-69.26Z"/><path d="M1409.13,3087.66V3016c12.87,16.19,19.16,24.12,18.43,23.2C1422.29,3053.1,1418,3064.44,1409.13,3087.66Z"/><path d="M1376.55,2971.55v40C1363.34,2988,1363.34,2988,1376.55,2971.55Z"/><path d="M1390.31,3103.27c4.92-17.31,7.35-25.87,9.79-34.43,2.21,6.61,5.18,13.12,6.14,19.91C1406.53,3090.78,1401.18,3093.6,1390.31,3103.27Z"/><path d="M1376.81,2968.09l9.9-11.62,4.48,4.48-11.61,9.91Z"/><path d="M1436.62,3311.69l-9.9,11.61-4.48-4.48,11.61-9.91Z"/></g></g></svg>