<svg xmlns="http://www.w3.org/2000/svg" viewBox="0 0 3484.8 2316.08"><title>Asset 1</title><g id="Layer_2" data-name="Layer 2"><g id="Layer_1-2" data-name="Layer 1"><path d="M1170.43,1772.32h-.07C1170.71,1772.56,1170.68,1772.51,1170.43,1772.32Z"/><path d="M3438.06,1225.75c-11.06,1.76-18.71,5.36-24.62,3.48-17.84-5.67-35.71-9.06-54.4-8.49-10.75.32-20.39-4.36-30.22-7.72-40.44-13.87-40.4-14-83.12-14.57-4.31-.06-9.49.68-12.73-1.37-9.76-6.21-21.12-4.74-29.77-2.24-13,3.78-23.85,3.75-36.89,0-8.58-2.45-19.91-4.17-29.68,2.46-4.9,3.32-11.61,4.88-17.66,5.45-20.89,2-41.82,3.79-62.77,4.47-23,.75-46.06.11-69.09.23-4.29,0-10-.85-12.59,1.46-6.17,5.48-13.43.37-18.83,3.24-6.74,3.58-13.35,4.5-20.6,4.19-20.14-.88-39.75,1.47-58.79,8.65-3.75,1.4-9.46,1.19-12.84-.75-9.06-5.19-20.36-3.62-28.69-12-6.62-6.68-16.59-6.48-26.1-3.21-5.15,1.77-11.63,3.62-16.33,2-12.29-4.24-23.93-10.37-36.71-16.15l-46.19,21.41c-18-.91-40,4-59.76-8.57l-42.91,22.79c-15.71-1.55-35.37-.33-52.78-6-23.3-7.6-42.11-.65-62.85,7.46s-41.72,16.29-62.4,16l-20.43,10-4.86,10.54c16,10.43,34,3.67,51,6.28,5.11,3.64,10.26,7.33,15.45,11,14.81,10.41,30.12,18.23,49.42,15.58,10.5-1.44,21.36,2.59,31.6,3.25,20.91,1.35,34.77,13.91,50.55,23.92,1.53,1,1.37,4.61,2.18,7.7-30.68,2.38-57.77-3.54-80.88-17.25l-22.3,4.83-25.81-18.57-44.18,5.49-34-17.48c-3.47-7-6.51-13-8.67-17.37l-12.46-6.2L2344,1288.35c-22.34-9.49-22.34-9.49-33.69-9.08-21.61,5.86-29.75,21.59-34.57,36.12-7.43,22.37-17.83,36.2-43.14,35-4.1-.19-8.42,4.22-12.69,6.53v13.18c-3.76,3.78-7.42,7.47-11.07,11.16l-6.51-6.51v-22.58c6.62-5.61,11.71-13.39,21.13-17.12,13.72-5.45,23-16,28.1-31.37l-10.37-7c-2.78,0-10.15-2.29-14.39.39-19.42,12.23-40.63,7.35-61.23,8.4-6.59.33-14.2-1.62-19.61,1-21.15,10.36-44.56,10.88-66.47,17.29-12.93,3.78-25.5,3.81-38.4,4-8.92.11-17.84.17-26.75,0-12.34-.26-22.94,5.44-33.66,10.2-3,1.34-4.47,6.28-8.32,12.12,13.15,0,23.41.67,33.53-.2,9.78-.83,19.42-3.26,28.1-4.8l14,13.34-13.52,40.28c-1.68,9.84-1.19,20.27-1.82,30.63-.56,9.37,10.72,18,.54,29.12-11-13.48-14.23-32.42-30.45-41.24h-17.28l-16.52,16.8c-5.62-3.56-10.66-7.69-16.41-10.11-5.53-2.33-11.81-2.89-18.18-4.31,7.62-7.78,14.32-15.59,25.42-16,13.31-.48,22.61-8.74,34-16-6-3.75-11.18-6.24-15.47-9.77-5.13-4.22-8.9-10.34-14.4-13.86-12.82-8.18-25.64-17.06-39.71-22.37-15.66-5.91-32.05-11.81-49.81-9.06-8.7-5.88-16.68-13.71-26.23-17.16-13.94-5-29.33-11.43-43.81,3.64l12.56,13.61h10.83l13.27,10.23c.64,14.63-.34,27.08-14.72,35.64-9.66-11.62-18.73-22.53-26.45-31.8h-33c4.77,5.9,8,9.52,10.75,13.52,1,1.51.8,3.88,1.31,6.81h-13.45c-6.2-16.79-19-25.43-36-27.31,1.37-16.75,17.69-8.23,21.77-17.12,14.73,7.07,15.64,6.9,41.15-7-.25-4.81-.5-9.74-.75-14.6-4.63,0-8.64,1.24-10.38-.22-8.09-6.78-15-5.41-23.39,0-6.47,4.17-14.33,5.55-22.52,4.87-8.86-.73-17.84.17-26.73-.28-6.38-.33-11.14,1.38-13,5l22.39,36.4c-12,10.16-26.19,14.89-30.06,30-5.24-6.65-4.77-15.61-12.6-18.33-4.33,8.83-6.55,18.5-12.52,24.37-9.86,9.7-22.15,16.94-33.53,25.31-5.07-6.47-14-10.25-10.26-20.87l43.74-43.74c0-7.18,2.22-15-6.47-19.75-9.68-1.51-19.61-1.18-28.07,5.39-6.67,5.19-12.64,3.85-21.6,0l15.88-17.21c1.69-13.35-13.88-20.82-7-33,10.76-2.78,17.91,4.8,19.78,11.09,2.49,8.45,9.63,9.53,13.71,10.28,8.75,1.61,18.49,2.21,28.4-1.13-4.86-15.8-21.85-10.44-29.14-19.56-8.39-10.5-20.9-13.54-33.57-20.45-2.69,7.09-4.86,12.81-7.43,19.62-4.24,2.9-12.58,5.51-14.07,10.26-3.4,10.87-12.49,12.15-20.08,16.46-5.44,3.08-11.92,5.52-15.71,10.09-7.6,9.15-13.66,19.56-20.83,30.14l-13.24-1.18c2.47-8.31,4.45-15,6.47-21.75L1519,1309.34l7.83-8.6H1556l20.26-34.56,19.67-12.26c6.18-16.53,5.49-16.22-2.16-33.31-10.42-23.28-28.45-39-49.19-53.31h-28.38c-6,0-12,.56-17.81-.18a43.55,43.55,0,0,1-13.73-4.38c-14.5-7.33-28.79-5.78-43.92.83-19.67-10.75-39.82-21.52-62.8-24.82-7.25-8-12.91,1.4-19.35,1.65-6.83.26-11,2.78-12.46,10.2,4.05,6.4,9.36,11.57,17.22,6,6.33-4.5,12.73-1.65,19-2.58,1.69-.25,37.07,17.36,38.75,19.18.82.88.68,2.65,1.32,5.64l-21.27,16.06c-2,9.17-4.22,15.85-7.93,16.52-9.91,1.81-13,11.29-19.9,15.43-.72,21-20.1,37.33-12.22,60.32l20.07,28.3c-8.8-1.93-13.84-1.85-17.5-4-13.48-8.16-26.5-17.07-39.86-25.8,2.91-2.91,5.6-4.67,7-7.16,6.83-12,12.51-24.73,20.16-36.16,7.92-11.83,4.19-22-3.26-30.74s-15.12-16.88-15.72-29.34c-.12-2.38-3.15-4.62-4.53-6.51l-12.34,11.45c.64,19.32-9.48,32.77-22.33,44.73-10.65,9.9-23.87,11.7-38.73,11.11-4.32,5.66-9,11.76-13.6,17.83-6.85,2-10.68-2.62-14.9-6.82-1.36-1.35-3.69-1.71-5.54-2.51l-11.25,10.7-13.93-6.09v-14.84c-7.3-9.14-17.72-15.43-23.22-25.31,10-15.19,20.58-6.67,27.7-4.15,6.33,7.58,10.82,13,14.16,17h17.32V1181.5c23.81,6,22.36,24.56,21.84,41.65l8.81,8.12,31.19-25.07c.75-11.64,1.38-20.48,3.8-29.79,4-15.19-3.85-29.8-11.75-42.59,2-2.32,3.86-4.55,5.22-6.17l17.36,9.06,7.16-6.42c-8.51-20.61-25.15-31.2-43.92-38.6-16.62-6.56-33.43-13.46-50.82-17-18.29-3.7-33.74-13.61-51.13-19-26.93-8.36-53.45-18.08-80.39-26.44-13.93-4.32-28.38-7-41.26-10.06l-12.7,12.06c2.26,2.27,4.36,4.37,6.71,6.71,11,.43,22.94-2.1,28.57,2.66,16.84,18.24,3.77,33.46,4.84,48.4l9,9.49c-2.77,15.42-2.77,15.42-15.68,15.24l-8.6-8.6c-4.15-11.33-7.9-19.57-10.11-28.19-2-7.93-7-11.72-14.11-13.86l-23.1-18.64-5.31-2.37a41.22,41.22,0,0,0-16.79,24.51c-.65,2.64-1.12,6.12-3,7.56-7.92,6.13-6.6,13.56-5,19.79,10,5.25,18,11.12,27.08,13.89,11.69,3.57,13.73,12.83,16.57,22,2.78,9,5,18.19,7.6,27.72l-6.49,6c-5.26-7.51-10.29-14.41-15-21.53-3.79-5.71-9-7-17-5.36l-38.07,44.8c3.43,4.9,6.43,9.19,9.26,13.25,10.88-5.22,20.07-9.92,29.55-14,2.18-.92,5.35.48,7.94.8v17.83L989.76,1212l15.53,5.84,2.89-3.56,23.29,23.79,16.77-8.59,13.69,8.37c-6.17,13.6-20.89,9.36-28.93,17.41-9.48,9.48-23.26,3.74-34.34,6.71v10.83c4.94,2,10.19,3.67,15.11,6.07,4.35,2.11,9.07,4.28,12.3,7.69,3.43,3.63,5.29,8.74,7.92,13.36l-10.12,7.17-8.23-10.47H996.38l-24,19c-3.64-10.55-6.74-19.53-10.2-29.53l-19.36,6-6.41-6.4c1.7-2.25,3.37-4.44,6.68-8.83l-13.86-6.27h-12.9l-14.07,21.24h-14c-5.69-8.8-11.37-17.57-16.85-26l-36.69-12-15.33,8-23.13-16.29,30.23-25h20.63l13.62-10.6v-18.32l8.4-8.4v-9.37c-15.56-14-29.28-30.18-37.12-50.77h-9.81c-8.5,8.88-15.66,20.35-29.18,27H761.78c-8.87,6.32-15.22,13.78-22.92,15.64-11.69,2.83-19.37,10.93-30.44,16.31,4.74,15.83-12.37,31.2,1.13,45.91-2.57,5.69-3.87,10.59-6.74,14.28-2.17,2.81-6.33,4.08-11.33,7.06v-21.24l-6.33-6.33H665.56l-10.66,26.63L645.55,1225l16.55-17.75h13.51l6.38-6.38c-3-18.52,15.21-32.09,14.28-50.5L714.5,1144c5,5,9.76,9.74,14.3,14.28,20.86-16,40.18-26.73,50.63-45.43,2.72-13.65-1.69-26.59,4.83-39.38,5.75-11.28,14.31-20,22.19-28.19-5.11-10.75-20.9-3.57-21.79-17,7.5-14.54,23.4-13.59,35.48-18.83,1.74-7.16-.74-14.41-6.33-15.21-15.74-2.26-26.08-12.94-38.31-20.87-7.68-5-15.91-9.37-26.06-5.21-11.85,15.26-14.37,37.58-29.59,45.1l-17-9.16c8.63-14.42,16.1-26.9,22.62-37.81,4.73-17.74-2.94-29.36-14.24-39.59-3.3-3-6.4-6.21-9.43-9.47-.89-1-1.22-2.45-2.55-5.28l5.56-11.52h15.76L736,915.84V936l29.18,12.11c2.24-4.44,4.08-8.11,6.06-12-8-17.34-13.9-35.2-3.18-54.46-5.65-7.87-10.94-15.26-17.06-23.8L716.71,869c-5.64-8.76-10.38-15.6-14.48-22.81-1.32-2.33-1-5.62-1.61-10.31l25.45,11.65V825.74c-12.79-10.17-14-31.18-32.43-37.77H669V766.35c-18.64-23.46-35.51-44.68-53.27-67-17.1-6.15-31.46-22-52.49-28.48l-8.76,30.6-28.29-29.84V652l-12.3-5.11-5.55,5.55v31.2c9.88,16.31,25.47,28.55,31.42,47.25h21.92c4.15,13.88,18.57,22.76,17.71,41.89l-27.19-10.74-21,9.93c-14.13-8-6.69-24.11-15.79-32H500.29l2.44,3.09-9.68,9.64c2.91,10.87,15.27,20.53,9,36-3.82-.63-8.3,0-10.58-2-8.87-7.64-7.11-20.38-12.13-29.94-19.58,5.82-32.62,26.42-55.41,22-.3-4.82-.51-8.33-.69-11.27l-12.44-5.34-15.53,4.93c-3.23-3.87-5.84-7-8.77-10.55l6.66-6.4c11.34-2.48,20.24-5.85,29.18-6,8.77-.12,17.58,3.07,26.06,4.75l19.92-23.5c7.58-1.7,18.6,13.82,26.4-2.4V707.55l-15.68-17.66c-9.68-2.8-21.79-1.83-25.09-17.11h25.1l6.46-6.46V638.63l-17.12-17.12c-15.28-7.64-28.93-7.58-44.49-6.61-12,9.76-25.68,20.1-38.43,31.44C379,652.13,372.39,657,364,659.06c-1.92.46-4.14-.35-6.69-.62V642.05L373,630.5c2.56-7,4.93-13.43,7.55-20.55H406.1V588l22.31-9.5V553l15.85-9.11,6.58,6.58c-1.73,12.64-3.63,26.49-5.64,41.18,16.71,7,29.49,20.78,49.28,18.12V592.56c-5-3.07-10.67-6-15.57-9.89-3.06-2.45-4.88-6.45-7.6-10.23l18.33-8.29L493.85,554c-5.81-7.56-2.31-15.5-3.48-22.45l8.86-6.72c11,5,9.53,13.16,8.7,20.24l-9.4,11.85,14.24,18.65c10.21-8.48,9.59-18.72,8.77-28.56A41.06,41.06,0,0,1,529,520c6.79-26.21-6.4-45.16-11.58-61.09-9-11.29-22.45-5.87-27.56-19.3l9.54-10.21V404l-17.2-17.2V375.23c9.28-4.38,14.7,3.46,21.71,5.36,5.87,11.85,14.47,23.05,16.72,35.41,2.64,14.49,18.25,22.33,15,36.46l17.72,17.71c-2,15.91-4,32.25-5.9,47.1l15.5,21.64,5.41-13.06a137.87,137.87,0,0,0,2-40.1c-1.45-14,5.74-24.4,11.22-35.62,3-6.23,7.77-11.61,11.35-17.6,11.95-20,23.69-40.15,40.39-56.87,4.95-5,8.57-11.22,12.72-16.77.52-21.78.52-21.78-8.46-38.58,3.53-7.49,7-14.92,11.12-23.62-14.3-8.05-12.48-24.09-20.48-34.14-8.69-10.91-8.13-26.65-18.69-34.78L583,239.22c-1.4,1.28-6.69,6.06-13.15,11.9-2.51-4.21-4.39-7.36-6.95-11.63l21.7-25.69V196h15.73l3-2.75c4.28,4.29,8.57,8.58,12.71,12.71l7.9-13.29c-3.5-89.16,3.34-79.87,8.66-99.18-5.73-14.58-5.85-27.65-1.36-41.11,1.32-4,3.18-9.52,1.5-12.42-6.83-11.73-3-24.18-4.18-36.23-.13-1.3-1.07-2.51-1.64-3.77H610.15c-4.16,9.88-7.94,20.26-12.83,30.08s-5.27,21.55-13.54,30.13c-8,8.26-13.19,20.42-22.53,25.81-20.53,11.86-35.81,29-52.89,44.5-8.76,7.95-18.67,17.07-29.5,19.65-13,3.1-21.82,9.72-30.42,18.38-5.24,5.27-10.74,10.3-15.72,15.8-15.14,16.75-32.61,28-52.47,25-22.42,11.08-28.49,31.8-41.29,47.16-8.75,10.49-12.83,23.89-26.7,31.37-14.08,7.6-21.66,22.32-22.52,39.4-4.6,4.6-9.25,9.41-14.07,14-12.73,12.21-17.84,28.58-20.86,44.73-2.48,13.29-6.15,25.52-12.14,37.45-8.32,16.58-17.51,32.95-23.6,50.36-4.17,11.95-9.77,22.78-15.94,33.53-2.78,4.85-6.95,9-9.26,14-7.87,17.17-20.45,29-37.32,37.39-20.87,10.4-28.26,17.74-38.7,38.8-5.4,10.88-12.56,19.1-23.66,23.13-22.43,8.14-34.73,25-40.95,44.76-7.48,4.36-13.06,9-19.45,11-13.55,4.41-16.66,15.24-20.53,27-5.14,15.65-4.35,31.45-4,47.27.22,9.52-.84,18.55-4.72,27.1C0,788-.93,798.39.87,809.32c20.1,26.25,21.71,58.18,27.06,91.3,6.76,3.78,14.24,10.63,22.65,12.07,14.37,2.46,26.3-7.3,38.67-12.71,15.39,6.31,30.91,10.42,47.21,8.45,5.6-5.59,10.53-11.23,16.2-16,4.79-4,10.05-8.88,15.77-10,13.26-2.69,26.89-3.89,40.43-4.68,12.58-.74,25.42,1.13,37.83-.5,13.88-1.83,24.8,4.69,36.36,9.52,4.25,1.77,7.26,6.52,12,11l17.77-21.4,7.64,7.15c2.83,10-2.22,17.7-6.41,25.92-4.44,8.71-19.64,6.93-19.72,20.93h40.5c23.87,17.53,33.57,46.53,60.51,57.6,10.16,3.81,19.22-.32,28.2-5.39v-8.92l-15.25-16.39L420.74,948H439c-4.08-10.45-7.53-19.29-11.56-29.64L451.7,907c18.46-9.82,23.26-27.23,23.19-48.32,12.15,9.34,25.06,17,24.47,36.93l-21.77,6.08c-6,7-5.91,7-5,30.42-3.41,6.3-6.36,11.77-9.11,16.84,3.48,6.65,6.67,12.75,9.66,18.45-6.24,9.64-12.51,18.38-8.61,29.25l11.22,5.06,17.74-12.53c2.66-16.23,4.95-30.17,7.26-44.26H511.4c6.72,16.74-8.95,33.58,2.94,49.9-14.05,10-21.28,23.83-28.3,37.8-.93,1.84-1.28,4.07-2.53,5.62-16.3,20.19-32.71,40.29-51.28,63.09-.89,4.49-3.67,12.68-3.93,21-.67,21.52,0,43.08-.32,64.62-.12,9.14,3.27,16.28,9.1,23.06,5.41,6.29,9.88,13.39,15.49,21.14l-24.49,18.4c0,2-.49,5,.09,7.68a192.72,192.72,0,0,0,5.22,20.11c7.15,21.58,4.84,29.79-14,45.47v-30.08c-5.26-12.24-13.35-9.16-19.93-9.28-11.89,9.31-17.69,20.82-16.06,35.95,1.52,14.14,2.17,28.37,3.2,42.41l25.84,19.51c30.47,0,59.45.39,88.41-.23,9-.19,17.27,1.46,24.23,6.18,14.92,10.12,31,13.66,48.62,11.92,2.87-.29,5.79,0,10.84,0l4.92-8.09c13.37-2.27,24.29,1.74,34.54-5.09,11.4-7.6,24.25-11.8,37.27-9L675,1364.16c-3.56-6.51-7.15-13.08-10-18.24l21-21,26.72,4.16c2.24,2.75,7.77,6.7,9.14,11.78,3.91,14.46,10.17,26.12,25,31.8,2.53,1,5.92,3.93,6.08,6.16.65,9.27,8.28,10.55,14.21,13.87a20.31,20.31,0,0,0,3.62,1.09v-13.17l-11.19-18.36c9.47,1.5,15.31,1.47,20.33,3.47s9.67,5.72,13.94,9.3c4.54,3.82,11.38-.58,15.69,6,2.73,4.15,9.27,5.77,16.5,9.89l33.35-3.71c.05,0,2.35,1.63,4.78,3s5,2.4,8.27,4l55.84,6.06c10.56-9.92,18.2-21,33.62-23.62,8,3.68,17.88,6.45,22.73,18-10.4,8.15-27-.06-33.7,10.81-6.24,10.2-24.62,6.39-23.59,23.77l20.27,6.85,27.9,24.94c15.42,1.58,28.47-.91,42,2-1.38,3.78-2.08,5.72-2.2,6.05l-62.36,5.63-23.63-18H897.72c-4.41-8.1-8.32-15.3-13-23.93l16.5-12.65-7.27-7.46h-9.82l-8.91,13.35c-13.47,2.13-13.54,2.1-14.58,15.8,7.88,7.88,16,15.51,23.54,23.73,4.24,4.64,8.49,9.81,10.79,15.53,1.73,4.29,1.25,10.06,0,14.72-.74,2.82-4.79,4.77-7.11,6.89-6.1-3.57-10.92-6.3-15.64-9.19-5-3-9.84-6.22-15.27-9.67L846.87,1501c8.71,12.22,2.74,25.85,5.12,39.42l11.1,8L879,1529.21c9.57-2.82,13.35,1.94,17.49,6.17,7.53,7.7,15,14.57,27,15.81,6.17.63,14.1,5.83,17.11,11.25,8.79,15.8,22.29,25,37.51,31.54,7.15,17,16.61,30.71,34.9,39.66-1.6,21.66-3.29,44.51-5,67.95h16.06l10.26-10.27c7.79,6.39,16.1-.47,24.66-3.32,4,5.94,6.55,12.35,11.24,16.13s11.27,4.66,18.35,7.31c-1.72,12.47-3.28,23.8-5.38,39.06,6.73-5.2,10-7.69,13.28-10.28s6.42-5.3,10.68-8.83l13.06,16.28h30.1c3.7,7.25,7.15,14,10.66,20.88a31.93,31.93,0,0,1,5.8,1.63,26.3,26.3,0,0,1,3.63,2.14c16.68-1.54,12.48-24,31.86-20.8,5.13,6.67,11.12,14.46,16.75,21.8h18.39l-3.22-3.5,11.2-3.08c-8.07-10.35-6-19.44-5.83-28.92,10.52-.28,12.78,7.84,15.42,9.86l7.13,25.08c16.27,3.22,29.45-4,40.73-8.48l12.89-17.51c-1.51-8.55-3.41-19.36-5.32-30.17l2.87-1.21,20,25.92c6.14,13.07-13.58,18-10.23,27.2l49.85,40.62h12.87l22.47-34.08,10.43,12.28c-4.18,10.06-7.87,18.93-11.33,27.28,7.13,6.35,11,14.21,21.23,12.76,3.26-.45,7.65,3.16,10.68,5.87,9.53,8.52,20.72,12.47,33.12,11.35a26,26,0,0,1,21.12,7.86c6.32,6.53,13.07,5.23,20.3,5.86,13.82,15.2,28.58,29.32,48.7,34.09l12.22-7.79,86.3,44.47h26.91l7.28-8.33-11.36-27.34c10.84-9,21.87-16.29,34.05-16.83,13.88-.63,25.92-4.32,38.81-9,27-9.73,45.67-28.35,62-50.46,2.39-3.25,3.65-7.33,5.23-10.63-4.15-9.84-10.61-17.58-10.09-28.36.16-3.33-5.43-6.93-8.77-10.86l-35,16.9c-.28,5-.56,10-.82,14.47l-21.12,4.72-19.45-4c-10.32,8.76-17.54,17.81-17.25,31.51.07,3.07-4,6.23-5.24,8.1-15.19-6.34-16.38-24.78-31.3-30.81-5.43,2.28-11.42,3.35-15.31,6.79a13.83,13.83,0,0,1-14.35,2.72c-19.89-7.66-41.41-9.35-60.63-20.75-12-7.1-22.64-13.24-26.91-23.15l11.43-16c8,4.61,19.17,5.5,21.42,13.48,3,10.55,11.54,10.08,15.31,13.55,25.37-4.6,25.15-31,40.81-41.88l12.59,6.47c-1.8,13.53-3.65,27.4-5.47,41.09,11.48,2.18,21.22-.15,31.24,4.67,9.79,4.71,20.35-3.3,30.19-5.43,1.56-3.35,3-6.47,5.49-11.82l-18-14.49c.33-8.61-1.76-15.75,6.87-20.57h18c15,12.94,32.86,6.86,48.32,8.42,11.89-9,5.26-20,7.29-28.9-7-7-12.25-16-19.86-19-13.34-5.23-14-16.05-17.1-26.86-28.07-28.06-30.07-30.61-30.07-33.7l10.85-17c16.06,5.3,27.22,14.44,31.91,28.35a93.29,93.29,0,0,0,16.27,28.92c.71.89,2.55.89,5.34,1.77l10.43-14,7.78.41c9.47,18.28,5.71,37.39,6.69,55.22,6.45,10.56,16.18,5.9,23.63,6.75l14-13.17c3-8.3,5.78-13.36,6.56-18.7,1-6.47.22-13.19.22-18.07,7.93-13.59,19.75-5.29,30.93-9,1.45-2.77,3.7-7,5.75-10.93-2.65-8.42-14.89-11.42-8.43-22.74,21.15-2,33.11-16.57,38.5-31.65l25.53-22.73c25.81,2.25,41-14.57,56.64-30.89,24.79.67,44.77-10.43,62.32-26.68,10.34-9.58,19.66-20.29,30.16-29.69,5.06-4.54,11.62-9.88,17.77-10.23,12.71-.72,21-7.21,29.78-14.93,5.58-4.89,13.85-11.61,20.68-7.14,8,5.24,15.31,2.52,21.67,3.52,16.83-10.44,12.91-32,26.85-43.58,15.49-1.29,30.94-9.21,49.1-3.28-8.24,2.67-14.67,6-21.37,6.69-21,2.11-36,19.16-39,38.64-1.2,8-.63,20.58-11.62,24l-34.95-14.59-25.1,23.78H2096c-8.42,11.87-7.1,26.76-12.21,41.24l-37.21,16c-1.93,9.89,3.45,20.92-7.32,26.88-4.66-3.83-7.93-10.78-18.36-8l-17.52,17.52-16.32-5.64c-16.49,13.1-22.18,34.53-38.7,39.71l-14.43,24.12c-11.32-2.36-19.14,1.37-26.24,6.73,2.42,13.72,17.83,12.68,23.51,24.85l-6.23,12c-9.37,0-19.3,3-23.59-.62-8.93-7.57-14.51,0-21.52,1-9.85,1.37-14.36,7.68-17.49,16.41-2.31,6.43-4.85,13.66-9.55,18.16-11.2,10.72-12.64,23.59-11.79,37.64.21,3.62,0,7.26,0,12.08l22.55,14.92,21.27-14.45h19.72l27.31,23.25,37.75-5.85,7.07,9.61H1996l6.37,10.17L1981.93,1831c12.76,12.81,26.85,8.5,39,9.48,6.6-5.88,18.83-5.69,15.65-19.82l-15.25-18,31.54-17.35c3.29,8.81,6.13,16.39,9.05,24.19l15.62-5.42,28.92,23.75c-7.67,6.17-13.65,11-19.2,15.42-2.71,13.44-14.39,25-10.63,36.57-5.41,18.34-19.71,31.81-6.1,49.86,15-1.26,31.54,4.13,44.65-9,8.91,0,17.83,0,25.75,0,16.67-12,24.24-27.26,19.28-52.85-2.72-2.72-8.89-8.9-16.78-16.78l7.62-11.55c12.92,9,12.92,9,24.54,8.13,7.15-14.47,18.34-27.66,18.12-44.18l10.1-11.81h9.61c2,3.94,3.93,7.61,5.49,10.62-5.31,16.82-14.41,31.44-25.19,45.44-3,3.91-10,11.67-2.87,19.45l18-5.57,10.92,17-12.26,11.41h-18l3.73,4.61-14,6.59,16,10.67-15,15v23.5l13.64,10.23c-8.53,14.79-22.8,13.58-35.46,13.64-5.32,8.38-9.95,15.4-14.3,22.59-7.27,12-17.63,18.07-31.84,17.48-6.61-.27-13.25,0-16.66,0l-55.5,43.26-22,5.05-22.33-8.23c-9,5.44-12.86,14.38-16.8,23.59-4.3,10.06-20,9-22.53,23.68l11.37,6.22h12l19.72-13.38c10.3.4,21.93.78,30.62-8.7,24-1.36,50.22,5.72,67.74-19.26l25.57,6.32,46.91-36.44c1.94.43,5.39,1.14,8.79,2,.31.08.32,1.28.88,3.79-5.24,5.44-13.92,10.73-16.57,18.17-2.89,8.14-16.22,12.56-10,23.13l21.65,6.61v16.9l-11.75,6.23c-30.69-23.5-44.28-14.73-63.63-2.62,3.78,3.56,6.94,8.52,11.39,10.37,17.27,7.18,26.16,21.1,33,37.32,1.95,4.65,5.37,8.68,8.42,13.47,12.95-9.89-6.78-19.38,2-27.66,15.16,8.51,19.88,27.68,37.94,35.78h15.78l11.91,17.31c-19.17-.72-31.44-14.33-47.58-16.72l-11.37,10.2c5.68,6.74,10,15.59,16.91,19.11,9,4.56,16.92,11,20.82,18.5,11,21.11,32.7,30.22,47.79,46.5,3.44,3.7,9.61,5.66,14.87,6.71,11.85,2.36,23.52,5.25,36,5.08,11.92-.17,23.89,3.16,36.11,5,6.58,3.86,15.3,6.09,17.24,16.2.58,3,4.86,5.4,7.62,7.87.65.58,2,.36,3,.51l5.08-5.8c1.13-8.6-12.91-9.86-7.28-19.4,13.51-1.43,16.82,15.78,30.53,16.49,4.49-10.34,8.87-20.43,13.29-30.59,11.08,1.51,21.61-2.5,30.51,4.84,16.74-10.22,32.08-2.12,45.67,2.75,7.84-2.71,14.38-6.87,20.86-6.79,12.72.16,21.48-6.18,31.21-15,8.18,1.78,17.24,3.27,26,5.77,17.83,5.08,17.74,5.15,38.79.23,3.22-.75,7,.47,10.44,1.14,4.08.79,8,2.25,12.13,3,21.33,3.61,40.06-7.1,60-11.22,6.68-1.39,14.05-2.95,19.34-6.83,14.68-10.78,30.85-18.79,46.38-28,13.19-7.82,25.52-17.43,30.06-33.78,1.24-4.49,4.36-11.05,7.79-11.88,11.13-2.72,12.29-12.43,17.48-21l-16.1-11.61c-7.5,3-19.36-2.26-32.16,3-13.18,5.45-25.39,10.63-36.48,19.84-7.45,6.19-16.89,12.54-29.49,4.27l15.66-17.24c-.25-3.42-.5-6.87-.74-10.3h-12.54l-11,13.64-13.27-1.31c2-5.55,3.79-9.35,4.73-13.35.9-3.85.93-7.9,1.37-12-19.6.11-20.43.5-34.44,13.42-35.71,16.54-68.9,20.83-102.5,25.39-5.24-4-8.2-9.17-3.95-16.48,26.27.18,50.23-7.32,69.5-25.33,10.2-9.53,22-14.71,33.4-20.28l24.41,10.5c10.63-5.78,10-13.62,9-19l-8.42-10.48-26.22-8.6c11.82-3.18,19.8-5.48,27.88-7.39,1.89-.45,4.1.42,5.86.64l2.75,8.12h6.29c.66-7.43,1.33-14.92,2.07-23.11l8.27,2.5v28.44l8.2,6.14,9.4-9.4h24.12c13.51,13.73,18.28,24.24,22.1,48.95l6.77-.78v-45.79c3.42-3.41,6-6,9.4-9.4-5.27-16.12,15.76-24.11,13.42-40.16l15.2-15.2c2.86-7.79,4.77-13,6.69-18.19-7.93-10.19-2.75-22.39-4.21-30.46-3.86-8.34-5.47-14.8-9.3-19.43-6.85-8.3-3.51-19-8.16-28a15.28,15.28,0,0,1,3.63-18.26c1.4-1.23-.2-6.91-1.56-10-6.29-14.52-17.34-23.62-31.34-27.53-14.68,2.5-21.23,13.23-30.91,21.7l6.74,14.33h32.53c8.82,5.78,7.39,13.19,6.34,21.64l-25.77,7c-1.87,1.85-5.56,5.51-10,9.92v10c-11,1.67-18.57-3-26-10.84v-18.07l-12.21-5.84-8.53,13c-5.25-1.68-9.79-4.13-14.44-4.37-6.14-.31-11-1.27-13.4-9.48l30.79-11.12L2664.09,1894l-16.6-2.86,19.15-15.18,5.38,3.72,15.75-10.81v-8.54c-6.92-7.69-15.53-12.46-26.1-16.17-11-3.84-22.94-3.81-33.48-11-5.56-3.82-16.56-.63-24.88.75-6.69,1.1-12.89,5.32-19.58,6.27-20.81,2.95-41.13,7.79-61.32,13.44-2.47.7-5.44-.39-11.69-1,6.61-3.79,10.1-7.43,13.64-7.49,10-.17,17.54-4.13,24.83-10.53,4-3.51,9.68-7.26,14.58-7.23,18.18.13,35.5-7.88,53.89-5,5,.79,10.19.12,14.69.12l5.38-5.68-20.13-20.22-12.91-4.12-5.11,3.66-28-13.92c-22.9,12.93-27.35,12.6-43.12-3,15.42-3,30.62-6.17,46.66-6.15,16.74,0,32.82,2.83,47.8,5.52,18.32,11.14,20.56,35.36,43.05,44.76l29.62-4.07c2,4.44,4.55,10.07,7.32,16.17h14.66c4-4.26,7.9-8.39,12.33-13.1-13-13.77-17.14-31.13-26.49-45.39l-12.75,6.31-9.91-19.18c-12-7-22-13.28-32.31-18.82s-21-10.3-33.54-16.4c-12.46-1.15-28.14,3.67-39.71-4.2L2562,1705.23c8.23-7.42,14.68-1.13,20.08,1.67,18.45,9.57,28.79,13.1,45.86,13.1h35.54c2.18,2.19,4,5.65,6.43,6.17,14.32,3,24.85,12.33,36.14,20.52,8.21,6,16.42,6.79,25.38.25,5.45-4,12.3-6,19.3-9.3,6.17,2.88,13.18,5.82,19.86,9.36,7.34,3.88,14,10.61,21.66,11.92,8.45,1.43,14.15,5.78,20.62,12.23l14.6-14.54,32.41-7.91c-18.54-21.77-23.32-46.29-20.16-71.24l-8-7.06-18.58,9.61c-4.17-1.73-9.29-2.27-11.51-5.1-5.1-6.48-8.79-14.07-13.38-21.77-6.85,0-14.37-.91-21.56.21-12.35,1.92-23.2-3.93-31.49-9.86-12.9-9.24-23.2-22.4-33.64-34.71-6.76-8-11.82-17.37-18.23-27,.3-4.7.64-10.53,1.11-16.34,0-.45,1-.83,1.76-1.43,17.83,17.65,29,42.07,54.94,53.5h27.7l62.39,36.15,8-6.55c-3.6-7.24-13.4-9.7-13-20.37,11.81-1.31,21.74,2.7,26.51,11.31,8.41,15.21,25.43,20.07,33.56,33.24l10.69-.76v-33.75c-7-9.14-25.42-4.75-26.21-22.39,16.78-5.13,31.54,2.57,45.05,7.68l12.65-6.59v-10.67c-3.67-3.3-8.82-7.53-13.47-12.24-5.17-5.24-9.89-10.92-14.09-15.6-13,1.46-23.9.63-31.73-8.13-5-5.63-8.38-12.72-12.79-19.64l6.79-7.54c3,2.11,4.85,4.45,6.52,4.36,10.68-.59,19.38,3,27.11,10.31,2.23,2.13,7,1.42,9.59,3.39,7.74,6,17.05,2.27,24.87,4.75,9.06,2.88,17.62,5.16,27.86,3.23l5.54-9c-9.32-9.21-20.34-8.14-28.09-12.12l-10.14-10.12,15.6-6c.58-8.44-1.44-15.08-11-15.39-7.33-.24-9.78-4.66-11.5-10.09l5.2-7,20.2,7c4.58-5.22,14.39-9,9-21H2939.6c-13.18-4.85-20.91-9.64-25.22-19.48l9.34-7.48c13.11-3.35,22,7.93,33.28,14.74,5.71-9.25,13.45-12.06,23.34-9.89,2.93,5,9.66,7.13,11.32,14.88,1,4.48,7.54,9.17,12.6,11.08,12.06,4.54,20,13.64,28.43,21.92l11.08-5.32c8.34-22.85,7.68-29-5.07-47-10.74-15.22-19.51-31.83-28.87-47.35,1.91-3.71,3.78-7.37,5.41-10.54l23.87,12.88c1.47,16.74,8.63,28.29,25.71,31.56.86.16,1.34,2.29,2,3.43-1.9,5.23-3.77,10.42-5.65,15.62,2.53,2.26,3.94,4.38,5.87,5.11,11,4.1,23.15,3.56,33.6,10.65,4.07,2.76,11.57.45,16.06.45l26.59-14,43.35,5.81v-11.7L3171.5,1442c8.13-3.7,13.71-2.82,20.18-.9s15.32,3.85,20.51,1c6-3.26,11.18-2.47,16.73-2.77,8-.43,16-.11,24.08-.11,18.45-10.72,24.48-31.54,38.9-44.65,12.77,1.53,24-2.86,30.18-13,7-11.51,17-19.67,25.6-29.53v-13.13c7-7.37,14-14.23,24.79-15.87,3.79-.58,8-3.43,10.5-6.47,4-4.79,6.81-10.62,9.44-14.89h20.52l5.39,5.39c-2.59,14.58-16.11,18-25.93,25-9.36,6.69-18.21,13.53-24.16,26.27,5.3.25,9.91,1.94,12.05.33,12-9,25.22-16.87,34.23-29.48,3.71-5.2,6.66-12,11.75-15,17.41-10.3,28.85-26.81,44.18-39.8,13.94-2.29,13.94-2.29,14.36-14.13-8.58-7.92-15.38-15.48-23.43-21.28C3453.05,1233.07,3443.5,1228.79,3438.06,1225.75Z"/><path d="M847.26,907.66c8.16,10.15,17.51,19.17,25.36,29.39,7,9.17,14.87,18.74,14.62,31.72,5.72,5,9.25,13.92,19.6,11.27l15.07-14,52.55,40,3.84-3.32c4.66,2.83,9.08,6.53,14.16,8.22,3.13,1,7.29-1,12.7-2-10.89-17.12-26.65-24.21-40.71-33.27-5.16-3.33-11.78-4.69-16.35-8.57C932.62,954,917.83,940,902.63,926.52c-5.82-5.16-10.83-10.76-18.25-14.73-10.53-5.63-22-13.42-27.65-23.37-10.14-18-23.57-25.68-43.19-24.34-9.33-9-17.22-19.67-32.38-22.52-.42,3.58-.81,7-1.31,11.24,11.43,10.22,21.06,22.32,35.9,29.73A97,97,0,0,1,847.26,907.66Z"/><path d="M664.16,745.94c3.93,6.2,10.22,7.18,17.16,7.57L749.48,822,760,817c-15.49-17.91-29.43-31.81-40.66-47.63-11.37-16-29.36-24.63-40.91-40.13-3.93-5.28-8.55-10.89-14.17-13.83-6.58-3.46-13.22-11.46-22.69-4.86C649.27,722.58,656.74,734.24,664.16,745.94Z"/><path d="M784.17,937.2c3.69,4.77,9.94,8.38,10,17.13.05,7.29,8,9,17,7.37,6.05-15.07,24.41-26.59,16.37-48.38L802.43,907l-6.69-11.55c-8.4.17-18.06-2.11-20.19,10.71l14.84,15.42C788.17,927.1,786.42,931.53,784.17,937.2Z"/><path d="M576,633.83l7.68-7.71c-16.67-17.86-17.06-18.85-18-42.69-5.68-13.75-10.31-25-15.43-37.39L536,551.94c5.6,15.93,10.36,29.48,15.13,43l1.69-.57v23.88Z"/><path d="M2836.39,1770q-11.83,11.82-23.64,23.6c2.11,2.1,4.21,4.2,7.08,7.08h24.25l16.19,26h10.42v-17.5c-5.39-7.94-10.66-14-13.93-20.94C2852.4,1778.92,2846.6,1772.2,2836.39,1770Z"/><path d="M236.33,891.41c-14.52,5.23-30.19,4.41-45.49,11,2.24,3.63,4.38,7.07,5.88,9.49,20.36-1.09,39.57-2.07,58.78-3.22,1.18-.08,2.34-1.47,3.4-2.37s2.1-2.07,4.22-4.19C255.52,894,246.17,887.87,236.33,891.41Z"/><path d="M903.56,1096.15c-12.79-.82-17.22,4.1-16.32,14.77,6.3,8.19,12.91,16.79,19.12,24.85,12.72-7,5.29-17.83,6.86-22.67Z"/><path d="M591.89,647c2.87,13.21,16.23,12.68,21.62,21.1s12.86,15.78,19.68,23.92l8.42-7.8-33.07-39.14Z"/><path d="M1725.9,1949.65v10.68h25.83l16.89-25.6h-16.76Z"/><path d="M1910.64,1910.56c2.52,5.49,4.51,9.85,6.19,13.52,8.73,1.63,15.86,2.44,21.3-4.81v-20.84h-11.8Z"/><path d="M924.08,1128.05c-1.84,2-3.69,4-4.71,5.08l9.06,24.34h13.51c-2-8.62-3.65-16-5.52-24.22Z"/><path d="M834.1,959.23V980c14.83-1.68,17.94-4,17.42-11.91C851,960.79,847,958.65,834.1,959.23Z"/><path d="M943.15,1091.52h8.73c6.2-7.91,1-12.88-4.62-17.74C939.47,1083.88,938.59,1087.68,943.15,1091.52Z"/></g></g></svg>