<svg xmlns="http://www.w3.org/2000/svg" viewBox="0 0 3090 3508.4"><title>Asset 1</title><g id="Layer_2" data-name="Layer 2"><g id="Layer_1-2" data-name="Layer 1"><path d="M3062.79,1157.16c-16.1-21.59-32.57-42.9-49.5-65.13-20.32,12.18-39.56,23.62-58.72,35.21-23.16,14-46.33,28-69.37,42.24-28.84,17.8-57.48,35.94-86.36,53.68-27.39,16.82-55.06,33.17-82.44,50-28.89,17.74-57.43,36-86.4,53.62-20.9,12.7-42.48,24.3-63.36,37-29.67,18.08-58.89,36.92-88.48,55.15-27.37,16.85-55,33.17-82.44,50-28.88,17.74-57.5,35.91-86.39,53.64-8.47,5.19-17.46,9.52-26.24,14.25l-1.85-1.84c-9.17-9.25-9.38-24.43-21.12-32-10-6.42-19.64-13.56-30.14-19-15.29-8-26.5-18.69-28.88-37.5l47.56-47.12c-12.51-14.07-31.38-15.46-44.93-26.28-9.16,16.86-20.53,31.44-25,47.9-4.14,15.16-.88,32.33-.88,47.66,14.66,18.18,25.16,36.37,28.25,60.16,1.76,13.57,2,28.64,9.42,42,6.83,12.34,11.58,26,15.9,39.5s15.24,27,10.75,41.1c-3.22,10.12-14.2,17.76-21.46,26.19-18.78-4.9-27.51-21.38-42.57-32.74l-44.65,17.69-67-53.26a7.56,7.56,0,0,0-2.56,2c-5.43,8.56-2.5,24.45-12.15,26.72-17.46,4.1-35.75,12.27-53.64,7.3-10.94-3-19.91-13.21-29.62-20.08l-19.34,17.25c-6.25-18.17-6.25-18.17,7.55-34.59L1933.4,1583v-25l-57.15-64.86-29.68,44c6.68,15.94,25.92,26.44,20.8,50-9.75-3.71-18.73-7.36-27.87-10.54-7.14-2.48-14.52-4.25-21.72-6.56-14.51-4.66-22.41-10.43-42.87-31.26l38.68-24.67-58.95-85.47-19.56,10.07-90.49-67.39c1.8-13,3.79-27.4,5.8-42L1610,1300.37c36.83-10.59,50.27-38.37,63.6-68.47-12.39-16.34-32.61-23.69-48.71-36.08-9.6-7.38-19.2-13.27-23.39-26.55l98.57,36.79c0-15.76,1.26-31.07-.52-46-.93-7.8-6.14-15.84-11.33-22.2-7.84-9.6-17.36-17.82-30.38-30.84,18.62,5.15,30.91,11.64,43.64,16.62,9.66,3.79,19,6.56,29.82,7,28.21,1.11,56.35,4.1,85.5,6.42l62.48-62.49,24.67,22.74c7.26-5.51,15-11.61,23-17.33a78.42,78.42,0,0,1,13.1-7.66c8.58-3.89,16.25-2,20.19,6.21,3.61,7.49,5.35,15.87,9,24.13-2.39-6.75,13.19-9.08,3.19-17.7,1.65-1.19,3.15-2.78,5-3.51,14-5.54,28.11-10.79,42.06-16.43,3.91-1.58,7.4-4.17,12.68-7.22-7.47-7.46-14.5-13.84-20.74-20.91s-15.59-12-19.31-22.51l23.79-12.06c-3.6-20.16-15.62-37-24.24-55-9.08-19-8-39.87-16.14-60.2h-14.72l-66.08-81.29,17.83-35.1-56.35,18.9-28.22-49.19,24.71-1.91c-2.3-2.94-3.25-5.29-5-6.18-21.61-11.21-35.54-32.87-58.23-42.87-2-.88-2.54-10.19-.62-14,5.36-10.56,12.38-20.26,19.51-31.51-7-7-14.44-14.34-21.75-21.77-13.41-13.63-13.38-13.66-5.09-31.4,2.46-5.28,4.9-10.57,7.29-15.73L1761,560c4.16-17.29,13.11-32.67-2.91-48.41-8.88-8.72-14.08-21.19-21-32.08a154.22,154.22,0,0,1-70.6-20.39,236.91,236.91,0,0,0-41.35-18c-5.72-1.92-5.11-4.8-6.88-8.74-6-13.38-2.6-23.6,6.84-33.77,6.29-6.78,11.06-15,16.26-22.2l-34.7-43.55,42-42c-6-6.86-9.78-13.19-15.28-17-28.07-19.26-51.31-44.36-79.2-64-16.24-11.41-29.53-27-44.15-40.72l-7.07-7.07a12.48,12.48,0,0,1-5.62-4.29c-3.5-.91-7.21-1.52-10-3.47-7.8-5.45-16-10.87-22.22-17.93-16.09-18.32-40-28.22-56-51.87l1.12-.13a15.39,15.39,0,0,1-1.61-5.15l-.06.14-43.76-27.68c-2.25,3.07-11.71,5.39-3.93,15.17,3.21,4,2.44,11.74,2.47,17.77.21,32.57-.35,65.15.35,97.7.24,11-.16,25,6,32.39,12.24,14.77,6.3,33.62,15.48,48.18-4.19,25,5.84,48.88,6.05,73.74.15,18.13,6.87,36.11,4.86,54.76-.36,3.36,0,6.79,0,11.12h-30.91c-7.23,26.59,9.2,51.1,2.28,78.64l-70.76,95.85c-14.94-12.9-28.58-25.47-43.15-36.86-5-3.92-12.44-7.07-18.6-6.81-16.89.71-29.25-8.47-42.17-16.55-15.07-9.43-29.94-19-47.48-22.39-23,20.79-47.43,38.6-72.4,55.84-8.48,5.85-12.85,17.78-18.82,27.12-3.13,4.9-5.66,10.19-8.46,15.31-13.21-7.56-13.21-7.56-30.2-38.44,4.67,1,7.76,1.28,10.54,2.36,2.28.89,4.18,2.72,8,5.31l13.48-19.32c-1.22-5.15-3.36-14.21-5.25-22.22l23.35-23.34c-6.07-21.33-26.52-32.75-36.72-53.66l-17.94,14.76c-2.25-2-4.33-3.33-5.62-5.17-7.61-10.83-12.65-22.1-11.41-36.21.52-6-4-12.6-6.84-18.64-6.4-13.64-13.31-27-19.76-40.67-2.86-6-5.09-12.36-7.87-19.21l-13.91-1.63c0-4.11-1.81-10,.32-12.34,9.11-9.88,4.37-16.09-2.51-24.85-15.26-19.39-31.07-38.37-41.63-61.33-9-19.56-15.77-37.28.12-56.53,4-4.87,4.73-12.46,5.74-15.32L873,132l-14.94,15.4,17.31,26.24H843.93c-2.57-5.66-5.68-12.51-9.88-21.78l-45.37,7.46v24.09c-3.2.82-5.68,2.17-8,2-17.37-1.6-34.66-4.2-52-5.11-17.14-.91-34.38-.47-51.56-.08-7.56.18-11.53-4.11-14-9.86-7.56-17.9-20.13-34-16.92-55.7,1-6.68-4.07-14.26-6.41-21.56l-17.84,10.65c-3.81-6.91-12-2.81-16.42-6C588.15,85,567.14,80.86,548.27,71.8c-14.84-7.12-28.78-16.8-35.5-30.06C507.64,31.61,499.89,30,493.48,28.61c-28.93-6.26-56.26-17.77-85-24.34L389.72,0C364.3,24.73,343,50.5,323,77.33c-4.83,6.45-11.34,11.65-17.14,17.36-6.09,6-12.68,6-18.44.08-8.78-9-17.42-9.12-28-2.82-8.9,5.29-18.93,7.18-29.78,6.91-28.93-.72-58.44,3.22-86.68-1.25C116.25,93.39,90,94.06,63.57,93.24c-11.41-.35-21.3-1.33-26.95,14.24-4.49,12.38-17.39,21.56-25.86,32.7C1.56,152.27-4.1,165.1,3.63,180.81c2.91,5.9,2.33,13.42,4.2,20,3.52,12.25,9.91,23.41,17.39,33.42,14.59,19.54,30.12,38.42,46,56.94,7.21,8.41,10.12,17.25,11.1,28.14,1.59,17.83,4.26,35.57,9.42,52.94,1.77,6-.78,13.38-2.07,20-3.58,18.27-15.36,34.52-13.16,54.28.93,8.31,6.36,17.74,19.14,29.12L103,460.48c4.62,3.73,7.47,4.85,7.89,6.56,6.51,26.3,25.47,47.06,31.6,73.93,3,13.34,12.83,25.58,21.19,37.16,13.68,19,28.68,37,43.13,55.4-7,7-14.07,14.07-19.66,19.66-10.13,30.94-5.86,61.29-7.87,91.23-1.06,15.81-6.21,31.55-11,46.86-9.28,29.63-9.72,29.48-44.59,45.82-1.43.67-2.44,2.2-3.49,3.19,9,17.15,16.1,35.66,27.51,50.94,12,16.12,28.42,29,42.53,43.61,8.63,8.95,22.87.72,30.86,10.79,20.58-3,32.86,12.71,48,21.66,17.52,10.37,33.88,22.83,51.85,32.24A119.32,119.32,0,0,1,352,1022.77c10.69,11.06,22,21.49,32.51,32.73,17.54,18.83,35.08,37.7,51.65,57.38,6.39,7.59,12.55,16.89,14.6,26.32,5.06,23.27,16.41,44.1,25.07,65.72,5.1,12.72,7.19,24.41,8.16,37.37,1,13.79,3.54,27.45,5.23,41.19s-4.1,28.47,5.46,41.18c2.08,33.44-1.1,66.17-12.58,97.91-2.58,7.11-3.77,14.71-5.88,22-5.68,19.61-17.5,36.46-27.53,53.61-14.07,24-26.95,48.68-40.68,72.86-9.53,16.79-19.69,33.26-28.77,50.35-6.77,12.73-23.58,20-35.49,30.16-12.8,11-27.77,20.7-36.8,34.28-7.56,11.38-17.81,19.42-24.39,28.48L207,1729.14c1.83,6.46,3.85,12.64,5.3,19,1.82,7.9,6,11.73,14.55,12.15,15.65.77,26.78,8,34.71,22.54a131.46,131.46,0,0,0,48.07,50.34c9.64,5.8,18.36,13.12,26.21,18.82.75,3.81,1.58,5.56,1.33,7.15-5,32.31,10.56,60.43,18.12,90.22,5.81,22.89,18.6,42.44,33.31,59.24,26.64,30.44,41.15,65.77,51.89,103.62,3.91,13.75,8.76,27.22,13.87,42.93,4.85,1.58,13.11,3.55,20.68,7,3.61,1.66,7.95,5.89,8.43,9.44,1.53,11.2,5.75,20.95,10.43,31.09a20.39,20.39,0,0,1-2.42,20.14c-6.19,8.68-8.16,20.33-14.15,29.21-7.17,10.64-10,21.4-10.14,34-.1,8.26-3.72,16.48-5.69,24.44l37.78,37.29v34.73l-18.13,8.82c-1.18-3.46-2.12-5.71-2.71-8.06-4.37-17.47-10.95-32.46-30.81-38.2-9.45-2.73-17.77-9.4-26.53-14.25-3.64,13.05-16.59,19.42-24.68,30.83.93,3.55,1.59,7.83,3.16,11.75,3.9,9.77,3,9.22-5,22.34-3.1,5.09-4.22,15.33-1.15,19.4,6.06,8,1.56,15.1,3.65,21.16-7.54,6.11-18.14-3.64-21.81,7.91h26.09c2.57,10.17,4.94,20.82,8,31.27,6.56,22.58,13.92,44.94,20.13,67.62,10.46,38.17,18.7,76.87,31.08,114.62,10,30.44,15.38,62.35,23.42,93.46,5.9,22.79,13.45,45.17,19,68,6,24.61,14.12,48.62,19.25,73.53,4.73,23,13.48,45.12,19,68,5.38,22.12,12.59,43.68,18.52,65.61,10.32,38.21,17.72,77.17,31.24,114.58,5.72,15.81,6.94,33.24,12.56,49.09,8.93,25.18,19.48,49.8,30.13,74.33,3,6.92,8.06,13.3,13.33,18.83,14.34,15.06,30.22,28.73,43.79,44.42,24.42,28.22,55.81,45.64,88.6,61.52,9.85,4.77,18.7,11.56,28.34,16.81,4.34,2.37,11.66,6,13.92,4.29,11.48-8.85,24.14-4.49,36.1-4.73,32.55-.65,65.13.17,97.67-.44,11.08-.21,20.18,3.47,28.77,9.35,12.73,8.71,24.9,18.28,37.83,26.68,16.5,10.72,34.69,9.23,52.94,5.58,8.39-1.68,16.83-3.17,23.69-4.46,9.35,16.6,16.88,31.71,26.22,45.61,3.22,4.8,10.59,8.08,16.65,9.45,12.59,2.84,25.6,3.76,38.35,5.95,1.69.29,2.9,3.41,4.33,5.22h10.86c8.94-9.08,21.78-10.35,32.52-15.88,24.35-12.53,46.84-27.43,68.48-44.09,19.64-15.14,40.36-28.88,60.65-43.17,3.46-2.43,7.41-4.22,10.69-6.85,12.84-10.33,23.94-20.73,43.57-10.37,9.82,5.19,24.65.91,37.67.91,8.07,34,19,66.87,24.07,101.25-18.77,2.23-40.28,9.49-55,18.2h103.16c6-7.93,15.9-7.11,23.79-10.8,8.32-3.89,16.74-7.65,25.35-10.85,18-6.69,36.36-12.65,54.34-19.5,25-9.53,49.48-20.43,74.72-29.24,37.13-13,73.71-27.29,110.47-41.21,21.1-8,42.08-16.59,63.47-23.56,13.64-4.44,26.08-11.58,39.89-15.19,4.15-1.08,8.47-1.55,14.87-2.68-1.88-16.38,4.91-33.48-4.54-50.59-3.64-6.57,4.44-13.7,9.26-13,15.37,2.33,22.08-8.82,31-16.9L1991,3302.6q3.46-32.73,6.77-64.12l50.43-9.19c-14.81-13.87-26.8-29.35-46.21-38.89,7.77-12.7,15.34-23.89,21.61-35.76,4.31-8.17,9.8-16.57,7.51-26.66-1.07-4.72-4.42-9.22-4.4-13.81,0-4.77,3.64-9.41,4.36-14.3,3.46-23.63-4.49-44.79-18.48-62.66-9.54-12.2-12.14-22.25-4.29-35.61,3.33-5.65,7.72-13.78,5.91-18.68-3.32-9-4-18.22-6.33-27.2-3-11.41-11.16-24.47-8-33.74,4.17-12.3-.31-25.78,5.52-35.48,7.22-12-1-26.72,9.53-36.88-.15-25.29,12.69-48.54,11.31-74.23-.27-5,2.42-10.24,5-15.57a137.62,137.62,0,0,1-1.82-25.16,66.87,66.87,0,0,1,2.18-15.53,47.5,47.5,0,0,1,1.3-14h-2.45c5-15.51,10-29.34,14-43.43,8.25-29.11,19.33-57.36,25.18-87.25,2.54-13,8.81-25.2,13.12-37.86,3.72-10.92,10.06-15.21,22.5-17.11,20.56-3.15,40.38-11.13,60.54-17,23.39-6.8,46.76-13.7,70.24-20.22,29.2-8.1,58.69-15.23,87.6-24.27,3.8-1.18,7.2-2.76,10.44-2.81a36.5,36.5,0,0,1,6-3.26,47.88,47.88,0,0,1,9-14.44c-2.48-.09-4.93-.13-7.41-.23,15.65-2.64,23-15.49,33.46-24.43,10.62-9.08,22-17.31,34-26.71,20.93,16.77,46.85,6.06,71.86,9.93,22.51-36.52,44.32-71.9,66.11-107.31,2.2-3.59,3.82-7.59,6.35-10.91,7.08-9.27,9.13-19.52,10.45-31.14,2.46-21.67-4.69-42-6.74-62.87-.88-9-10-17.57-16.53-25.4-6.92-8.3-15.19-15.49-22.47-22.78-33.07-2.13-65.7-4.62-98.37-6.14-12-.55-23.86-1.05-36,4.6-10.5,4.86-23.8,3.28-35.39,6.34-11.32,3-22.56,6-31.72,15.33-53.34,54.14-107.72,107.27-160.75,161.7-14.34,14.73-25.47,32.65-37.66,49.4q-33.37,45.83-66.22,92c-14.37,20.21-28.33,40.72-42.42,61.14-8.68,12.59-19.9,23.76-24.66,38.63-8.2,25.6-23.3,48.11-31.56,73.86-3.94,12.29-4.24,24.87-8.26,37.17-11.56,35.31-13.58,73.23-27.48,108.11,2.23,22.13-9.94,41.61-11.69,63.18-.78,9.59-6.31,19-10.46,28.08-13.39,29.45-35,51.58-61.67,69.46-5.64,3.79-11.36,9.4-13.92,15.49-7.27,17.29-19.2,31.79-27.26,48.44-4,8.36-8.55,16.33-17.92,17-13.89,1-21.76,10-30.41,18.59-9,8.92-17.8,18-27,26.78-2.31,2.19-5.64,3.31-11.16,6.43.27-5.83-.82-9.95.75-11.79q21.59-25.2,44-49.69c24.14-26.29,48.72-52.16,72.84-78.46,17.45-19,24.81-44.12,38.36-65.53.84-1.34,1.43-3.9.73-5-11.36-17.4-1.89-36.74-6.25-56.32,3.17-2.6,6.39-5.81,10.12-8.24,15.23-9.9,19.53-26.23,23-42,3.55-16.06,3.72-32.84,5.93-49.23,1.13-8.38,4.07-16.54,5.14-24.93a139.11,139.11,0,0,1,4.75-22.41c4.64-15.6,4.35-32.64,6.3-49.07,4.54-38.06,12.69-75.22,27-110.94,8.41-21,16.87-42,23.5-63.54,10.43-33.87,27.86-64.52,42.71-96.32,17-36.52,17.85-36.2,54.44-54.75,9.69-4.91,19.67-9.28,31.48-14.81,0-31.88,1.22-65.18-.39-98.35-1.26-25.89,5.06-49.56,13.95-73.11.89-2.35,2-4.63,2.69-7,2.38-8.07,2.71-17.56,7.34-24,7.32-10.14,16.21-20.44,26.81-26.54,9.55-5.49,16.24-13.19,24.29-19.8s17.16-12.07,24.37-19.45c7.49-7.67,16.17-12.69,25.53-17.3,59.37-29.26,119.27-57.53,177.68-88.59,24.46-13,48.44-27.19,73.3-39.5,12.71-6.3,24.77-15,40.78-13.55,5.79.51,12.23-4.83,18.19-7.85q71.8-36.37,143.5-73c15.85-8.14,32.74-4.53,49.29-5.79a251.22,251.22,0,0,1,49.12-38.38c3-1.82,5.45-4.8,7.69-7.61,13.4-16.76,33-24.59,50.6-35.2,23.92-14.38,46.74-30.49,71.36-43.86,9-4.9,13.31-15.62,13.7-26.56.32-9-.71-18.17.28-27.11,1-9.45-4-19.41,3.34-28.47,5.47-6.74-2.39-18.16,7.3-24.06,3.05-29.73,19.82-56,21.72-86,13.37-7.82.36-15.35-1.18-22.27-1.33-6-12.56-8.84-9.38-17.48,2-5.43,6.35-10.39,10.65-14.51,9.74-9.31,14.84-17.8,6.84-32.06-6.1-10.87-1.52-17.29,10-25.16,14.86-10.15,29.62-20.48,44-31.25,6.49-4.84,10.84-10.79,9.88-20.39-1.89-18.91-.39-24.3,5.13-36.68,2-4.57,3.13-9.64,5.62-13.93s5.41-10,9.41-11.34c18.29-6.27,37-11.23,55.59-16.66V1179.1C3075.15,1178.94,3070,1166.9,3062.79,1157.16Zm-2450.4,721.5a127.58,127.58,0,0,0-20.69,15.39c-11.71,11.12-28.7,2.66-40.94,11.61-.41.29-5.59-4.4-7-7.47-2.11-4.5-2.25-9.93-4.3-14.48-9.71-21.53-11.16-22.58-35.51-28.66,7.68-16.88,22.84-21.15,34.27-29.72,6.75-5.06,14.49-8.78,21.4-13.64,3.64-2.56,9.07-6.16,9.23-9.5.78-16.57,14.64-23.3,23.4-33.87,8.91-10.78,17.47-21.84,27.72-34.7l-21.58-15.89h46l13.14,25.48c-14.88,28-41.38,50.18-44.49,84.67,14.45,6.39,26.26,1.65,38-4.23q15.71-7.87,31.61-15.33c17.72-8.31,21.33-6,23.13,12.92C674.18,1840.62,643.19,1859.48,612.39,1878.66Zm879.84-423.78L1457.15,1491l10.25,23.27-14.67-14.68H1414c-2.89-8.29-5.89-16.9-9.14-26.2-15.51-7.43-18.88,11.65-29.78,15.19-1.58-.43-4.27-.42-4.67-1.38-8.24-19.39-26.51-24.6-43.76-31.11-7.66-2.89-15.64-4.92-25.1-7.85,14-25.48,39.71-27.32,62.41-37.86-2.26-9.26-4.6-18.87-7.19-29.52h-23l-16.24-29.79c28.06-9.71,45.07-30.13,66.52-47.15,9.12,2.69,20.16-3.32,31.71,4.77,8.46,5.92,19.86-1.8,28.76-7.18,7.94-4.79,15.44-10.31,27.07-18.17-1.13,8.12-.56,12.28-2.29,14.94-5.66,8.67-12.16,16.8-18.14,24.87l19.74,20.57,28.56-12.14,25.38,25.5-51.09,8.62c2.66,13.16,16.24,23.8,14.45,40-29-8.22-48.24-26.44-59.73-52.89-15,0-28.44-.08-41.88,0-22.49.17-22.49.22-22.68,23.62,11,7.71,21.45,15.09,32,22.32,9.91,6.81,12.81,16.41,10.34,29.38l30.53-10.32c8.24,11.15-1.07,20.07-3.76,31.81,18.11-.48,34.39,2.27,52.28-2.9,15.56-4.5,33.56-.65,50.47-.07.62,0,1.09,4.5,1.92,8.17Zm145.08,1716.75c-14.11,22.94-26.19,47.08-40.84,69.58-8.12,12.47,0,28-10.47,39,3.92,15.29-3.66,29.25-6.08,43.61-2.59,15.26-4.73,32.15-21.06,45.38,0-7.2-1.87-13.37.35-17.11,6.32-10.66,2.47-22.66,5.75-32.9s2.26-20.92,5.41-30.2c4.68-13.81,2.4-27.84,5.39-41.1,2.86-12.7,10-24.74,16.77-36.17,7.81-13.16,17.61-25.13,25.91-38,3.56-5.53,4.39-13,8.45-18,12.14-14.93,25.27-29.06,38-43.5l2.66,2.28C1657.57,3133.59,1648.58,3153.31,1637.31,3171.63Z"/></g></g></svg>