<svg xmlns="http://www.w3.org/2000/svg" viewBox="0 0 3716.92 3197.36"><title>Asset 1</title><g id="Layer_2" data-name="Layer 2"><g id="Layer_1-2" data-name="Layer 1"><path d="M3571.17,2712.76c51.2-36.35-14.24-76.43,2.28-116.51-22-35-43.93-70-66.73-106.3l-19.92,19.92c-26.63-41.21-72-60.48-103.37-99.29-32-39.66-79-67.25-117.55-98.56-7.23-15.2-11-39.37-22.37-43.8-28.52-11.07-32.45-41.25-48.78-52.72L3143,2230.42c-14.71-45.05-52.93-65.85-72.57-90.25l-83.21-22.71L2959,2055.34c-14.85,8.41-23.26,13.18-38.4,21.74-16.32-33.28-31-63.22-45.69-93.16-21.82-35.93-62.61-57.85-76-96.87l-45.85,13.28c-27.66-24.86-44.7-57.84-72-52.78l-65.38-61.64,15.71-21.77-24.09-25.5c-8.65-34.73-19-60.66-20.91-87.19-4.23-58.06-2.36-115.56-13.84-174.22-12.5-63.83-2-131.07-16.54-197.14-12.34-56.18,4.73-115.81-15.58-174-10.57-30.28-6.28-68-.7-101,6.39-37.79-16.94-67.84-17.45-103.41-.83-58.15,2.24-115.55-12.57-174.4-13.9-55.25-3.86-115-15.45-173.67-12.59-63.75-10.52-131.38-14.8-197-5-76.12-20.69-150.71-21.7-230.48-14.18,0-27,1.55-39.24-.25-72.26-10.58-141.42,17.06-213,16.25q-164.55-1.83-329.15.16c-34.71.41-70.66-9-104.06,14-9.77,6.72-29.76.05-44.69-2.6-14.26-2.52-28-11.19-42-11.33-104.49-1-209.23-5-313.41.72-103.5,5.68-204.18-19.69-307.08-17.89-47.43.83-94.84,6.67-143.32-12.38-31.68-12.45-72.37-.31-108.75-2.94-34.61-2.49-69-14.82-103.25-14-69.23,1.55-135.43-28.63-205.16-16.92-4.64.78-11.73.43-14.36-2.44-23.8-25.91-54.26-7.57-81-13C382.73,58,356.34,51.08,329.52,48.08,271.74,41.62,212,43.87,156.45,29.5c-32.57-8.42-63.82-9.94-95.91-14.11C40.18,12.73,22.82-11.75,0,7,20.2,45.71,25.53,92,60.8,122.73c6.87,6,7.67,19.07,14.63,24.8C118,182.66,128.86,230.16,123.93,288c46.28-16.29,79.28-47.91,121.43-36.63l56.52-107.89,100.8-30.71,66.77,66.13v67l78,76.42v52.34c70,42.86,105.92,113.8,133.29,190.61C688,585.76,696.07,606,704,626.18q35.79,91,71.8,181.83l7.31-1.86V873.4l25.48,9.11c8.66,37.16,16.45,70.56,23,98.64,67.56,64,162,84.06,215.74,163.24,20.52-3.5,39.23,5.38,50.37,35.45-24.73,41.07-16.39,90.05-17.33,138-.41,20.89-.07,41.8-.07,62.69,5.23-4.1,14.73-8,15-12.35,1.43-25.56.7-51.24.7-86.7,14.64,8.43,23.87,12.2,31.15,18.3,9.92,8.3,18.36,18.38,28.33,28.63l-75.16,83.48c12.55,33.21,38.37,8.38,56.43,14.13,36.59-36.2,36.59-36.2,57.85-39.66l-73.6,73.6h-52.85c-6.38,20.52-12.79,41.11-19.16,61.43,9.27.41,18.51,1.09,31.07,2-.73,11-1.29,19.43-2,29.91l-36.91-23.86c2.62-2.78,5.24-5.55,7.83-8.06-9.29.26-18.56.26-27.36.26,10,28.58,18.65,53.49,28,77.58,5,2.83,9.25,6.47,13.52,10.11l-4.94,5-10.93-12.82a31.8,31.8,0,0,1,2.35-2.24c-29.53,12.72-14.67,30.83-8.42,51.91l40.58-20.23,30.84,17.54,31-16.34c-.92,13.73-1.26,18.79-1.53,22.73l-97.42,29.11c5.46,18.47,6.22,32,12.83,41.51,28.35,40.66,58.33,80.19,88.15,119.81,1.46,1.93,7,.77,13.47,1.27v-41.85l102.57-93.41c6.28,12.73,13.2,26.78,20,40.53l-28.92,28.43v29.09c12.12,23.62,18.09,35.27,23.73,46.28L1315,1834c54.6,21.89,74,70.89,100,122.4l-34.48,4.59c-1.4-16.16-2.47-28.51-3-34.52-20.49-22.93-37.72-42.2-53.55-59.9-18.59,0-34.42,1.54-49.78-.5-12.15-1.61-23.71-7.63-37-12.21v59.75h22.29c32.42,28.9,10.19,82.62,49,109L1338,1993.1l38.63,58.11-44.1,7.44c-4.45,27-.78,46.93,18.72,53.86L1393,2099c-7.06,19.19-11.52,31.28-17.21,46.74h52.78c-5.48-21.65-9.94-39.23-17.67-69.71l48.82,43.35,42.67-60.16c1.37-17.65,2.69-34.63,4-51.62l10.39-1.79,22.82,50.71-61.37,65.5,32.86,18.88,53.18-7.64q.81,4,1.61,8l-35.17,16.58,50,86.9c-54-4.82-44.54-70.13-79.83-75-37.36,6.45-44.23,35.81-63.26,53.06-21.13,19.14-41.85,38.73-64.9,60.12l27.39,74.09,45.13-61.07c9.52,15.83,16.07,26.72,21.59,35.92l-48.47,31.46,84.6,43.77c-26.48,36.2-68.81,38.47-108.82,44.54l22.85,27.12c48.75-3.56,97.72,9.4,146.59-21.39,1,15.22,1.53,24.13,1.88,29.59-15.36,14.92-41.72-6.72-46,21.13l-75.69,6.38,71.74,29.32c2.11-12.13,3.3-19,5.84-33.62l44.35,13.78,58.09-19.24c8.32,17.22,12.7,31.76,21.52,42.73,6.53,8.1,18.86,11.55,27.09,16.21-5.26,10.91-7.62,15.83-14.77,30.67l60.45-26c7.11-21.88,13.77-42.4,20.51-63.18l-12.4-23.64,11.44-7.08,32,42.52c-21.58,13.86-14.39,35.68-15.24,55.3,30.5,5.47,9.87,29.31,15.63,43.68,2.59,6.47,4.58,13.18,6.46,18.67h48.75c25.7-21.33,35.94-43.85,11.34-67l18.74-57.46,28.12,23.39-16.1,32.25c5.57,7.84,9.82,13.81,15.86,22.29q-23.94,37.15-46.88,72.77l34.44,17.43c22.61-14.32,45.12-29.43,68.67-42.68,4-2.23,12.43,3.56,24.1,7.38l-50.83,32.1v100.83l35.21,46.33h32.83c18-30.81,34.93-59.71,52-88.89l-15.34-19.65,37.61,2.14c-3.63,42.81-32.51,79.41-13.46,120.3l22-10.62,22.9,27-23.26,39.47,32.23,28,7.2-47.11c31.45-.77,41.41-25.76,62.69-44.67-5.15,33.23-10.29,66.47-16.36,105.65l59.29-9.89,21.06,14.27c13.52-18.63,25.12-34.59,36.71-50.55l7.72,3.26c-5.29,22.55-10.59,45.1-16.38,69.76l22.06,4.64c10.88-21.63,21.29-42.32,31.71-63,4.95,17.89,1,33.27-2.44,48.74-.79,3.51-.11,7.35-.11,12.1h35.53l42.82-48.14c-7.78-14.32-13.83-24.6-19-35.29-4.23-8.63-6.14-18.68-11.5-26.41-6-8.61-14.71-15.31-33-33.58,54.82,7.4,66.53,42.53,89.95,58.05-5.85,83-40.37,126.18-99.55,115.81-34.67-6.08-73.23-7.45-104.53-29.29.5-.51,1-1,1.51-1.51L2200,2950l-4.95,4.94,12.81,10.93,1.2-1.2-15.38,30.77-1.5-1.49-12.81,10.93,5,4.94,10.93-12.81-1.28-1.28c53.62,21.95,110.91,20.79,165.22,13,28.87-4.15,57.79-12.11,87.91-13.36,110.2-4.6,220.35-10.22,330.52-15.4,5.21-.25,12.34,2.2,15.38-.37,34.05-29,74.36-9.9,111.36-15.3s73.91-11.65,111.08-15.46c60.43-6.2,123-3.22,180.83-18.71,35.49-9.52,69.09-12.55,104-12.43,35.56.12,68.21-14.52,102.73-19.6,42.45-6.24,86.83-3,126.67-14.25,58.11-16.41,117.87-15.75,175.59-29.68,3.07-.74,5-6.22,11.7-15.14l-63-22.6C3642.37,2770.75,3593.79,2754.87,3571.17,2712.76Z"/><path d="M2046.8,3016.18c-18.73-27.95-50.74-59.42-81-64.51-53.51-9-84.39-41-117.82-75.16v-47.28c-46.28-37.21-70.35-89.14-95.11-149.48-33.66,12-60.79-6.78-90.22-18.66a150.07,150.07,0,0,0-42.68-10.2c-83.74-7.21-161.43-27.82-213.44-88.64l-73.67-23.44-44.57,25,39.86,55.45h34.18l-1.42,1.42,10.93,12.81,4.94-4.94L1364,2617.59l-1.09,1.08c-4.33-9.47-8.6-18.81-14.75-32.24l72.68,21.7c7,23.67,13.75,46.23,21.34,71.79-23.43-11.33-41.74-21.16-60.92-28.74-4.69-1.85-12.28,3.65-41.67,13.61l50.64,20.29-13.52,38c24.06-13.91,43.52-18.28,62.86-3.14,1.82,8.74,3.3,15.87,4.58,22l47.63-18.32c-6.12,28.39-9.93,46.07-15,69.58l74.81-9.9,40.9,51.82,16.61-11.85c4.73,13.76,7.74,22.51,9.43,27.44l43.53-12.72c-2.26,15.13-3.31,22.24-4.74,31.82h-55.14l-29.54,48.81,72.38-10.31,74.28,46.35,36.25,87.24,71.4-27.35,43.65,26.27-37,42.42c36.82,32.84,77.08,55.06,125.09,61.55,34.62,42.7,93.8,24.41,132.7,52.59l41.45-38.52-23-8C2088.16,3102.94,2073.25,3055.69,2046.8,3016.18Z"/><path d="M779.67,1681.71H733.88v53.7l-38.1,56.86-55.51-29q-1.56-9.27-3.14-18.52c30.47-3.24,60.72-6.94,82.53-28.38,3.43-25.67-4.24-45-30.31-53.61-20.52-.66-25.06,28.64-54.89,30.09,9.45-18.06,14.91-28.52,20.9-40l-57.05-17.34c-7.26,25.89-14.49,51.67-21.3,75.92L613.4,1760c-8.42,9.09-13.64,14.74-18.81,20.33,35.75,14.94,61.38,40.64,82.67,75.16l-34.87,18.73,5,10.72,79-21.05C745.6,1798.14,762.48,1740.44,779.67,1681.71Z"/><path d="M1214.37,1913.63l-37.43,58.73,28.82,9.78c0,12.12,1.93,23-.66,32.6-1.8,6.72-9.8,11.78-14.5,17l21.83,21.83,30.51-47.24,19.08,17c22.92-44.47-13.07-74.36-25-109.74Z"/><path d="M737.8,1989.51v-56.44l34.07-11.27c-9.43-14.64-17.22-26.7-27.89-43.25l-22.93,32.25-63,7.44q.27,4,.53,8l48.08,6.83c-7.33,19.28-13.59,35.76-21.43,56.4Z"/><path d="M1050,1771.68l.59-.59q-5.46-6.42-10.93-12.82l-4.94,5,4.94,4.21c20.41,40.64,34.68,72.28,52.59,101.66,4.65,7.63,21.54,7.82,32.8,11.43C1104.73,1841.6,1092.88,1800.83,1050,1771.68Z"/><path d="M990.86,1800.5c2.83,30.48,49.33,92.55,93.82,121.64-14-27.64-18.73-43.77-28.72-55.46C1036.88,1844.34,1014.84,1824.54,990.86,1800.5Z"/><path d="M1736.31,2565.76c-10.57,56.09-66.14,18.37-71.19,64.69l71.19,14.58Z"/><path d="M1519,2846.53c14.69,9.86,22.73,38.08,50.66,13.24-7.35-11.56-14.82-23.32-24.25-38.14Z"/><path d="M750.33,2010.58c-1.1-6.82-9.74-12.41-15-18.55,0,14.76-1.62,29.78.71,44.17,1.1,6.81,9.74,12.4,15,18.55C751,2040,752.66,2025,750.33,2010.58Z"/><path d="M1218.33,1806.6h-27v17l31.92-10.14Z"/><path d="M1393.92,2211.55l31.36-31.36h-31.36Z"/><path d="M1350.84,2363.43c-1.88-5.24-6-16.74-13.83-38.62C1334.42,2367.36,1334.42,2367.36,1350.84,2363.43Z"/><path d="M1213.91,2079.94l-33.08-20.66C1175.88,2083,1175.88,2083,1213.91,2079.94Z"/><path d="M1064.67,1411.67l-1.45-1.45-12.81,10.93,4.94,4.95q5.48-6.4,10.93-12.82l-1.42-1.42h15.46V1380.5C1057,1381.84,1066.89,1399.79,1064.67,1411.67Z"/><path d="M1005.84,1568.66V1600h7.84v-31.36Z"/><path d="M1471.89,2159.88l-1.38-10.12-30,2.57.69,13.55Z"/><path d="M1386.62,2211.55c-2.69,9.45-5.37,18.89-10.8,38,12-10.67,17.9-13.78,17.58-16C1392.34,2226,1389.06,2218.85,1386.62,2211.55Z"/><path d="M1335.12,2258.59H1343v-31.36h-7.84Z"/><ellipse cx="1613.44" cy="2580.03" rx="22.17" ry="5.54"/><path d="M1242.35,2054.75h5.23v-15.68h-5.23Z"/><path d="M1252.8,2096.56h15.68v-5.23H1252.8Z"/><path d="M1299.84,2107h-15.68v5.23h15.68Z"/><path d="M814.92,2147.45q-2.89-14.77-5.78-29.55L799,2119.28l2.58,30,12.16-.62c-.55.54-1.09,1.08-1.63,1.63l10.93,12.81,4.94-4.95-12.81-10.93Z"/><ellipse cx="978.4" cy="1701.95" rx="11.09" ry="3.7"/><path d="M697.61,1755.38l4.94-5-12.81-10.93-3.06,3.07Z"/><path d="M1001.92,1783h15.68v-5.23h-15.68Z"/><path d="M1446.19,2399.71v15.68h5.23v-15.68Z"/><path d="M1200.54,1882.27v-15.68h-5.23v15.68Z"/><path d="M1164,1929.31h5.23v-15.68H1164Z"/><path d="M757.43,1946.43l-4.94,5,12.69,10.82L776,1974.9l4.94-5-12.69-10.82Z"/><path d="M765.08,2071.85,776,2084.66l4.94-4.95-12.81-10.93Z"/><ellipse cx="1950.56" cy="2862.27" rx="3.7" ry="11.09"/><ellipse cx="2028.96" cy="2862.27" rx="3.7" ry="11.09"/></g></g></svg>