<svg xmlns="http://www.w3.org/2000/svg" viewBox="0 0 3601.19 3491.12"><title>Asset 1</title><g id="Layer_2" data-name="Layer 2"><g id="Layer_1-2" data-name="Layer 1"><path d="M3590.66,2304.92c.39-21.22-12.1-39.93-11.83-61.28.08-5.53-3.88-11.1-6.76-18.69-20.14,1.83-40.07-6.27-61.69-6.76-23.1-.53-41.15,7.76-57.83,20.55-24.18,18.54-50,34.8-74.12,53.09-20.22,15.34-41.51,29-62.1,43.62-19.17,13.64-40.73,23.47-65.37,21.14a316.35,316.35,0,0,1-38.66-6.27c-9.39-2.08-18.59-13.68-29.61-33.87-4.9-9-9.83-17.95-14.9-26.84-.88-1.53-2.53-2.63-4.83-4.92l-59.79,6c-9.66,14-18.1.28-24.38-3a282.28,282.28,0,0,1-49.6-32.81c-12.58-10.49-25.42-14.39-41.27-13.93-26.57.76-53.19.57-79.78.09-19.7-.36-38.24,7.19-58.29,6.27-15.54-.71-29.29-4.21-42.11-11.78-27.33-16.13-54.34-32.79-81.29-49.54a96.42,96.42,0,0,1-16.57-13.09c-21.58-21.22-42.26-43.4-64.55-63.84-10.88-10-18-22.3-22.43-34.87-7.65-21.68-16.73-42.62-25.8-63.65-3.35-7.77-6.72-16-7.64-24.27-2.88-25.87-12.95-49.93-19-74.93-6.39-26.41-12.85-53.2-21.58-79-6.33-18.71-9.84-38-15.61-56.74-9-29.41-15.77-59.52-23.82-89.24-4.67-17.27-10.37-34.27-14.94-51.57-4.17-15.77-7-31.92-11.26-47.65-4.26-15.57-10-30.73-14.45-46.26-4.71-16.45-8.81-33.08-12.91-49.69-7.79-31.51-15.26-63.07-25.81-93.86-5.54-16.15-8.6-33.14-12.77-49.76-7.87-31.47-15.17-63-26-93.75-5.71-16.08-8.39-33.22-12.5-49.87q-6.47-26.2-13.07-52.38c-1.32-5.23-3.2-10.47-4.86-15.71-4.65,1.48-9.91,1.11-15.3-2a.19.19,0,0,0,0,.08c-11.75,1.49-22.84,1.34-34,5.07-13,4.38-27.25.24-39.68-9.13-16.48-12.42-33.63-24.62-52.14-33.42-13.41-6.38-23.55-15.31-33.52-25.26q-42.81-42.7-85.45-85.59c-6.76,7.42-14,8.89-20.85,1.2-11.23-12.67-26.3-21.82-33.5-38.35-2.39-5.48-8.75-9.23-13.29-13.77Q1972.83,874.29,1912.5,814c-.59-.59-1.07-1.29-3.74-4.52h.45a23.3,23.3,0,0,1-1.52-3.19c-.47-.42-1-.81-1.39-1.26a26.51,26.51,0,0,1-13.42-1.82h-15.2c0-25.85-4.11-53,1.26-78.14,4.58-21.39-2.68-38.89-8.09-56.22-13.1-42-28.7-83.39-43.2-125-6.64-19.1-16.68-37-22.77-56.62-1.79-5.76-4.22-11.27-4.24-17.39-.11-23.84-.19-47.67,0-71.5.11-12.4.39-12.4,17.49-21.3-6.38-34.14-24.48-64.19-36.61-99.68l-23.18,20.08c-13.17,0-27.8-.59-42.37.15-17,.86-32.58-4.74-48.48-9.23-6.63-1.88-13.94-1.74-20.27-4.22-7.67-3-11.53,3.49-17.29,4.87a104.39,104.39,0,0,1-18.07,2.84c-35,2-70.42,1-104.8,6.59-21.5,3.49-42.6,3.13-63.87,4.7-8.49.63-16.75,4.16-25.25,5.11-8.15.91-16.63-.8-24.7.39-23.66,3.48-42.06-9.32-60.45-20.08-8.85-5.19-17.75-10.26-26.84-15.08-12.8-6.8-25.22-14.32-38-21.26-18.81-10.25-18.91-10.94-43.58-9.47-10.48.62-19.48-2.33-27.47-7-23.56-13.83-48.66-24.14-73.72-34.59a36.78,36.78,0,0,0-12.59-2.7c-11-.37-22.11-1.15-33,.09-22.67,2.6-43.31-4.86-64.16-11.41-3.94-1.24-10.3-5-10.17-7.36,1.13-20.19-15.81-30.64-24.49-45-12.23-20.2-28.85-37.81-44.16-56-7.39-8.81-16.34-15.82-26.59-21.79-21.55-12.56-41.47-28-63.42-39.74C836.21,12.62,830.31,7.82,826,0H809.27a21.49,21.49,0,0,1-10.6,7.9c-.62,5.38-.37,10.38-2.69,13.39-26.83,34.88-55.7,68.28-81,104.17-28.66,40.59-60.17,79-88.7,119.71-13.49,19.25-29.29,37.5-44,56.29-13.53,17.34-29.08,33.46-40.29,52.19-10.76,18-25.39,32.78-36.22,50.78-12.62,21-31.12,38.36-45.84,58.22-24.93,33.63-51.44,66.08-74.69,101-8.31,12.46-19.22,23.17-28.47,35.05-14.51,18.65-28.68,37.59-42.9,56.48-13.66,18.15-27.77,36-40.66,54.7-29.38,42.62-69.27,75.7-102.61,114.52-38.67,45-83.09,84.11-122.86,127.78-15.54,17.07-27.83,37.12-47.75,50v985.64c21.17,1,32.66-11.72,33.75-32.79,1.13-21.91-10.22-42-5.29-66.09,3.34,1.08,9.57,2,9.64,3.27.68,12.33,8.07,23.11,6.51,36.3-1.07,9,3.12,18.6,5,27.93s-1.26,18.55,4.12,28.68c4.54,8.54.94,21.4.94,32,9.9,8.2,18.78,16.95,29,23.64,12.31,8.05,24.46,15.43,41.37,13.78,17.36-1.7,35.17-2.39,53,4,8.52,3,16.53,4.44,22.84,11.59,7.36,8.34,17,11.6,28.28,11.57,4.9,0,9.76,2.84,14.73,4,8.92,2.17,16.06.72,24.64-4.86,17.89-11.65,36.81-27,59.59-20.69,16.09,4.46,31.58,4.12,45.82,4.68,22.16,22.15,43.46,43.46,64.38,64.38-4.9,15.1-10.33,31.86-17.48,53.91,29.31-17.74,54.16-31.9,77.95-47.67,8.37-5.54,13.37-6.32,21.12.25,17.48,14.82,35.65,28.84,53.76,42.9,4,3.1,8.74,6.65,13.44,7.15,22,2.32,44.1,3.64,65.34,5.26l61.88-54.1,25.32,32.6h77.94c9.18,0,18.69-1.5,27.43.44,8,1.79,16.88,5.72,22.47,11.5,10.17,10.51,17.69.43,27-1.06l6,12c9-17.49,25.08-10.43,38.67-12.08,2-5.69,2.75-12.13,6-16.78,15.51-21.88,26-45.17,24.33-67.63l40.24-40.26,18.33,22.15c8-4.92,14.79-8.54,20.9-13.13,5-3.74,7.12-8.84,8.79-15.63,6.5-26.36,15.09-52.21,22.73-77.68h14.15c6.56,25.68-17.72,46-14.46,74.65,18.73-27.14,35.71-51,51.72-75.44,4.34-6.64,4.71-14.9-1.12-22.3-3.12-4-6.54-8.72-7-13.42s1.58-10.29,4.1-14.56c3.57-6,7.81-2,13.23-.88,23,4.89,40.55,21.82,63.54,26.71,4.79,1,9.92,3,15.06,3.05,15.6.26,31.23-.45,46.79.26,14.39.66,26.93-8,41.82-6.07,14.44,1.86,30.39,3.77,43.7-.51,14.45-4.64,23.68.26,34.84,6.25,15.69,8.41,32,15.64,50.34,24.46-.17,10.36-1.22,23.16,5.89,33.64a239.7,239.7,0,0,0,21.35,26.93c24.44,26.69,49.28,53,74.76,80.33,25.62,0,52.25-1.63,78.59.46s49.2-14.72,77.61-10.86c.2,9.85.49,20.48.6,31.1.11,10.09,0,20.19,0,30.7,21,23.08,41.75,46.75,63.48,69.53,8.64,9.06,10.84,16.85,5,28.54-5.59,11.31-6.4,24.56-13.08,35.91-2.38,4-.38,10.65-.38,15.29l53.62,20.08c5.3,29.44-.34,57.56-13,88.66,26.09-3.58,48.33,3.45,70.45-4.4,2-.7,5.23,2.1,7.84,3.36,24.48,11.79,49.15,23.2,73.35,35.54,14.46,7.38,27,11.32,44.08,3.7,22.36-10,46.86-13.22,72.22-12.18,41.22,1.7,82.57,1,123.85.31,36.9-.57,73.46-8.27,110.6-5.65,4.59.32,9.46-3.4,14.74-5.45l19.88,22.19h84.43l44.12-35c16.23,20,35.56,35.44,51,55.82,18.13,23.9,41,44.68,63.88,64.33,13.31,11.41,30.8,18,47.92,27.53v14.76c27.2,31.34,52.81,61.25,78.91,90.72,7.3,8.24,5.34,15.58,1.93,24.49-7,18.23-13,36.84-19.14,55.38-.81,2.43-.11,5.36-.11,10.41-14.68,0-29.09-.45-43.46.14-12.6.52-17.75.11-24-4.27-12.09-8.46-24.05-17.12-36.41-25.16a24.63,24.63,0,0,0-12.18-3.58c-15.55-.41-31.11-.17-48.11-.17-5.84-10-10.87-21.2-18.24-30.59-15.83-20.14-29.73-42.23-53.83-54.58-9.31-4.77-12.8-19.05-25-19.07-10.25,0-21.54,1.23-30.46,5.71s-18.27,4.76-31.59,5.31c27.41,37.95,57.1,68.5,86.31,102.69,3.43,8.26-3.32,20.13,4.35,31.27,6.33,9.17-3.79,23.34,6.21,33.18-12.9,16.23-25,33.48-38.54,49.17-15,17.4-10.41,34.53-7.83,52.78.34,2.43,3.16,4.89,2.79,7-3.91,21.84,5.42,42.33,6.4,63.78a353.25,353.25,0,0,0,5.75,47.13c2.94,15.92,1.16,32.46,5.55,47.15,3.73,12.5,3.49,24.32,4.68,36.53.39,3.93,2.81,7.66,4.72,12.56l-79.78,71.65H2330.6c-.72-4.09-1.62-9.13-2.78-15.71l-15.31.67c2.09,7.48,14.66,2.65,11.25,13.2-1.4,4.32-3,8.84-3.05,13.28,0,4.13,2.36,8.22,2.92,12.43,3.64,27.07-7.15,53-6.59,79.88,0,1.27-2.42,2.6-4.27,4.44l32,16.06c4.46,16.91-4.68,36.68,7.61,54.91l-76.91,38.67c-1-9.37-1.76-16.77-2.53-24.16-2.66,13-6.92,23.19-16.92,32.76-12.72,12.16-12.31,24.16-3.87,38.78v-16l4.27-.87c6.42,14.27,12.85,28.54,20,44.35,30.08,0,61.09.18,92.08-.09,11.51-.11,15.3-4.49,15.81-16.43.2-4.57-.72-9.34.25-13.71.9-4,2.82-8.55,5.78-11.2,7.16-6.42,15.18-11.86,22.85-17.7,15.35-11.68,30.65-23.41,46.08-35,2.7-2,6.37-5.28,8.84-4.7,15.93,3.69,19.92-8.43,25-18.42,12.83-25,22.11-51.89,39.81-74.34,9.75-12.36,19-25.15,29.86-39.71,5.57,0,12.67-.31,19.73.05,46.2,2.4,91.76-7.59,138.1-6.46,22.24.55,44.32-9.31,63.18-29.46-9.77-1.85-17-3.08-24.2-4.63-6.76-1.45-13.45-3.24-21.65-5.24v-17.87c32.28-10.7,65.17-23.86,97.94-37.58,31.26-13.08,62.26-26.87,93.86-39.13,7.16-2.78,17.59-5.37,23.24-2.2,15.78,8.86,31.37,2.42,46.4,5.24,4.4-13.64-1.21-26.12,6.49-38.23,5.69-9-.58-21.05-10.42-24.85-14.29-5.5-17.87-17.1-23-28.95-5.68-13.17-12.57-25.83-19-38.9-10.06,11.42-28.86,14.94-35.92,33.76-2.51,6.69-15.13,12.18-23.76,13.26-9.7,1.21-18.56,4.3-27.86,6.22-7.6,1.57-15.06,2.62-22.7,4.81-18.39,5.28-36.62.31-51.13-13.21-3.37-10,5.12-14.21,9.52-20.8,13.36-20,23.26-42.07,38.57-61.23,11.41-14.28,20.54-30.46,33.51-43.77,4.8-4.91,9.8-9.23,12.65-16.74,2.25-5.93,9.6-11.2,18-14.68,23.47-9.78,46.16-21.78,68.24-34.49,34.73-20,70.24-38.4,106.13-56.13,17.24-8.51,35.57-14.72,55-12.84,6.33.61,12.17,6.66,19.79,5,13.49-2.91,27-5.6,40.51-8.54,1.59-.34,3.08-2.52,4.44-2.37,27.19,3.07,41.79-18.91,61.42-30.8.41-.25.05-1.75.05-4.93l-44.06-19.69c3.1-6.41,5.3-10.95,7.68-15.85h27.68c12.69-12.68,24.67-26.69,38.77-38.07,9.72-7.84,18.75-18.61,33.92-17.61,14.7,1,17.23,2.92,18.63,19.42.21,2.53.69,5,1.57,11.27,2.28-5.19,3.51-7,3.81-8.94a51.64,51.64,0,0,0,.1-8c7.88-4,15.34-8.14,23-11.79,10-4.74,22.54-6.81,29.5-14.24,9-9.63,13.76-23.31,20-35.43,5.45-10.56,10.44-21.35,15.61-32,1.85-3.82,5.45-7.81,5.16-11.47-1.31-16.8,6.44-29,18.21-39.38,12.72-11.26,20.58-26,29.23-40.19,11.6-19.09,23.21-38.2,35.77-56.66,3-4.39,9.43-7.38,14.88-9,20.5-6,41.25-11.22,61.91-16.73v-60.57C3588,2325.3,3602.45,2309.42,3590.66,2304.92ZM1107.23,1752.64c1.93,13.93-8.29,21.52-14.09,30-7.79,11.38-18.94,8.65-37.53-5.17l-18.1,18.07c-16.54-5.32-20.94-16.83-18.54-31.61-14.31-.63-14.31-.63-31,10.55-.87-5.75-3.83-13-1.89-14.71,7.71-6.92,4.4-15,4.85-22.71l-27.67-14.35c11.42-14.37,21.8-27.41,32.91-41.38.68-25.49.68-25.49-10.94-41.14l53.9-43c26.34-.4,26.34-.4,50-11.55v75.56l21.89,20.47c-1.55,10.08-3.63,18.51-4,27C1106.34,1723.32,1105.24,1738.24,1107.23,1752.64Z"/><path d="M2328.89,2491.27l-5.49,6.54,10.31,3.15v57.59L2307,2584.4c-20.61-4.88-43.11-10.77-65.87-15.46-21.9-4.51-43.55-10.24-65.38-14.94-33-7.11-66.09-1.45-99.3-5.51v-24.28l2.22-2.27a20.88,20.88,0,0,1,1.93,1.95c6.28,8.12,8.85-3.94,15.61-2.73,14.17,2.55,29.17.05,43.75,1,17,1.07,31.05-3.33,42.94-16,8-8.57,18.41-12.42,30.75-11.87,20.35.9,40.6,1,57.06-14.92,2.28-2.19,12-1.07,14.1,1.69C2296.73,2496.56,2310.32,2498.57,2328.89,2491.27Z"/></g></g></svg>