<svg xmlns="http://www.w3.org/2000/svg" viewBox="0 0 1829.9 3577.52"><title>Asset 1</title><g id="Layer_2" data-name="Layer 2"><g id="Layer_1-2" data-name="Layer 1"><path d="M1825,3551.59c-.37-12.2.4-24.46-.36-36.63-.74-11.64-3.26-23.15-4.32-34.77-1.26-13.92-.69-27.64-3.81-41.81-3.91-17.77-2-36.69-4.76-55.28-4.16-28-3.75-56.67-5.26-85-.08-1.52.62-3.51-.11-4.51-6.78-9.35-5-20.11-4.21-30.22.82-10.69-3.8-20.13-4.63-30.21-1.34-16.2-.88-32.25-4-48.63-3.57-18.68-.39-38.35-4.9-57.62-3.14-13.4.44-27.65-4.42-41.73-3.3-9.56,0-21.21-.8-31.84-.73-10.12-4.46-20.19-4.1-30.18.92-25.56-8.44-50.36-4.91-76,.11-.74.34-1.77,0-2.25-7.19-9.24-3.56-20.05-4.62-30.2-1.15-10.86-3.6-21.6-4.37-32.48-1.91-26.83-3.19-53.7-4.7-80.56-.09-1.52.65-3.62-.11-4.49-8.66-9.93-2.78-21.75-4.45-32.55s-3.39-21.61-4.54-32.47c-1.39-13.13,1.38-26.23-4-39.59-3.45-8.53,0-19.64-.82-29.5-.73-9.36-4.54-18.69-4.09-27.88,1.26-25.6-8.07-50.39-4.92-76,.18-1.5.65-3.52-.08-4.5-8.08-10.82-3-23.23-4.5-34.83s-3.17-23.15-4.53-34.76.84-23-3.83-35.05c-3.86-10-1-22.61-.72-34,.3-11.13-6.42-20.81-5-32.5,2.92-23.14-7.82-45.71-4.3-69.08.12-.75.34-1.76,0-2.26-8-10.76-3.14-23.18-4.56-34.78s-3.59-23.13-4.44-34.77c-1.9-26.06-3.17-52.17-4.69-78.26,0-.77.3-1.74,0-2.26-6.41-9.35-5.13-20-4.3-30.19.87-10.67-3.58-20.14-4.61-30.21-1.79-17.66-1-35.26-3.9-53.2-4.82-29.37-4.29-59.67-5.29-89.59-.35-10.6-.93-20.53-9.11-28.63-1.26-12.77,2.83-26.67-5.1-36.75l-35.77-8.6,34.79-22.22c5.66-30.34-6.77-58.14-3.35-86.79.18-1.51.66-3.53-.07-4.51-7.54-10.06-3.26-21.66-4.54-32.52s-3.41-21.61-4.44-32.48c-1.74-18.44.1-36.75-3.75-55.55-4.25-20.78-.51-42.87-5-64.44-3.78-18-3.52-36.82-5-55.28-.12-1.48.44-3.67-.34-4.37-7.65-6.8-2.89-15.69-4.28-23.5s-3.7-15.48-4.4-23.32c-1.17-13.17-1.43-26.15-3.9-39.47-4.46-24-3.76-49-5.45-73.54-1.33-19.24-3-38.45-4.54-57.67-.06-.75.32-1.93,0-2.23-8.17-6.52-3.21-15.55-4.55-23.35-1.47-8.54-4.2-17.06-4.26-25.6-.07-9.85-1.85-18.66-8-27.6H1587.1l8.6-8.46v-25.88l13.83-9.21c-.57-16.19-2.33-32.34-3.82-48.5-2.93-31.8-.26-64.07-1-96.12-.76-32.22-3.18-64.4-4.34-96.61-1.46-40.44,3.69-81.2-6.25-122.13l-15.39-8.87-7.85,8.68c-10,2.48-19-10.9-29,0-2.39-7-4.64-13.63-6.86-20.15l28.13-13.55,8.68-24.58,7.5,21.15H1590c2-8.3,4.69-15.85,5.49-23.6a174.78,174.78,0,0,0,.14-27.46c-1.67-29.9,2.54-59.78-3.76-89.89-4-19-2-39.66-.38-59.37s-5.27-38.2-5.38-57.69c-.14-24.55,1.35-48.94-3.2-73.87-5.18-28.42.09-58.07-4.87-87.38-4.46-26.33.25-53.5-4.49-80.58s-1.51-55-4.37-82.83c-5-48.64-4.47-97.89-5.24-146.9-.21-12.65-3.31-23.84-7.06-34.86-6.68,1.69-12.17,4.23-17.68,4.29-33.59.37-67.23,1.24-100.77-.11-33.22-1.35-65.92,4.62-98.91,4.73-120.64.38-241.29.7-361.93-.16-41.35-.29-82.76,3.8-124.19-3.71-24-4.36-48.92-1-73.71-4.22-37.86-4.91-76.46.63-114.9-4.87C630,12.7,594,21.62,559.09,12.47,506.9,15.85,455.06,4.9,403,8.25c-19,1.21-36.77-5.22-55.4-5q-28.62.36-57.26-.12c-2.88,0-5.72-2.41-7.3-3.13-10,17-6.35,35.91-10.89,53.59-4,15.44-1.42,32.07-4.37,48.49-4.72,26.28-3.81,53.56-5.48,80.41-.63,10-1.82,20-2.83,30.75h25.42l6.79-12.15c7.2-3.9,17.89-4.17,21.26-15.09l-4.52-7.63,13.29-7.91v-7.69l21.06-21.18h29.54l11.56,22.09c2.85,0,6.65.48,10.25-.15,3.11-.55,6-2.36,9.38-3.78l7.35,21.43,20.92,3.33c3.83-3.62,8.57-11.89,18.75-4.65-19.59,14.2-39,28-51.83,49l8.53,9.42,68.57-4.88,18.47-25.06,33.26,4.27,17.88-11.93c21.78,7.33,45.72,2.69,65.13,15.76v36.59l-11.55,11.55c-11.06-.87-21.34.5-31.06,7.65-6.9,5.07-15.7,6.84-24.94,6.15-9-.67-19.11-2.11-26.92,1.14-14.29,5.95-27,3.23-40.59-1.57l-3.95,8.35-35.84,7-13-13c-3.93,9.86-14,15.06-24.25,22.09l-10.11-11.59-6.94-21.75H364.84c-3.33,6.12-12.31,8.41-11.37,18.3.26,2.77-4.85,8.17-8.17,8.79-16.29,3.09-31.58,11.17-48.83,9.63-7.56-.67-15.23-.11-19.9-.11l-32.33,14.42c-1.38,20.52-.19,38.84-4,57.57-4.1,20.08-.77,41.31-4.77,62.2-3.43,18-.59,36.8-4.71,55.36-3.64,16.41-.83,33.62-4.19,50.85-4.06,20.85-.61,42.87-5,64.46-3.65,18,.29,36.69-4.26,55.46-4.09,16.87-1.1,35.18-4.8,53-3.56,17.18-.68,35.17-4.38,53.12-3.82,18.58-.53,38.31-4.88,57.61-3.36,14.9.87,30.77-4.53,46.28-3.07,8.86-1.84,19.88-.21,29.53,1.85,11-5,19.83-5.07,30.23-.07,15.49,2.77,31.37-4.44,46.21,2,40-8.06,79.47-4.64,119.51.45,5.31,2.1,12-.35,15.76-5.57,8.44-3.2,17.21-4.27,25.85s-3.6,17-4.34,25.61c-1.33,15.43.67,30.78-4.07,46.4-3.39,11.19-.06,24.27-.83,36.44-.73,11.63-3.05,23.16-4.36,34.77-1.57,13.87,3.55,28.47-4.63,41.62.89,22.44-.89,44.64-4.36,66.86-2.49,16,1.89,32.38-4.22,48.68-3.27,8.7,0,19.68-.76,29.54-.72,9.36-3.47,18.55-4.27,27.91-1.4,16.18,2.82,32.89-4.72,48.49,3.25,25.61-4.86,50.54-4.6,76,.11,9.92,0,19.84,0,29.75l1.47-.39c1.32,4.7,2.63,9.39,4.37,15.62l-9.35,6.34c-2.44,16.25-4.48,29.81-6.65,44.21l17,.94c8.9,4.95,6.83,13,6.82,20.38l-22.81,22.81c0,6.72,2.33,14.8-.5,20.16-5.35,10.13-4.55,20.32-3.8,30.42.81,10.7-3.82,20.12-4.67,30.21-1.49,17.69-.47,35.27-4,53.22-3.92,20.14-.69,41.32-4.78,62.2-3.66,18.71-.41,38.25-4.48,57.69s-.39,39.74-4.56,60c-4,19.36-.17,39.81-4.73,59.94C94.06,2156,97.39,2174,93.62,2192c-4.21,20.05-.57,41.3-4.83,62.19-3.82,18.68-.61,38.2-4.35,57.69-4.16,21.65.06,44.43-4.92,66.78-3.65,16.4.56,33.69-4.36,50.88-3.64,12.7-1.09,27.3-.62,41,.49,14.17-6,27.16-5.16,41.66s4.28,30-4.1,43.89c1.39,24.74-1.43,49.21-4.45,73.71-2.09,16.86,1.91,33.85-4.06,51-3.56,10.21-.06,22.72-.82,34.12-.78,11.64-3.28,23.15-4.33,34.77-1.67,18.44-.09,36.76-3.74,55.54-4.34,22.35-.27,45.93-5,69-3.68,18,2.89,37.34-5.08,55.27,2,30.09-2.23,59.86-4.6,89.73-1.34,16.94,1.88,33.83-3.88,51-3.68,11-.09,24.24-.86,36.41-.77,12.39-3.19,24.67-4.34,37.06-1.85,19.95,2.2,40-4,60.14-3.64,11.87-1.95,25.93-.31,38.7,1.7,13.15-4.68,24.51-5.12,37.08-.73,20.78.38,41.36-3.48,62.42-4.39,23.9-.44,49-5,73.62-3.85,21,.67,42.88-4.4,64.6-3.69,15.81-.72,33.17-.72,50.56,22.25,1.88,43.64,1.22,65.09,4.31,31,4.48,62.73-.6,94.3,4.81,27.1,4.64,55.12-1.66,82.9,4.51,16.74,3.72,35,.09,52.53.86,17,.74,33.86,3,50.8,4.37,23,1.84,46-2,69.3,3.86,15.8,4,33.51,1.91,50.18.44,17.46-1.53,33.67,4.77,50.81,5.22,26.1.68,52-.65,78.43,3.23,31.62,4.63,64.28.61,96.52,5.16,27.3,3.86,55.14-1.71,82.94,4.33,17.5,3.8,36.62,2,54.79.35,19-1.72,36.68,5.47,55.41,5.14,37.4-.67,74.84.36,112.24-.35,37.56-.72,75,1.16,112.74-3.59,32.32-4.07,65.56-.84,98.4-.84h199.26c32.84,0,65.74-1.3,98.48.37,32.52,1.65,64.21-6.29,96.63-5.2,33.56,1.12,67.2-.38,100.78.41,38.45.92,76.41-8.1,115-5,3.55.28,7.44-3.71,11.28-5.77C1827.73,3555,1825,3553.33,1825,3551.59Z"/></g></g></svg>