<svg xmlns="http://www.w3.org/2000/svg" viewBox="0 0 3527.68 2274.77"><title>Asset 1</title><g id="Layer_2" data-name="Layer 2"><g id="Layer_1-2" data-name="Layer 1"><path d="M462.73,2186.47l16.68,45-35.47,5.3c4.17,11,7.66,20.12,14.46,38-35.8-22-45.8-50.16-58.19-82.09l-20.79,18.9,3.46,4.25L315,2250.62c-2.31-13.85-4-24.23-4.34-25.95l-43.82-49.38c-7-42.86-13.13-80.14-18.87-115.25-10.62,11.37-22.16,23.75-33.7,36.12l-9.21-5.5q5.56-27.6,11.14-55.2l-7-2.68-11.52,21.49c-24.55,10.54-11.55-38.63-39.36-19.2,7.92,17.56,15.9,35.27,25.06,55.57-11.75,11.81-15.79,32.2-40.71,20.5l14.11-15.76-43.16-27.06-12,10.63c-1.8-1.8-4.23-3-4.47-4.64-9.09-59.47-17.93-119-12.16-174.8L58.3,1849.84C97.54,1764.39,131,1675.27,209.48,1615c13-10,29.65-15.25,43.21-24.71,9.89-6.89,17.46-17.09,32.69-32.52H218.43c-20.54,17.09-46.17,37.25-70.43,59-24.94,22.32-46.75,48.48-73.23,68.63-24.31,18.51-32.82,55-74.77,62.64,36.81-62.51,95-96.63,137-145.51,45-52.43,108.57-73.37,166-111.13,9.11,18.6,17,34.65,25,51.14h37.2c13.86-56.9,80.82-50.9,119.16-97.34-36.47,7.26-57.4,28.28-82.32,34.49-26.3,6.55-52.48,11.72-81.19,29.78,5.08-29.33,20.59-39.36,39.37-50.52,66.72-39.67,136.12-73.67,205.7-107.86,43.05-21.14,80.35-54,130.84-58.48,17.41-21.37,45.12-26.29,66.21-41.37,41.88-30,85.62-49.94,138.52-55.5,45.48-4.79,89.77-21.86,134.29-34.53,19.2-5.47,26.4-14.68,44.71-47.21h25.4c1.26,5.21,4.95,11.39,3.42,15.73-6.69,19-14.89,37.51-23.58,58.72l11.24,15.73-29.54,14.71,38,26.08c2.53-7.19,5-14.1,7.4-21l41.9,13.24c14.22,22.27,55.28,33.5,51.55,78.44,21.87-8.36,25.36-23.16,23-37l-48.74-39.21c9.23-50.19,45.25-65.92,83.59-77.76,30.07-9.29,61.16-15.28,91.24-24.56,12.21-3.76,22.93-12.36,41.2-22.62,43.26-5.49,96.42,5.77,153.5-7l19,17.87c6.35-28.56,26.47-39.35,55-40.81-92.67-10.49-183.45-33.45-280.72-8.47l-44.61-23.12-18.76,13.16c-18.5-3.82-36.64-26.7-56.25-1.31-1.6,2.06-7.38,1.11-11.22,1.17-48.29.85-97.17-5.51-143.8,19.19l-23.36-32.24-10.76,10.76c-40.92-10.3-40.92-10.3-115.32,6.17-3.58,6.82-7.23,15.48-12.39,23.12-5.29,7.82-12.07,14.63-20.51,24.62l-37.45-29.06L792,1100.76c-17.63-24.12,18.36-43.21,7.12-64.9,18.26-12.82,43.94-9.1,48.43-34.91.28-1.63,2.27-4.05,3.71-4.24,71.75-9.63,105-84.76,172.64-101.43,1.65-.41,3.13-2.5,4.2-4.12,22.89-34.64,62.76-56.39,72.43-97.58h31.15c-4.29,10.8-7.9,19.89-14.6,36.79,26.09-12.45,31.7-26,27.77-47.7l89.43-73.57h69.45l33.92-29.24,38.74,41.56-4.67,4.56c8.11,4.07,16.24,8.08,24.31,12.22,16.4,8.39,34.28,14.82,48.78,25.74,22,16.52,34.68-9.34,53.23-8.43,31.64,1.56,63.41.43,99.91.43L1575.1,802.1h115.73c.61,3,1.21,6,1.81,9l-60.08,23.69,18.67,14.37,124.43-13.78,13-13.88L1778,808.35c4.63-1.91,9.85-5.48,11.14-4.39,18.28,15.39,40,12.08,60.9,11.41,38.62-1.25,73.42,13.69,110.34,23.4l20.6-13,35.58,35.85-13,26.79,47.45-8,8.64,16.41,39.18,4.28-10.55,19.75H2121l27.71-43.54c98.7-9.35,171.4-72.54,244-132.39h26.84c-26.73,43.73,3.23,84.09,3.28,125.19l53,19.3-30.94,15c23.87,22.86,40.92-11.27,63.84-6.46s47.47,1.06,71.73,1.06l19.95-31.79c20.1,5.56,38.66,14.46,59.89,3.36-8.36-24.83-15.31-49.49-24.92-73.07-12.5-30.69-13.41-30.32,1.39-67.53l-24.73-24.73,11-15.31-22.32-23.62V642c24.47-18.8,53.1-19.19,82-25.58l-43-5.16c2.63-9,4.17-19,8.36-27.75,13.77-28.66,24.6-43.79,54-53.16,33.17-10.58,50.14-31.16,66.5-60.58,15.57-28,27.13-64.21,68.39-74.79-4.3-36.56,19.88-64.59,34-98.78-2.49-4.92-6.38-12.6-10.23-20.22,28.2-33.24,64.16-57.39,77.54-100.89,4.64-15.11,24-25.68,36.66-38.33,28.58.22,46.55-13.84,54.49-40.94,11.7-39.94,33-72.25,72.83-93.33l35,30.08L3194.06,0c-1.37,12.8.65,23-3.49,27.49-17.25,18.86-36.35,36-58,56.88l39,6.6c-3.38,6.31-6.22,11.6-12.63,23.54l61.36-14.83c20.33,8,33.42,27.1,22.32,40.83-16.82,20.81-5.15,41.78-12.13,62.63L3206.64,227c3.83,13,8.41,28.59,13.84,47.05-.57,2.6-.77,8.6-3.15,13.56-27.79,58-65.69,111.11-81.62,175-2.49,10-18.84,16.54-32.24,27.51v41.27l70.31-83.79h38.78l-40.48,40.51L3179,496l77.79-50.56,55.91,57.05L3267,539.86c2.14,4.4,4.47,9.19,8.1,16.62l26.1-14.65c1.71,11.62,3.32,22.56,7.16,48.57,5-19.41,7-27.23,9.05-35q3.42,3.51,6.83,7c-3.39-13.32-6.77-26.65-8.18-32.19,11-13.38,17.16-20.93,23.45-28.34,6.12-7.22,12.43-14.3,19.47-22.37l39.85,19.87-13.49,15.8h52.47l29.51,28L3497.7,528c5.9,5.28,11.6,10.36,21,18.79l-43.4,43.44,43.3-7.24q1.09,5.22,2.18,10.45L3449,629.73c13,31.79,42.87,13.33,64.2,20,5.11,10,10.11,19.69,14.49,28.21l-61,30.26h-27.25c-2.21,6.49-4.56,13.39-7.61,22.37h-87.71c-2.23,7-3.92,12.2-5.83,18.11,14.82,14.94,52.06.54,48.22,41.55h-69.42c-1,17.46-1.69,30.83-2.56,46.7h-61.94c-13.83,24.19-24.55,33.21-59.29,50.77l-12-9.18-84.52,27.63-22.44,27.93h-30l-4.91-21.23-39.54-3-27-23.7-56.63,22.07-26.24-12c-2.08,9.39-3.27,14.8-5.41,24.47l79,4-37.94,28.55c-5.29,12.77-11.38,27.5-20.93,50.58-4.34-15.27-5.85-20.59-8.52-30-46.48,2-66.51-45.9-106.92-63.41-7.66,7.9-15.27,16.55-23.74,24.26-8.18,7.44-17.23,13.92-28.09,22.56l43.84,32.06c-3.22,6.82-4.22,13.82-8.14,16.41-24.72,16.37-48.48,34.09-80.15,37-18.1,1.68-35.62,9.51-63.58,17.46l35.5,5.63q-5.62,5.75-11.23,11.5c36,4.31,73.79-6.48,108.91,7.8,25.3-2.35,51.5-5.72,77.81-7,25.6-1.21,51.31-.26,79.34-.26v30.62c-13.12,7.71-34.46,11.26-34.3,35.87l-60.75,20,16-28.95-26.19-28.89v64.79l-23.22-32.59c-37.48-5.72-62.11,7-85.83,30.37l34.76,6.44c-.52,2.78-.47,7.65-1.65,8-12.5,3.36-25.43.71-37.53,11.73-5.78,5.27-23.51-2.57-38.54-4.89l-6.33,18.42-16-11.73c-28.14,19.13-60.19,16.47-91.75-3.78-17.83-6.42-26.19-30.23-48.5-33-3.39,3.39-5.35,4.59-6,6.28-.36,1,1.22,3,2.34,4.1,18.21,18.31,36.49,36.56,55.5,55.58-23.68,35.92-61.47,9.35-92.56,21.23v31.1l-43.72,2.16-29.87-29.87c3.38,16.47,5.28,25.74,7.46,36.34L2360.72,1309l14,15.53c-38.28,10.82-79.28-7.24-113,16.56l-14.51-13.21c-22.47,36.24-60.62,42.62-97.1,50.34l-7.35,21.34c-26.93,2.86-27.53-21.38-40.52-36.8-2,13.26-3.64,24.25-5.3,35.38l-29.12,3.17-8.58,22.32-14.7-12.34c-2.27,7.07-4.35,13.58-6.53,20.36l-104.44,18.72v42.33c-28-3.48-52.29-10.76-75.45-8.11-21.07,2.41-40.9,15.61-64.14,25.24l-22-62.92c-6.88,12.91-12.94,24.31-20.18,37.91,4.25,5.4,8.73,11.07,18.77,23.78l-33.61-9.42-38.62,11.38-20.76,32.36c-17.83-4.57-33.14-6.19-46.2-12.48s-24-17.28-45.32-33.34c5.91,29,9.59,47.14,15.13,74.4-14.89-7-22.09-11.6-30-13.84-9-2.57-18.63-3.08-28-4.48-8-15.63-9.19-39.42-39.28-32l26,50.58c2.52,7.16-13.07,31.42,13,51.59l-49.14,19.91c-1.6,4.42-4.1,11.31-9,24.9l-8.27-30.16-48.83,7.67-19.38-19.39-21.81,10.61c-1.88-12-3.59-22.94-6.49-41.51L1356.14,1620c-7.66,12-22.25,6.43-44.13-16.22,5-21.56,10-43.44,16.23-70.33l21.14-22.62c-7.18-1.49-13.88-5.22-17.73-3.28-26.32,13.27-52,27.74-82.3,44.18,8.92,22.09,18.42,45.65,30.7,76.07L1258,1617,1226,1644.11c-9.38-24.47-17-44.45-24.52-64h-28.53c-2.94,8.35-5.37,15.24-8.88,25.19l-54.43-16.59c3.84,14.54,6.8,25.76,11.39,43.11l-37.26,28,17.8,25.62,24.81-13.84,6.47,5.82-10.93,16.75,35.93,7.13q-.09,3.3-.19,6.6l-69.05,3.26c14.93,17.45,21.89,21.65,44.68,26.73l-10.8,13.61,23.14,11.32-17,17.73c-30.44-16.24-51-47.69-92.18-58.76,4.37,10.06,5.7,18.67,10.7,23.41,8.74,8.31,19.73,14.25,27.7,19.75l-80.8,80.8-50.07-5.9v22.37l47.72,7.27-59.29,24.91c-.31,1.47-1.42,6.91-3.58,17.38L896.15,1903q5.34,18.36,10.77,37c-27,24.84-74.71,5.83-101.59,48.77l44.37,11.43c-5.13,7.53-8.77,14-13.47,19.54-7.4,8.74-15.51,16.88-26.71,28.91L791.06,2017c-2.25,14.28-4,25.22-6.39,40.53l-26.85-10c-5.54,13-12.2,28.69-21.2,49.86l-17.4-37.25c-1.92,22.19-3.2,37.07-4.66,53.94h-52.1c-4.59,9.43-8.2,16.84-17.65,36.21v-57l-6.38-1-11.54,24.39-35.08-49.29-7.37,2.49c4.6,21,9.21,42,13.68,62.43-20.75,18.6-36-2-52.88-7.32l-32.17,61.57,14.92,29.1Z"/></g></g></svg>