<svg xmlns="http://www.w3.org/2000/svg" viewBox="0 0 2477.83 3620.67"><title>Asset 1</title><g id="Layer_2" data-name="Layer 2"><g id="Layer_1-2" data-name="Layer 1"><path d="M2448.21,1132.41H2433.1c.2-.55.41-1.1.62-1.64l-35.4-16.29-14.49,2.55c-4-1.21-7.94-1.64-11-3.5-3.24-2-5.82-4.07-9.94-5.19-9.13-2.47-18.26-4.81-27.62-5.42-8.29-.54-16.38-2.87-22.25-7.61-7.37-6-14.88-8.22-23.17-7.51l-21.09-21.09c-6.45.83-11.65-2.34-16-7.09a26.24,26.24,0,0,0-17.45-8.42c-7.27-7-13.36-15.75-24.93-14.82v-7.11l-7.59-7.58c-6.16.62-12.45.34-18-3.08-6.36-3.94-12.44-8.32-19.61-13.16-4.23,7.09-11.12,5.36-16.13,3.95-8.34-2.33-16-7.2-25.13-11.59-2.59,0-7.49,1.5-10.31-.29-7.53-4.78-15.43-3.74-22.43-1.44s-14.54,2-21.67,5.6c-14.36,7.27-29.88,12.22-44.79,18.43-18.79,7.83-37.89,14.73-57.14,21.34-12.21,4.18-24.42,8.29-35.44,16-8.53,6-18.69,11.16-29.29,12-11,.88-20.86,6.35-32,6.52-4.3.07-16.9,11.2-20.33,15.87-4.36,5.94-9.83,12.31-16.55,13.35s-12.87,3.58-20.35,4.33l8-9.75c3.28,0,6.41.56,9.19-.16,2.59-.68,4.81-2.74,6.59-3.82,3.24-5.11,5.74-10.28,9.38-14.46s8.44-7.41,12.86-11.16c-.11-1.76-.22-3.67-.4-6.67-3.18.6-5.85,1-8.47,1.61-6.36,1.51-12.31,4-19,5-18.35,2.76-33.54,10.61-44.51,27.23-11.52,17.45-29.32,24.66-52.51,23.1,7.39-3.54,12.71-6.19,18.1-8.65s11-4.82,14.36-6.29c6.69-10.71,11.83-20.18,18.25-28.69,3.19-4.23,5.5-8.74,8.17-13.17,7.72-12.76,12-27,17.92-40.56,7-16.08,8.83-33.46,11.87-50.51.45-2.53-1.41-5.4-1.74-8.17-.87-7.53-4.73-14.44-4.25-22.3.16-2.63-1.33-5.38-2.17-8-2.65-8.4-5.36-16.79-8.94-28l-8.17-7.26c-1.82-9.27-2.19-16.66-4.78-23.17-4.44-11.13-5.62-23.64-14.57-33-3.28-3.45-5.82-9.14-5.82-13.81,0-6.9-5.92-11.13-6.1-17-.2-6.69-3.29-11.62-6.15-17.06-1.68-3.23-4-8.28-2.7-10.43,2.24-3.62.13-5.54-.34-8.28-.66-3.81-.14-7.88-1.18-11.54-4.44-15.62-9.5-31.07-7.93-47.69.27-2.9,0-5.86,0-8.31l-5.17-5.18c-1.65-10.07-3.19-19.44-4.87-29.69-14.83-7.58-14.07-24.29-19.54-37.5-2.76-6.67-3.42-14.71-7.15-21-6.11-10.24-9.24-20.78-8.19-31.79-4.15-7.58-8.22-14.39-11.61-21.52-1.77-3.72-3.62-8.16-3.21-12,1.79-16.83-4.26-33-3.29-49.75.43-7.46.07-15,.07-22.59-4.26-6.61-8.57-13.31-13.19-20.5l-23.92,4.24c-4.36,6.57-8.23,12.42-11.82,17.84h-9.62l-4.86-4.86V457.88c-2.85-1-6.5-3.43-7.91-2.51-11,7.24-20.12-.5-29.14-3.94a33.84,33.84,0,0,0-12.23-2c-1.9,1.9-3.67,3.66-6,6h-12.18l-5.43,5.68a97.26,97.26,0,0,1-24.57-2.48c-8.58-1.9-17.9-.24-26.89-.56-2.12-.08-4.09-2.15-6.29-2.75-1.15-.3-2.63.61-5.84,1.49l8.56,5.91c-1.27,6.62-3.72,12.75-3.3,18.69.65,9.28-3,16.9-7.43,24-3.27,5.24-8.45,9.42-7.77,16.27.61,6.17-2.35,12.69,2.23,18.6,1.13,1.46,1,5.07,0,6.84-4.86,8.43-1.1,17.43-2.31,26.05,9.84,13.85-4.16,25-4.27,37.72-5.65,4.59-5.63,11.64-7.82,17.75-.84,2.35-2.76,4.31-5.91,9,0-15,3.94-26.17,6.89-37.34.82-3.12,2.06-6.24,2.08-9.54.09-14.49.28-29-.1-43.47-.12-4.61-3.4-9.48-2.56-13.69,2.19-10.89,5.81-21.51,9.06-32.17.38-1.27,2.18-2,3.06-3.23,3.29-4.52,6.47-9.12,8.46-11.94l-7.86-16.09c2-9.9,3.58-18,5.28-26.61-12.79,3.32-16.18,11.75-15.29,23-4.47,3.15-8.77,6.18-13.19,9.31H1441c-7.5-11.8-8-25.18-10.91-38.11l-23.24-23.11V398.66c-3.92-2.68-9.16-4.89-12.3-8.81s-3.36-9.58-5.83-13.94c-1.85-3.25-5.23-5.63-5.56-6l-15.36-4.49V353.9l-14.86-5.08v-3.06l18.08-5.39c-1.5-13.75,8.59-26.42.2-37.47,1.16-4.06,2.42-6.68,2.57-9.37.33-6-.8-12.16.29-17.95,2.3-12.14,6-23.82,18.11-30.39,1.37-.74,2.29-2.29,4.51-4.59l-10.35-2.11c-1.52-11.77-2.94-22.77-4.45-34.49-1.22-2.37-2.87-5.55-4-7.72l2.37-8.69-9.51-10.4,6.5-17.72c-10.63-5-7.6-17-12.26-25.26,1.92-7.83,10.11-14.52,3.08-23.63-.86-1.11,1.21-4.3,1.59-6.59,2.09-12.43,8.36-24.56,1.52-37.66-1.29-2.46,1.49-7,2.3-10.31-1.93-5.32-3.82-10.53-5.7-15.68l3.3-4.36c-5.2-12.08-4.14-23.72-.31-36H.68V15q0,726.29.17,1452.57c0,18.06-3.21,36.43,2.83,54.22-1.72,26.67,1.89,53.14,3.08,79.7.58,13.1-1.24,26.11,2.42,39.38,2.57,9.28.11,19.87.61,29.84s2,20.15,2.86,30.24c1.37,16-.52,32,2.4,48.34,3.6,20.1,2.65,41,3.6,61.6.16,3.49-.37,7.06.14,10.48.4,2.67,1.91,5.17,2.5,6.66-1.05,3.57-2.26,6.17-2.52,8.87a53.83,53.83,0,0,0,0,12c.52,4.14,2.61,8.15,2.77,12.27.78,20.08-.77,40.16,2.81,60.26,2.73,15.29-1.15,31.06,2.81,46.8,2.61,10.34,1.26,21.93.28,32.84s3,21.06,3.38,31.75c.63,17.58-1,35,2.23,52.84,3.17,17.61.29,36,3.21,54.17,2.87,17.78-.38,36,2.85,54.26s-.18,37,3.1,55.7c3,17.21-.44,35,2.94,52.74,3.18,16.64.18,34,3,51.22,3.07,19.2-.46,39.06,3.17,58.7,2.73,14.74-.73,30.07,2.92,45.27,2.38,9.92.06,20.89.56,31.36.49,10.11,2,20.16,2.86,30.25,1.23,15.06-1.57,30.15,2.59,45.35,2.41,8.83,1.28,19,.21,28.33-1.15,10,3,19.07,3.36,28.76.59,15.09-.23,30,2.2,45.34,3,19.17.29,39,3.33,58.67,2.67,17.32-.23,35,2.75,52.76s-.06,36.08,3.27,54.19c2.63,14.28-1,29.07,2.84,43.79,2.47,9.34,1.24,19.94.26,29.84-1,10.47,2.93,20.07,3.33,30.25.63,16.09-.65,32.06,2.28,48.34,3,16.63.22,34,3.23,51.18,2.59,14.78.27,30,2.77,45.26,2.88,17.7,0,36.08,3.28,54.18,2.62,14.29.28,29,2.66,43.78,3.07,19.18-.14,39.07,3.34,58.67,2.53,14.3.1,29,2.69,43.78,3.08,17.65,0,36.05,3.25,54.18,2.63,14.77-.82,30.09,2.93,45.27,2.32,9.42,1.29,20,.19,29.85-1.12,10,3,19.07,3.37,28.76.6,15.09-.43,30,2.22,45.35,3,17.13-.62,35.22,3.64,52.61-2.09,27.64,5.21,54.88,2.75,82.93H1301.92V2485.39c0-3.5-.51-7.1.14-10.47.69-3.57,1.92-9.49,3.9-9.92,6.48-1.43,6.39-7.75,10.12-11.1,10.78-9.65,20.68-20.28,30.93-30.53l30.74-30.74,30.74-30.74c10.24-10.24,19.87-21.23,30.92-30.52,10.47-8.81,19.38-19.19,30-27.81,5.09-4.12,11.34-8.09,12.89-15.5,14.48-6.58,22.44-20.41,33.23-30.9,22.7-22.06,46.68-43,66.15-68.3,6.83-8.86,15.26-16.39,22.55-25,13.4-15.85,25.81-32.43,38.92-48.47s26.71-31.66,39.27-48.18c10.25-13.49,21.74-26,32.72-39,6-7,13.2-13.36,17.6-21.26,3-5.41,7.54-8.78,11-13.36s6.92-9.19,10.62-13.57c6.6-7.81,14.19-14.91,19.93-23.29,9.79-14.29,21.3-27.21,32.31-40.4,15.49-18.58,30.89-37.26,46.49-55.76,14.33-17,28.32-34.22,42.48-51.32,10.81-13,21.75-26,32.82-38.88s21.72-26.1,32.89-38.83c12.51-14.26,24.39-29.06,37-43.14,13-14.48,25.22-29.65,38.16-44.15,13.3-14.9,26.07-30.23,39.26-45.18,14.2-16.08,28.47-32.07,42.27-48.52,10.73-12.79,22.49-24.71,33.81-37a29.58,29.58,0,0,0,3.14-3.2c9.4-14.28,22-25.83,33-38.74,11.16-13.09,23.24-25.38,34.82-38.12,1.2-1.32,1.34-3.69,2.62-4.84,6.28-5.58,7.47-16,17.36-18.18a4.79,4.79,0,0,0,3.08-3.09c1-6,6.54-8.3,9.64-12.54,3.58-4.89,7-9.93,11.55-16.52,9.15-4.65,22.2-18.87,24.75-27.25,3.83-3.42,7.25-5.08,8.28-7.69a16.32,16.32,0,0,1,9.69-9.87c1.71-.7,3.76-2,4.46-3.51,5.75-12.75,19.83-18.67,25.55-31.38,17.1-16.83,32.37-35.28,47.82-53.6,9.8-11.61,21.65-21.29,30.87-33.65,7.85-10.52,18.42-18.8,26.51-29.48,9.66-12.74,21.32-24,32.82-36.63h-12.15Z"/></g></g></svg>