<svg xmlns="http://www.w3.org/2000/svg" viewBox="0 0 2436.22 3794"><title>Asset 1</title><g id="Layer_2" data-name="Layer 2"><g id="Layer_1-2" data-name="Layer 1"><path d="M2402.41,2942.15c-8.5-2.48-15.39-4.32-22.17-6.49-24.73-7.92-48.82-17.65-73.53-25.66-19.67-6.37-39.48-12.59-58.8-19.67q-20.74-7.59-41.61-14.92c-13.88-4.86-27.75-9.92-41.55-15.07-22.7-8.48-46.48-14.25-68.69-23.42-29-12-59.26-19.82-88-32.13-26-11.11-54.71-15-80-28.44-.49-.27-1.33.16-1.88-.06-19.18-7.69-40.06-10.52-57.39-19.85-12.59-24.55-30.61-44.37-43.93-67-13.11-22.29-28.62-42.83-42.34-64.61-14-22.32-28.19-44.58-41.85-66.18-11.74-1-21.95,0-32.4-3.64-10.3-3.55-22.08,1.64-33.24-2.92-10.11-4.13-22.23,1.33-32.26-5.22-19.46,2.62-38.07-5.66-56.47-3.78-7-11-13.61-21-19.85-31.13-11.83-19.3-23.35-38.79-35.22-58.06-12.84-20.85-26-41.49-38.9-62.31-11.91-19.26-23.58-38.67-35.45-58-14.37-23.38-28.9-46.66-43.23-70.06-11.82-19.31-23.36-38.79-35.2-58.08-12.5-20.34-25.26-40.52-37.82-60.83-12.24-19.78-24.34-39.64-36.53-59.44q-22.51-36.59-45.1-73.11c-9.73-15.74-19.53-31.43-29.25-47.17-9.41-15.22-18.58-30.58-28.16-45.69-15.36-24.22-27.43-50.52-46.11-71.75,14.51-27,28.52-53.08,42.54-79.15,7.57-14.08,15.37-28,22.68-42.24,7.55-14.7,14.75-29.58,21.91-44.47,6.89-14.34,13.15-29,20.42-43.16,7.56-14.72,16.45-28.69,23-44,4.14-9.73,10.52-18.5,15.83-27.58-1.72-4.65-3.37-8.47-4.55-12.42-5-16.48-21.36-46.94-31-57.9-18.1-20.46-39.27-36.57-64.49-47.46-16.55-7.15-32.46-5.37-47,3.5-11,6.67-21.38,14.33-29.81,24.9-7.84,9.82-16.27,20.16-29.81,24.75-13-12.24-29.54-19.26-46-25.83v-18.08c3.37-14.9,18.88-15.74,27.91-24.11,10.8,1.1,14.16-6.26,16.78-15.25L1071,1399.34c8.45-19.76,22.68-34.58,42.54-42.43V1342.1c-1.88-4.54-2.61-7.51-4.22-9.89s-4.15-4.31-7.51-7.67c-4.73,6.54-8.51,11.76-12.81,17.72l-30-4.54c-17.36,14-11.73,34.24-20.31,51.15-6.07,3.07-13.15,8.64-21,10-6.68,1.16-11.78,4.56-13.28,8.92-4.13,12-15.68,19.91-17.12,33.11-.8,7.4-6,8.69-12.28,8.25-10.52-5.66-16-16.79-17.46-26.35-2.43-15.53-9.65-28.08-16.78-41-2.89-5.27-7.12-9.81-10.81-14.77,0-9.49-.65-19.09.22-28.55.59-6.39,1.45-14.41,5.47-18.48,7.54-7.63,11.5-17.08,17.26-26.72,0-2.07-.2-5.26,0-8.42,2.82-39.12-7.21-77.79-4.11-116.47-2.14-8.12-8.35-11.22-15.3-13.76l-9.79,4.94c-4.72,7.74-5.87,13.83-2.15,22.47,3.38,7.88,7.27,15,11.72,20.47,2.51,15-3.29,25-13.62,32.53-15.06.3-21.2-12.35-30.43-19.14h-2.53c-1.28,0-3.45-.44-3.69.06-4.44,9-15.3,11-19.21,18.19-4.39,1.13-7.8,1.14-10.12,2.74-12.42,8.55-27.72,10.06-40.82,17-2.26,1.2-6.25-.86-10.47-1.59l18.37-25.79c-4-2.8-6.62-5.77-9.79-6.59-6.88-1.77-14.61-4.61-21-3-7.38,1.9-13.21-3.55-20.17-1.2-5.6,1.89-11.69,2.33-18.09,3.5L748.4,1216c-5.3,1.24-10.56,3.63-15.73,3.45-13.26-.47-24.76,4.2-36.14,10-19.48,9.85-37.15,23.44-59,28.42-1.27-1.18-2.48-2.77-4.09-3.64-1.79-1-3.94-1.27-8-2.47,4.09-6.79,7.12-11.77,10.09-16.77,3.51-5.92,6-12,1.92-19.88-7,1.53-13.95,4.28-20.93,4.27s-14-2.76-19.15-3.89c-9.71,7.7-17.84,14.14-25.34,20.1-12.08-4.71-22.39-10.24-35.69-7.54-4.81,4-9.77,10.51-16.26,12.84-10.94,3.93-13.86,12.69-17,21.65-1.58,4.45-1.62,9.45-2.29,13.79-11.62,6.89-15.34,6.37-17.88-4.31-1.57-6.62-3.68-9.59-10.56-10.47-5.69-.72-11.12-3.55-16.59-5.42-1.72-14.83,12.22-25.54,8-40.27h43.1c8.59-4.62,9.55-17,17.84-17.81l11.93,3.06c10.73,14.36,24.14,10.11,36.24,11.1L599,1183.84c2.76-.46,8.59-1.54,14.45-2.41,10.64-1.57,20.64,2.94,30.94,3.51,10.12.56,17.27,5.17,23.82,11.68h15.18l25.7-15.73c6.84,2.5,14.51,7.4,22.39,7.78,22.69,1.11,45.47.39,69,.39,2.67-6.47,7.09-12.11,6.64-17.33-.63-7.32-4.88-14.33-7.38-20.92H771.27l-19.1-19.11c-7.45,0-16.83,2.83-22.34-.59-11-6.86-16.93-.17-24,5-2.95,2.15-5.28,5.14-6.49,6.34-14.24,2.72-23.69-2.23-31.22-10.6h-16l-19.73,15.08H616c-2.39-3.14-5.83-7.67-9.91-13l-21.79,10.9-11.23-13.47c-14.25.71-24.94,4.37-30.1,18-1.84,4.88-5.75,9-8.85,13.61-3.64-1-6.55-1.68-9.43-2.49s-5.7-1.72-9.92-3c-13.67-15.45-33-18.61-54.9-18.09l-31.15,22.77c-12-1.53-20.39,6.77-27.7,14.69h-24.2l-5.27-16.13c9.23-8.39,21.63-9.58,32.61-13.13,12.27-4,18.87-15.1,33.24-19.74,7.15,0,17.33.41,27.46-.17,5.26-.31,11.7-.85,15.4-3.94,12.28-10.24,21.86-22.76,25.65-37.31l-16.25-16.07c-4.61,2-10.65-1.73-16.81,3.35-6.5,5.37-15.61,6.18-23.83,3.72-8-13.46-15.44-14-36.25-2.3-29.76-5.39-56.25,2.41-75.29,28.51v13.75L353,1139.36c-7.11,12.68-19.47,11.37-32.3,11.61-1.37,6.72-2.54,12.47-3.79,18.59h-9c-3.55-18.56-8-36.5-22.31-49.26-13.26-1.18-21.88,4.71-28.76,14.34-6.36,8.9-12.87,17.71-19.7,26.25-6.95,8.7-15.53,16.3-21.35,25.65-13.87,22.3-33.09,40.49-47.22,64.27v22.87c-6.86,3.78-14.91,6.9-21.3,12.06-6.58,5.31-11.54,12.62-16.6,18.37,0,3.32-.14,5.22,0,7.1,1,12.17-1.85,22.35-10.29,32.24s-13.34,22.44-20.47,33.39c-3.68,5.65-8.82,10.35-13.61,15.84H69c1.89,12.43,3.63,23.91,5.58,36.76a31.89,31.89,0,0,0,2.87,2.84c18.74,15.83,39.8,28.7,57.59,45.82,6.89,6.63,16.14,10.74,23.38,17.07,14.24,12.47,32.39,21,41,42.44a21.67,21.67,0,0,0,0,4.71c1.66,13.4-3,24-13.06,33-5.38,4.83-9.41,11.18-13.75,16.47,0,2.62,0,4.52,0,6.42-.14,21.52-1.95,23.31-22.89,31-5.68,2.09-13.37,3.17-15.36,11.11l13.37,27.89c-5.47,4-9.7,7.38-14.14,10.42-15.91,10.93-21.6,26.57-22.21,44.31l38.28,6.41c0,21.68,0,42.07,0,62.47,0,5.48-.34,10.43-3.41,15.85-4.3,7.56-5.87,16.67-8.31,24.19-5.3,7.6-10.33,14.47-15,21.57a163.11,163.11,0,0,0-10,16.91c-5.6,11.36-11.21,22.65-20.36,31.72,0,10.76-7.35,17.94-13.73,24.79-11.57,12.42-19.14,27.24-27.32,39.5,4.87,19.28,14.12,34.48,26,48.29C72.44,2033.3,66.5,2051,51,2062.06v10.84c14.5,15.35,33.57,16,48.73,23.87,11.37,29.69-1.16,52.43-18.65,73.65C79,2191.68,85.6,2210,98.74,2226.36c2.5,3.11,2.88,7.87,5.25,11.13,7.76,10.68,3,19.57-3.78,27.85-3.56,4.35-8.38,7.66-13.11,11.86l9.5,40.73c-11.53,16.17-28.18,20-41.86,27.66v17.84l10.65,8.9v30.41C56.62,2419,48.56,2434.33,33,2444c-2.7,1.67-3.25,6.51-5.76,8.87-7.44,7-1.87,15.68-4.23,23.71l20.89,25.2c-2.55,5-4.71,10.56-8,15.35-9.63,13.94-20.47,27.1-29.32,41.49-4.24,6.88-8.68,16-5.52,24.06s7.75,16.16,17.93,19.2,19.66,7.89,31.34,12.73v68.06c0,3.82-1.37,8.45.28,11.32,5,8.6,4.4,18.61,8,27.3s9.59,16.43,13.19,25.14c9,21.65,17.67,43.46,16.79,67.65-.26,7.35-1.94,14.29-3.4,21.45-3.73,18.28-8.49,34.72-19.42,53.56-.24,15.79-2,32,5.52,48.42,15.89,10.42,35.72,13.32,54.47,17.88,9.7,2.36,20.4,2.71,30.56,5.59l6.45,14.25c1.45,0,3.25-.55,3.88.08,6.31,6.28,12.43,12.75,18.79,19.36,25.82-2.33,51.71,3.89,73.75-3.64,6.2,6.17,11.05,11,16,15.91-4.41,19-18.77,32.52-33.8,46.59.4,8.63.73,17.59-5.75,25.6-3.34,4.13-1.58,9.73.42,15.46,4.79,13.66,15.5,22,25.35,32.6v80.12c38.08,18.32,75.22,36.28,113.29,52.24,11.41,4.77,21.59,11.83,33.91,15.23,11.77,3.24,21.77,11.16,33.92,15,16.13,5.15,30.7,15,46.36,21.84,16.17,7.09,32.95,12.78,49.25,19.58,10.87,4.54,21,11.12,32.12,14.74,24.15,7.86,47,19,70.93,27.37,16.66,5.78,32.69,13.3,49.42,19.21,14.93,5.28,29.87,11,44.48,17.19,23.87,10.17,48.62,17.93,72.58,27.91,23.37,9.74,48,16.52,72,24.65q42.76,14.44,85.29,29.57c22.83,8.17,45.89,15.47,69,22.55,17.52,5.37,35.1,10.52,52.31,16.85,1.65.61,3.12,2.11,4.77,2.27,10.81,1,21.83,2.88,31,8.11,9.73,5.53,20.44,6.13,30.47,9.66,17.84,6.28,36,12.05,54.32,16.52,21.38,5.2,42.17,12.36,63.45,17.87,14.23,3.68,28.35,9.14,42.54,12.25,17.53,3.84,34.52,9.58,52,13.64,16,3.72,32,9.15,47.88,13.12,23.16,5.77,45.89,14.11,70,16,11.36,7.36,25.08,6.85,37.46,11.06s26.16,4.36,38.68,8.32c13.71,4.33,27.82,6.59,41.66,10,18,4.45,35.91,9.91,54.17,12.12,15.72,1.9,30.18,9.89,46.34,8.5,22,8.51,45.54,10.24,68.31,15.32,7.78,1.73,17.07.84,22.87,4.31,8.58,5.15,17.81,1,26.38,6.17,7.16,4.35,17.9,2.36,26.66,4.68,9,2.4,19,1.3,26.91,4.26,16.67,6.24,34.18,6.4,51.08,10.24a492.81,492.81,0,0,0,54,9c8.28.92,17.58.75,25,3.77,5.55,2.25,10.55,2.35,15.9,3.2,5.9.93,11.65,2.86,17.56,3.66,11.55,1.56,23.65,1.06,34.56,4.49,6.69,2.11,13,2.65,19.62,3.37s12.93,2.85,19.47,3.61c13.46,1.57,27.55.74,40.29,4.55,9.33,2.79,19.08.42,27,3.77,9.35,3.92,18.24,2.46,27.35,3.23,1.26.11,3-.53,3.75.1,6.49,5.33,14.18,3.06,21.42,3.85s14.21,3,21.38,3.61c17.93,1.59,35.91,2.66,53.87,3.92,1.26.09,2.92-.52,3.76.09,10.33,7.44,21.6,2,31.78,4,2-7.2,4.74-12.87,5-18.64.78-19.28-.08-38.49,3.65-57.76,3-15.69.18-31.88,3.42-48.21,3.7-18.63.35-38.32,4.17-57.63,3.22-16.27.29-33.16,3.49-50.11,3.53-18.66.82-38.31,4.14-57.62,3.25-18.88-.38-38.31,3.61-57.76,3.43-16.73,1.17-34.48,4-51.9,3.36-20.8-1.31-42.24,3.89-63.46,3.17-12.95,1-26.8,3.53-40.52,3.23-17.46.88-35.78,4.14-53.81,3.18-17.6-.22-35.72,3.55-53.94,3.73-18,.34-37,4-55.73,3.31-16.87,1.2-34.47,3.61-52,4-29.06,3.3-58.76,4.54-88.19.14-3.18-1.19-7.12.24-9.43C2406.21,2965.38,2400.77,2953.13,2402.41,2942.15Z"/><path d="M1844.94,1682.05c11.9-6,23.22-9.79,33.26-16.21,2.84-1.81,7.17-3,10.34-2.29a333.9,333.9,0,0,1,36.09,9.7c30,10.36,59.88,21.37,90.1,32.22,1.78-2.5,5.06-5,5.08-7.47.09-13.59,7.36-25.18,9.86-38.15,3.14-16.22,9.08-31.89,13.25-47.94q6.94-26.72,14.65-53.19c5.67-19.36,10.09-39.06,15.82-58.44,6.42-21.66,10.18-44.13,17-65.65,8.62-27.28,14-55.34,21.79-82.75,4.7-16.48,6.36-33.8,14.17-49.55,4.14-8.36,4.67-18.5,8.74-26.92,4.31-8.91,3.56-18.66,6.47-27.84a99.37,99.37,0,0,0,4.59-24.9c.83-19.77,5.81-37.87,18.15-53.74,2.45-3.15,3.38-7.48,5-11.16-1.31-5.35-3.46-10.52-3.66-15.77-.32-8-.14-15.8-6.37-21.54h-34.48l2.21,2.44-10,3.41c6.16,8.11,10.42,13.94,14.92,19.58,4.85,6.09,9.91,12,14.51,17.55-10.28,24.7-22.34,41.35-39.5,49.56l-10-10c-11,3.93-10.87,21-24.9,23.39l-30.29,3.15-8.12-4.6c4.27-6.36,6.52-13.23,11.15-15.75,6.14-3.34,9.18-9.42,15.26-12.82,7-3.89,12.18-10.95,17.35-15.86v-40.08l-73.67-61.91h-28.55c-2.67,4.2-6.93,8-7.46,12.33-1.13,9.24-.35,18.71-.35,24.09l-15,17.3c-11.18-1.47-22.08-2.69-30.63-13l-32.48,4.75c7.78-10.71,16.88-16.18,27-20.8,5.9-2.67,13.23-6.92,15.25-12.24,2.68-7.07,10-9.43,11.67-14.67V991.65l-4.48-4.48c-35.19-3.49-70.13,1.3-105.16,3a6.33,6.33,0,0,0-1.9,0c-25.33,9.78-53.29,11.89-77,26.4-11.33.21-19.39,8.78-29.56,11.68-16.12,4.6-29.92,14-44.8,21.06a58.74,58.74,0,0,0-19.88,16.15c-5.71,7.2-12.91,15.79-3.81,25.86-1,8.38,8,15.69,1.42,26.42-10.71,6.45-24.73,9.58-38.25,13.63a63.74,63.74,0,0,0-11.61,4.43c-17.37,9-26.3,25.87-38.48,39.57-3.94,4.43-4.1,12.24-5.74,17.69,9.26,12.55,26,15.21,29.7,31.93l19.29-5.7,4.8-9.64c11.61,7,24.71,9,32.21,22-5.8,8.6-15.54,11.75-24.05,14.19-7.58,2.18-11.73,5.92-15,12-2.46,4.59-4.72,9.28-6.74,13.29,2.93,3.38,5.82,6.72,8.37,9.68,15.39,0,30.07-.5,44.7.14,14.15.62,28.26,2.41,42.39,3.67,1.26.11,3.06-.54,3.74.1,6.4,5.92,14.24,2.85,21.43,3.81s14.24,2.51,21.36,3.74,14.07,2.35,20,3.34c2.39,5.54,4,9.33,5.4,12.54l-26,26H1729l-4.61-7.07H1607.32c-.2,3.35-.37,6.37-.66,11.08-8.85,0-16.48-.46-24,.09-15.36,1.12-25.37,15.33-20,29.56,1.4,3.67,1.53,7,2.3,10.51,5.06,22.9,19.23,38.82,38.93,50.45,9.91-1.5,14.36,8,22.13,11.19,6.54,2.65,11.69,8.67,17.51,13.13,21,16.06,44.51,27.09,69.54,35.15,2.81.9,5.55,2.7,8.36,2.77,12.1.31,24.24.69,36.31,0,12.54-.73,24.46,2.64,36.68,3.77,10.75,1,21.65.21,32.49.21,19.37,19.37,38.91,38.58,58.07,58.17,18.46,18.87,38.79,36,54.06,57.88a2.87,2.87,0,0,1,.44,2.05l-8.63,11.64h-31.94c-9.46-13.07-23.11-15.38-37.63-15.17-4.07-2.73-8.8-4.75-11.9-8.23-8-9-20.15-10.53-29.19-17.44-20.47-1.57-36.79-11.81-53.94-22.37-19.63-12.1-43.39-16.7-66-19.87-20.75-2.91-41.87-6.58-63.33-4.88a146.81,146.81,0,0,0-35.32,7.2c-16.1,5.35-32.48,11-50.08,8.44a54.07,54.07,0,0,0-7.64,0c-9.78,7.94-14,18.62-13.24,30.76.79,13.47,2.8,26.87,4.35,40.88,11.34,18.53,16.35,21.26,35.48,17.72l-12.81-27.88v-44.5c5.94-8.47,13.94-4.83,20-5.29,12.47,6.65,23.4,14.67,35.62,18.34,10.9,3.27,20.57,9,31.38,12.12s21.34,6.92,32,10.33c21.4,6.81,43,13.27,64.45,19.63,20.46,6,41.08,12.41,62.31,15.86,2.76,6,9.71,1.79,13.07,5.18s5.52,7.83,8.92,12.86v23.63Z"/><path d="M1266.41,980.44c.06.61.17,1.23.17,1.84,0,13.38,0,26.77,0,39.87,5.19,5.73,11.28,10.68,15.1,17,10.58,17.47,15.79,37,19.14,57,.66,4-.78,8.44-1.76,12.56-3,12.73-8.12,25.27-9.12,38.13-1.55,20.12-.41,40.44-.41,60.42,5.65,1.83,10,3.89,14.65,4.64,13.1,2.14,25.67-1.74,38-5,15.11-4,18.74-6.53,30.36-18.82,8-8.43,15.13-17.63,21.65-25.31h13.23c2.84,4.84,5.37,9.6,8.34,14.08s6.36,8.67,7.52,10.23c9.1,2.57,14.85,5.53,20.57,5.46,6.41-.06,12.78-2.86,20.86-4.9l16-15.81c.17-5.75.72-10.64,3.44-16.09,6-12.1,12.93-23.19,22.45-32.75,11.75-11.78,25.14-22.28,31.79-38.72v-16.39l7.36-5.83,15.09,16h20l17.47-9c3.53-9.64,12.51-13.51,17.17-20.7,4.8-7.41,8.36-15.61,12.55-23.65,10.19-4,20.63-8,31-12.06,6-2.35,11.88-5.57,18.13-6.9,5.49-1.16,11.49.32,17.13-.4,5.9-.74,11.63-2.71,21.14-5.06l11.87-13.91a37.14,37.14,0,0,0,5,0c14.88-2.55,29-8.31,44.64-8.22,6.83,0,13.69-6.38,22.41-10.81,15.09,1.39,31.88-2.62,47.9-8.17,9.27-3.22,18.11-3.38,27.24-3.15,3.19.08,6.32,2.77,9.12,4.1L1893.88,950c-.49-16.12,1.32-32.28-3.67-48.2-3.74-11.93-3.45-25.63-9.12-36.33-7.29-13.74-11.39-28.64-16.94-42.74-5.76-14.65-12.13-29.45-17.14-44.61-5.36-16.23-13.5-33.84-33.81-38.84-.53-.13-.91-.86-1.47-1.43h-26.5c-12.73,7.94-13.17,24.24-22.48,33.74h-29.16V761c6.05-5.68,12.53-11.74,18.55-17.38V730.57l-10.27-5.08c-11.89,6.81-20.88,17.68-36.51,14.75,1.37-3,1.77-4.87,2.89-6.13,13.65-15.23,13.67-15.2,9.66-34.92-.12-.59-.15-1.21-.36-3l-21.33-16.64c-6.25-23.81-11.69-36-40.8-63l-55-5.74-13.37-13.37c-11.23-1.83-20.95-5.2-30.41-4.58-18.43,1.22-35-3.66-50.57-12.14-8-4.36-14.56-4.85-22.38-.95-3.09,1.53-6.91,1.59-10.19,2.28-1.83,10.47,2.42,17.88,8.53,25.47,8.54,10.62,8.44,20.94,1.7,29.78-7.35-.29-6.5,7.61-10.61,10.6V670l19.36,19.3c-1.43,3.65-3.35,8.6-5.21,13.39-12,4.32-23.29,10.52-37.11,8v12.6c-14.45,12.12-28,22.71-40.66,34.35-13.58,12.51-26.25,26-39.5,39.26v11.34l11,12.17c1.35,9.86-5.85,12.2-9.24,16.58-11.43.87-22.48,10.12-32.19-.16l-11.75,5.89c-1.61,6-3.47,12.85-5.93,21.92l-14.64,10.34c-6.88,1.72-14.58-1.36-21.14,4.2-6.4,5.43-14.22,9.21-20.55,14.73a162.29,162.29,0,0,0-27.26,30.65c-7.13,10.42-15.2,20.2-22.45,29.72l5.66,11.25C1235.72,975.64,1252.23,974.24,1266.41,980.44Z"/><path d="M2142.74,442.64c1.59-3.05,2.89-5.54,4.14-7.92l-3-3.42c4.68-13.64,1.17-26.9,2.54-39.07l-8.34-13.11c-9.73-1.74-19.19-6.38-26.14-3.92-8.67,3.08-17,1.88-21.86,2.78-5.88,2.43-8.88,3.15-11.24,4.79s-4.14,4.25-5.74,6c6.66,17.05,21.53,25.54,30.75,37.38v12.13c-3.81,1-7.58,1.24-10.66,2.84-6,3.14-10.88,3.31-17.13-.66-6.52-4.15-14-6.58-19.77-12.31-5-5-11.37-8.63-16.43-12.35-5.95,6-10.75,10.8-16.29,16.35-1.31,7.61-2.83,16.41-4.38,25.4,16,9.48,31.63,13.2,46.12,12.58l13.34,10.21c-2.31,6-4.22,10.95-6.35,16.48-15.12,0-30.88,2.53-45.39-.66-16.8-3.69-33.2-7.76-51.14-6.87-3.5,5.38-13,8.26-7.55,19.45,5.23,2.78,11.21,7.07,17.88,9.24,8.5,2.77,18.71,7.26,26.08,4.78,10.08-3.4,19.52-1.82,28.47-3.1l13.79,9v8.87l-19,13.21c-7.14-1.46-13.79-3.78-20.52-4-29.43-1-59,2.36-88.52-4.91-1.93,2.27-3.58,4.19-5.21,6.12-11.08,13.19-8.78,31.9,5.34,40.57,3.43,2.11,7.78,2.7,11.73,3.95,10.09,3.18,20.2,6.33,28.29,8.87,11,13.36,6.36,27.05,8.27,41.17l12.88,4.72L2006,624c13,2,14.52,15.62,22.78,21.36h14.07c19.45-11.27,26.16-28.94,34.86-44.91h21.47l15.57,11.82c-4.56,14.1-14.85,20.78-25.52,26.92v12.87l16.7,16.7c20.23,2.2,28.7-12.8,37.71-26.4,11.09,7,16,18.34,22,29.95,9.51,1.33,18,1.25,24.38-3.69,6-4.61,11.16-3.56,17.86-2.61l7.47,19a35.9,35.9,0,0,0-3.06,4c-8.93,15.52-17.87,20.73-34.17,18-8.69-1.46-18.29-3.09-25.25-7.88-10.89-7.5-18.4-1.89-26.5,3.26-6.09,3.87-11.59,8.67-16.66,12.53-9-.53-16.59.1-24.6-3.45-10.62-4.7-21.86,2.12-32.45,4.21-8,1.58-14.7,10.31-20.95,15.08V754c4.58,6.43,7.79,12.57,12.54,17.13,5.14,4.94,11.56,8.62,17.68,12.45,10.65,6.65,23.25,8.47,34.53,13.52,9.09,4.06,19.54-1,28.52,5.25,2.06,1.43,7.52-2.45,11.53-3.35,5.93-1.33,11.79,0,18.22-2.1,13.09-4.35,24.84-11,36.87-17.19a46.35,46.35,0,0,0,21.14-22c10.13-5.6,20.44-7.4,29.94-.37,10.62-7.82,14.65-18.58,18.28-29.51,5.22-15.68,10.61-31.33,15.24-47.19,6.56-22.46,10-45.33,6.81-69.45H2235.8l-5.44-5.44c.66-9.6-2.46-20.56,4.07-29.78,4.07-5.74,4.13-11.11,2.55-19.17l-27.75-9.58c-3.33-2.35-2.11-8.58-1.11-15.56l14.72-10.79c1-11.95-8.61-18.87-12.78-23.25-7.21-21.18-6.81-40-19.76-55Z"/><path d="M1770.61,336.3h23.2a93.36,93.36,0,0,1,4.36,9.37c4.28,12.49,9.89,23.48,24.91,25.51,3.6-11,12.87-16,18.37-22.84h14.34c-.39,5,1,11.05-1.35,13.2-7.94,7.45-8.77,18-13.4,26.06,1.79,3.47,3.42,6.62,5.63,10.92l25.18,3.48c7.14-5.27,13-9.59,18.8-13.91,7-16.82,3.9-38.35,22.7-48.65,11.72,6.39,4.47,20.6,13.62,27.18h14.81c16.55-16.55,16.55-16.55,17.54-41.06,4.66-17.59,15.92-20.58,28.57-20.29,4.31-5,8.38-8.54,9.81-15.72,2.11-10.55,8.23-20.3,12.45-29.95,13.36.64,9.08,12.46,13.16,18.48s-1.78,13.6-5,19c-13.12,6.11-21.89,15.52-29,27.11,1.84,15.33-4.89,32.53,9.82,46.49,10.12-.65,21.36,2.14,32.18-5.45,1.2-4.28,3.67-9.36,3.82-14.52.26-8.47,2.68-15.51,9.41-21.71h15.36L2070,340.08l6.56-.49c1.07-8.27,1.81-15.68,12.66-15.2,2.32.11,6.15-3,7-5.39a75.57,75.57,0,0,0,4.07-19.29c.64-10.14.17-20.35.17-31l9.48-6.87,9.87,12.25h18.7c1.33-13.62-8.14-20.55-16.64-29.41l6.13-11.55c17-.5,31.52-3.63,44.1-11.7,3.91-25.81-3.1-56.89-19.66-91.44-11.32-2.91-19.07,5.8-29.25,8.61v16.93c-4.36,6.12-6.93,9.71-10.07,14.11-17-11.22-33.23-21.34-48.73-32.46-5.5-4-11.41-6-17.23-5.52-7.56.55-15.25,2.85-22.33,5.75-29.41,12-59.92,22.17-81.49,47.82-11.25,13.37-26.44,20-43.07,25.14-12.39,3.83-25.9,8-30.46,17.07l-7.7,20.85c-8.8,6.55-18.5,3.33-27.62,3.64-10.16.35-20.35.08-29.42.08-6.8,4.14-14.53,5.92-16,14.67-.29,1.74-3.76,4.38-5.55,4.22-8.67-.78-11.44,6.15-17.16,11.36l10,22.35-12.61,10.58C1764.42,323.19,1760.93,331.59,1770.61,336.3Z"/><path d="M2407,113c-11.76-6.67-25.36-7.93-38-9.26-9.64-1-20.08,5.62-30.17,8.85-15.54,3.74-33.57-3.84-47.77,12V151c-12.1,7.45-15.44,19.92-23,32.43,1.17,6,2.76,14.16,4.22,21.65l18.82,6.25c6.78,6.79,14,14,19.82,19.82,8.92,3.1,16.09,6,23.48,8,3.2.87,7.74,1.37,10.17-.23,15.88-10.5,34.77-17.56,44-36.09,2.3-4.61,3.68-9.67,5.66-15l-15.64-20.92c15.93-14.1,39.28-23.63,35.07-51.17A55.83,55.83,0,0,1,2407,113Z"/><path d="M2394,11.37h-63.14l2.4,3-19.4,15.46C2320.45,42,2331.72,44,2342.69,45.7c10.83,5.71,13.1,20.87,26.53,22.81,4.39-2.72,8.84-7.76,12.43-7.21,7.75,1.18,3.46-9.73,9.7-8.23l18,19.13h13.25l13.62-12.54V0h-40.51Z"/><path d="M1891.91,500.3h11.67c29.58-28.43,56-58.84,82.21-89.59-17.43-8.4-35-5-51.51-5.75-7.22,4.43-15.63,7.07-20.06,12.79-11.7,15.1-21.67,31.53-31.89,46.78C1882.66,477.69,1879.82,490.68,1891.91,500.3Z"/><path d="M2151.14,311.21c7.5,19.32,13.54,39.35,38.78,45,10.63-14.28,20.56-27.78,16.78-46.48l-12.77-7.53H2162.7Z"/><path d="M2256.67,125.46l15.88-14.4c-6.3-12.27-9.58-27.81-29.35-27.32-2.68,4.07-5.63,8.57-8.46,12.86v24l4.9,4.89Z"/><path d="M2325.06,453.28l-17.75,4.78v22.36l16.84,6.41,8.87-14.55C2330.43,466.08,2328,460.16,2325.06,453.28Z"/></g></g></svg>