<svg xmlns="http://www.w3.org/2000/svg" viewBox="0 0 2021.04 3663.92"><title>Asset 1</title><g id="Layer_2" data-name="Layer 2"><g id="Layer_1-2" data-name="Layer 1"><path d="M2018,3593.11c-1.36-17.12.49-34.18-2.34-51.53-3-18.67-.39-38.07-3.21-57.22-2.77-18.85.76-38.06-2.74-57.32-3.21-17.68,0-36.09-3-54.33-3.08-18.76.28-38-2.85-57.29-3.21-19.69.29-40-3-60.19-3.07-18.76.58-38.06-2.88-57.29-3.09-17.23,0-35.11-2.9-52.89-3.14-19.22.24-39-2.95-58.73-3.1-19.23.5-39-3-58.74-3.12-17.75.33-36.07-2.81-54.37-3.21-18.68.12-38.05-3-57.25-3.07-18.76.49-38.05-2.87-57.29-3.19-18.21.24-37.07-2.93-55.82-3.08-18.23.29-37.08-3-55.8-3.09-17.76.18-36.07-2.8-54.37-3.36-20.65.51-42-3-63.11-3-17.77.28-36.1-2.87-54.36s.21-37.06-2.91-55.82c-3.19-19.2.25-39-3-58.73-3.11-19.23.71-39.07-3-58.74-2.79-14.82-.78-30.25-2.75-45.57-3.12-24.18,1-48.86-3.19-73.34-2.73-15.88-.26-32.2-2.58-48.55-2.88-20.2-.44-41-3.29-61.61-2.56-18.4,1.44-37.18-2.81-55.87-2.31-10.19,0-21.37-.52-32.07s-1.91-21.61-2.8-32.42c-1.24-15.18,1.4-30.35-2.46-45.7-2.53-10.09-1.23-21.39-.27-32,1-11.15-3.09-21.49-3.34-32.43-.39-16.66.5-33.21-2.08-50.07-3.16-20.66.11-42-3.23-63.08-2.68-16.88,1-34.22-2.82-51.47-2.37-10.69-1.16-22.39-.24-33.52,1-11.62-3.2-22.45-3.36-33.9-.21-15.19,1.56-30.34-2.19-45.7-2.58-10.58-1.3-22.37-.27-33.49s-2.87-21.54-3.27-32.43c-.59-16.18,1.69-32.35-2.39-48.62-2.3-9.17-1.17-19.46-.21-29.12,1-10.21-2.84-19.58-3.25-29.51-.75-18.61.85-37.12-2.24-55.91-3.15-19.18,0-39-3.09-58.71-3-19.28.6-39-2.82-58.76-3.07-17.72-.11-36.1-3-54.34-3.11-19.75.77-40-2.9-60.21-3.13-17.22,0-35.11-2.9-52.89-3.14-19.22.48-39-3-58.73-3.13-17.75,1.13-36.16-2.92-54.38-2.38-10.68-.06-22.34-.54-33.53s-2-22.58-2.79-33.88c-1.19-16.16,1.48-32.33-2.52-48.61-2.37-9.65,0-20.38-.54-30.6s-2-20.63-2.79-31c-1.4-18.58.94-37.11-2.37-55.92-3.2-18.15-.08-37.09-3.13-55.77-2.83-17.34.19-35.11-2.76-52.92-3.26-19.68.31-40-3-60.18-3.1-18.75.5-38-2.88-57.29-3.19-18.21,0-37.06-2.87-55.81-3.06-19.71.32-40-3.09-60.19-2.76-16.34.68-33.21-2.83-50-2.43-11.67-.09-24.28-.57-36.45-.48-11.8-1.87-23.56-2.81-35.35-1.26-15.66,1.66-31.34-2.47-47.16-2.5-9.58-.08-20.37-.57-30.58-.48-9.86-2-19.65-2.78-29.5-1.35-17.12,1.64-34.28-2.52-51.53-2.44-10.14-1.25-21.42-.22-32s-4-20.49-3.15-31c0-.49,0-1,0-1.47,1.32-21.56-1.64-42.87-3.82-64.62-1.55,1-2.89,2.46-4.36,2.61-15.81,1.6-31.57,3.64-47.33,5.59-13.92,1.72-28.29,1.22-42.34.12s-27.36,3.42-41.21,3.25c-25.83-.31-51.68.4-77.5-.22s-52,3-77.75-2.79c-43.94-1.42-87.9,2.14-131.88-2.59-30.59-3.29-61.56,2.08-92.4-2.86-14.73-2.35-30.2-1.17-45.25-.19s-29.35-2.9-44.13-3.31c-25.43-.71-50.87,2.21-76.36-2.34-13.23-2.36-27.24-.85-40.86-.29-13.91.57-27.22-3.79-41.21-3.4-16.12.45-32.29,1.62-48.6-2.09-11.13-2.52-23.35-1.23-35-.27-12.1,1-23.48-2.9-35.36-3.31-18.61-.64-37.16,1.72-55.92-2.24-12.6-2.66-26.23-.13-39.37-.62-12.78-.47-25.52-1.86-38.27-2.81-14.7-1.09-29.38,1.26-44.24-2.45-10.1-2.51-21.39-1.22-32-.27s-20.54-3-31-3.29c-16.18-.47-32.25.3-48.6-2.14-20.68-3.09-42,.22-63.09-3.24-15.9-2.62-32.28,1.17-48.55-2.8-9.66-2.36-20.39-.06-30.6-.55-9.86-.47-19.66-2-29.5-2.78-14.69-1.19-29.4,1.42-44.24-2.51-9.11-2.41-19.45-1.2-29.1-.24-10.21,1-19.59-2.82-29.51-3.26-15.69-.7-31.36,1.84-47.16-2.36C334,6.09,323.71,8.45,314,8c-9.37-.47-18.67-2.29-28-2.73C260,4,234.11,3.24,208.2,2.12c-1.89-.08-3.73-1.55-5-2.12-1.46,6.11-3.74,11.86-4.06,17.71-.71,12.79,0,25.53-2.79,38.33-2.08,9.52.59,19.67-2.92,29.54-1.84,5.19.06,11.61-.43,17.42-.5,6-2.9,11.92-2.62,17.79.8,16.34-5.13,32.17-3.14,48.52.12,1,.43,2.27-.05,2.87-4.64,5.93-2.13,12.85-2.89,19.31-.82,6.92-2.93,13.85-2.69,20.72.58,16.32-5.37,32.14-3.14,48.51.13,1,.43,2.31-.05,2.87-5.53,6.33-1.77,13.88-2.84,20.78s-2.28,13.78-2.88,20.72c-1.2,13.71-2,27.46-3,41.19,0,.48.2,1.13,0,1.44-4.88,6.38-3.33,13.9-2.61,20.71.84,7.92-3,14.68-3.3,22.21-.67,16.18-1.86,32.34-2.83,48.51,0,1,.42,2.39-.07,2.86C155.31,447.28,159,454,158,459.87s-2.22,11.84-2.87,17.8c-.92,8.38,2,17.2-3,25.11,2.1,13.47-2.63,26.41-3,39.72-.43,13.75-1.83,27.47-2.8,41.2,0,.48.2,1.16,0,1.43-5.59,6.29-1.84,13.86-2.86,20.76-1.1,7.37-2.78,14.78-2.79,22.18,0,15.29-5.24,30.18-3.11,45.58.12.92.29,2.33-.22,2.78-5.34,4.82-1.59,11-2.66,16.48a163.37,163.37,0,0,0-2.87,16.34c-.88,9.36,0,18.6-2.48,28.16-2.49,9.79-.32,20.54-3.16,30.9-2.31,8.47.18,17.53-2.69,26.66-2.71,8.65-.67,18.48-3,28s-.63,19.53-2.93,29.49c-2.18,9.44-.69,19.54-2.93,29.49-2.14,9.47-.27,19.61-3.08,29.48-2.41,8.46.51,17.49-2.65,26.68-2.93,8.52-.19,18.5-3.15,27.95s.9,19.38-2.65,29.6c-3.1,8.9-1,19.42-3.06,29.38-2.23,10.94-.29,22.53-3.07,33.86-1.86,7.57-1,15.66-2.75,23.68-2.22,9.94-.55,20.53-3,30.94-2.14,9-.11,18.58-2.93,28-2.62,8.84.24,18.47-2.75,28.09-2.69,8.64-1,18.5-3,28-2.23,10.46-.8,21.47-2.9,32.41-2.84,14.84-2.42,30.3-3.37,45.49-.09,1.46.56,3.31-.11,4.33-3.69,5.58-3.57,11.91-2.61,17.82,1.08,6.59-2.88,11.76-3.2,17.83-.82,15.69-1.9,31.37-2.86,47-.06,1,.4,2.27-.07,2.87-4.36,5.45-2.24,11.85-2.93,17.84s-2.21,11.84-2.78,17.81c-.95,9.84,0,19.56-2.49,29.61-3.09,12.73-2.48,26.37-3.42,39.61-.13,1.94.76,4.44-.15,5.76-4.23,6.09-3.11,12.89-2.6,19.33.54,6.85-2.48,12.84-3,19.29-1.29,15.65-2.06,31.35-3,47-.06,1,.41,2.33-.08,2.86-4.92,5.37-2.06,11.9-2.88,17.86-.88,6.43-3,12.9-2.68,19.25.88,15.39-5.37,30.19-3.15,45.59.07.48.21,1.13,0,1.44-4.53,5.91-3.22,12.83-2.7,19.27.55,6.85-2.48,12.83-3,19.28-1.27,14.68-2.05,29.4-3,44.11-.06,1,.41,2.32-.07,2.87-5.19,5.85-2,12.87-2.87,19.31-.93,6.91-3.06,13.88-2.69,20.71.83,15.4-5.38,30.19-3.17,45.6.14,1,.44,2.4-.05,2.85-5.77,5.23-1.76,11.95-2.83,17.87s-2.39,11.83-2.87,17.8c-1.22,15.17-2,30.38-3,45.57-.06,1,.42,2.34-.07,2.87-5,5.35-2,11.9-2.87,17.85-.92,6.43-2.1,12.82-2.87,19.27-1,7.88,2.16,16.27-3,23.64,2.2,15.35-4.25,30.18-2.75,45.46l26.4,26.4v15c6.8,5.49,13.77,9.39,18.42,17.28s7.69,15.22,7.64,24.74H13.94c1.44,10.79,1.19,21.44,4.48,30.85,6,17.07,13.75,33.25,29.26,44.82,9.78,7.29,19.16,11.91,31.72,12.26,11.72.33,24.21,2,31.9,13.41-1.36,17.36,4,32.19,15.39,44.49,10.77,1.17,21.61-2.56,31,4.31,1.39,4.29,2.79,8.59,4.27,13.17h10.07l10-17.2h13.37c16.8,8.1,25.48,21.9,35.89,34.54V2304c4.4,7.34,9.63,12.86,11,19.21,1.57,7.27,2.69,14.36,6.4,20.69,8.29,2.06,17.18,1.33,23.31,8.2v17.82c15,13.48,28.2,28.51,35,47.84-2.12,5.7-2.62,13.24-6.56,16.19-5.46,4.08-7.9,8.09-8,15.38,2.37,1.27,5.27,2.55,7.89,4.28a80.47,80.47,0,0,1,6.37,4.92c.52,4.73.77,7,.82,7.46l18.42,15.32c-1.75,3.68-3.29,6.92-4.65,9.76h-9.8c-1.42,1.41-2.79,2.79-4.17,4.17-.3,18.23-.3,18.23,6.86,27.71,13.58,2.61,25.42-4.15,43.76-13.71,19-2.76,35.3,2.36,51.19,9.13,5.65,14.56,4.16,20.06-8.46,28.1-2.94,1.88-5.12,3.23-6.05,7-.61,2.46-3.62,4.32-5.56,6.46v10.35c6.16,10.14,15.45,14.83,24.48,19.91,5.16,2.91,11.93,5,14.73,9.55,3.91,6.28,8.42,10.81,15.28,13.67l13.48-9,16.73,4.12c0,7.67,3,12.7,7.45,17.16,6.6,6.64,13.29,12.87,17,22.22,2.45,6.25,8.28,11.35,13.12,16.45,8.73,9.18,17.86,18,26.29,26.41,1.28,5.08,4.22,10.06,3.06,13.77-1.41,4.55-2.88,8.7-2.15,13.7,3.4,3.14,6.86,6.51,10.53,9.63.93.78,2.54.76,3.76,1.08v20.83L563,2760h11.47c13.23-11.27,23.1-24.67,29-40.66,5-.3,10.08-1.65,13.7,4.5,0,6.88.54,14.66-.19,22.33-.49,5.21,1.7,9.53,4.09,13,5.41,7.73,12,14.65,18.45,21.63,1.76,1.91,4.57,2.86,6.94,4.27v15.14l8.88,5.67c1.92,8.1,4.13,17.38,6.27,26.42l13.8,13.8c-.26,8.81,5.1,17.08,3.18,26.26,4.54,6.21,3.51,17.83,15.92,16.4,7.54,4.79,15.58,9.3,19,18.08,2.35,6,6.34,10.39,10.84,14.5,5.92,5.41,12.06,10.59,18.41,16.14.13,11.3.13,11.3-2.75,17.13,6.88,10.86,9.65,14,18.47,18.36,7.66,3.81,14.58,9.35,23.88,9.58a17.72,17.72,0,0,1,9.89,4c10.22,8.38,20,17.24,29,25-4.18,9.14-1,17.54-2.76,25.46-9,2.07-10.52,9.23-11.42,16.76l4.85,4.78h13.6l26.94,34.8,24.62,4.09,3,3V3118l6.21,6.2v24.35l7,9.23c4.9,0,8.8,0,12.7,0,1.79,0,15.39-4.4,16.62-5.69,5.82-6.15,13.16-6.55,20.5-5.85,2.68,2.52,5.15,4.86,8.06,7.61v23.54l17.1,8V3210L997.32,3242c0,5.94,1.81,13-.46,18.42-2.82,6.66-2.63,13-2.24,19.44.35,5.84,2.58,11.58,4,17.28l12.81,19.43c2.49,11.59-1.13,21.23-5.74,29.39a39.83,39.83,0,0,0-5.15,24.47l11.44,15c0,8.63.76,18.44-.2,28.08-1,10.19,4.46,19.43,3,29.62-3.58,2-5.06,6.13-10,7.5a17.49,17.49,0,0,0-12.62,12.73c4.88,13.25,17,19,28.31,25.32v9.68l-8.08,5v13.85l13.11,7.3c1.72,8.07,3.25,15.22,4.21,19.74l15.63,10.58c2.31,7.88,3.85,13.1,5,17.06l11.1,5.26q6.15,15.63,12.37,31.45h26.49c7.42,9.07,13.54,17.21,20.36,24.73,7.57,8.33,12.44,17.41,11,30.36h15.78c40,0,79.94.54,119.9-.15s80.06,1.28,120.2-2.18c33.87-2.91,68.19-.6,102.31-.6,33.63,0,67.27.46,100.89-.12s67.54,2.81,101.16-2.67c5.7-.93,11.68-.13,17.53-.13h222.28c5.84,0,12.69,1.91,17.29-.49,6.06-3.17,10.09,1.46,15.42.9,18.43-2,36.91-4.44,56.46-3.85v-7c0-9.26.38-18.54-.11-27.78C2020.32,3610.81,2018.73,3602,2018,3593.11Z"/></g></g></svg>