<svg xmlns="http://www.w3.org/2000/svg" viewBox="0 0 2501.71 3698.48"><title>Asset 1</title><g id="Layer_2" data-name="Layer 2"><g id="Layer_1-2" data-name="Layer 1"><path d="M1443.9,2266.13c56.89-5.07,109.73,19.13,165.78,15.08,22.15-1.6,44.5-.26,65.94-.26,6.37,53.47-3.07,103,6,152.48l64.77-21.25v-25.79c22.75-14.16,45-26.75,65.9-41.36,21.49-15.05,47.94-28.24,60.64-49.25,13.88-23,40.39-29.66,52-51.18-3.78-29-24.16-43.09-45.15-57-3.85-2.54-6-7.69-10.47-13.77l55.2-5.79c-14.87-15.43-31.1-19.55-47-24.58-2.52-.8-3.75-5.7-6.63-10.43l39.15-5.81c2.93-24.78-10.77-33.72-29.27-38.17-9.7-2.32-24.35,5-25.16-13.13a77.52,77.52,0,0,1-11.83-8.84l4.33-4.33q4.77,5.61,9.56,11.21l-1.25,1.24c31.36-28,31.25-28.36,17.21-65.39l22-7.51v-68.69l-24.87-35.58,18.4-3.64c-3.16-8.32-6.73-17.69-10.29-27.06l-7.57,5.29c-.56,7.59-1.12,15.2-1.76,24l-27.26-20,14.2-14.21-44-21.8-20.18,13.74-20.22-22.62,15.85-31.16-62.75,15.69c-5-12-8.26-20-16.71-40.46-2.33,25.28-3.32,36.09-4.43,48.15l-20.36,7.39c-7.71,19-14.67,36.13-23.56,58L1638.84,1848l44.46-48.55-54.76-110.83-28.39,14.11-25-25.21c-20.67,0-41.22,0-61.76,5.07,4.56-19,9.12-32.91,13.65-46.7,47.69,1.86,90.62,5.18,122.66-33.64-24-34.83-61.9-41.68-100-48.45-2.92-.52-5.12-5.1-1.56-1.31,2.14-21.58,3.67-37.12,6.24-63.1l-81.13,50L1391.75,1514c-1.54-26.59-2.79-48.26-4-69.56h-25.22c5.35-11.13,10.71-22.25,16.86-35l-15.76-5.45-56,54.2v-40.22c-20.68,7.69-36.19,24.49-55,5.23l30.58-14.09c-3.82-7.81-7.14-14.58-13.33-27.2l-37.48,34.08c-20.53-22.67-41.22-12.69-61.87,1.06l-9.2,11.37L1156.8,1417l-11.37-9.2,11.37-4.51,43.09-55.27-13.53-21.13,10.27-14.1c-13.06-12.8-36.74,7.1-45.16-19,24.4,2.7,37.17-5.29,45.48-25.54l-45.12-26c-11.36,5.19-16.91,7.73-21.74,10.88a77.52,77.52,0,0,1-8.84,11.83l-4.33-4.32,11.21-9.56c.89.89,1.78,1.78,2,2-4.21-5.19-7.45-13.44-11.24-13.71-19.22-1.35-38.58-.62-55.35-.62,4.76-17.8,7.89-29.47,11-41.14-15.86,0-31.72.3-47.54-.4-1.89-.09-3.53-5.64-5.33-8.73l20.93-7.88-14-52.8H936.93c1.2-10.81,1.88-17,2.57-23.17,18.79,2.4,37.62,29.17,52.73-3l-46.72-38.71,60.18-5v-21.8L951,1030.47l-.12-5.91,62.85-13.83,33.39,11.69c0-17.16-1.29-28.16.35-38.7,1.69-10.8,6.24-21.16,9.89-32.81-9.26-5.38-16.61-9.66-23.24-13.31,8.43-7.79,17.57-15,24-20V882.13c-13.85,0-25.28,1.48-36.09-.46-9.09-1.63-17.46-7.25-25.41-10.78l-11.37,11.37-19.85-20.73c10.54-14.48,33.72-23.32,26.22-47.26a76.23,76.23,0,0,1-11.83-8.84l4.33-4.32,9.56,11.2a24.9,24.9,0,0,1-2.06,2c9.73-7.35,18.83-14,25.63-18.94-7.64-15.28-13-26.06-18.33-36.63H978.52c0-9.08,1.41-18.46-.4-27.17s-6.82-16.87-8.31-20.34L996,684.77l-39.49-20.36-9.78,9-49.66-16.68,3.28-5,36.92-6.75V629l-43.86-27.58v-79.8l-50.65,15.41-42.52-11.5c2.34-22.28,20-10.3,36.93-15.74l28.92-32.24V418l-33.92-4.79c2.22-19.16,3.89-33.66,6-52.22-16.84,0-34.27,0-45.93,5.5-22.37,6.87-39.22,7.69-56.07,8.5l-6.6-8.87,33.92-10.77a250.47,250.47,0,0,0,28.75,11.14c3.39-12.68,12.53-19.86,25.15-29.77-6.88-18.47-14.22-38.2-21.49-57.76-8.75,5.09-15.94,9.27-22.41,14.08a76.85,76.85,0,0,1-8.85,11.82l-4.32-4.32,10.9-9.3c-8.8-7-17-13.48-24.88-19.67l32.33-35L715.07,173l17.7-30.76c-5-9.51-9.81-18.59-14.6-27.65l1,1L730.4,106l-4.32-4.32-9.56,11.2,1.31,1.32c-7.14,4.19-14.33,8.41-29,17,5.19-16.81,8.51-27.58,12.43-40.3-1.67-1.89-6-6.73-11.79-13.26,29.55-11.53,11-26.53,4.68-37.11L709.5,0c-15.82,10.12-21.62,16.06-28.45,17.69-10.2,2.45-21.12,1.86-36.38,2.86,8.49,18.55,14.53,31.73,20.49,44.74l-35.59,20,35.91,40.34c-41.6,10.69-20.73,52.58-45.16,70,8.77,16.16,16.44,30.27,23.75,43.75l50-19.17-24.2,24.2c-13.74,48.29-4.5,81.65,12.53,127.64l-71.81-45.2c-1.18,19.17-1.94,31.56-2.57,41.65,30.68,23,80,11,87.59,56.68l71.68-28.92,23.09,46.64H710.06l-15.19,36.31,42.68,16.4c-23.93,19.85-54.34,32.74-57.29,50.26-5.16,30.59-48.76,17.72-43.75,56l22.93,9.48c7.46,26.6,14.83,52.85,22.4,79.84l15.1-13.05,32.35,49c-4.45,21.49-5.76,38.94-11.93,54.46-6.24,15.68-17.3,29.45-27.16,45.54,4.44,8,9.55,17.2,14.59,26.26C679.35,892.47,678.5,944,640.31,967.94c10.42,27.25,18.7,48.87,27,70.53L628.87,1057c11.08,19.53,21,37.07,30.84,54.37l-28.37,10.33,84.15,42.75L663,1183.3c26.5,46.13,5.09,92.32,17.7,136l58.65,4.75-66.52,33.49,18,28.49c-4.59,11.49-10.65,22.92-13.59,35.1-2.83,11.76-2.44,24.3-3.4,35.64l-35.48-16.41c-3.73,32.36-7.6,58.91,9.24,84.62H607l-50.38-57.25L507,1485.41,458,1410.59c-12.35,11.94-20.38,23.43-31.4,29.29-10.8,5.74-24.66,5.75-34.31,7.69l-10.38,27.7L331.22,1450v-31.24c-39.62-7-62.82-29.89-78.81-62.49a654,654,0,0,0-34.34-61.06c-1.76-2.79-11.75-.38-20.64-.38l14,28.13-16.86,25.16,14.32,21.09-13.41,18.15,16.7,34.79L189,1445.41c-10.84-11.52-22.61-22.31-32.27-34.75-10.5-13.52-19.17-28.49-28.38-43-6.88-10.83-13.35-21.92-24.26-39.92-11.09,56.84,19.66,88.07,35.37,123.34l-45,48.07L76,1482.84l-59.81,34.92c24.22,21.47,15.49,42.69,13.93,61.8L0,1585.68c25.63,58.44,33.73,119.9,61.15,165.6L115,1777c-5.88,23.44-12.7,39.8-13.48,56.45-1,22.08-12.81,31.19-28.38,35.83l-43.74-18.78c4.89,24.94,7.93,40.48,11.29,57.6-2.42,4.16-6.66,11.48-12.07,20.8,16.3,13.13,35,22,43.71,36.72C84,1985.5,104.12,1983.3,122,1996.89l26.13-70.39c7.37-2.68,13.52-4.49,19.3-7.11,7.39-3.36,14.5-7.36,31.22-16-12.46,60.85-23.08,112.69-36.2,176.68l-17.06,10.95c6.67,21.8,11.51,37.62,18.66,61,12.3-15.06,20-24.48,31.95-39.11l20.67,57.24,44.57,2.49c3.5,9.93,6.29,17.87,8.86,25.19l30.75-17.23,23.27,63.16q1.17-2.31,2.35-4.62l28.18,45.44,53.28-16.07,47.25,47.26,24-10.1c7.26-41.31,14.33-81.5,20.15-114.63l27.76-13.12c-2.16-8.44-2.4-13.06-4.49-16.58-2.26-3.8-6.24-6.59-8.09-8.44,27-35.22-8.89-86.85,38.46-117.1L607,2028.5l30.67,30.62c-55.36,3-55.36,3-101.82,26,18.1,38.13,36.23,76.3,56.35,118.67l-13.1,33.61c102.46,9.42,198.73-4.51,295.2,14.13,73.88,14.28,151-2.54,227.44,13.47,54.71,11.46,113.76,2.23,170.88,2.23S1387.24,2271.18,1443.9,2266.13Zm69.26-584.62c0,.4,0,.79,0,1.15-17.81,5-35.63,5-53.45,5q-.12-3.08-.22-6.17Zm-481-746a27.36,27.36,0,0,1,2,2.05,76.87,76.87,0,0,1-8.84,11.83l-4.32-4.33ZM778.4,551.72l-4.33-4.32,11.21-9.56a26.84,26.84,0,0,1,2,2.06A76.79,76.79,0,0,1,778.4,551.72Zm32.65,101.45q-4.42-4.09-8.87-8.17c11-12.9,22-25.8,33.44-39.15l22.25,8.42ZM964.8,773.69v22.36H881.38C919.63,786.38,942.16,780.69,964.8,773.69Zm188,492.81q2.61,13.39,5.24,26.8c-2.87.15-5.74.3-6.56.37-6-8.56-6.8-17.3-7.55-26.05Zm105.63,245.2-4.33-4.32,11.21-9.56c.89.89,1.78,1.78,2,2A77,77,0,0,1,1258.39,1511.7Zm82.28-41.14-4.32-4.32,11.2-9.56a25.34,25.34,0,0,1,2,2A76.87,76.87,0,0,1,1340.67,1470.56Z"/><path d="M771.57,291l-.31.26,2.27,1.8A27,27,0,0,0,771.57,291Z"/><path d="M1856.4,2075.24l-.81.72A8.68,8.68,0,0,0,1856.4,2075.24Z"/><path d="M2003.83,3030.29c-.49-1.37-1-2.73-1.49-4.1-.89,3.6-1.94,7.55-3.19,11.93C2000.82,3035.28,2002.37,3032.68,2003.83,3030.29Z"/><path d="M2476.91,3378.8c-25.76,37.92-44.61,65.71-63.66,93.37-.32.46-3.07-.74-4.68-1.17-6.63-15.5-13.25-31-19.11-44.72,18.81-49.07,36.51-95.22,54.22-141.37l-7.58-5.62-28.94,29.59-30,2.41c-10.31,21.31-21.63,41.8-30.28,63.37-9.36,23.32-16.24,47.63-26.3,77.84l-43.68-48.58,32.79-70c-7.84-23-39.79,4.42-42.71-23.75a76.23,76.23,0,0,1-11.83-8.84l4.33-4.32,9.56,11.2a26.68,26.68,0,0,1-2.06,2c13.67-.71,26.72-.71,41.64-.71,16.94-61.46,77.21-78.52,115.84-123.59-8.69-14.69-16.53-27.95-27.3-46.14-11.31,19.69-18.78,32.69-22.93,39.9l-48.61-7.67c-3.06,11.67-4.68,17.85-6.29,24-23,12.38-38-.24-51.52-16.73l16.54-17.77-39.44-65.3c29.8-27.59,66.78-47.52,77.85-90.57-50.17-55.49-76.52-63.73-128.9-43.87l-31.28-10c-4.46,12.94-7.2,20.91-10.67,31-8.6-29.81-16.53-57.28-24.94-86.38l-56,37.24,56.7,13.06-23.6,19.1.42-.41-9.56-11.21-4.33,4.32,11.21,9.56,0,0c-20.92,24.08-53.39,19.29-73.27,28.39-8.64,10.06-14.21,16.55-24.77,33.87a54.89,54.89,0,0,1,2.78,10.43c.28,2-4.89,4.68-7.46-2.6-3.17-.09-.82-8.35,1.53-16.62.52,1.57,1.09,3.13,1.66,4.69,4.72-19.13,4.72-28.2,4.72-36.2,10.77-14.07,20.8-27.2,27.9-36.48l-20.76-32.06-20.85,31.48,11.37,9.2a53.63,53.63,0,0,0-10.65,5.14h0a99.89,99.89,0,0,1-.72-14.34l-55.75,7c-22.35-14.79-37.06-49.32-62.78-68.63l92.67-65.93q-1.89-4.84-3.76-9.71l-55.54,8.52-12.29-17.7-44.41,8.53,17.33-20.07-20.28-21.5-98,133.81-15.93-31c27.77-23-4.25-66.27,25.81-89.78,25.39-19.86,30.89-51.5,46.94-74.64,18.51-26.68,15.46-65.24,49-80l-10.15-12.69,65.67-55.6-14.21-16.21c5.62-18.93,10.94-36.82,16.36-55.07-48.76-10.89-48.76-10.89-54.49-48.55,28.09,28.05,59.28,10.24,89.45,16.72l19.94-62-38.47-19.39-35.54,31.59-11-19.6,1,1,11.21-9.56-4.33-4.33q-4.77,5.61-9.56,11.21c.43.42.85.85,1.27,1.27-8.42,1.58-17.84,1.29-25.06,5.14-31.89,17-63.71,34.26-94.31,53.41-12.15,7.59-21.08,20.32-25.87,25.12,9.53,51-54.74,71.32-30.17,116.56l-53.83,39.67c-4.09,12-6.59,24.94-12.71,35.89-9.42,16.86-27.61,31.14-31,48.63-9,47-32.15,87.3-49.61,130.47-11.71,29-37.87,61.35-7.09,96.17,3.8,4.3-1.06,16.24-2.43,29.81-9-15.29-14.68-25.06-21.68-37l-48.13,48.12c5.95,30.52,54.12,53.32,25.46,93.11-17.74-21-39.37-12.62-56-11.14L1404,3166.3v29.17l39.75,27.24-169.89,150.75c31.94,23.38,5.65,68.21,49.93,90.7l132.85-19.87c2.22-10.94,3.48-17.19,5.61-27.71,27.74,36.07,67.74,3,100.29,27.55,23.9,18,62.06-3,96.73,13.3,29.9,14.06,71.64,2.92,107.83,2.92l17.68-17.68,68.35-13.37,7.86-23.11,35,19.86-9.93,13.62,25,20.68,11.37,9.2-11.37,4.51c2.7,5,5.41,10,8.84,16.27l34.24-17.47,20.71,13.68c8.2-9.42,15-17.25,21.62-24.8l-15.13-23.52,16.75-17c30.42,11.76,58,27.76,90.53,24.75a77.44,77.44,0,0,1,8.84-11.82l4.33,4.32-11.21,9.56a25,25,0,0,1-2-2.06c-5.44,38.87-52.3,18-67.81,51.4v27.2L1987.76,3571h-51.71l-42.92,35.78,22.9,61.34c28.93-31.4,64.48-30.84,96.72-29.37,22.06-14.51,21.37-46,49.86-47.7V3558l49.1-59.51,45.42,13.61c27.08-41.5,20.86-106.47,72.11-128.6l37,26.74c-3.76,20.2,2.09,45,12.6,66l-53.07,125.14c1,12.8,2.41,32.13,4.14,55.24,53.2-19.2,57.34-78.8,100.63-98.76,1.63,3.06,6,7.55,5.17,10.39-2.49,8-7.16,15.37-11.34,23.73l11.8,13c-19.81,53.59-19.81,53.59,10.67,93.5l24.28-35.58,51.75,15.3,36.72-50.35c0-17.15-.87-35.46.26-53.65,1-16.78,4.22-33.41,6.79-52.62,10.79-22.85,23.26-49.28,35-74.25-5.58-11.72-10.72-21-14.48-30.86C2484,3407.94,2482.29,3398.81,2476.91,3378.8Zm-496-404,11.21-9.56c.89.89,1.78,1.79,2,2.06a77.44,77.44,0,0,1-8.84,11.82Zm108.45,28.45h-13.72v-4.57h13.72Z"/><path d="M1316.46,3211.22H1396c-11.75-29.16-35.16-31.11-43.93-36.21Z"/><path d="M2226.42,2893.19,2208,2872.14l-37.23,19.14,28.62,23.3Z"/><path d="M1020.79,1049v34.53l47-34.53Z"/><path d="M1082.38,1155.08l-26,7,20.35,38.62C1094.49,1187.7,1089.65,1172.86,1082.38,1155.08Z"/><path d="M1091.32,1029.55l-7.61-23-28.49,23Z"/><path d="M1868.79,3460.35c2.08,12.4,3.37,20.07,4,24l38.25-10.31v-13.71Z"/><path d="M2211.1,3499.23v-45.78l-25.86,49.14Z"/><path d="M992.44,1103.1l40.41-5.29c-.28-3-.55-6.11-.83-9.16l-40,1.9Z"/><path d="M1963.2,2598.76h-23.61v14.83l27.93-8.87Z"/><path d="M1200.48,1387.2h22.72q-.75-5.92-1.49-11.85l-22.31,5.33Z"/><path d="M1014.81,705.3l-6.52,1.08V729.1l11.84-1.48Q1017.48,716.46,1014.81,705.3Z"/><path d="M1949.87,2566.77V2544l-11.75.76q2.51,11.45,5,22.91Z"/><path d="M2153.07,2885.82l-6.53,1.06v22.74l11.85-1.49Q2155.73,2897,2153.07,2885.82Z"/><ellipse cx="1437.93" cy="1492.4" rx="9.7" ry="3.23"/><path d="M1971.51,2293.4l9.47-11.1,11.1-9.47-4.32-4.33q-4.74,5.55-9.47,11.11l-11.1,9.46Z"/><ellipse cx="1012.8" cy="834.13" rx="9.7" ry="3.23"/><ellipse cx="1095.09" cy="1218.12" rx="3.23" ry="9.7"/><path d="M1933.92,2925.51v-13.72h-4.57v13.72Z"/><path d="M2211.34,3459.11l2.68,2.68,11.2-9.56-4.32-4.33Q2216.11,3453.51,2211.34,3459.11Z"/><path d="M1170.51,1417l-13.71-13.71V1417Z"/></g></g></svg>