<svg xmlns="http://www.w3.org/2000/svg" viewBox="0 0 2999.24 3740.67"><title>Asset 1</title><g id="Layer_2" data-name="Layer 2"><g id="Layer_1-2" data-name="Layer 1"><path d="M1631.24,2223c19.82-38.27,48.7-72.46,54.79-121.25-23.22-3-46-9.26-41.09-42.24h67c15.8,31.54,15.8,31.54,73.71,4.05-7.65-16.29-40.4-21.85-18-57.74l41,43.68c35.36-45.43,77.53-92.59,59.1-162.56-15.8-10.77-35.37-19.66-48.54-34.3-14.5-16.1-23.12-37.5-34.19-56.39l52.11-38.13c-12.27-12.42-22-19.27-27.46-28.64s-5.35-21.49-9.6-31.61c-2.12-5.06-9.09-12.37-12.83-11.8-34.7,5.24-42.86-31.14-63.58-40-10.73,4.3-24,12.42-26.24,10.09-29.44-31.32-53.77-1.1-79.86,5.2-13,34.84,6.72,56.38,29.55,78.53,17.52,17,14.15,23.52-7.19,46-6.55,6.89-13.3,23.88-9.81,28.37,24.88,32.08,10,58.36-8.24,84.78-19.93-4,13.09-58.32-39.74-34.29,16,27.3,31.62,53.77,47,79.93l-34.9,50.12c-13.54-16.33-27-34.65-42.64-50.9-21.21-22-38.14-45.41-36.34-77.68.17-3.11,4.73-6,6.9-8.54l17,13.78c-11.66-54.24-4.62-54.61-75.6-113.14-39.85,29.81-7.18,76.09-26.38,115.49-47.39-25-31.36-82.41-66.66-113.17l60.56-10.21-77.68-22.11c-26.8,31.79-43.43-1.9-65.41-5,10.94-15,21.77-25.13,26-37.52,2.3-6.72-6.62-17.28-10.61-26.43,9.26-2.41,15.77-3.87,22.08-6,1.3-.42,1.83-3.18,3.33-6l-71-69.17v-60l-71.16-59.51c31-60.14,31-60.14,13.67-116.47l58.61,9c43.75-31.88,27.74-97.58,61.85-147.47-34-3.09-64.15.74-87.64-10-19.25-8.81-36.48-7.5-53.83-6.74-11.73.51-30.58,10.23-33.18,19.5-15.33,54.58-32.86,110.79-2,165.55,21,37.24,22.08,77.17,5.35,111.9-9.89,20.53,4.87,27.29,6.06,41.51l-45.67,7.15c15.69,30-10.18,63.12,18.89,89,2.34,2.08-.64,13.89-4.43,18.48-20.58,25-7,42.26,11.65,59.12,10.47,9.47,24.11,29.33,30.09,27.18,15.74-5.66,25.16,30.82,39.72,4.14,7.24,8.78,13.68,18.52,22.28,25.65,2.08,1.73,11.18-5.38,17.26-7.93,3-1.27,6.56-1.4,13.32-2.72-1.3,14.72-2.41,27.34-3.78,43L1229.32,1766c0,17.28,2,28.85-.54,39.32-2.72,11.22-9.69,21.41-14.81,32.05l11.1,7.85,27.16-27.21c5,13.78,18.54,32.51,15.49,48-3.59,18.14-19.25,36.17-34.13,49.12-12.43,10.8-31.3,14.21-51,22.41,5,17.22,11.8,34.09,14.29,51.59,2.47,17.3.54,35.23.54,56.11-6.84-6.38-9.75-10.28-13.62-12.52-47.62-27.49-47.5-27.38-31-78.29,2.74-8.48,4.63-17.63,4.54-26.44,0-3.74-5.61-9.6-9.72-10.76-31.05-8.83-45.26-16.68-55-32.27l-63.06,21c20.08,14.75,8.21,26.94,2.76,45.17-10.39,34.82-6.27,37.65-29.92,28.05-33.84-13.73-67.82-12.23-100.54-.68-11.94,4.21-18.28,3.35-30.07.62-33.15-7.66-57.59-25.53-74.61-47.78-13.31,3.77-24.86,11.22-33.21,8.58-21.14-6.7-15.66-42.41-44.69-45.11-2.32-.22-2.09-21.36-4.12-32.59-4.68-25.81-16.9-39-42.36-33-40.36,9.54-88.64,4.38-108.68,41.34,5.9,12.61,11,23.51,12.42,26.54,32.51-6.26,56.71-10.92,77-13.77,7.21-8.55,10.1-12.54,14-14.3,9.09-4.1,18.66-7.12,28-10.57l5.4,18.07c-9.77,2.92-19.44,6.2-29.33,8.57-4.27,1-9,.17-18.1-1.77,4.58,9.1,4.58,16.25,4.58,28-43.24-5.91-59.19,29.78-86.47,52.48,50.53,40.54,28.32,80.44,7.09,125.32-5.36-18.36-35.16-22.56-13.07-47.65,23.09-26.24-6.74-45.45-12.69-67.58-2-7.5-14.45,25.59-25.34-3.73-8.56-23.05-35.1-39.43-47.36-52.22-93.79,16.24-177.3,26.53-248.26-37.53,17.69-37.94,50.6-40.71,88.06-39.22-16-43.22-34.65-71.92-72.85-91.32-20.5-10.41-24.55,20.47-40.82,5.62-16.63-15.18-36.49-26.75-54.19-40.85-31.84-25.38-63.12-51.47-96.64-78.9-19.34,51.52-38,95.88-52.07,141.64-4.91,15.95-6.55,34.72,6.31,53C74.39,1922,144,2009.38,217.29,2094c21,24.25,47.85,42.37,62.07,74.1,8.64,19.31,28,34.67,57.28,32.61,23.66-1.66,49.71,5,71.65,14.84,11.91,5.33,17.6,24.83,25.79,38.13,7,11.33,12,24.3,20.6,34.09,12,13.54,27.68,20.31,45.24,27.92,59.63,25.86,124,32.44,184.72,53.41,54.58,18.84,113.85,24.1,176.35,36.39-13.47,84.06,2.45,169-13.73,256.3-15.7,84.63-3.41,174.46-3.41,262.59H1300.7c0-26.76-3.1-51,1-73.9,3.35-18.9,17.88-35.62,22.57-54.52,4.94-19.9-.74-43.34,7.12-61.36,7.75-17.79,29.56-26.93,28.18-53.37-.64-12.18,25.68-25.64,25.21-38-1.26-33.63,22.31-40.65,51.29-55.68l-37.57-22c38.21-8.1,72.68-7.77,100-28.91v-46.3c-14.4-7.52-25.5-16.22-37.94-19.11-16.92-3.93-34.67-32.2-52.39-1-3-7.32-6-14.65-11.41-27.81,26.21,2.52,44.9-7,65.24,9.22,12.76,10.18,58.8-5.14,67-17,1.12-1.6.16-4.65.16-11l-13.41-18.38c11.47.2,7.68-28.16,31.39-12.09,20.28,13.74,81.34-11.25,80.3-29.88-2.07-37.19,20.77-63.63,29.19-95.56C1661.37,2249.7,1664.2,2224,1631.24,2223Zm110.89-231.76c-1.75,8.67,9.58,33.82-15.87,12.64-1.9-1.59-3.76-3.25-6.35-5.63C1727.58,1989.15,1734.85,1990.17,1742.13,1991.19Zm-38.23,12.6a18.72,18.72,0,0,1,5.59-2.65c.71,8.22-1.25,9.76-3.22,11.29C1705.39,2009.43,1703,2004.47,1703.9,2003.79Zm-607.18-24.16c-17.82,19.71-24-8.71-39.41-12l26.9-31.81C1089.91,1954.33,1101.48,1974.36,1096.72,1979.63Zm51.63,88.55c-1.17.27-3.1-2.87-4.69-4.46,3.17-1.59,6.23-3.72,9.58-4.46,1.18-.27,3.11,2.87,4.7,4.46C1154.77,2065.31,1151.71,2067.44,1148.35,2068.18Zm169.94,368.87c-3.23-3.65-1.6-12-1.32-18.16.08-1.69,3-3.25,4.61-4.86,3.26,2.85,7.75,5.15,9.41,8.76,2.76,6,3.7,12.8,5.4,19.26C1330.15,2440.57,1321.77,2441,1318.29,2437.05Zm49.1,2.32c-3.36-.74-6.41-2.87-9.58-4.46l5.08-5.08,9.2,5.08C1370.5,2436.5,1368.57,2439.64,1367.39,2439.37Zm54.66-254.3c-1.58-3.17-3.71-6.22-4.46-9.58-.26-1.18,2.88-3.11,4.46-4.7l5.08,9.2C1425.23,2181.9,1423.64,2183.48,1422.05,2185.07Zm53.15-9.08,28.56-14.9,109.91,60.22C1553.42,2251.34,1516,2205.93,1475.2,2176Z"/><path d="M2687.74,1772.73c1.32,4.22,3,8.39,4.44,12.6,1.4-4.93,2.79-9.85,3.14-13.24-.49-1.45-1-2.92-1.44-4.42C2691.74,1769.53,2689.71,1771.19,2687.74,1772.73Z"/><path d="M2901.14,2094.07c-7.74-9-16.92-16.65-24.82-25.48-2.76-3.09-3.52-8-8.38-12a26.54,26.54,0,0,1-9.77-8.45c3-.88,8-3.26,8.64-2.37,2.26,3,3,7.12,4.31,10.82h27.66c-11.73-47.2-41.88-64.74-82-72-10.11-1.83-27.31-16.26-26.92-17,18.5-33.39-18.49-29.19-29.16-37.82-8.19-6.63-27.62-24.77-44.89-2.56-2.75,3.54-22-2-30.82-7.67-20.87-13.53-39.91-29.86-60-44.61-3.35-2.46-8.32-2.7-13.22-4.17l-16.73,9.88-37.32-29,43-30.62-64-24.58c36.64-22,72.09-23.77,113.39-11.59,9.77,2.88,21,1,37.67-12.11a46.85,46.85,0,0,1-1.74-7.41c-.29-2.09,5-5,7.88,2.35,1.36.19,1.69,1.88,1.44,4.42,24.19,71.65,75,75.94,137.95,66.62-16.13-26.15-29.93-48.18-43.17-70.55-1.37-2.3.6-6.57,1.05-9.94l33.42-3.55c-3.73-15.53-12.89-31.35-9.41-43.58,8.51-29.95-26.22-20.38-29.43-37.18-.77-4,.63-9.35,2.94-12.82,10.28-15.47,19.9-43.13,19.87-57.15-45.72-18.46-75.44,6.14-108.73,48.87,0-26.73.4-42.51-.38-58.23-.14-2.73-5.27-5.21-5.61-5.52l-47,29.52c-3.24-20.67-5.28-33.74-7.65-48.84H2575.4l-9.2-26.61-34.81,46.17c-17.19-12.15-38.36-29.81-40.19-28-16.85,16.72-25.84,5.47-41.65-2.41-15.23-7.58-37.37,0-55.89-2.89-7.61-1.18-20.45-16.7-19.5-18.14,27-40.69-23.74-28.86-30.51-46,5-5,9.28-12.83,15.27-14.54,13-3.7,27.5-2.35,40-6.86,7.2-2.59,11.73-12.62,28.76-32.47l-123.17,20.63c25.91-18.41,20.39-48.09,48.12-48,1.86,0,3.78-11.71,5.74-18.2l-48.91-23.85c-9.35,21.82-17.79,41.52-25.46,59.44l-37.53-36.39,34.68-49c-19.5,0-28.55,1.57-36.75-.41-9.3-2.24-17.83-7.65-26-11.37-4.77,10.24-6.74,19.62-12.51,24.58-2.71,2.32-17.19-7.49-18.7-5.62-6.79,8.36-10.43,19.2-16.12,28.59-1.52,2.5-6.28,3-13.78,6.36v-58.15L2121.67,1347c-5.82-18.19-6.58-36.55-16.15-46-9.81-9.67-28.33-14.78-42.86-14.42-23.39.57-35.74,15.24-28.28,42.68l.79-.79c2.26,2.77,4.51,5.54.19,4.15,4.91,5.8,2.57,8.84,2,8.55-3.1-1.68-5.77-4.14-8.59-6.34l4-4c-17.6-12.16-29.82-20.94-48.72-34.52-5.42,10.41-11.59,22.22-17.75,34l-10.35-7.14,19.14-52.25c-45.64,12.17-58.56-26.62-84.4-42.65-15.93,3.73-27.54,15.29-47,1.64-18.26-12.79-31.53,11.65-46.28,22.29-21.51,15.52-6.13,29.84,1.46,45.9l-67.4,3.94c-2.73,21.3-4.76,37.08-6.79,52.86-10-9.75-12.67-19.84-9.44-27.36,9-20.94-26.57-31.23-9.28-56.43,16.18-23.58-32.14-28-23.83-53.8-38.58-1.12-35.44-44-52.15-54.78-21.28,3.75-39.17,2.14-50.25,10.07-13.56,9.69-21.29,27.46-31.91,41.45-.87,1.15-5.34-.84-6.8.32-8.77,7-17.16,14.44-25.67,21.75,16.85,9.17,7.3,19.07,2.63,30.6-1.42,3.5,8.85,7.66,4.49,20.24-12.14,35-9.65,36.07,24.57,55.58,5.72,3.26,12.61,4.47,21.31,7.43l-39,44.26c19.78,5.1,5.36,40.42,36.72,35.46,10-1.59,22.53,12.56,33.89,19.51-25.32,9.22,13.92,45-20.76,50.37-3.68-50.15-59.88-56.41-78.77-96.53-1.6-24.53,8.45-53.87-20.25-75.12-6.8-5-7.33-20.73-7.84-31.66-1.91-40.93,15-75.73,43.66-109.24h-85.43c-14.43,19.63-35.65,37.88-42.84,60.57-14.1,44.47-20.38,91.41-29.9,137.33,26.59,34.18,6.26,76.49,19.31,118,29.71-19.68,57.39,39.22,80.24,6.62l33,33c-8,0-21.86-.3-35.72.08-13.36.36-26.7,1.41-44.29,2.4,12.35,33.24,33.2,47,58.49,60.35,21.09,11.13,40.34,12.61,57.86,2.16,11.5-6.86,14.3-3.3,20.9,3.2s14,16.49,21.19,16.66c37.59.85,81.24,10.58,111.2-5,31.19-16.23,46.74,4.7,68.39,7l23.43-29.69c6-4.76,11.89-13.36,18.11-13.63,32-1.39,64-.64,97.77-.64-6-21.68-10.5-37.59-28.23-59.43a47.62,47.62,0,0,1-7.72,1.85c-2,.28-4.88-5.09,2.71-7.77.09-3.3,8.69-.85,17.3,1.59-1.62.54-3.23,1.13-4.84,1.72,27.68,7,43.73,8.45,59.78,9.9-3.46,36.53,37.52,13.65,42.44,29.69,10.53,34.31,36.22,33.39,62.81,37.6,9.37,1.48,17.16,13.05,27.61,21.6l-41.41,27.7,18.33,34.94,61.28-61.29,40.13,45.82c3.48-8.67,6.76-16.82,11.14-27.72,11.83,22.13,18.59,47.68,50.69,44.55,6.92-.67,15.83,8,22.13,14.13,27,26.21,53.46,53.07,80.71,80.3-14.53,57.61-28.62,113.48-43,170.58l74.94,58.43c-36,.72-38.94,45.2-72,34.54-43.51,26.35-43.52,25.84-82.75,27.08-8.3.27-18.65,3.66-24.2,9.36-13.16,13.5,3.11,39.68-21.68,51.22-5.54,2.58-5.35,21.36-4.54,32.44.6,8.26,5.85,16.46,10.06,24.12,19.13,34.77,52.67,23.45,82,25.36,10.19-10.19,22-19.08,30-30.58,17.06-24.37,39.94-30.36,67.62-27.11,2.85.34,6.4-5.4,9.26-8,.55-11.57,1.07-22.61,1.57-33.2,27.94-1.22,50.26-6.19,68.71,17.24,12,15.28,31.47,25.36,48.91,35.53,13.12,7.65,35.39,20.62,41.36,15.86,24.85-19.79,35.06,5.8,47.54,6.19-1.86,14.62-7.24,26.6-3.54,34.1,7.78,15.77,24.19,17.14,41.41,19.57,17.94,2.53,43-17.51,54.2,13.07,22.17-15.1,41.77-21.09,67.35-1.08,18.93,14.8,47.73,24.87,71.08,14.3,40.46-18.33,81.67-11.05,122.71-13.56,3.53-.21,6.76-5.2,9.72-7.64v-30c-44.33-6.84-78-38.77-122.13-49-42-9.72-81.41-30.18-132.6-50,17.07-10.49,25.12-19.49,32.57-19,10.16.63,28,13.52,28.58,12.52,18.86-30.34,37.64-5.62,53,1.65,16.89,8,32.27,13.61,51.47,14,33.28.73,66.48,5.7,99.42,8.86-.89-6.67-6.05-18.6-2.38-22.79C2918,2102.41,2905.79,2099.45,2901.14,2094.07ZM1551.71,1501c-2,3.87-3.7,7.11-5.21,9.85l-3.1-3.1ZM1535,1527c-.88-3-3.25-8-2.37-8.64,3-2.27,7.13-3,10.82-4.32v2.19C1538.81,1524,1536.88,1525.53,1535,1527Zm21.16-21.55c-1.68,3.1-4.14,5.77-6.34,8.59l-1.55-1.55C1554.36,1503.42,1556.34,1505.05,1556.11,1505.48Zm237.13-177c1.59,1.58,4.73,3.52,4.47,4.69-.75,3.36-2.88,6.41-4.47,9.58l-5.07-5.08ZM1779.37,1517c-.95-2.23-3.11-7.28-5.28-12.34,3.93-1.62,8.39-5.26,11.64-4.39,4.6,1.23,8.3,5.78,12.39,8.92Zm529.89,594.62-9.2-5.08c1.59-1.59,3.52-4.73,4.7-4.46,3.35.74,6.41,2.87,9.58,4.46Z"/><path d="M2034.38,1329.27l-1.58,1.59,2.56,1.77C2035,1331.49,2034.68,1330.37,2034.38,1329.27Z"/><path d="M1859.48,1526c2.49-.78,5-1.7,7.45-2.61-3.91-1-8-2.09-12.46-3.31C1856.25,1522.14,1857.91,1524.1,1859.48,1526Z"/><path d="M1559.09,398.36c2.56-.78,5.1-1.71,7.63-2.65-3.72-.93-7.72-2.08-12.06-3.45A37.39,37.39,0,0,0,1559.09,398.36Z"/><path d="M1406.87,586.23l-3.81,3.81,4.14.21C1407,588.87,1406.92,587.54,1406.87,586.23Z"/><path d="M1486.3,728.86Z"/><path d="M1173.16,293.43l-1,.77,3.56,3.55.6-3.74A21.7,21.7,0,0,1,1173.16,293.43Z"/><path d="M1416,552.21l1.57,1.57,1.55-2.79C1418,551.42,1417,551.82,1416,552.21Z"/><path d="M1331.55,353.59l3.84,3.85a26,26,0,0,1-2-6.33Z"/><path d="M1414.92,314.84l16.9-2.42a69.1,69.1,0,0,1-11.55-2.45C1418.5,311.61,1416.73,313.27,1414.92,314.84Z"/><path d="M1151,275c7.67,9.27,13.52,16.33,22.13,18.48,2.41-1.91,4.44-3.24,3.21.58,5.8-4.9,8.84-2.57,8.55-2-1.68,3.1-4.14,5.78-6.34,8.59l-2.81-2.81c-4.4,27.08-9.5,50.84,27.16,49.89-7.07,7.5-11.68,12.41-17.63,18.73l58.3,24.05v-47c-4.67,0-9.82,1.25-13.88-.33-4.58-1.77-8.18-6.07-12.2-9.28,4-1.55,7.93-3.77,12.1-4.48,4.54-.79,9.31-.18,14-.18l9.57-11.84q2.36,5.91,4.7,11.84l11.84,9.57-11.84,4.7v40.24h49.25c9.28-10.88,15.24-17.87,24.43-30l-2.29-2.28c2.77-2.26,5.54-4.51,4.15-.2,5.8-4.9,8.84-2.56,8.55-2-1.68,3.1-4.14,5.77-6.34,8.59-.07-.08-.15-.15-.23-.23,3.73,8.3,10.79,14.36,11.39,13.79,9.27-9,16.1-20.62,25.5-29.49,25.08-23.69,6.23-57.67,19.07-84.75,21.56,13.1-3.74,42.75,28.92,53a63,63,0,0,1,11.4-8.93c1.91-1.08,7,3.46.15,11.38h0c-26.38,23.74-54.48,63.23-67.19,74.3-7.52,6.55-14.21,14-23.83,23.67,15.32,8.25,24.5,15,34.78,18.32,15.86,5.16,9.76,17,15.84,30.21.44-.44.87-.88,1.31-1.31,2.25,2.77,4.51,5.54.19,4.15,4.9,5.8,2.57,8.84,2,8.55-3.1-1.68-5.78-4.14-8.6-6.34l3.66-3.65c-27.72-13.78-49.75-23.33-65.5-42.95-13.73-17.11-30.65,27.24-44.41-1.77-1.95,12.32-9.08,32.89-4.92,35.5,15,9.39,8.79,30,32.26,39.09,28.89,11.19,56.19,40.93,55,73.9,17.11-2.14,33.52-4.2,53.45-11.88l-1-1c2.77-2.26,5.54-4.51,4.15-.19,5.8-4.9,8.84-2.57,8.55-2-1.68,3.1-4.14,5.77-6.34,8.59l-3.76-3.76c-7.06,12.88-11.07,21.59-10.65,32.45l.14-.13c2.25,2.77,4.5,5.54.19,4.15,4.9,5.8,2.56,8.84,2,8.55-3.1-1.68-5.77-4.14-8.59-6.34l2.42-2.42c-106.35-5.42-103.7-11-102,86.45,0,2.86,5.16,5.63,5.45,5.92l67.39-22.8c-12,39.78-4.1,66.9,10.1,76h44.78c-.68,6.49-1.37,13-2,18.62-32.42,9.79-56.39,1.68-75.22-24.14-14.57-20-32.37-19.87-56.47-6.39l45.09,71.14c-54.67,29.78-56,32.35-46.5,91.1,21.33,0,48.51,8.21,62.66-1.88,22.42-16,36.35,1.79,53.47,2.8,22.93,1.35,16.64-17.32,27.71-32.18,37.46,19.35,67.14-12.12,102-28.35l7.63,45.53c23.68-23,45.55-44.14,64.93-62.9V753.21l-35.57,16.46c-24.15-49.46-66.81-18.31-106.88-12.32,7.92-13.54,12.29-21,13.47-28.49a26.71,26.71,0,0,1-9.77-8.45c3-.88,8-3.26,8.64-2.37,2.27,3,3,7.12,4.32,10.82,18.38,0,34.1-.15,49.79,0,22.84.27,32.77-13.63,35.59-33.66,1.56-11.17.28-22.74.28-32.87l-40.17-14.11c28.32-9.76,47-14.8,64-23.09,4.08-2,2.86-14.83,4.77-27.14l-24.74,15.53c-8.61-22.16.28-24.85,17.44-28.8,17.31-4-16.78-17.53,1-30.25,7.3-5.21,5-23.91,7.57-39.8-24.66,0-45.34,5-61.33-1.46-14.92-6.07-17.79-31.76-34.66-33.52,21.75-14.7,45.16-31.56,69.61-46.75,20.58-12.78-3-19.41-16.42-34.62A46.78,46.78,0,0,1,1552,400c-2,.29-4.87-5.09,2.71-7.77.09-3.3,8.69-.85,17.3,1.59-1.75.59-3.5,1.22-5.24,1.86,23.44,5.91,35.11,3.14,40-9.44,4.59-11.75,4.75-25.71,4-38.53-.11-1.91-16-2.92-24.51-1.16a26.55,26.55,0,0,1-8.46,9.77c-.88-3-3.25-8-2.37-8.64,3-2.26,7.13-3,10.82-4.32v3.19c6.84-27.75,32.53-46.49,16-78.95-5.91-11.59,9.34-32.94,12.15-50.29,3-18.25,2-37.12,4-55.56.52-4.63,6.21-8.68,10.57-14.35-40.47-16.17-22.36,43.3-57,34.43,0-8.1-3-18.57.59-25.84,8.75-17.88,20.14-34.55,31.15-51.25,27.89-42.32,12.33-81.32-35.35-90C1553.33,12,1539,5.52,1522,0c-11.53,14.08-23.61,28.84-35.69,46.77a26.55,26.55,0,0,1-8.46,9.77c-.88-3-3.25-8-2.36-8.64,3-2.26,7.12-3,10.82-4.31V18.69c-39.27-9.82-70.51-1.23-99.73,17.55,3.6,27.92-16.8,20.58-31.64,21.68-8.57.64-17.09,1.88-26.21,2.92l14.81,25.58h-56.94c4.87,11.62,12,21,9.82,24.63-24.35,40.36-25.3,42.57-14.12,80.54-13.23-8.13-21.61-16-31.38-18.55-10.45-2.77-22.21-.62-38.92-.62,5.23,21.27,9.14,37.21,12.64,51.43-18.19,5.3-47,5.36-54.06,17.79-9.9,17.37-55.74,4.87-36.58,43.64ZM1424.5,469.21c-3.36-.75-6.41-2.88-9.58-4.46,1.58-1.59,3.17-3.18,5.08-5.08l9.19,5.08C1427.61,466.33,1425.67,469.47,1424.5,469.21Zm7.34-156.8Zm-67.66-211.72c2.25,2.78,4.5,5.55.19,4.15,4.9,5.81,2.56,8.85,2,8.56-3.1-1.68-5.77-4.14-8.59-6.34Q1361,103.88,1364.18,100.69Zm-42.06,85.66,5.08,5.08c-1.66,3-3.37,6.1-5.08,9.2-1.59-1.59-4.73-3.52-4.47-4.69C1318.4,192.58,1320.53,189.52,1322.12,186.35Z"/><path d="M1391.42,458.92l-1.4,1.4,2.9,1.44A28.88,28.88,0,0,1,1391.42,458.92Z"/><path d="M630.76,1799.32a5.35,5.35,0,0,1-.7.08l-.33,0-.49.54Z"/><path d="M630.76,1799.32c3.59-.54,6.46-2.7,0,0Z"/><path d="M255.49,1703.45c28.49,11.59,57.84,21,88.68,32.11,0,14.71-.53,31.15.11,47.55,1.34,34,11.38,43.09,45.77,45.23,22.83,1.42,45.55,6.44,68.32,6.42,23.18,0,46.42-3.68,69.48-6.85,10.87-1.49,26.22-2.11,31.2-9.08,19.21-26.91,46-17.45,70.68-19.4l39.37-44c20.31,16.71,42.54,26.66,50.48,43.39,13.5,28.45,39.81,21,57.67,31.62,48.08,28.59,76.62,1.41,109.85-22.52-3.88-4.16-8.65-7-9.83-11-3.79-12.71-6.27-25.81-9.6-40.28-23.9,26.59-37.36,11.2-52.35-9.41,15.76-4,39.44-6.43,39.8-10.75,2.58-31.63,14.88-14.51,28.15-8.81s28.34,7.12,44.31,10.8V1695c-51.2-47.32-123.27-67.18-155.29-138.81,17.57-22.72,20.84-52.44,10.38-81.1-17.41-47.66-28-95.79-24.48-146.61,30.92-9,30.13-40,41.56-54.65l-31.18-41.92-55.13,18.75c5,28.17,39.78,35,30.48,63.54l-65.83-42c-7.43,8.36-19.57,16-18.88,22.22,5,45.91-14.42,93.39,9.9,138.17,12.29,22.62-.06,39.23-23.68,55.84-5.61-16-13.33-30.1-15.09-44.9-2.5-21.08,3.2-43.61-1.7-63.8-5-20.84-18.38-39.74-28.69-59.16-1.16-2.18-6.26-2.27-9.19-3.21-11.68,55.58-15.06,111.62-31.27,166-10.9,36.58-13.37,76.39-14.55,114.91-.87,28.33-8.27,51.81-27.33,74.29-36.8-8-74.17-32.53-112.64-3.32-3.62-10.66-6.44-18.94-7.54-22.18L213.7,1613.93C239.59,1643.44,217.81,1688.13,255.49,1703.45Z"/><path d="M1550.2,915.37c-11.47-3.73-26.48-4.83-38.87,8.52-11.87,12.79-28.1,27.19-44,29.35-30.45,4.13-34.51,31-45.36,48.22-20.06-6.34-35.18-9.91-49.25-15.94-12.41-5.32-17.27,26.6-33.91,5.15-3.24-4.17-23.92,5.21-35.83,8.15,2.85-11.87,7.61-24,5.73-25.09-16.36-9.89-33.91-17.83-58.47-30,12.86-6.67,23.13-9.14,28.49-15.65,4.52-5.49,3.33-15.67,4.67-23.77-21.87-2.68-38.25-11.2-51.31-31.34-3.1-4.76-32.14,7.31-51.74,12.26-28.49-25.77-59.81-52.14-105.7-39.47,1.5,25.09,12.93,63.2,20.65,68.65,28.24,20,57.34,15.62,88.11-4.68,12.28,25.17,21.49,45.21,31.76,64.71,8.08,15.35,16.6,24.12,3.61,47.08-18.26,32.25,22.86,58.79,30.74,90.64.29,1.17,12.26.34,18.43-1.1,5.32-1.25,13.19-8.06,14.7-6.68,32.32,29.49,48.56-2.48,70-18.74,3.28,9.13,6.24,17.37,10.12,28.19,58.85,5.75,111.42-21.19,165.77-32.34.73-15.72,1.24-26.75,1.8-38.77,19.77,4.94,6.72,33.18,34.22,30.35,19.22-2,34.67-8.17,50.81-15.91,4.36-2.09,25.62-51.17,23.8-54l-20.56-7c4.79-16.35,9.06-31,13.22-45.18C1602.5,937.76,1577.13,924.16,1550.2,915.37Z"/><path d="M1954.82,2320.27c7.61-18.36,14.48-26.92,12.43-31.47-6.33-14.11-13-32-25-38.84-34.33-19.42-70.06-41-107.81-48.16-24.57-4.67-39.67-17.17-56.83-31.61l-10.47,28.38c-30.94-31.87-30.94-31.87,2.64-47.16l-37.17-32.6c-2.11,5.86-5.08,14.12-8.14,22.65l-24-14.76v54.55c0,16.65-1.44,33.47.4,49.91,1.88,16.83,15.34,42.76,9.17,48.21-22.3,19.67,10.4,25,6.9,41.62-4,19.09-1.52,33.86-15.91,59.39-7.6,13.48-9.4,30.21-16.77,55.63l72.07-35.8c37,5.07,24.34,36.74,34.52,54.21H1825c14.75-43.64,44.54-78.74,52.14-123.57.68-4,9.89-25.43,24-9,12.1,14.15,47.66-7.78,43.91,29.22,17.64,3.37,39.6,1.37,51.94,11.3,20.4,16.42,30.1,5.17,40.09-7.78,7.92-10.27,12.25-23.3,18.21-35.17C2029.25,2279,1996.44,2303.74,1954.82,2320.27Z"/><path d="M1087.32,522c2.49-2,4.65-3.48,3.39.43,5.8-4.9,8.84-2.56,8.55-2-1.68,3.09-4.14,5.77-6.34,8.59l-3.85-3.85c-7.44,12.32-11.54,19.36-16,27.07,28.26,18.61,54.49-7.51,79.55-9.43,24.44,47.16-27.72,40.8-36.06,63.31,10.55,24.8,24.69,45.09,60.63,39.67-12.47,12.06-26,20.08-8.18,29.23,11.51,5.91,25.87,11.82,37.86,10.1,21.49-3.08,42.16-11.9,63.11-18.54.25-.08,0-3.46-.78-4.78-16.85-26.91,10.44-41.81,18.14-61.28,9.41-23.8,25.42-45,38.73-67.57-6-5.95-11.5-14.95-19.54-18.95-39-19.39-64.27-47.11-65.08-93.23,0-2.38-14.3-4.51-22.46-6.91,3.35,16.71,5.9,29.38,11,54.61-40.83-54.54-86.85-87.09-108.58-139-1.06-2.53-13.43-.32-20.53-.32-1.59,8.73-2.58,24.89-4.87,25.08-32.32,2.64-22.38,25.71-17.85,46.83.18-.17.36-.35.53-.53,2.26,2.77,4.51,5.55.19,4.15,4.91,5.81,2.57,8.84,2,8.56-3.1-1.69-5.77-4.15-8.59-6.34l2.68-2.68c-21.38-1.9-14.62,12.22-17.23,21.63-2.66,9.59-7.59,18.54-11.93,28.73l39.9,6.48c4.57,56.94-32.58,1.45-45.32,24.94C1051.83,500.55,1063,518.27,1087.32,522Z"/><path d="M1087.32,522l-.77.62,2.52,2.52,1.64-2.71C1089.55,522.32,1088.43,522.17,1087.32,522Z"/><path d="M1078.11,401l-3.15,3.16c1.21.1,2.48.25,3.87.46C1078.62,403.46,1078.37,402.25,1078.11,401Z"/><path d="M934.53,1258.45l-2.48,2.47c1.26.06,2.59.17,4,.33C935.5,1260.28,935,1259.36,934.53,1258.45Z"/><path d="M1072.27,1364.16q0-17.85,0-35.68h-48.17c19.91-21,33.83-35.71,47.74-50.4-30-12.73,18.58-36.17-6.78-49.53h-35.62c-5.77,26-29,17.75-37.09,10.82-21.93-18.86-41.62-10.18-62.85-7.73,0,10.44,0,17.21,5,26.82l1.35-1.36c2.25,2.78,4.51,5.55.19,4.16,4.9,5.8,2.57,8.84,2,8.55-3.1-1.68-5.78-4.14-8.6-6.34l2.54-2.54c-20.62-1.06-19.36,10-13.51,20.33,8.16,14.38,20.69,17.78,38.57,4-2.64,34.68,17.95,73.43-32.08,87.46-17.14-14.66-12.06-50.08-46.42-43.31l-20.25,39.4c66.43,43.76,118.33,105.86,160.12,176,24.85-16.51,26.63-44.67,54-54.44,21.8-7.78,32.55-30.91,29.2-58.42-1.67-13.68,5.75-28.47,9.64-45.26Z"/><path d="M943.79,900.18c6.44,23.66,31.29,41.25,27.49,69.48-36.3-3.34-29.27-55.27-71.69-55.25,6.25,21.4,12.41,37.27,14.79,53.69.74,5.16-8.66,11.78-13.42,17.74-4.76-14.64-8.56-29.67-14.49-43.82-10.48-25-23.57-48.12-64-55.16L856,939.74l-22.11,7.57,52.79,52.81v24.34l96.66-22.33-36.24,47.44c7.19,13.83,13.11,25.24,18.4,35.42,20.18,0,39.3,2.21,57.38-1.14,6.75-1.25,17.09-21.33,15.58-22.89-12.62-13-4.42-21.32-.77-35.46,12-46.6,14-94.52-23.84-133.48-2.05-2.1-6.34-2-9.55-2.93-3.07,9-5.86,17.25-9.11,26.8C981.52,894.38,961.64,901,943.79,900.18Z"/><path d="M687.42,1079.25l54.53,1.36c10.17-7.24,22.78-12.64,30-22.13,12.51-16.49,17.38-36.31,15.08-57.79-1.43-13.46-.26-27.21-.26-47.54l-53.4,21.4c-9.09-11-23.88-22.33-28.54-36.88-3.36-10.49,22.42-23.88,2-39-20.19-14.89,11.85-25.43,3.49-39.94-33.19-6-34,24.21-43.84,41.49-10.74,19,26.81,45.43-14.22,64.85l35.33,27.17L665.84,1014c-5-4.48-10.07-9-15.55-13.86-6.78,27.62-13.46,54.77-20.69,84.22C659.36,1072.58,659.36,1072.58,687.42,1079.25Z"/><path d="M1045.41,1709.79c8.32,25.71-19.14,42.15-3.65,66.43l-56.42,47L1134,1887.77l50.48-50.48C1131.76,1802.71,1112.28,1736.48,1045.41,1709.79Z"/><path d="M1663.1,1182.36c32.67,17.42,45.56,53.16,74.25,74.86,25.7-36.54,64.76-45.51,109.41-45.1-9.32-34.81-34.11-50.76-54.35-68-10.81-9.22-38.56-15.29-46.1-8.61-27.5,24.38-56.25,6.33-91.52,7.56C1658.29,1161.4,1656.88,1179,1663.1,1182.36Z"/><path d="M834,597.12c48.83,30.27,48.79,30,10.22,69.32-2.14,2.18.3,8.86.64,13.44,112.34,14.09,88.85,17.83,105.1,61h38.64c-12.5-52.82-12.33-106.93-66.83-138.1l-11.5,9.37-42-53.94-40.07,22.74C831,589.14,831.09,595.34,834,597.12Z"/><path d="M2142.93,1825.84c6-9,10.82-18.73,15.88-27.58l-49-86.4c-76,34.36-82.77,49.57-52.48,109.64C2080.28,1867,2114.36,1868.76,2142.93,1825.84Z"/><path d="M1165.46,1029.56c-16-23.81-50.22-20.27-64.32,6.28-7,13.22-10.79,28.16-15.58,41.1,25.72,29.16,52.85,51.9,96.65,51.88C1194.05,1089.76,1184.72,1058.2,1165.46,1029.56Z"/><path d="M1924.15,2471c-9.73,19-18.61,39.2-22.49,59.94-1.35,7.23,12.8,17.37,22.26,29.15,52.78-26.35,75.54-63.18,76.55-122.44-22.27,9.14-37.89,15.4-53.38,22C1939.08,2463,1927.29,2464.86,1924.15,2471Z"/><path d="M1034.2,726c-2.3,5,8.46,16,12.39,22.9l57.11-28.93c-20.48-16.14,4.15-45.24-20.94-59.09-20.4-11.26-40.85-22.44-56.49-31C988,668.84,1050.44,690.54,1034.2,726Z"/><path d="M2309,3649.61l105.91,18.47C2384.25,3600,2363.15,3595.83,2309,3649.61Z"/><path d="M2150.65,2471.1c-34.72,22.88-19.61,54.74-20.14,80l43.25,19.37C2165.46,2533.79,2186.7,2496.86,2150.65,2471.1Z"/><path d="M1080.62,785.11c30.12,6.77,53.43-1.79,75.69-25.81H1068C1073.72,771.62,1075.9,784.05,1080.62,785.11Z"/><path d="M2412.83,3198.17l-26.49-41.74c-1.56,41.89,5.3,73.22-25.62,89.29-.49.25,2.05,6.33,2.54,7.78h31.62C2401.94,3231.71,2408.08,3212.81,2412.83,3198.17Z"/><path d="M2217,1732.5c-15.55-2.85-32.37-.93-40.93-8.44-24.86-21.78-20.74,8.83-33.28,12.09C2180.51,1761.87,2180.51,1761.87,2217,1732.5Z"/><path d="M848.77,825.13l-39-72.71c-21.59,34.3,7,53,13.77,76.15C823.83,829.45,835.49,827,848.77,825.13Z"/><path d="M2236.32,2326.71l-71,4.64C2210.84,2363.54,2210.84,2363.54,2236.32,2326.71Z"/><path d="M1211.76,758.76c7.6,30.26,17.34,46.58,48.48,37C1254.46,771.48,1246.27,755.27,1211.76,758.76Z"/><path d="M1925.3,1712.69v-75.93c-10.55,19.14-19.89,31.63-23.84,45.65C1900.05,1687.4,1911.75,1696.08,1925.3,1712.69Z"/><path d="M803.26,1064l23.91,28.62c5.77-18.78,16.81-40.5,12.74-43.86C819.1,1031.62,813.52,1055.47,803.26,1064Z"/><path d="M2214.45,2294.58c9.53,3.31,17.64,5.84,25.52,9,8.87,3.5,17.53,7.52,39.13,16.87C2246,2285.85,2246,2285.85,2214.45,2294.58Z"/><path d="M2991.16,2242.73c-19.2-7.49-23.51,12.34-39.71,25,23.76,1.42,41,13.51,47.6-9.46C3000.27,2254,2995.37,2244.37,2991.16,2242.73Z"/><path d="M1875.5,1595l-65.89,26.44C1841.32,1634.22,1858.39,1627.48,1875.5,1595Z"/><path d="M2871.93,2471c-.87,3.6,6.51,9.21,10.16,13.91,5.87-4.82,13.25-8.74,16.86-14.88,1.51-2.57-5-9.85-11.3-21.16C2880,2459,2873.53,2464.39,2871.93,2471Z"/><path d="M1042.23,1192.42l-45.33,30.63C1026.37,1225.76,1026.37,1225.76,1042.23,1192.42Z"/><path d="M1999.53,1628.89c-3.61-6.14-11-10.06-16.86-14.88-3.66,4.7-11,10.3-10.16,13.9,1.6,6.59,8.08,12,15.71,22.14C1994.52,1638.74,2001,1631.46,1999.53,1628.89Z"/><path d="M994.68,515.34c15.47-26.52-6.5-30.83-16.12-44.08C963.09,497.78,985.06,502.09,994.68,515.34Z"/><path d="M1767.16,2104.87l44,28.54C1806.37,2112.09,1800.18,2092.94,1767.16,2104.87Z"/><path d="M2131.66,1690.48l-38.43-21.5C2098.85,1687.05,2106.15,1712.72,2131.66,1690.48Z"/><path d="M2614.66,2266.15c2.74,6.75,6.5,14.22,12.14,18.18,2.8,2,10.55-3.16,17.31-5.51l-22.35-22.37C2619.22,2259.75,2613.87,2264.19,2614.66,2266.15Z"/><path d="M722.2,648.48c-18-4.51-18-4.51-16.11,34.75Z"/><path d="M946.13,1854.25l12.76-.77q-2.65-18.9-5.29-37.81l-7.47.67Z"/><path d="M1545.67,476.76c1.79,3.13,3.42,8.81,5.39,8.93,6.25.37,12.61-1.34,20.35-2.44-3.27-5.25-5.35-11-7.05-10.89C1558.06,472.78,1551.89,475.13,1545.67,476.76Z"/><path d="M927.25,748,908.5,740.2c-1,2.23-3.11,7.29-5.28,12.34,3.93,1.63,8.38,5.26,11.64,4.39C919.46,755.71,923.16,751.15,927.25,748Z"/><path d="M1262.75,883.64l12.33-5.28-7.8-18.75c-3.14,4.09-7.7,7.8-8.92,12.39C1257.49,875.26,1261.12,879.72,1262.75,883.64Z"/><path d="M1080.82,1028.2c6.83-1,13.36-4,20-6.18l-34.59-9.84C1076,1023.11,1078.79,1028.48,1080.82,1028.2Z"/><path d="M1089,1314.67c-6.21,3.5-11.26,9-16.76,13.81l33.8-4.85C1096,1318.14,1090.94,1313.6,1089,1314.67Z"/><path d="M2533.36,3714.93c-1.62,6.22-4,12.39-4.39,18.69-.11,1.7,5.64,3.78,10.88,7.05,1.11-7.74,2.81-14.11,2.44-20.35C2542.18,3718.35,2536.5,3716.71,2533.36,3714.93Z"/><path d="M1928.4,1606.35c.37-6.24-1.34-12.61-2.44-20.35-5.24,3.27-11,5.36-10.88,7,.42,6.3,2.77,12.47,4.39,18.69C1922.6,1610,1928.28,1608.32,1928.4,1606.35Z"/><path d="M1791.84,1600.21c-6.83,1-13.36,4-20,6.17l34.59,9.84C1796.71,1605.29,1793.87,1599.92,1791.84,1600.21Z"/><path d="M1161.51,1742.5v28.55h7.13V1742.5Z"/><path d="M872.89,1850c.42,6.3,2.77,12.47,4.39,18.69,3.13-1.79,8.82-3.42,8.93-5.39.37-6.24-1.34-12.61-2.44-20.35C878.53,1846.25,872.77,1848.33,872.89,1850Z"/><path d="M2956.78,2145.81h-28.55V2153h28.55Z"/><path d="M1124.69,1140.21c1.18.26,3.11-2.88,4.69-4.47l-9.19-5.08-5.08,5.08C1118.28,1137.33,1121.33,1139.46,1124.69,1140.21Z"/><path d="M1141,981.15c-.75-3.36-2.88-6.42-4.47-9.59-1.58,1.59-4.72,3.52-4.46,4.7.75,3.36,2.88,6.41,4.46,9.58C1138.11,984.25,1141.25,982.32,1141,981.15Z"/><path d="M930.83,891.72l6.59,8.46h6.37c-1.32-3.7-2-7.84-4.32-10.82C938.8,888.47,933.83,890.84,930.83,891.72Z"/><path d="M1955.37,1737.42c-1.66-3-3.37-6.1-5.08-9.2-1.59,1.59-4.73,3.52-4.47,4.69.75,3.36,2.88,6.41,4.47,9.59Z"/><path d="M1605.2,874.3c-1.17-.26-3.1,2.88-4.69,4.47l9.2,5.07,5.08-5.07C1611.62,877.18,1608.56,875.05,1605.2,874.3Z"/><path d="M1137.69,1757.94l-8.31,6.74,6.37,6.37c2.2-2.82,4.66-5.49,6.34-8.59C1142.38,1761.93,1139.34,1759.59,1137.69,1757.94Z"/><path d="M743.92,1878.13c1.58,1.58,3.51,4.72,4.69,4.46,3.36-.75,6.41-2.88,9.58-4.46-1.58-1.59-3.51-4.73-4.69-4.47C750.14,1874.41,747.09,1876.54,743.92,1878.13Z"/><path d="M1823.25,2140.67c.53.29,2.87-2.75,4.52-4.4L1821,2128l-6.37,6.37C1817.48,2136.53,1820.15,2139,1823.25,2140.67Z"/><path d="M2966.75,2231.36c-.68-.89-5.65,1.48-8.65,2.36l6.59,8.46h6.37C2969.74,2238.48,2969,2234.34,2966.75,2231.36Z"/><circle cx="1250.74" cy="336.26" r="10.1"/><path d="M2431.23,2351.7c-.27,1.17,2.87,3.1,4.46,4.69l5.08-9.2-5.08-5.08C2434.1,2345.29,2432,2348.34,2431.23,2351.7Z"/><path d="M1087.87,320.66l6.59,8.46h6.37c-1.32-3.7-2-7.84-4.31-10.82C1095.84,317.41,1090.87,319.78,1087.87,320.66Z"/><path d="M956,1637.48c-1.66-3-3.37-6.09-5.08-9.2-1.59,1.59-4.73,3.52-4.47,4.7.75,3.36,2.88,6.41,4.47,9.58Z"/><path d="M2355.11,3222.18c-1.65-3-3.37-6.09-5.08-9.2-1.59,1.59-4.73,3.52-4.46,4.7.74,3.36,2.87,6.41,4.46,9.58Z"/><path d="M1536.27,1628.28c-1.59,1.59-4.73,3.52-4.47,4.7.75,3.36,2.88,6.41,4.47,9.58l5.08-5.08C1539.69,1634.49,1538,1631.39,1536.27,1628.28Z"/></g></g></svg>