<svg xmlns="http://www.w3.org/2000/svg" viewBox="0 0 200 171" width="200" height="171">
	<style>
		tspan { white-space:pre }
		.shp0 { fill: #faaf19 } 
		.shp1 { fill: #d2001c } 
	</style>
	<g >
		<path fill-rule="evenodd" class="shp0" d="M143.33 0.11C147.53 0.16 150.42 0.3 151.89 0.53C153.11 0.71 155.11 1.08 156.33 1.34C157.56 1.6 159.56 2.1 160.78 2.46C162 2.81 163.7 3.36 164.56 3.67C165.41 3.99 167.11 4.67 168.33 5.18C169.56 5.69 171.76 6.8 173.22 7.65C174.69 8.49 176.79 9.81 177.89 10.58C178.99 11.35 180.84 12.77 182 13.75C183.16 14.72 184.94 16.41 185.96 17.5C186.98 18.59 188.64 20.58 189.64 21.93C190.65 23.28 191.88 25.03 192.37 25.83C192.87 26.62 193.79 28.3 194.41 29.56C195.04 30.81 195.86 32.62 196.24 33.57C196.62 34.51 197.2 36.14 197.55 37.18C197.89 38.22 198.42 40.23 198.74 41.64C199.05 43.05 199.44 45.1 199.6 46.2C199.78 47.46 199.89 50.4 199.89 54.11C199.89 58.65 199.79 60.65 199.48 62.79C199.26 64.32 198.91 66.37 198.33 69.13L176.22 69.19C164.06 69.22 154.01 69.21 153.89 69.16C153.75 69.1 153.86 68.34 154.18 67.21C154.46 66.19 154.84 64.45 155.04 63.35C155.24 62.24 155.4 60.04 155.41 58.45C155.42 56.78 155.31 54.98 155.14 54.22C154.97 53.48 154.52 52.18 154.12 51.32C153.72 50.47 153 49.31 152.51 48.76C152.02 48.21 151.03 47.44 150.31 47.06C149.59 46.67 148.45 46.24 147.78 46.09C146.98 45.91 145.55 45.85 143.67 45.93C141.55 46.01 140.18 46.2 138.56 46.63C137.33 46.95 135.33 47.7 134.11 48.28C132.89 48.87 131.34 49.71 130.67 50.14C129.99 50.57 128.69 51.53 127.78 52.27C126.86 53 125.09 54.67 123.83 55.97C122.58 57.27 120.83 59.31 119.94 60.51C119.05 61.7 117.75 63.6 117.05 64.74C116.35 65.87 115.09 68.17 114.25 69.86C113.41 71.54 112.35 73.87 111.89 75.04C111.43 76.2 110.67 78.35 110.19 79.82C109.72 81.29 109.08 83.6 108.78 84.94C108.48 86.29 108.08 88.44 107.9 89.73C107.71 91.02 107.56 93.67 107.56 95.63C107.56 97.65 107.7 100.11 107.88 101.31C108.06 102.47 108.42 104.23 108.67 105.21C108.93 106.18 109.52 107.79 109.97 108.77C110.43 109.75 111.14 111.05 111.55 111.66C111.96 112.27 112.61 113.14 112.98 113.59C113.36 114.04 114.32 114.93 115.11 115.57C115.91 116.22 117.26 117.08 118.11 117.48C118.97 117.89 120.47 118.44 121.44 118.69C122.76 119.04 123.95 119.17 126 119.19C128 119.21 129.18 119.11 130.22 118.83C131.02 118.62 132.37 118.1 133.22 117.68C134.08 117.26 135.58 116.28 136.56 115.49C137.53 114.71 138.92 113.38 139.63 112.53C140.34 111.69 141.45 110.19 142.1 109.21C142.74 108.23 143.82 106.33 144.49 104.98C145.16 103.64 145.9 102.05 146.56 100.4L194.44 100.42L194.32 101.48C194.25 102.06 193.99 103.38 193.74 104.43C193.5 105.47 193.01 107.22 192.66 108.32C192.31 109.42 191.51 111.58 190.88 113.11C190.25 114.64 189.06 117.3 188.22 119.01C187.38 120.72 185.86 123.53 184.84 125.24C183.82 126.96 182.54 129.01 182.01 129.81C181.47 130.6 180.06 132.56 178.88 134.15C177.7 135.74 175.74 138.2 174.53 139.6C173.32 141.01 171.13 143.35 169.67 144.81C168.2 146.27 165.79 148.48 164.31 149.72C162.83 150.95 160.63 152.67 159.42 153.53C158.21 154.39 156.22 155.71 155 156.46C153.78 157.2 151.88 158.28 150.78 158.85C149.68 159.43 147.73 160.35 146.44 160.9C145.16 161.45 143.16 162.24 142 162.64C140.84 163.05 138.74 163.68 137.33 164.06C135.93 164.43 133.58 164.94 132.11 165.19C130.64 165.44 128.29 165.75 126.89 165.87C125.48 166 123.13 166.1 121.67 166.1C120.2 166.09 118.05 165.99 116.89 165.87C115.73 165.75 113.78 165.45 112.56 165.2C111.33 164.96 109.43 164.51 108.33 164.21C107.23 163.91 105.58 163.4 104.67 163.08C103.75 162.76 100.65 161.57 97.78 160.43C94.91 159.29 91.91 158.15 91.11 157.9C90.32 157.64 89.02 157.28 88.22 157.1C87.43 156.92 86.43 156.71 86 156.63C85.57 156.55 84.22 156.48 83 156.48C81.49 156.48 80.14 156.63 78.78 156.95C77.68 157.22 75.98 157.83 75 158.31C74.02 158.8 72.46 159.77 71.52 160.48C70.59 161.18 68.7 162.76 67.33 163.99C65.96 165.21 64.17 166.7 63.36 167.29C62.55 167.89 61.19 168.73 60.33 169.16C59.48 169.59 58.03 170.14 57.11 170.38C55.89 170.71 54.74 170.82 52.78 170.82C50.67 170.82 49.67 170.7 48 170.27C46.84 169.97 45.09 169.39 44.11 168.98C43.13 168.57 41.44 167.63 40.34 166.89C39.25 166.15 38.33 165.44 38.3 165.32C38.27 165.2 39.31 164.58 40.62 163.95C41.93 163.31 43.8 162.26 44.78 161.62C45.76 160.97 47.26 159.73 48.11 158.86C48.97 158 49.94 156.76 50.28 156.13C50.61 155.49 50.84 154.97 50.78 154.97C50.72 154.97 50.29 155.21 49.83 155.51C49.38 155.81 48.22 156.36 47.28 156.74C46.33 157.11 44.63 157.57 43.5 157.75C42.37 157.93 40.79 158.08 40 158.08C39.21 158.08 37.66 157.89 36.56 157.67C35.46 157.44 33.86 156.93 33 156.54C32.14 156.15 30.84 155.4 30.11 154.87C29.38 154.34 28.17 153.27 27.43 152.49C26.69 151.71 25.68 150.47 25.19 149.74C24.7 149 23.99 147.85 23.62 147.18C23.25 146.5 22.58 145.05 22.15 143.95C21.72 142.85 21.16 141.14 20.92 140.16C20.67 139.18 20.32 137.38 20.14 136.15C19.95 134.93 19.74 133.08 19.66 132.04C19.57 130.99 19.31 129.44 19.07 128.58C18.83 127.73 18.37 126.37 18.06 125.58C17.74 124.78 17.08 123.43 16.59 122.57C16.11 121.72 15.32 120.49 14.85 119.84C14.08 118.79 14.04 118.65 14.37 118.4C14.62 118.21 15.65 118.12 17.65 118.13C19.96 118.14 20.91 118.24 22.28 118.63C23.22 118.9 24.42 119.34 24.94 119.61C25.62 119.95 25.85 120 25.75 119.77C25.68 119.6 25.44 118.85 25.23 118.12C25.02 117.38 24.56 115.38 24.2 113.67C23.85 111.95 23.41 109.2 23.23 107.54C23.04 105.89 22.87 104.15 22.78 102.81L21.22 102.42C20.37 102.2 18.97 101.74 18.11 101.39C17.26 101.04 16.36 100.63 16.11 100.49C15.87 100.35 15.72 100.19 15.78 100.14C15.84 100.1 16.64 99.62 17.56 99.09C18.53 98.52 19.92 97.41 20.9 96.43C22.1 95.23 22.84 94.23 23.49 92.96C24.02 91.94 24.84 89.66 25.43 87.62C26 85.66 26.87 83.2 27.36 82.16C27.86 81.12 28.69 79.72 29.21 79.04C29.73 78.37 30.69 77.37 31.35 76.83C32.02 76.29 32.66 75.76 32.78 75.65C32.9 75.55 32.3 75.71 31.44 76C30.59 76.29 28.61 76.8 27.06 77.12C25.34 77.48 23.06 77.76 21.28 77.85C19.58 77.93 17.4 77.88 16.11 77.74C14.89 77.61 13.09 77.29 12.11 77.04C11.13 76.79 9.68 76.33 8.89 76.01C8.09 75.7 6.79 75.06 6 74.59C5.21 74.13 3.96 73.25 3.22 72.64C2.49 72.03 1.47 70.99 0.95 70.33C0.43 69.67 0.01 69.03 0 68.91C0 68.79 0.67 68.61 1.5 68.51C2.32 68.41 4.3 67.99 5.89 67.58C7.48 67.17 9.55 66.53 10.5 66.15C11.45 65.77 13 65.07 13.94 64.6C14.89 64.12 16.47 63.14 17.44 62.41C18.42 61.69 19.63 60.6 20.13 59.99C20.62 59.39 21.25 58.57 21.51 58.17C21.78 57.77 22 57.4 22 57.33C22 57.27 21.52 57.22 20.94 57.23C20.36 57.23 18.94 56.99 17.78 56.7C16.62 56.41 14.92 55.79 14 55.31C12.87 54.72 11.79 53.91 10.65 52.77C9.53 51.65 8.71 50.59 8.18 49.54C7.74 48.68 7.22 47.43 7.02 46.76C6.82 46.08 6.66 45.36 6.66 45.14C6.67 44.84 6.86 44.75 7.5 44.75C7.96 44.75 8.98 44.59 9.78 44.39C10.57 44.19 11.77 43.75 12.44 43.41C13.12 43.07 14.07 42.5 14.56 42.13C15.04 41.77 16.64 40.4 18.11 39.08C19.58 37.76 21.68 36.09 22.78 35.37C23.88 34.65 25.83 33.6 29.44 32.02L30.33 30.46C30.82 29.59 31.85 28.13 32.63 27.19C33.4 26.26 34.7 24.91 35.51 24.19C36.33 23.48 37.8 22.4 38.78 21.8C39.76 21.19 41.31 20.41 42.22 20.05C43.14 19.7 44.74 19.18 45.78 18.89C47.47 18.43 48.15 18.38 52.44 18.37C56.32 18.37 57.56 18.45 59 18.78C59.98 19.01 61.73 19.5 62.89 19.87C64.05 20.24 65.8 20.91 66.78 21.36C67.76 21.82 69.26 22.62 70.11 23.15C71.24 23.84 71.61 23.99 71.47 23.69C71.36 23.46 71.03 22.47 70.74 21.49C70.37 20.23 70.22 19.16 70.22 17.87C70.22 16.75 70.38 15.53 70.62 14.75C70.84 14.05 71.33 12.97 71.72 12.36C72.1 11.75 72.73 10.94 73.8 9.91L74.61 10.91C75.05 11.46 76.32 12.82 77.43 13.94C78.54 15.06 80.09 16.39 80.89 16.89C81.72 17.43 82.85 17.93 83.56 18.08C84.48 18.28 85.19 18.28 86.44 18.09C87.36 17.96 88.96 17.58 90 17.25C91.04 16.92 92.84 16.25 94 15.76C95.16 15.27 98.86 13.54 102.22 11.91C105.58 10.29 110.03 8.21 112.11 7.28C114.19 6.36 116.94 5.21 118.22 4.72C119.51 4.23 121.86 3.42 123.44 2.92C125.03 2.42 127.63 1.71 129.22 1.36C130.81 1 132.91 0.6 133.89 0.46C134.87 0.33 135.97 0.18 136.33 0.13C136.7 0.08 139.85 0.07 143.33 0.11ZM35.11 98.75C34.07 99.82 32.8 100.98 32.28 101.33L31.33 101.98C33 104.13 34.18 105.29 35.02 105.93C35.93 106.63 37.28 107.38 38.33 107.79C39.31 108.17 40.61 108.57 41.22 108.68C41.83 108.79 43.23 108.88 44.33 108.88C45.43 108.87 46.98 108.73 47.78 108.57C48.57 108.4 49.97 107.95 50.89 107.57C51.81 107.18 53.28 106.44 54.17 105.92L55.79 104.98C53.11 104.04 51.03 103.11 49.44 102.32C47.78 101.49 45.76 100.26 44.67 99.42C43.63 98.61 42.18 97.5 41.44 96.95C40.37 96.14 39.94 95.95 39.22 95.96C38.73 95.96 38.03 96.16 37.67 96.39C37.3 96.62 36.15 97.68 35.11 98.75Z" />
		<path fill-rule="evenodd" class="shp1" d="M143.11 4.79C145.91 4.84 149.09 5.02 150.33 5.21C151.56 5.39 153.71 5.8 155.11 6.12C156.52 6.43 158.97 7.13 160.56 7.66C162.14 8.2 164.39 9.06 165.56 9.58C166.72 10.11 168.57 11.03 169.67 11.64C170.77 12.25 172.67 13.43 173.89 14.26C175.11 15.09 177.21 16.71 178.56 17.86C179.9 19.01 181.75 20.8 182.67 21.83C183.59 22.87 184.91 24.46 185.6 25.38C186.29 26.3 187.42 27.95 188.11 29.06C188.81 30.16 189.91 32.16 190.56 33.51C191.21 34.86 192.11 37.01 192.55 38.3C193 39.58 193.61 41.64 193.91 42.86C194.2 44.09 194.6 46.22 194.78 47.59C194.96 48.98 195.11 51.8 195.11 53.94C195.11 56.05 195.01 58.63 194.88 59.67C194.76 60.71 194.53 62.14 194.11 64.13L177.06 64.13C160.92 64.13 160.01 64.1 160.11 63.74C160.17 63.52 160.37 62.64 160.55 61.79C160.73 60.93 160.88 59.08 160.88 57.67C160.89 55.87 160.75 54.56 160.44 53.27C160.2 52.26 159.72 50.81 159.38 50.04C159.03 49.28 158.35 48.05 157.85 47.31C157.36 46.58 156.26 45.33 155.4 44.53C154.49 43.68 153.17 42.74 152.2 42.25C151.3 41.79 149.76 41.21 148.78 40.96C147.58 40.66 146.27 40.52 144.78 40.52C143.56 40.52 141.63 40.68 140.5 40.86C139.37 41.04 137.47 41.5 136.28 41.88C135.09 42.26 133.11 43.05 131.89 43.64C130.67 44.23 128.77 45.3 127.67 46.03C126.57 46.75 124.77 48.1 123.67 49.02C122.57 49.95 120.77 51.65 119.67 52.81C118.57 53.97 116.87 55.97 115.89 57.24C114.92 58.52 113.38 60.71 112.49 62.12C111.59 63.53 110.23 65.93 109.45 67.46C108.67 69 107.59 71.35 107.04 72.7C106.49 74.04 105.68 76.25 105.25 77.6C104.82 78.94 104.21 81.05 103.9 82.27C103.6 83.5 103.12 85.8 102.85 87.39C102.44 89.81 102.35 91.14 102.35 95.41C102.34 99.45 102.43 101 102.75 102.76C102.98 103.98 103.4 105.83 103.7 106.88C104 107.92 104.59 109.57 105.01 110.55C105.44 111.53 106.25 113.11 106.83 114.07C107.41 115.03 108.54 116.52 109.33 117.39C110.13 118.26 111.43 119.47 112.22 120.07C113.02 120.67 114.57 121.61 115.67 122.14C116.77 122.68 118.67 123.39 119.89 123.72C121.88 124.25 122.52 124.32 126 124.34C129.12 124.35 130.2 124.27 131.44 123.94C132.3 123.71 133.9 123.11 135 122.59C136.1 122.08 137.65 121.21 138.44 120.67C139.24 120.13 140.63 118.99 141.53 118.13C142.43 117.26 143.83 115.71 144.64 114.67C145.45 113.64 146.71 111.78 147.45 110.55C148.19 109.33 149.09 107.64 150.11 105.3L168.94 105.31C186.73 105.32 187.78 105.34 187.78 105.71C187.78 105.92 187.52 107.05 187.2 108.21C186.88 109.37 186.22 111.33 185.74 112.55C185.25 113.78 184.32 115.88 183.67 117.23C183.02 118.58 181.7 120.98 180.74 122.57C179.78 124.17 178.3 126.47 177.45 127.7C176.6 128.92 174.9 131.17 173.67 132.7C172.45 134.23 169.99 136.98 168.22 138.8C166.45 140.62 163.95 143.02 162.67 144.13C161.38 145.24 159.23 146.97 157.89 147.97C156.54 148.97 154.29 150.51 152.89 151.39C151.48 152.27 149.18 153.57 147.78 154.29C146.37 155.01 144.32 155.97 143.22 156.43C142.12 156.88 140.37 157.55 139.33 157.9C138.29 158.26 136.29 158.84 134.89 159.2C133.48 159.55 131.38 160 130.22 160.19C129.06 160.38 126.61 160.64 124.78 160.77C122.35 160.95 120.66 160.94 118.56 160.76C116.97 160.62 114.62 160.31 113.33 160.06C112.05 159.81 109.85 159.26 108.44 158.83C107.04 158.4 103.14 156.97 99.78 155.64C96.42 154.31 92.67 152.92 91.44 152.55C90.22 152.18 88.62 151.75 87.89 151.59C87.11 151.42 85.08 151.3 83 151.31C80.06 151.31 79.1 151.4 77.44 151.81C76.34 152.09 74.54 152.75 73.44 153.28C72.34 153.82 70.64 154.85 69.67 155.57C68.69 156.3 66.59 158.13 65 159.64C63.41 161.15 61.51 162.83 60.78 163.38C60.04 163.92 58.87 164.66 58.17 165.01C57.46 165.37 56.21 165.82 55.39 166.01C54.31 166.27 53.35 166.33 52 166.24C50.96 166.17 49.56 165.95 48.89 165.75C48.22 165.56 47.6 165.33 47.51 165.25C47.42 165.17 47.87 164.83 48.51 164.49C49.15 164.16 50.26 163.36 50.98 162.71C51.7 162.07 52.66 160.99 53.12 160.31C53.57 159.64 54.29 158.39 54.72 157.53C55.14 156.67 56.07 154.42 56.77 152.52C57.48 150.62 58.45 148.27 58.93 147.29C59.42 146.31 60.24 144.9 60.77 144.17C61.29 143.44 62.26 142.32 62.92 141.7C63.57 141.08 64.81 140.12 65.67 139.56C66.52 139.01 68.07 138.21 69.11 137.78C70.15 137.34 71.17 136.93 71.39 136.85C71.6 136.77 71.78 136.64 71.78 136.54C71.79 136.45 71.11 136.14 70.28 135.85C69.22 135.48 68.09 135.3 66.44 135.22C64.7 135.14 62.99 135.26 59.67 135.69C56.76 136.07 54.19 136.27 52.22 136.27C49.97 136.26 48.75 136.15 47.33 135.81C46.29 135.56 44.64 134.97 43.67 134.51C42.69 134.06 41.29 133.27 40.56 132.77C39.82 132.27 38.58 131.27 37.8 130.56C37.01 129.84 35.76 128.45 35.01 127.47C34.26 126.49 33.33 125.19 32.94 124.58C32.56 123.96 31.75 122.41 31.14 121.13C30.53 119.84 29.76 117.99 29.43 117.01C29.11 116.03 28.6 114.17 28.3 112.89C27.92 111.26 27.72 109.56 27.5 104.09L28.49 105.43C29.03 106.16 30.07 107.31 30.8 107.99C31.53 108.66 32.72 109.61 33.45 110.09C34.18 110.57 35.38 111.24 36.11 111.57C36.84 111.91 38.29 112.4 39.33 112.68C40.81 113.07 41.86 113.19 44.11 113.2C45.76 113.21 47.67 113.09 48.56 112.91C49.41 112.74 50.81 112.35 51.67 112.05C52.52 111.75 54.77 110.77 56.67 109.88C58.56 108.99 60.91 108 61.89 107.67C62.87 107.35 64.47 106.93 65.44 106.75C66.42 106.56 67.45 106.36 67.72 106.31C68 106.25 68.23 106.08 68.23 105.93C68.24 105.78 67.76 105.19 67.18 104.63C66.59 104.07 65.39 103.24 64.5 102.79C63.61 102.34 62.11 101.71 61.17 101.39C60.22 101.07 57.94 100.47 56.11 100.06C53.74 99.53 52.27 99.06 51 98.43C50.02 97.95 48.37 96.87 47.33 96.03C46.29 95.19 44.84 94.02 44.11 93.42C43.38 92.82 42.13 92.02 41.33 91.65C40.22 91.13 39.58 90.98 38.56 90.98C37.65 90.99 36.94 91.14 36.33 91.45C35.84 91.71 35.04 92.3 34.56 92.78C34.07 93.26 32.87 94.47 31.89 95.49C30.68 96.75 29.69 97.54 28.78 97.99C27.91 98.43 26.94 98.7 24.56 98.93L25.67 97.92C26.28 97.36 27.1 96.37 27.5 95.71C27.89 95.05 28.42 93.92 28.68 93.18C28.94 92.45 29.44 90.54 29.8 88.95C30.26 86.91 30.73 85.5 31.39 84.18C31.97 83.02 32.85 81.74 33.69 80.84C34.57 79.88 35.56 79.1 36.57 78.56C37.42 78.1 38.76 77.58 39.56 77.39C40.35 77.2 41.82 77.04 42.83 77.04C43.84 77.04 45.44 77.2 46.39 77.39C47.34 77.58 49.01 78.04 50.11 78.41C51.21 78.77 53.16 79.53 54.44 80.08C55.73 80.64 57.48 81.34 58.33 81.63C59.19 81.92 60.06 82.16 60.28 82.16C60.49 82.16 60.67 82.09 60.67 81.99C60.68 81.9 60.2 81.48 59.62 81.05C59.03 80.63 57.62 79.38 56.47 78.27C55.33 77.16 53.59 75.26 52.62 74.03C51.64 72.81 50.23 71.17 49.48 70.4C48.63 69.53 47.6 68.74 46.78 68.34C46.04 67.98 44.84 67.58 44.11 67.44C43.37 67.3 41.84 67.24 40.67 67.31C39.48 67.38 37.92 67.63 37.11 67.89C36.32 68.14 34.37 69.06 32.78 69.93C31.19 70.8 29.29 71.75 28.56 72.04C27.82 72.34 26.62 72.73 25.89 72.91C25.16 73.1 23.51 73.36 22.22 73.5C20.94 73.64 19.09 73.69 18.11 73.61C17.13 73.53 15.73 73.32 15 73.13C14.27 72.94 12.89 72.42 11.94 71.97C10.99 71.51 10.21 71.06 10.22 70.97C10.22 70.88 10.6 70.75 11.06 70.68C11.51 70.61 12.79 70.19 13.89 69.76C14.99 69.32 16.49 68.62 17.22 68.19C17.96 67.76 19.11 66.98 19.78 66.46C20.45 65.94 21.85 64.61 22.89 63.52C23.93 62.43 25.88 60.35 27.22 58.9C28.57 57.45 30.22 55.85 30.89 55.36C31.56 54.87 32.81 54.09 33.67 53.64C34.52 53.18 36.02 52.56 37 52.25C37.98 51.94 39.93 51.52 41.33 51.31C43.35 51.02 44.8 50.96 48.22 51.06C51.48 51.15 53.05 51.29 54.56 51.64C55.66 51.89 58.76 52.84 61.44 53.75C64.24 54.7 67.24 55.56 68.44 55.76C69.61 55.95 70.88 56.11 71.28 56.11C71.67 56.11 72 56.03 72.01 55.94C72.01 55.85 71.19 55.12 70.17 54.33C69.16 53.53 67.27 51.83 65.98 50.54C64.69 49.26 62.84 47.2 61.87 45.98C60.9 44.75 58.96 42.16 57.56 40.21C56.15 38.26 54.3 35.92 53.44 35.01C52.59 34.09 51.29 32.96 50.56 32.48C49.82 32 48.45 31.36 47.5 31.06C46.52 30.74 44.94 30.45 43.83 30.37C42.45 30.28 41.41 30.34 40.22 30.6C39.31 30.79 37.96 31.23 37.22 31.58C36.49 31.92 35.41 32.52 34.83 32.91C34.25 33.3 33.73 33.6 33.67 33.57C33.62 33.53 34.2 32.66 34.97 31.62C35.75 30.58 36.97 29.19 37.69 28.53C38.41 27.88 39.55 26.97 40.22 26.51C40.89 26.04 41.99 25.39 42.67 25.05C43.34 24.71 44.59 24.19 45.44 23.9C46.3 23.6 47.85 23.22 48.89 23.04C49.93 22.85 51.88 22.71 53.22 22.71C54.71 22.71 56.45 22.88 57.67 23.13C58.77 23.35 60.62 23.92 61.78 24.38C62.94 24.84 64.44 25.53 65.11 25.9C65.78 26.27 67.93 27.53 69.89 28.69C71.84 29.85 74.64 31.38 76.11 32.09C77.58 32.8 79.73 33.69 80.89 34.08C82.05 34.47 83.95 34.97 85.11 35.19C86.27 35.41 87.69 35.62 88.26 35.66C88.83 35.7 89.37 35.66 89.46 35.57C89.56 35.48 89.46 35.4 89.26 35.4C89.06 35.4 88.86 35.33 88.83 35.24C88.8 35.14 88.23 34.78 87.56 34.42C86.88 34.06 85.58 33.27 84.67 32.66C83.75 32.05 82.09 30.64 80.99 29.52C79.75 28.28 78.53 26.77 77.82 25.61C77.18 24.56 76.37 22.91 76.02 21.93C75.67 20.95 75.31 19.65 75.05 17.92L75.93 18.93C76.42 19.48 77.51 20.4 78.35 20.98C79.2 21.57 80.49 22.26 81.22 22.53C82.29 22.92 83.01 23.01 84.89 23C86.17 22.99 87.97 22.83 88.89 22.63C89.81 22.44 91.66 21.91 93 21.46C94.34 21.01 96.64 20.12 98.11 19.48C99.58 18.84 103.88 16.81 107.67 14.97C111.46 13.13 115.71 11.13 117.11 10.52C118.52 9.91 120.92 8.95 122.44 8.4C123.97 7.85 126.32 7.09 127.67 6.71C129.01 6.34 131.16 5.82 132.44 5.57C133.73 5.32 135.53 5.02 136.44 4.91C137.36 4.79 140.36 4.74 143.11 4.79ZM37.67 35.94C39.62 36 41.27 36.17 42.11 36.4C42.84 36.61 44.39 37.22 45.56 37.77C46.72 38.32 48.32 39.24 49.11 39.81C49.91 40.38 51.38 41.62 52.39 42.58C53.4 43.53 54.18 44.38 54.13 44.48C54.07 44.57 53.3 44.46 52.4 44.25C51.51 44.03 49.93 43.79 48.89 43.71C47.7 43.62 46.46 43.68 45.56 43.85C44.76 44.01 43.61 44.32 43 44.55C42.39 44.77 40.14 46.12 38 47.54C35.49 49.21 33.48 50.36 32.33 50.8C31.36 51.18 29.61 51.68 28.44 51.93C27 52.22 25.42 52.37 23.44 52.37C21.45 52.38 20.07 52.27 19 52.01C18.14 51.8 16.75 51.26 15.9 50.81C15.05 50.36 13.87 49.51 13.29 48.93C12.7 48.35 12.22 47.8 12.22 47.7C12.22 47.61 12.59 47.47 13.05 47.38C13.51 47.29 14.69 46.82 15.67 46.33C16.64 45.84 18.26 44.81 19.25 44.04C20.24 43.27 21.89 41.99 22.92 41.2C23.94 40.4 25.43 39.36 26.22 38.88C27.02 38.4 28.37 37.71 29.22 37.34C30.08 36.98 31.63 36.49 32.67 36.27C34.16 35.94 35.21 35.87 37.67 35.94ZM22.64 123.68C22.96 123.77 23.76 124.21 24.43 124.65C25.09 125.1 26.07 125.97 26.6 126.58C27.13 127.19 28.73 129.45 30.16 131.59C31.95 134.29 33.29 136.04 34.54 137.29C35.79 138.54 36.77 139.3 37.78 139.79C38.57 140.18 39.97 140.66 40.89 140.85C42.02 141.09 43.1 141.16 44.22 141.08C45.14 141.01 46.84 140.66 48 140.3C49.16 139.94 51.26 139.24 52.67 138.74C54.07 138.24 55.97 137.73 56.89 137.6C57.81 137.47 59.06 137.42 59.67 137.49C60.28 137.56 61.25 137.74 61.84 137.89C62.42 138.04 62.9 138.21 62.9 138.27C62.9 138.33 62.22 138.78 61.39 139.27C60.57 139.76 59.14 140.75 58.22 141.48C57.31 142.21 55.46 143.96 54.11 145.38C52.77 146.8 50.92 148.68 50 149.58C49.04 150.51 47.72 151.52 46.89 151.96C46.09 152.37 44.79 152.89 44 153.09C43.14 153.32 41.7 153.47 40.44 153.48C39.15 153.48 37.77 153.33 36.89 153.1C36.09 152.89 34.84 152.39 34.11 151.98C33.38 151.57 32.19 150.7 31.47 150.04C30.75 149.38 29.6 147.99 28.92 146.95C28.23 145.91 27.31 144.21 26.86 143.17C26.42 142.13 25.84 140.57 25.59 139.72C25.33 138.86 24.92 137.16 24.67 135.93C24.42 134.71 24.12 132.5 24.01 131.03C23.87 129.16 23.63 127.83 23.21 126.58C22.88 125.6 22.49 124.51 22.34 124.16C22.07 123.53 22.08 123.52 22.64 123.68Z" />
	</g>
</svg>