<svg xmlns="http://www.w3.org/2000/svg" viewBox="0 0 200 187" width="200" height="187">
	<style>
		tspan { white-space:pre }
		.shp0 { fill: #ffffff } 
		.shp1 { fill: #b81137 } 
		.shp2 { fill: #455560 } 
		.shp3 { fill: #b0b7bb } 
	</style>
	<g >
		<path class="shp0" d="M94.47 4L88.98 7.99C82.19 8 81.39 8.01 81.39 8.08C81.39 8.12 81.71 9.12 82.1 10.29C82.5 11.47 82.81 12.43 82.79 12.43C82.77 12.43 81.93 11.83 80.92 11.09C79.9 10.35 79.05 9.75 79.03 9.75C79 9.75 78.87 10.08 78.74 10.48C78.61 10.88 78.09 12.5 77.57 14.07L76.64 16.93C75.74 17.59 73.27 19.37 70.58 21.33L65.68 24.88C68.07 32.55 68.74 34.79 68.72 34.81C68.7 34.83 67.41 34.96 65.87 35.11C64.32 35.25 61.58 35.54 59.78 35.74C57.97 35.94 55.57 36.22 54.43 36.36C53.3 36.5 51.4 36.74 50.22 36.9C49.03 37.05 47.11 37.32 45.94 37.49C44.77 37.66 43.1 37.91 42.22 38.05C41.35 38.19 40.43 38.33 40.19 38.38L39.76 38.46C39.73 74.51 39.71 84.97 39.69 84.97C39.68 84.97 39.01 85.1 38.21 85.25C37.41 85.41 35.72 85.75 34.45 86.01C33.18 86.27 31.28 86.68 30.23 86.92C29.18 87.16 27.61 87.53 26.73 87.75C25.86 87.97 24.47 88.33 23.64 88.56C22.82 88.79 21.93 89.04 21.67 89.12C21.29 89.24 21.21 89.28 21.23 89.38C21.24 89.45 21.81 91.55 22.49 94.06C23.18 96.57 23.75 98.65 23.76 98.69C23.77 98.72 22.85 98.93 21.56 99.18C20.33 99.41 18.57 99.76 17.65 99.94C16.72 100.12 15.48 100.37 14.9 100.5C14.31 100.62 13.79 100.73 13.73 100.75C13.62 100.78 13.62 100.98 13.62 103.93L13.62 107.09C12.58 108.18 10.98 109.87 9.4 111.56C7.82 113.24 5.39 115.83 4 117.31C2.61 118.79 1.13 120.36 0.72 120.8C0 121.56 -0.03 121.6 0.09 121.69C0.16 121.74 1.09 122.4 2.15 123.15C3.22 123.9 6.23 126.03 8.84 127.88L13.59 131.25C13.61 138.13 13.63 138.95 13.69 138.95C13.74 138.95 14.07 138.9 14.43 138.83C14.79 138.76 16.07 138.53 17.27 138.32C18.47 138.12 20.55 137.77 21.89 137.54C23.23 137.32 25.4 136.97 26.7 136.76C28.01 136.56 30.1 136.23 31.36 136.04C32.61 135.85 35.01 135.5 36.68 135.26C38.35 135.03 39.75 134.84 39.77 134.85C39.8 134.87 39.84 135.16 39.87 135.49C39.9 135.83 39.98 136.5 40.04 136.99C40.11 137.47 40.25 138.31 40.36 138.86C40.46 139.41 40.67 140.34 40.82 140.92C40.97 141.51 41.19 142.32 41.32 142.73C41.44 143.15 41.73 143.98 41.95 144.58C42.18 145.18 42.55 146.09 42.77 146.61C43 147.12 43.4 147.98 43.67 148.51C43.93 149.05 44.45 150 44.82 150.64C45.18 151.27 45.87 152.37 46.34 153.07C46.81 153.78 47.45 154.69 47.76 155.1C48.07 155.52 48.6 156.19 48.93 156.6C49.27 157.02 49.89 157.75 50.31 158.23C50.73 158.71 51.47 159.51 51.94 160.02C52.42 160.52 53.25 161.35 53.78 161.86C54.31 162.38 55.11 163.13 55.56 163.54C56.01 163.95 56.98 164.79 57.72 165.41C58.46 166.03 59.47 166.85 59.97 167.23C60.46 167.62 61.23 168.19 61.68 168.52C62.13 168.85 63.05 169.5 63.74 169.98C64.43 170.45 65.59 171.23 66.33 171.71C67.07 172.19 68.31 172.97 69.08 173.43C69.85 173.89 71.27 174.71 72.24 175.25C73.2 175.79 74.58 176.55 75.3 176.93C76.02 177.31 77.3 177.96 78.14 178.37C78.98 178.78 80.13 179.33 80.7 179.6C81.27 179.86 82.29 180.33 82.98 180.64C83.67 180.95 84.99 181.52 85.92 181.91C86.84 182.29 88.35 182.91 89.26 183.27C90.17 183.63 91.59 184.17 92.41 184.47C93.24 184.77 94.95 185.36 96.22 185.78C97.49 186.21 98.86 186.65 99.25 186.77L99.97 186.98C101.71 186.46 102.82 186.11 103.56 185.87C104.3 185.62 105.48 185.22 106.18 184.97C106.89 184.72 108.03 184.3 108.71 184.05C109.4 183.79 110.61 183.32 111.4 183C112.19 182.69 113.44 182.17 114.18 181.86C114.92 181.55 116.14 181.02 116.9 180.69C117.65 180.35 118.85 179.8 119.55 179.47C120.25 179.14 121.58 178.49 122.49 178.03C123.4 177.58 124.68 176.93 125.33 176.58C125.98 176.24 127.08 175.64 127.76 175.25C128.45 174.87 129.56 174.23 130.23 173.83C130.9 173.43 131.98 172.77 132.64 172.36C133.29 171.95 134.31 171.28 134.92 170.88C135.52 170.48 136.5 169.8 137.1 169.38C137.7 168.96 138.59 168.31 139.07 167.95C139.55 167.59 140.21 167.09 140.54 166.83C140.86 166.57 141.71 165.88 142.41 165.29C143.11 164.71 144.04 163.91 144.47 163.51C144.9 163.12 145.73 162.34 146.31 161.77C146.9 161.21 147.84 160.25 148.4 159.65C148.96 159.04 149.66 158.26 149.96 157.92C150.26 157.57 150.79 156.94 151.13 156.51C151.47 156.08 152.01 155.39 152.32 154.98C152.63 154.57 153.2 153.77 153.58 153.2C153.95 152.63 154.57 151.66 154.94 151.04C155.31 150.42 155.88 149.38 156.22 148.73C156.55 148.08 157 147.12 157.23 146.61C157.45 146.09 157.82 145.18 158.05 144.58C158.27 143.98 158.56 143.15 158.68 142.73C158.81 142.32 159.02 141.56 159.15 141.05C159.29 140.53 159.48 139.69 159.59 139.17C159.69 138.66 159.85 137.76 159.93 137.17C160.01 136.59 160.1 135.83 160.13 135.49C160.16 135.16 160.2 134.87 160.23 134.85C160.25 134.84 161.65 135.03 163.32 135.26C164.99 135.5 167.39 135.85 168.64 136.04C169.9 136.23 171.99 136.56 173.3 136.76C174.6 136.97 176.77 137.32 178.11 137.54C179.45 137.77 181.53 138.12 182.73 138.32C183.93 138.53 185.22 138.76 185.6 138.83C185.98 138.9 186.31 138.95 186.34 138.95C186.36 138.95 186.38 137.22 186.38 135.11L186.38 131.27C187.33 130.61 188.96 129.45 190.63 128.27C192.3 127.09 195.07 125.13 196.78 123.91C198.5 122.69 199.93 121.67 199.97 121.64C200.01 121.61 199.89 121.44 199.66 121.2C199.45 120.98 198.44 119.9 197.41 118.8C196.38 117.71 195.08 116.32 194.52 115.73C193.96 115.13 193.05 114.16 192.49 113.57C191.93 112.98 190.63 111.59 189.6 110.49C188.57 109.4 187.42 108.18 187.05 107.79L186.38 107.09C186.38 100.98 186.38 100.78 186.27 100.75C186.21 100.74 185.21 100.53 184.04 100.29C182.87 100.05 180.64 99.6 179.08 99.31C177.51 99.01 176.23 98.76 176.22 98.75C176.22 98.75 176.48 97.79 176.8 96.62C177.13 95.46 177.72 93.33 178.11 91.91C178.51 90.48 178.81 89.3 178.78 89.27C178.75 89.25 178.45 89.15 178.11 89.04C177.76 88.94 176.75 88.65 175.86 88.42C174.97 88.18 173.48 87.8 172.55 87.57C171.62 87.35 170.3 87.04 169.61 86.88C168.93 86.72 167.49 86.41 166.43 86.18C165.36 85.96 163.56 85.6 162.41 85.38C161.27 85.15 160.32 84.97 160.31 84.97C160.29 84.97 160.27 74.51 160.26 61.72L160.24 38.46C158.94 38.24 158.11 38.1 157.56 38.01C157.01 37.93 155.62 37.72 154.47 37.55C153.32 37.38 151.32 37.1 150.03 36.93C148.74 36.76 146.54 36.48 145.13 36.31C143.72 36.13 141.4 35.86 139.98 35.71C138.55 35.55 136.01 35.28 134.32 35.12C131.81 34.88 131.26 34.81 131.28 34.73C131.29 34.68 131.98 32.45 132.81 29.77L134.33 24.9C129.73 21.57 127.25 19.78 125.86 18.77L123.33 16.94C122.73 15.12 122.2 13.5 121.77 12.17C121.34 10.84 120.97 9.75 120.94 9.75C120.91 9.75 120.07 10.35 119.07 11.09C118.06 11.83 117.23 12.43 117.21 12.42C117.2 12.41 117.43 11.64 117.74 10.72C118.04 9.79 118.36 8.82 118.45 8.56C118.53 8.3 118.59 8.07 118.57 8.04C118.56 8.02 116.86 8 114.79 8L111.02 7.99C107.59 5.5 105.87 4.25 105 3.62C104.12 2.98 102.64 1.91 101.7 1.23C100.77 0.55 99.99 0 99.98 0C99.97 0 97.48 1.8 94.47 4Z" />
		<path class="shp1" d="M99.16 4.24C98.74 4.54 96.5 6.17 94.18 7.86L89.94 10.93C85.99 10.93 85.51 10.95 85.51 11.01C85.51 11.05 86.17 13.11 86.99 15.59C87.8 18.06 88.48 20.11 88.5 20.15C88.52 20.18 88.5 20.19 88.46 20.18C88.42 20.16 86.65 18.89 84.52 17.36C82.4 15.82 80.64 14.56 80.61 14.55C80.59 14.54 80.25 15.5 79.88 16.68C79.5 17.87 79.17 18.85 79.14 18.87C79.12 18.89 76.86 20.51 74.13 22.48L69.18 26.06C70.49 30.29 71.29 32.86 71.8 34.5C72.32 36.14 72.72 37.49 72.7 37.51C72.69 37.52 71.27 37.65 69.55 37.79C67.83 37.94 65.16 38.18 63.62 38.33C62.07 38.49 59.65 38.74 58.24 38.9C56.84 39.05 54.56 39.32 53.19 39.49C51.81 39.66 49.56 39.96 48.19 40.14C46.81 40.33 45.04 40.59 44.25 40.71C43.46 40.83 42.78 40.94 42.74 40.96C42.68 40.98 42.66 41.61 42.66 43.83C42.66 46.31 42.67 46.67 42.75 46.67C42.81 46.67 43.6 46.56 44.52 46.42C45.44 46.28 47.17 46.03 48.38 45.86C49.58 45.69 51.8 45.4 53.31 45.21C54.82 45.02 56.79 44.78 57.68 44.68C58.58 44.57 60.11 44.4 61.09 44.3C62.07 44.2 63.75 44.03 64.83 43.93C65.92 43.82 67.81 43.66 69.05 43.55C70.29 43.45 72.02 43.31 72.89 43.24C73.77 43.17 75.58 43.04 76.92 42.96C78.26 42.87 80.38 42.74 81.64 42.68C82.89 42.61 85.03 42.5 86.38 42.45L88.85 42.34C93.16 45.48 95.65 47.3 97.17 48.41C98.69 49.52 99.97 50.41 100.02 50.4C100.06 50.39 102.6 48.57 105.65 46.36L111.21 42.34C115.04 42.51 117.16 42.61 118.39 42.68C119.63 42.74 121.54 42.85 122.64 42.92C123.74 42.99 125.57 43.12 126.7 43.21C127.84 43.29 129.76 43.45 130.98 43.55C132.2 43.65 134.24 43.84 135.51 43.96C136.78 44.08 139.07 44.32 140.6 44.49C142.13 44.65 144.74 44.96 146.41 45.17C148.07 45.38 150.35 45.68 151.47 45.83C152.58 45.99 154.32 46.24 155.32 46.39C156.33 46.55 157.19 46.67 157.25 46.67C157.33 46.67 157.34 46.32 157.32 43.81L157.31 40.96C155.66 40.69 153.88 40.43 152.28 40.21C150.68 39.99 148.36 39.68 147.13 39.52C145.89 39.37 143.63 39.1 142.1 38.93C140.57 38.76 138.04 38.49 136.48 38.34C134.91 38.18 132.22 37.94 130.48 37.8C128.75 37.65 127.32 37.53 127.31 37.53C127.3 37.52 127.75 36.03 128.32 34.21C128.88 32.39 129.67 29.84 130.07 28.55C130.47 27.26 130.81 26.17 130.83 26.13C130.84 26.08 128.87 24.62 125.85 22.45C123.1 20.46 120.82 18.8 120.8 18.74C120.77 18.69 120.45 17.72 120.08 16.59C119.72 15.45 119.41 14.52 119.41 14.52C119.4 14.51 117.64 15.78 115.51 17.34C113.37 18.9 111.6 20.17 111.58 20.17C111.57 20.16 112.21 18.1 113.02 15.59C113.83 13.08 114.49 11.01 114.49 10.98C114.49 10.95 113.49 10.93 112.26 10.93L110.02 10.93C102.28 5.32 100 3.69 99.97 3.69C99.93 3.69 99.57 3.94 99.16 4.24Z" />
		<path class="shp0" d="M96.56 13.16C94.69 14.52 93.12 15.67 93.07 15.72C92.98 15.8 93.13 16.28 94.32 19.9L95.66 23.99L104.34 23.99C106.77 16.52 106.99 15.76 106.92 15.7C106.88 15.66 105.3 14.52 103.42 13.16C101.54 11.8 99.99 10.68 99.98 10.68C99.98 10.68 98.44 11.8 96.56 13.16ZM79.34 25.68C77.43 27.08 75.86 28.27 75.87 28.31C75.87 28.36 76.5 30.34 77.27 32.71C78.03 35.08 78.66 37.03 78.67 37.04C78.67 37.05 80.57 36.95 82.89 36.83C85.2 36.7 87.11 36.6 87.11 36.59C87.12 36.59 87.73 34.73 88.47 32.46C89.21 30.19 89.82 28.31 89.82 28.27C89.81 28.24 88.24 27.07 86.32 25.67L82.82 23.14L79.34 25.68ZM113.69 25.67C111.8 27.07 110.25 28.24 110.25 28.27C110.24 28.31 110.83 30.19 111.56 32.46C112.28 34.73 112.88 36.59 112.89 36.59C112.89 36.6 114.8 36.7 117.11 36.83C119.43 36.95 121.33 37.05 121.34 37.04C121.34 37.03 121.98 35.05 122.76 32.65C124.12 28.46 124.18 28.27 124.07 28.17C124 28.11 122.51 27.02 120.74 25.74C118.97 24.46 117.43 23.35 117.33 23.27L117.14 23.13L113.69 25.67ZM95.63 30.21C95.63 30.23 95.04 32.06 94.31 34.29C93.59 36.51 93.01 38.36 93.02 38.39C93.04 38.43 94.61 39.58 96.51 40.94C98.41 42.31 100 43.42 100.03 43.4C100.07 43.39 101.61 42.29 103.47 40.96C105.32 39.63 106.88 38.51 106.92 38.47C106.99 38.41 106.76 37.64 105.67 34.28L104.34 30.18C97.59 30.18 95.63 30.19 95.63 30.21Z" />
		<path class="shp1" d="M85.51 45.33C84.53 45.38 82.65 45.47 81.32 45.55C80 45.62 77.7 45.76 76.2 45.86C74.71 45.97 72.75 46.11 71.86 46.17C70.97 46.24 69.41 46.37 68.39 46.46C67.38 46.54 65.54 46.71 64.3 46.83C63.07 46.95 61.38 47.12 60.56 47.21C59.73 47.29 58.31 47.45 57.4 47.55C56.49 47.65 54.41 47.9 52.78 48.11C51.15 48.31 48.53 48.66 46.97 48.89C45.41 49.11 43.81 49.35 43.41 49.41L42.69 49.51C42.66 82.49 42.67 84.47 42.75 84.47C42.81 84.47 43.52 84.36 44.33 84.22C45.15 84.09 46.46 83.88 47.25 83.75C48.04 83.63 48.75 83.52 48.83 83.5L48.97 83.47C48.97 61.34 48.98 54.92 49 54.92C49.02 54.92 49.87 54.81 50.89 54.67C51.91 54.54 53.66 54.31 54.78 54.17C55.89 54.04 58.12 53.78 59.71 53.61C61.31 53.44 63.94 53.17 65.55 53.02C67.17 52.86 69.3 52.66 70.3 52.58C71.3 52.49 73.05 52.35 74.2 52.27C75.35 52.18 77.2 52.06 78.29 51.99C79.39 51.92 81.14 51.82 82.17 51.77C83.2 51.71 84.97 51.63 86.1 51.58C87.24 51.53 89.41 51.46 90.94 51.42C92.47 51.38 94.24 51.33 94.87 51.31L96.02 51.26C88.05 45.41 87.84 45.27 87.57 45.26C87.42 45.25 86.49 45.29 85.51 45.33ZM112.12 45.32C112.07 45.37 111.12 46.07 110.02 46.87C108.93 47.67 107.58 48.65 107.03 49.05C106.48 49.44 105.57 50.11 105.01 50.52C104.45 50.93 104 51.27 104.01 51.28C104.02 51.28 105.36 51.32 107 51.36C108.63 51.39 111.06 51.46 112.4 51.51C113.74 51.57 115.94 51.67 117.3 51.73C118.66 51.8 120.22 51.89 120.77 51.92C121.32 51.96 122.79 52.06 124.05 52.14C125.3 52.23 127.52 52.4 128.98 52.52C130.44 52.64 132.68 52.83 133.95 52.95C135.22 53.08 137.71 53.33 139.48 53.52C141.24 53.71 144.04 54.03 145.69 54.23C147.34 54.44 149.2 54.67 149.83 54.76C150.46 54.85 151 54.92 151.03 54.92C151.07 54.92 151.09 59.72 151.09 69.21L151.09 83.5C152.62 83.73 153.98 83.95 155.11 84.13C156.23 84.32 157.19 84.47 157.25 84.47C157.33 84.47 157.34 82.5 157.32 67L157.31 49.52C155.57 49.25 154.29 49.06 153.34 48.92C152.4 48.79 150.99 48.59 150.22 48.49C149.45 48.38 147.67 48.16 146.28 47.99C144.89 47.82 142.87 47.58 141.79 47.46C140.7 47.34 138.71 47.12 137.35 46.99C135.99 46.85 134.22 46.68 133.42 46.61C132.61 46.54 131.82 46.47 131.67 46.46C131.51 46.44 130.15 46.33 128.64 46.21C127.13 46.09 125.47 45.96 124.95 45.93C124.44 45.89 123.36 45.82 122.55 45.77C121.74 45.72 120.59 45.65 119.99 45.61C119.39 45.58 118.08 45.51 117.08 45.46C116.09 45.41 114.85 45.35 114.33 45.33C113.82 45.31 113.13 45.28 112.8 45.26C112.33 45.23 112.19 45.24 112.12 45.32Z" />
		<path class="shp2" d="M95.82 54.58C95.08 54.59 93.39 54.63 92.07 54.67C90.74 54.71 88.55 54.78 87.2 54.83C85.84 54.88 83.9 54.96 82.89 55.01C81.87 55.07 80.35 55.15 79.51 55.2C78.67 55.25 76.79 55.38 75.33 55.48C73.87 55.59 71.38 55.78 69.8 55.92C68.22 56.06 65.66 56.3 64.12 56.45C62.57 56.6 60.2 56.85 58.84 57.01C57.48 57.17 55.58 57.39 54.62 57.51C53.66 57.63 52.77 57.74 52.64 57.76L52.4 57.79C52.4 74.55 52.43 79.42 52.45 79.44C52.48 79.45 53.71 77.75 55.18 75.65C56.66 73.55 57.9 71.8 57.94 71.76C57.98 71.7 58.79 71.59 60.28 71.42C61.53 71.28 63.1 71.11 63.77 71.04C64.44 70.97 65.72 70.84 66.61 70.76C67.51 70.67 69.26 70.52 70.52 70.42C71.77 70.32 73.75 70.16 74.92 70.07C76.09 69.99 78.04 69.86 79.26 69.79C80.48 69.72 82.35 69.62 83.42 69.57C84.48 69.52 86.44 69.44 87.76 69.38C89.08 69.33 90.23 69.29 90.3 69.29L90.44 69.29L90.44 80L109.56 80L109.56 69.29C109.82 69.29 110.97 69.33 112.27 69.38C113.58 69.44 115.52 69.52 116.58 69.57C117.65 69.62 119.53 69.72 120.77 69.79C122 69.86 124.14 70 125.52 70.1C126.89 70.21 128.86 70.36 129.89 70.45C130.92 70.53 132.65 70.69 133.73 70.79C134.81 70.9 136.86 71.11 138.29 71.26C139.71 71.42 141.13 71.57 141.44 71.61L142 71.68C146.07 77.48 147.31 79.24 147.39 79.34L147.53 79.5L147.53 57.79C147.17 57.74 146.28 57.63 145.32 57.51C144.35 57.39 142.48 57.17 141.16 57.02C139.84 56.86 137.48 56.61 135.92 56.45C134.35 56.3 131.78 56.06 130.2 55.92C128.62 55.78 125.92 55.57 124.2 55.45C122.49 55.33 120.34 55.19 119.43 55.14C118.51 55.09 117.19 55.02 116.49 54.98C115.79 54.95 114.49 54.89 113.62 54.86C112.74 54.82 110.7 54.75 109.09 54.7C107.47 54.65 104.13 54.6 101.66 54.59C99.18 54.57 96.55 54.57 95.82 54.58Z" />
		<path class="shp3" d="M66.9 73.58C66.43 73.62 65.01 73.76 63.74 73.88C62.47 74 61.36 74.12 61.26 74.15C61.14 74.18 60.31 75.21 57.85 78.41C56.06 80.73 54.62 82.65 54.64 82.68C54.67 82.71 55.61 82.62 56.75 82.48C57.88 82.34 59.31 82.17 59.93 82.1C60.55 82.03 62.04 81.88 63.24 81.76C64.44 81.64 66.03 81.49 66.76 81.43L68.08 81.32L68.08 73.48C67.82 73.49 67.36 73.53 66.9 73.58ZM131.98 77.38L131.98 81.29C132.2 81.33 132.77 81.39 133.39 81.44C134 81.5 135.52 81.64 136.76 81.76C138 81.88 139.86 82.07 140.91 82.19C141.96 82.31 143.38 82.48 144.07 82.57C144.75 82.65 145.34 82.7 145.36 82.68C145.38 82.65 143.97 80.76 142.22 78.47C140.46 76.19 138.99 74.28 138.94 74.23C138.87 74.15 138.13 74.06 135.77 73.84C134.08 73.68 132.54 73.53 132.34 73.51L131.99 73.47L131.98 77.38Z" />
		<path class="shp1" d="M93.63 82.95C93.2 82.96 91.64 83 90.16 83.03C88.69 83.07 86.45 83.14 85.2 83.19C83.94 83.24 82.06 83.33 81.01 83.38C79.96 83.43 78.02 83.54 76.7 83.63C75.38 83.72 73.71 83.83 72.99 83.88C72.26 83.93 70.82 84.05 69.77 84.13C68.72 84.22 66.82 84.39 65.55 84.51C64.28 84.63 62.36 84.82 61.27 84.94C60.19 85.06 58.48 85.26 57.46 85.38C56.45 85.5 54.67 85.73 53.5 85.88C52.33 86.04 50.42 86.31 49.25 86.48C48.08 86.65 45.64 87.04 43.82 87.35C42 87.65 39.55 88.09 38.38 88.31C37.21 88.53 35.51 88.87 34.6 89.06C33.69 89.24 32.18 89.57 31.23 89.78C30.29 90 28.89 90.32 28.14 90.51C27.38 90.7 26.34 90.96 25.83 91.1C25.31 91.24 24.88 91.36 24.88 91.37C24.87 91.37 25.68 94.38 26.68 98.06L28.49 104.75C25.72 117.24 24.91 120.93 24.89 121.01C24.87 121.09 24.89 121.15 24.94 121.15C24.98 121.15 25.27 121.07 25.58 120.99C25.89 120.9 27.04 120.6 28.14 120.33C29.24 120.06 30.66 119.73 31.29 119.58C31.93 119.44 33.19 119.17 34.1 118.98C35.01 118.8 36.86 118.43 38.19 118.18C39.53 117.93 42.05 117.48 43.79 117.19C45.52 116.89 47.7 116.54 48.63 116.4C49.55 116.27 51.68 115.97 53.34 115.75C55.01 115.52 57.23 115.24 58.28 115.12C59.32 115 61.12 114.8 62.27 114.68C63.42 114.56 65.28 114.38 66.4 114.28C67.51 114.17 69.11 114.03 69.96 113.97C70.8 113.9 72.44 113.77 73.61 113.68C74.78 113.6 76.44 113.48 77.3 113.43C78.15 113.38 79.7 113.3 80.73 113.24C81.76 113.19 83.62 113.11 84.85 113.06C86.09 113.01 88.21 112.93 89.57 112.89C91.16 112.83 94.84 112.81 99.97 112.81C105.02 112.81 108.81 112.84 110.4 112.89C111.77 112.93 113.59 112.99 114.43 113.03C115.27 113.06 116.86 113.13 117.96 113.18C119.06 113.24 120.93 113.33 122.11 113.4C123.3 113.47 125.22 113.6 126.39 113.68C127.56 113.77 129.2 113.9 130.04 113.96C130.89 114.03 132.49 114.17 133.6 114.28C134.72 114.38 136.58 114.56 137.73 114.68C138.88 114.8 140.68 115 141.72 115.12C142.77 115.24 144.99 115.52 146.66 115.75C148.32 115.97 150.45 116.27 151.37 116.4C152.3 116.54 154.48 116.89 156.21 117.19C157.95 117.48 160.11 117.86 161.02 118.03C161.93 118.2 163.54 118.51 164.58 118.72C165.63 118.93 167.25 119.26 168.18 119.47C169.1 119.67 170.62 120.02 171.55 120.25C172.48 120.47 173.65 120.77 174.16 120.91C174.66 121.06 175.1 121.16 175.12 121.13C175.15 121.1 175.05 120.55 174.9 119.91C174.76 119.27 173.93 115.59 173.07 111.74L171.51 104.75C173.45 97.68 174.28 94.67 174.6 93.5L175.18 91.38C174.79 91.25 173.73 90.98 172.58 90.69C171.43 90.4 169.8 90.01 168.96 89.82C168.12 89.63 166.61 89.3 165.62 89.1C164.62 88.89 162.85 88.54 161.68 88.32C160.51 88.09 158.05 87.66 156.21 87.35C154.38 87.04 151.92 86.65 150.75 86.48C149.58 86.31 147.67 86.04 146.5 85.88C145.33 85.73 143.79 85.53 143.07 85.44C142.35 85.36 140.9 85.19 139.85 85.07C138.8 84.95 137.38 84.79 136.7 84.73C136.01 84.66 134.53 84.51 133.42 84.41C132.3 84.31 130.7 84.17 129.86 84.1C129.01 84.03 127.31 83.9 126.08 83.82C124.84 83.73 122.9 83.61 121.77 83.54C120.63 83.47 118.81 83.37 117.71 83.32C116.61 83.27 114.92 83.2 113.96 83.16C113 83.12 111.28 83.07 110.15 83.03C109.02 82.99 105.01 82.96 101.25 82.95C97.49 82.94 94.06 82.94 93.63 82.95Z" />
		<path class="shp0" d="M94 89.63C93.81 89.67 93.45 89.82 93.19 89.95C92.93 90.08 92.56 90.34 92.36 90.53C92.16 90.72 91.88 91.04 91.75 91.25C91.61 91.46 91.43 91.85 91.33 92.13L91.16 92.63L91.16 101.5C91.43 102.27 91.61 102.67 91.75 102.87C91.88 103.08 92.16 103.4 92.36 103.59C92.56 103.78 92.92 104.04 93.16 104.16C93.4 104.29 93.78 104.45 94 104.51C94.38 104.61 94.77 104.62 99.09 104.62C103.45 104.62 103.81 104.61 104.18 104.51C104.41 104.44 104.79 104.29 105.03 104.16C105.31 104.02 105.63 103.78 105.9 103.5C106.18 103.22 106.43 102.9 106.57 102.62C106.7 102.38 106.84 102.02 106.9 101.81C106.98 101.49 106.99 100.83 106.99 97.06C106.99 93.42 106.98 92.63 106.9 92.34C106.85 92.16 106.71 91.79 106.58 91.53C106.42 91.2 106.22 90.93 105.91 90.62C105.59 90.31 105.33 90.11 105 89.95C104.74 89.83 104.36 89.68 104.15 89.63C103.83 89.55 103.09 89.53 99.06 89.54C95.32 89.54 94.28 89.56 94 89.63ZM109.79 89.73C109.8 89.76 110.06 90.05 110.37 90.38L110.93 90.97L110.93 103.56C110.03 104.45 109.79 104.72 109.81 104.74C109.82 104.75 110.88 104.79 112.15 104.83C113.42 104.87 114.64 104.9 114.87 104.9L115.27 104.9L114 103.62C113.99 96.24 114.01 94.08 114.04 94.07C114.06 94.05 116 96.53 118.35 99.58C120.69 102.63 122.64 105.17 122.69 105.22C122.75 105.31 123.12 105.35 125.05 105.46C126.3 105.53 127.46 105.6 127.62 105.62C127.79 105.64 127.92 105.63 127.92 105.61C127.92 105.58 127.67 105.28 127.36 104.95L126.8 104.34L126.8 91.78C127.72 90.89 127.98 90.62 127.97 90.62C127.96 90.61 126.77 90.53 125.33 90.44C123.89 90.35 122.66 90.28 122.61 90.29C122.56 90.31 122.74 90.53 123.1 90.91L123.67 91.5C123.67 98.93 123.65 101.1 123.63 101.12C123.6 101.14 121.63 98.61 119.25 95.5L114.93 89.84C114.57 89.85 113.6 89.82 112.55 89.78C111.51 89.75 110.45 89.71 110.21 89.7C109.97 89.69 109.78 89.71 109.79 89.73ZM76.48 90.38C73.08 90.6 70.29 90.79 70.28 90.81C70.28 90.83 70.52 91.08 70.83 91.36L71.39 91.88L71.39 104.56C70.52 105.5 70.3 105.78 70.35 105.78C70.39 105.78 71.59 105.69 73.02 105.58C74.44 105.47 75.62 105.37 75.64 105.36C75.66 105.34 75.41 105.09 75.09 104.79L74.51 104.25L74.52 100.9C75.12 100.86 77.14 100.74 79.4 100.62C83.12 100.42 83.53 100.41 83.73 100.5C83.85 100.55 84 100.68 84.07 100.79C84.19 100.98 84.2 101.11 84.2 102.37L84.2 103.75C83 104.94 82.94 105.03 83.07 105.03C83.16 105.03 84.33 104.97 85.67 104.9C87 104.84 88.2 104.78 88.32 104.78L88.54 104.78L87.26 103.59C87.26 101.1 87.24 100.74 87.16 100.47C87.1 100.28 86.99 100.01 86.91 99.87C86.83 99.74 86.62 99.48 86.44 99.31C86.25 99.13 85.98 98.94 85.84 98.87C85.69 98.8 85.57 98.73 85.57 98.72C85.57 98.7 85.7 98.6 85.87 98.49C86.03 98.38 86.28 98.17 86.41 98.01C86.55 97.85 86.75 97.57 86.86 97.39C86.98 97.21 87.11 96.89 87.16 96.69C87.24 96.39 87.26 95.95 87.26 94.66C87.26 93.38 87.23 92.91 87.16 92.59C87.11 92.37 86.97 92.02 86.86 91.81C86.75 91.61 86.47 91.24 86.23 90.99C85.99 90.75 85.65 90.48 85.48 90.39C85.31 90.3 84.97 90.17 84.73 90.1C84.37 89.99 84.15 89.97 83.48 89.98C83.03 89.98 79.88 90.16 76.48 90.38ZM130.67 92.87C130.67 94.46 130.69 94.91 130.75 94.9C130.79 94.9 131.07 94.68 131.37 94.4L131.92 93.91L137.01 94.44L137.04 105.25C135.92 106.29 135.89 106.33 136.04 106.36C136.13 106.38 137.26 106.51 138.57 106.65C139.88 106.79 141.02 106.92 141.11 106.94C141.21 106.95 141.29 106.94 141.29 106.9C141.29 106.87 141.03 106.56 140.72 106.21L140.16 105.59C140.16 95.07 140.17 94.78 140.27 94.81C140.33 94.82 141.48 94.94 142.82 95.07L145.25 95.3C145.69 95.75 145.98 96.06 146.17 96.28L146.53 96.69C146.53 93.47 146.51 92.53 146.49 92.53C146.46 92.53 143.92 92.26 140.85 91.94C137.77 91.61 134.35 91.25 133.23 91.13C132.11 91.01 131.08 90.89 130.94 90.87L130.68 90.84L130.67 92.87ZM59.65 91.81C57.33 92.06 55.22 92.32 54.97 92.38C54.71 92.44 54.31 92.58 54.09 92.7C53.87 92.81 53.55 93.01 53.38 93.14C53.21 93.27 52.91 93.56 52.72 93.79C52.53 94.01 52.27 94.4 52.14 94.66C52.02 94.92 51.86 95.31 51.8 95.53C51.7 95.91 51.69 96.27 51.69 100.25C51.69 104.26 51.69 104.59 51.8 104.93C51.86 105.14 52.02 105.5 52.14 105.74C52.3 106.03 52.5 106.29 52.75 106.51C52.95 106.7 53.29 106.93 53.5 107.03C53.7 107.13 54 107.24 54.15 107.27C54.31 107.31 54.61 107.34 54.83 107.34C55.04 107.34 57.18 107.13 59.57 106.87C61.97 106.61 64.1 106.36 64.3 106.31C64.51 106.25 64.89 106.1 65.15 105.96C65.4 105.83 65.74 105.61 65.9 105.48C66.06 105.35 66.33 105.08 66.51 104.87C66.69 104.67 66.93 104.3 67.05 104.06C67.17 103.82 67.33 103.4 67.4 103.12C67.52 102.65 67.52 102.42 67.52 98.44C67.52 94.88 67.5 94.19 67.42 93.84C67.37 93.62 67.23 93.25 67.11 93.03C66.99 92.8 66.75 92.48 66.54 92.28C66.34 92.08 66 91.84 65.79 91.73C65.57 91.62 65.22 91.49 65.01 91.44C64.79 91.39 64.45 91.35 64.24 91.35C64.03 91.36 61.97 91.56 59.65 91.81Z" />
		<path class="shp3" d="M127.73 98.21L127.73 104L128.55 104.81L128.54 93.72L129.83 92.54C129.2 92.49 128.72 92.46 128.37 92.45L127.72 92.42L127.73 98.21Z" />
		<path class="shp1" d="M94.69 92.58C94.57 92.64 94.42 92.78 94.36 92.91C94.26 93.11 94.25 93.41 94.27 97.13C94.28 101.1 94.29 101.15 94.42 101.32C94.49 101.42 94.61 101.53 94.7 101.57C94.81 101.63 95.85 101.65 99.09 101.65C102.34 101.65 103.38 101.63 103.5 101.57C103.58 101.53 103.71 101.4 103.79 101.28L103.94 101.06C103.93 93.18 103.93 93.06 103.81 92.86C103.74 92.75 103.59 92.61 103.47 92.56C103.28 92.48 102.65 92.47 99.08 92.47C95.23 92.47 94.89 92.48 94.69 92.58ZM79.23 93.1C77 93.23 75.02 93.34 74.84 93.34L74.52 93.34L74.52 98C74.98 97.97 76.91 97.87 79.11 97.75C81.31 97.63 83.23 97.52 83.39 97.5C83.54 97.48 83.73 97.42 83.81 97.37C83.88 97.32 84 97.19 84.07 97.08C84.19 96.89 84.2 96.76 84.2 95.16C84.2 93.55 84.19 93.42 84.07 93.23C84 93.12 83.85 92.99 83.73 92.94C83.61 92.89 83.46 92.85 83.4 92.85C83.34 92.86 81.46 92.97 79.23 93.1Z" />
		<path class="shp3" d="M108.03 97.17C108.03 101.11 108.02 101.54 107.92 101.93C107.85 102.18 107.68 102.63 107.53 102.93C107.37 103.24 107.11 103.65 106.95 103.84C106.79 104.03 106.49 104.33 106.29 104.5C106.09 104.67 105.74 104.91 105.51 105.04C105.28 105.17 104.84 105.35 104.53 105.44L103.97 105.62C96.11 105.62 94.51 105.64 94.52 105.68C94.53 105.72 94.78 105.87 95.07 106.01C95.36 106.16 95.74 106.31 95.91 106.34C96.11 106.38 97.77 106.4 100.66 106.39L105.09 106.37C105.72 106.14 106.07 105.99 106.28 105.89C106.48 105.78 106.82 105.57 107.02 105.41C107.23 105.25 107.55 104.94 107.73 104.72C107.91 104.49 108.17 104.08 108.31 103.81C108.45 103.53 108.61 103.14 108.66 102.93C108.76 102.6 108.77 102.12 108.79 98.53L108.81 94.5C108.57 93.72 108.41 93.35 108.31 93.17C108.2 92.99 108.1 92.84 108.07 92.84C108.05 92.84 108.03 94.79 108.03 97.17ZM88.25 94.5C88.26 95.39 88.23 96.31 88.19 96.53C88.16 96.75 88.05 97.13 87.96 97.37C87.87 97.61 87.67 97.99 87.53 98.2L87.26 98.59C87.52 98.94 87.64 99.03 87.68 99.03C87.72 99.03 87.93 98.87 88.14 98.67C88.42 98.4 88.59 98.18 88.78 97.78L89.04 97.26C89.07 94.74 89.06 94.58 88.94 94.19C88.87 93.95 88.74 93.62 88.65 93.47C88.56 93.31 88.43 93.12 88.37 93.03C88.25 92.88 88.25 92.9 88.25 94.5Z" />
		<path class="shp0" d="M41.01 94.58L33.14 95.99C33.16 99.17 33.18 100.09 33.2 100.09C33.22 100.09 33.49 99.78 33.81 99.41L34.38 98.72C35.5 98.52 36.66 98.32 37.68 98.14L39.54 97.81L39.54 108.59C38.6 109.69 38.43 109.94 38.48 109.95C38.53 109.97 39.72 109.77 41.13 109.52C42.54 109.28 43.71 109.05 43.74 109.03C43.77 109.01 43.54 108.78 43.23 108.51L42.66 108.03L42.66 97.25C43.85 97.03 45 96.82 45.99 96.64L47.79 96.31C48.7 97.06 48.98 97.28 49 97.28C49.02 97.28 49.03 96.35 49.03 95.22C49.03 93.61 49.01 93.16 48.95 93.16C48.91 93.17 45.34 93.8 41.01 94.58Z" />
		<path class="shp3" d="M95.82 93.45C95.76 93.47 95.66 93.54 95.57 93.62C95.49 93.69 95.39 93.83 95.34 93.92C95.27 94.06 95.25 94.68 95.25 97.37L95.25 100.65L96.06 100.65C96.07 94.99 96.07 94.87 96.19 94.67C96.26 94.56 96.41 94.43 96.53 94.37C96.72 94.3 97.23 94.28 99.84 94.28L102.94 94.28L102.94 93.41C97.49 93.41 95.87 93.43 95.82 93.45Z" />
		<path class="shp0" d="M151.72 93.47C151.56 93.5 151.28 93.58 151.09 93.65C150.9 93.72 150.61 93.88 150.43 94.01C150.25 94.14 150 94.38 149.88 94.53C149.75 94.69 149.57 94.95 149.49 95.11C149.41 95.27 149.3 95.57 149.25 95.76C149.17 96.07 149.16 96.78 149.16 100.34C149.16 103.85 149.17 104.62 149.25 104.95C149.3 105.16 149.43 105.53 149.54 105.76C149.64 105.99 149.85 106.35 150 106.56C150.14 106.76 150.44 107.1 150.66 107.31C150.88 107.52 151.23 107.78 151.44 107.91C151.64 108.03 151.97 108.19 152.15 108.27C152.41 108.38 153.72 108.63 157 109.19C159.77 109.67 161.66 109.96 161.93 109.96C162.17 109.96 162.53 109.92 162.73 109.87C162.92 109.82 163.22 109.71 163.38 109.64C163.55 109.56 163.86 109.32 164.09 109.09C164.33 108.85 164.57 108.54 164.67 108.34C164.76 108.15 164.87 107.83 164.93 107.62C165.01 107.3 165.02 106.62 165.02 103.06C165.02 99.61 165 98.8 164.93 98.44C164.88 98.2 164.73 97.77 164.59 97.5C164.46 97.22 164.22 96.82 164.06 96.61C163.9 96.39 163.58 96.06 163.35 95.87C163.12 95.68 162.75 95.43 162.52 95.31C162.3 95.2 161.89 95.04 161.62 94.97C161.34 94.9 159.19 94.52 156.82 94.13C154.46 93.73 152.41 93.41 152.26 93.41C152.12 93.42 151.87 93.44 151.72 93.47Z" />
		<path class="shp3" d="M79.23 94.13C77.34 94.24 75.73 94.34 75.66 94.34L75.52 94.34L75.52 96.97C75.73 96.92 75.92 96.91 76.06 96.91L76.33 96.91L76.33 95.09C77.03 95.04 78.43 94.96 79.89 94.87C81.35 94.79 82.69 94.7 82.87 94.69L83.2 94.66L83.2 93.91C82.79 93.92 81.12 94.02 79.23 94.13ZM68.5 98.45L68.48 102.87C68.22 103.72 68.05 104.16 67.93 104.39C67.81 104.62 67.62 104.95 67.49 105.12C67.37 105.29 67.09 105.61 66.88 105.83C66.67 106.05 66.32 106.34 66.11 106.48C65.91 106.63 65.59 106.82 65.4 106.91C65.21 107 64.86 107.13 64.62 107.2C64.38 107.27 63.97 107.36 63.71 107.4C63.45 107.43 61.51 107.65 59.4 107.87C57.29 108.09 55.44 108.29 55.29 108.31C55.15 108.32 55.03 108.37 55.03 108.4C55.03 108.44 55.16 108.53 55.32 108.61C55.49 108.7 55.79 108.81 56 108.86C56.2 108.92 56.56 108.96 56.79 108.96C57.02 108.96 58.91 108.77 60.98 108.52C63.05 108.28 64.93 108.04 65.16 107.99C65.39 107.94 65.75 107.83 65.94 107.75C66.14 107.67 66.41 107.54 66.55 107.46C66.69 107.38 66.96 107.2 67.15 107.05C67.33 106.91 67.65 106.62 67.84 106.42C68.03 106.22 68.3 105.9 68.42 105.71C68.55 105.53 68.74 105.2 68.84 104.98C68.94 104.77 69.08 104.39 69.16 104.14C69.29 103.7 69.29 103.59 69.32 99.84C69.34 96.56 69.33 95.93 69.24 95.53C69.19 95.27 69.04 94.85 68.91 94.6C68.78 94.35 68.64 94.12 68.6 94.09C68.54 94.04 68.52 94.93 68.5 98.45Z" />
		<path class="shp1" d="M59.65 94.75C57.74 94.96 55.99 95.16 55.76 95.18C55.42 95.21 55.3 95.25 55.14 95.4C55.01 95.51 54.91 95.68 54.86 95.86C54.8 96.08 54.78 97.1 54.78 99.92C54.78 102.03 54.8 103.78 54.84 103.9C54.87 104.02 54.97 104.17 55.06 104.23C55.14 104.29 55.31 104.34 55.42 104.34C55.53 104.34 57.43 104.14 59.65 103.9C61.87 103.66 63.76 103.43 63.86 103.39C63.96 103.34 64.12 103.22 64.22 103.11L64.4 102.9L64.4 94.72C64.03 94.36 63.99 94.34 63.57 94.35C63.32 94.35 61.56 94.53 59.65 94.75Z" />
		<path class="shp3" d="M147.53 96.16L147.53 97.84C148.09 98.46 148.27 98.65 148.3 98.65C148.32 98.65 148.35 97.73 148.35 96.61L148.35 94.56C147.89 94.49 147.7 94.47 147.64 94.47C147.54 94.47 147.53 94.59 147.53 96.16ZM50.31 94.73L50 94.79L50.03 98.19C50.59 98.64 50.77 98.76 50.8 98.73C50.82 98.71 50.85 97.78 50.84 96.67C50.84 94.79 50.84 94.66 50.73 94.66C50.67 94.67 50.48 94.7 50.31 94.73ZM132.48 95.92C132.48 96.45 132.5 96.89 132.52 96.92C132.55 96.94 132.83 96.73 133.14 96.45L133.7 95.93C135.3 96.1 135.82 96.15 135.9 96.15C136.03 96.16 136.04 96.13 136.04 95.75C136.04 95.38 136.03 95.34 135.9 95.32C135.82 95.3 135.08 95.22 134.26 95.13C133.44 95.04 132.7 94.97 132.62 94.97C132.48 94.97 132.48 94.98 132.48 95.92ZM59.78 95.73C57.44 95.99 56.43 96.13 56.28 96.21C56.17 96.26 56.01 96.4 55.94 96.5C55.81 96.68 55.81 96.75 55.79 100.03L55.77 103.37C56.24 103.3 56.41 103.28 56.45 103.28C56.51 103.28 56.53 102.64 56.54 100.35L56.56 97.43C56.81 97.1 56.98 96.95 57.09 96.9C57.24 96.83 58.16 96.71 60.15 96.5C61.71 96.34 63.1 96.19 63.23 96.17L63.46 96.12L63.46 95.34C63.15 95.36 61.58 95.53 59.78 95.73ZM141.1 100.61L141.1 105.25L141.97 106.12L141.97 96.78C142.29 96.83 143.05 96.92 143.88 97C144.7 97.09 145.44 97.16 145.52 97.14C145.64 97.13 145.62 97.08 145.27 96.7L144.88 96.29C142.17 96.04 141.32 95.97 141.24 95.97L141.1 95.97L141.1 100.61Z" />
		<path class="shp1" d="M152.5 96.62L152.29 96.83C152.28 104.12 152.3 104.87 152.37 105.01C152.41 105.11 152.55 105.27 152.68 105.39C152.8 105.5 152.93 105.59 152.97 105.59C153 105.59 154.84 105.9 157.04 106.28C159.25 106.65 161.17 106.96 161.31 106.97C161.49 106.97 161.6 106.93 161.73 106.81C161.82 106.72 161.91 106.56 161.93 106.45C161.95 106.34 161.96 104.48 161.95 102.33C161.93 98.53 161.93 98.41 161.81 98.24C161.74 98.15 161.61 98.02 161.52 97.96C161.4 97.86 160.44 97.68 157.25 97.12C154.98 96.73 153.03 96.41 152.91 96.41C152.76 96.41 152.65 96.46 152.5 96.62Z" />
		<path class="shp3" d="M115.05 100.14L115.05 103.31L115.8 104.06L115.81 97.94C115.27 97.19 115.1 96.97 115.08 96.97C115.07 96.97 115.05 98.39 115.05 100.14ZM45.44 97.74L43.69 98.07L43.66 107.43C44.24 107.89 44.42 108.01 44.44 107.98C44.46 107.95 44.47 105.86 44.47 103.32C44.47 100.79 44.49 98.72 44.5 98.72C44.52 98.72 45.33 98.58 46.3 98.4C47.27 98.23 48.08 98.09 48.11 98.09C48.14 98.09 47.97 97.94 47.75 97.75C47.53 97.56 47.31 97.41 47.27 97.41C47.22 97.42 46.4 97.57 45.44 97.74ZM153.61 97.68C153.54 97.73 153.43 97.83 153.38 97.91C153.3 98.04 153.28 98.48 153.28 101.36L153.28 104.65L154.06 104.75C154.12 99.03 154.13 98.91 154.25 98.78C154.32 98.7 154.42 98.62 154.48 98.59C154.55 98.55 155.63 98.71 157.71 99.06C159.43 99.35 160.87 99.59 160.9 99.59C160.93 99.59 160.96 99.41 160.96 99.19C160.96 98.96 160.95 98.78 160.95 98.78C160.94 98.78 159.38 98.51 157.5 98.19C155.61 97.86 153.99 97.59 153.9 97.59C153.82 97.6 153.69 97.63 153.61 97.68ZM36.73 99.3L34.95 99.61C34.98 101.58 34.99 101.62 35.09 101.49C35.15 101.41 35.42 101.08 35.7 100.76L36.2 100.17L38.54 99.75C38.54 99.14 38.53 98.97 38.52 98.97C38.51 98.98 37.71 99.12 36.73 99.3ZM166.08 99.03C166.08 99.05 166.07 100.99 166.06 103.34C166.05 107.12 166.03 107.67 165.94 108.01C165.88 108.23 165.77 108.55 165.69 108.73C165.61 108.91 165.43 109.21 165.29 109.4C165.16 109.59 164.89 109.88 164.7 110.04C164.52 110.2 164.17 110.44 163.93 110.56C163.69 110.68 163.31 110.82 163.09 110.88C162.83 110.94 162.44 110.98 162.05 110.98C161.54 110.97 160.63 110.83 157.03 110.2C154.6 109.77 152.6 109.43 152.56 109.45C152.53 109.47 152.6 109.56 152.72 109.66C152.84 109.76 153.09 109.94 153.28 110.05C153.47 110.17 153.81 110.34 154.04 110.43C154.34 110.54 155.59 110.78 158.35 111.25C160.49 111.62 162.48 111.93 162.77 111.95C163.18 111.97 163.43 111.95 163.85 111.84C164.15 111.77 164.52 111.65 164.66 111.58C164.81 111.51 165.09 111.34 165.29 111.2C165.48 111.07 165.78 110.8 165.94 110.6C166.1 110.41 166.33 110.02 166.46 109.74C166.59 109.47 166.73 109.09 166.78 108.9C166.85 108.63 166.86 107.74 166.86 104.62L166.86 100.69C166.6 99.91 166.42 99.53 166.3 99.34C166.18 99.15 166.09 99.01 166.08 99.03ZM88.27 102.08L88.26 103.15C88.8 103.66 88.99 103.82 89.02 103.82C89.04 103.83 89.07 103.53 89.07 103.15C89.07 102.67 89.04 102.36 88.96 102.11C88.89 101.91 88.76 101.62 88.65 101.47C88.55 101.31 88.42 101.15 88.37 101.1C88.3 101.03 88.28 101.17 88.27 102.08ZM78.98 101.69C77.09 101.8 75.54 101.9 75.53 101.9C75.52 101.9 75.52 102.33 75.52 102.86L75.52 103.81L76.33 104.53L76.33 102.62C81.53 102.35 83.08 102.27 83.12 102.28C83.17 102.28 83.2 102.16 83.2 101.87L83.2 101.47C82.59 101.48 80.87 101.57 78.98 101.69Z" />
		<path class="shp1" d="M23.45 101.85C22.94 101.95 21.31 102.27 19.83 102.57C18.35 102.86 17.01 103.13 16.85 103.16L16.55 103.22L16.54 108.31C12.65 112.43 9.95 115.31 8.03 117.36C6.1 119.41 4.53 121.11 4.53 121.14C4.53 121.18 4.85 121.43 5.25 121.71C5.64 122 6.33 122.49 6.78 122.8C7.22 123.12 8.91 124.31 10.52 125.46C12.14 126.6 13.98 127.91 14.62 128.36C15.25 128.81 15.95 129.31 16.16 129.46L16.56 129.74C16.55 134.79 16.57 135.39 16.63 135.39C16.67 135.39 17.1 135.32 17.58 135.23C18.06 135.15 19.54 134.9 20.86 134.68C22.18 134.45 23.89 134.17 24.66 134.05C25.42 133.93 26.66 133.73 27.4 133.61C28.15 133.49 29.72 133.25 30.89 133.08C32.05 132.91 33.46 132.7 34.01 132.61C34.56 132.53 35.56 132.38 36.24 132.29C36.97 132.18 37.45 132.09 37.44 132.05C37.42 132.02 35.38 131.18 32.9 130.19C30.42 129.21 26.71 127.73 24.65 126.91C22.59 126.1 20.9 125.4 20.88 125.36C20.87 125.33 21.89 120.69 23.16 115.06L25.47 104.81C24.69 101.83 24.63 101.66 24.52 101.66C24.45 101.66 23.97 101.75 23.45 101.85ZM174.99 103.23L174.57 104.81C177.1 116.24 178.13 120.86 178.48 122.46C178.83 124.06 179.12 125.37 179.12 125.38C179.11 125.39 175.38 126.88 170.83 128.7C166.28 130.52 162.55 132.03 162.54 132.06C162.53 132.09 164.41 132.39 166.72 132.73C169.03 133.07 172.57 133.61 174.58 133.93C176.59 134.25 179.38 134.71 180.78 134.95C182.18 135.19 183.35 135.39 183.39 135.39C183.43 135.39 183.45 134.41 183.45 132.57L183.45 129.74C191.6 123.96 194.33 122.04 194.77 121.73L195.56 121.18L183.45 108.25L183.45 103.22C182.89 103.11 182.49 103.03 182.2 102.97C181.91 102.9 180.29 102.58 178.61 102.25C176.92 101.92 175.52 101.65 175.48 101.65C175.44 101.65 175.22 102.36 174.99 103.23Z" />
		<path class="shp3" d="M87.38 105.79L85.59 105.85C84.96 106.5 84.78 106.69 84.78 106.7C84.79 106.71 85.92 106.67 87.29 106.62C88.66 106.57 89.91 106.51 90.05 106.49L90.32 106.46C89.6 105.8 89.47 105.72 89.33 105.72C89.24 105.73 88.36 105.76 87.38 105.79ZM111.9 106.27L111.52 106.65C112.01 106.66 113.24 106.7 114.58 106.74C115.92 106.79 117.03 106.82 117.03 106.82C117.04 106.81 116.86 106.62 116.63 106.39L116.21 105.97L112.27 105.89L111.9 106.27ZM74.67 106.51L72.86 106.66L71.99 107.54C72.57 107.49 73.78 107.39 75.05 107.3C76.32 107.21 77.4 107.13 77.45 107.11C77.52 107.09 77.43 106.97 77.14 106.71C76.9 106.48 76.68 106.34 76.61 106.35C76.54 106.35 75.67 106.42 74.67 106.51ZM123.97 106.38C123.98 106.39 124.12 106.59 124.28 106.81C124.44 107.03 124.58 107.22 124.58 107.22C124.58 107.22 125.63 107.28 126.92 107.37C128.21 107.46 129.39 107.53 129.54 107.53L129.83 107.53L129.01 106.73C125.09 106.45 123.96 106.37 123.97 106.38ZM138.05 107.98C137.84 108.16 137.69 108.32 137.71 108.35C137.74 108.37 138.97 108.51 140.44 108.67C141.92 108.83 143.14 108.95 143.14 108.95C143.15 108.94 142.98 108.74 142.77 108.51L142.38 108.08C139.43 107.75 138.54 107.65 138.5 107.65C138.46 107.65 138.25 107.8 138.05 107.98ZM43.34 110.12C42.5 110.27 41.61 110.42 41.36 110.46L40.91 110.53C40.33 111.24 40.2 111.44 40.24 111.45C40.28 111.47 41.52 111.25 42.99 110.98L45.67 110.49C45.4 110.27 45.21 110.13 45.09 110.03L44.86 109.86L43.34 110.12Z" />
		<path class="shp2" d="M92.13 115.77C91.22 115.79 90.47 115.82 90.46 115.82C90.45 115.83 90.44 126.26 90.43 139L90.41 162.16C85.65 166.08 84.22 167.27 84.17 167.32C84.08 167.4 84.17 167.46 84.99 167.87C85.5 168.13 86.58 168.64 87.38 169.02C88.19 169.4 89.4 169.95 90.07 170.24C90.74 170.53 91.79 170.98 92.41 171.24C93.03 171.5 94.1 171.92 94.78 172.19C95.47 172.46 96.61 172.89 97.31 173.15C98.02 173.4 98.9 173.73 99.28 173.86L99.97 174.11C101.71 173.51 102.75 173.13 103.4 172.89C104.06 172.65 105.05 172.27 105.62 172.05C106.19 171.83 107.16 171.43 107.78 171.17C108.39 170.92 109.38 170.49 109.96 170.24C110.55 169.98 111.66 169.47 112.43 169.11C113.2 168.75 114.31 168.22 114.88 167.94C115.55 167.6 115.91 167.39 115.87 167.35C115.84 167.32 114.41 166.12 112.69 164.69L109.56 162.1C109.56 116.99 109.55 115.83 109.45 115.8C109.39 115.78 105.84 115.75 101.56 115.74C97.28 115.74 93.04 115.75 92.13 115.77Z" />
		<path class="shp3" d="M65.65 117.31C64.46 117.43 62.54 117.62 61.37 117.75C60.2 117.87 57.8 118.15 56.03 118.37C54.26 118.59 52.72 118.79 52.61 118.8L52.4 118.84C52.4 124.81 52.41 124.84 52.56 125.6C52.65 126.02 52.87 126.79 53.04 127.3C53.21 127.82 53.55 128.66 53.79 129.18C54.03 129.69 54.41 130.44 54.64 130.83C54.86 131.23 55.23 131.83 55.45 132.17C55.67 132.52 56.03 133.04 56.23 133.33C56.44 133.62 56.91 134.24 57.27 134.7C57.63 135.17 58.24 135.9 58.62 136.33C58.99 136.76 59.65 137.49 60.08 137.94C60.52 138.4 61.44 139.32 62.15 139.98C62.85 140.65 63.85 141.55 64.37 141.99C64.88 142.44 65.58 143.03 65.93 143.3C66.27 143.58 66.87 144.05 67.25 144.35C67.64 144.65 67.99 144.88 68.02 144.86C68.06 144.84 68.08 140.14 68.08 130.96L68.08 117.09C67.86 117.1 66.83 117.19 65.65 117.31ZM131.99 131.01L131.98 144.95C132.97 144.21 133.54 143.76 133.89 143.49C134.23 143.21 134.99 142.58 135.57 142.07C136.16 141.57 137.11 140.71 137.7 140.16C138.28 139.61 139.15 138.75 139.63 138.26C140.11 137.76 140.86 136.95 141.29 136.45C141.73 135.96 142.39 135.15 142.76 134.67C143.14 134.19 143.69 133.45 143.98 133.02C144.28 132.59 144.74 131.87 145.01 131.42C145.27 130.98 145.71 130.16 145.98 129.61C146.25 129.06 146.6 128.26 146.76 127.83C146.92 127.4 147.11 126.8 147.19 126.49C147.27 126.18 147.4 125.63 147.47 125.27C147.59 124.67 147.6 124.39 147.6 121.72L147.6 118.84C147.23 118.79 146.37 118.68 145.44 118.56C144.51 118.44 142.94 118.24 141.94 118.12C140.95 118 139.19 117.8 138.04 117.68C136.89 117.56 135.19 117.4 134.26 117.31C133.33 117.22 132.44 117.13 132.28 117.11L131.99 117.07L131.99 131.01Z" />
		<path class="shp1" d="M46.22 119.81C44.73 120.06 43.31 120.3 43.07 120.34L42.64 120.41C42.66 129.43 42.69 132.64 42.72 133.36C42.75 134.08 42.83 135.11 42.88 135.64C42.94 136.17 43.06 137.09 43.16 137.67C43.26 138.26 43.47 139.26 43.63 139.89C43.79 140.53 44.06 141.48 44.24 142.02C44.41 142.55 44.66 143.28 44.8 143.64C44.93 144 45.2 144.66 45.39 145.11C45.58 145.55 46.02 146.48 46.37 147.17C46.71 147.86 47.27 148.87 47.6 149.42C47.93 149.97 48.33 150.63 48.5 150.89C48.67 151.14 49.03 151.68 49.31 152.07C49.58 152.47 50.06 153.13 50.37 153.54C50.68 153.95 51.27 154.7 51.69 155.2C52.11 155.7 52.84 156.54 53.32 157.07C53.81 157.61 54.73 158.56 55.38 159.2C56.03 159.83 56.98 160.73 57.5 161.2C58.01 161.66 58.73 162.3 59.09 162.6C59.45 162.91 60.29 163.6 60.96 164.14C61.63 164.67 62.76 165.53 63.46 166.05C64.16 166.57 65.29 167.36 65.96 167.82C66.63 168.27 67.85 169.07 68.68 169.6C69.5 170.12 70.55 170.77 71.02 171.05C71.48 171.33 72.35 171.83 72.95 172.18C73.56 172.52 74.74 173.17 75.58 173.63C76.42 174.09 78.18 174.99 79.48 175.63C80.79 176.28 82.52 177.1 83.32 177.47C84.13 177.84 85.48 178.44 86.32 178.8C87.16 179.16 88.54 179.74 89.38 180.08C90.22 180.42 91.43 180.9 92.07 181.14C92.7 181.38 93.66 181.73 94.19 181.92C94.72 182.11 96.24 182.63 97.56 183.07L99.97 183.86C100.65 183.67 101.76 183.3 102.87 182.93C103.99 182.55 105.56 182 106.37 181.71C107.18 181.42 108.5 180.92 109.31 180.6C110.11 180.28 111.29 179.8 111.93 179.54C112.57 179.27 113.61 178.83 114.24 178.55C114.88 178.28 116.07 177.74 116.9 177.36C117.72 176.99 119.43 176.16 120.71 175.54C121.98 174.91 123.65 174.06 124.42 173.63C125.2 173.21 126.42 172.52 127.14 172.11C127.86 171.7 128.76 171.18 129.14 170.96C129.52 170.73 130.5 170.12 131.32 169.6C132.15 169.07 133.37 168.27 134.04 167.82C134.71 167.36 135.84 166.57 136.54 166.05C137.24 165.53 138.37 164.67 139.04 164.14C139.71 163.6 140.61 162.87 141.04 162.5C141.47 162.14 142.15 161.54 142.57 161.16C142.98 160.79 143.88 159.93 144.56 159.26C145.24 158.59 146.17 157.63 146.62 157.13C147.08 156.64 147.84 155.77 148.31 155.2C148.79 154.63 149.47 153.77 149.83 153.29C150.19 152.81 150.86 151.86 151.31 151.17C151.77 150.48 152.33 149.6 152.56 149.2C152.8 148.8 153.3 147.86 153.68 147.11C154.06 146.35 154.57 145.27 154.8 144.7C155.04 144.13 155.42 143.09 155.65 142.39C155.89 141.69 156.21 140.6 156.36 139.98C156.52 139.37 156.72 138.47 156.8 137.99C156.89 137.5 157.02 136.67 157.09 136.14C157.15 135.61 157.24 134.58 157.27 133.86C157.31 133.14 157.34 129.82 157.34 126.47C157.34 123.13 157.33 120.4 157.31 120.4C157.29 120.4 155.93 120.17 154.28 119.9C152.63 119.62 151.24 119.4 151.19 119.4C151.1 119.4 151.09 120.14 151.09 125.72C151.09 129.2 151.06 132.63 151.03 133.33C150.99 134.03 150.92 134.96 150.87 135.39C150.82 135.82 150.68 136.67 150.55 137.27C150.43 137.87 150.25 138.66 150.16 139.02C150.06 139.38 149.86 140.02 149.72 140.45C149.58 140.88 149.33 141.56 149.17 141.95C149.02 142.35 148.68 143.12 148.43 143.67C148.17 144.22 147.78 145.01 147.55 145.42C147.32 145.83 146.92 146.52 146.65 146.95C146.39 147.38 145.96 148.03 145.71 148.4C145.46 148.76 144.91 149.51 144.49 150.05C144.08 150.6 143.36 151.48 142.91 152.01C142.45 152.54 141.35 153.71 140.45 154.61C139.55 155.51 138.45 156.56 138.01 156.95C137.56 157.35 136.8 157.99 136.32 158.39C135.84 158.79 134.95 159.49 134.35 159.95C133.75 160.42 132.82 161.11 132.29 161.49C131.76 161.87 130.73 162.57 130.01 163.05C129.29 163.53 128.25 164.21 127.7 164.55C127.15 164.89 126.15 165.5 125.48 165.9C124.81 166.29 123.79 166.88 123.2 167.21C122.62 167.53 121.69 168.04 121.14 168.33C120.59 168.63 119.48 169.2 118.68 169.6C117.87 170 116.7 170.57 116.08 170.86C115.47 171.16 114.5 171.6 113.93 171.86C113.36 172.12 112.31 172.58 111.59 172.89C110.87 173.2 109.77 173.67 109.15 173.92C108.53 174.18 107.28 174.67 106.37 175.02C105.46 175.36 104.41 175.76 104.03 175.89C103.65 176.03 102.58 176.4 101.66 176.72L99.97 177.3C98.03 176.63 96.94 176.24 96.28 176.01C95.63 175.77 94.37 175.3 93.47 174.95C92.58 174.61 91.17 174.05 90.35 173.71C89.53 173.36 88.27 172.83 87.57 172.52C86.87 172.21 85.78 171.73 85.17 171.44C84.55 171.16 83.2 170.52 82.17 170.01C81.14 169.51 79.68 168.76 78.92 168.35C78.16 167.95 77.1 167.36 76.55 167.05C76 166.74 75.07 166.21 74.48 165.86C73.9 165.52 72.86 164.89 72.17 164.46C71.49 164.03 70.5 163.39 69.99 163.05C69.47 162.71 68.52 162.04 67.86 161.58C67.21 161.11 66.26 160.41 65.74 160.01C65.22 159.62 64.49 159.04 64.12 158.73C63.74 158.43 63.15 157.93 62.8 157.64C62.46 157.35 61.69 156.65 61.09 156.09C60.49 155.54 59.68 154.77 59.3 154.38C58.92 153.99 58.29 153.32 57.89 152.89C57.5 152.46 56.94 151.81 56.64 151.45C56.34 151.09 55.85 150.48 55.56 150.11C55.26 149.73 54.69 148.94 54.29 148.36C53.89 147.77 53.3 146.84 52.98 146.29C52.66 145.75 52.13 144.76 51.81 144.11C51.49 143.46 51.09 142.57 50.92 142.14C50.74 141.71 50.48 140.98 50.32 140.52C50.17 140.05 49.96 139.36 49.85 138.98C49.75 138.61 49.6 137.95 49.51 137.52C49.42 137.09 49.29 136.33 49.22 135.83C49.15 135.33 49.08 134.84 49.06 134.74C49.03 134.63 49 131.13 48.98 126.95L48.93 119.36L46.22 119.81Z" />
		<path class="shp2" d="M37.29 121.41C35.97 121.67 34.21 122.04 33.39 122.21C32.56 122.39 31.13 122.71 30.2 122.93C29.27 123.15 27.86 123.48 27.06 123.67C26.26 123.86 25.61 124.04 25.61 124.07C25.61 124.09 28.78 125.37 32.65 126.91C36.52 128.45 39.7 129.7 39.71 129.69C39.72 129.68 39.72 127.71 39.71 125.3L39.69 120.92L37.29 121.41ZM160.26 125.31C160.27 127.73 160.3 129.71 160.32 129.71C160.35 129.71 163.51 128.45 167.35 126.93C171.19 125.4 174.33 124.12 174.33 124.08C174.33 124.05 174.27 124.01 174.19 123.99C174.11 123.97 173.42 123.8 172.64 123.61C171.87 123.42 170.65 123.12 169.93 122.95C169.2 122.78 167.91 122.49 167.05 122.3C166.19 122.12 164.59 121.78 163.49 121.56C162.39 121.34 161.21 121.1 160.87 121.03L160.25 120.91L160.26 125.31Z" />
		<path class="shp1" d="M73.45 124.02C73.45 124.06 73.62 124.22 73.83 124.4L74.2 124.71L74.2 131.86C73.66 132.3 73.47 132.46 73.43 132.51C73.37 132.57 73.73 132.59 75.36 132.58L77.36 132.58L76.58 131.86L76.58 129.27L83.14 129.27L83.14 127.27L76.58 127.27L76.58 125.96L84.2 125.96C84.88 126.35 85.09 126.46 85.1 126.46C85.12 126.46 85.13 125.9 85.13 125.21L85.13 123.96C75.44 123.96 73.45 123.98 73.45 124.02ZM117.68 124.05C117.45 124.1 117.16 124.18 117.02 124.22C116.88 124.27 116.64 124.39 116.49 124.48C116.34 124.57 116.05 124.79 115.87 124.97C115.68 125.15 115.45 125.44 115.35 125.61C115.26 125.79 115.16 126.11 115.12 126.33C115.08 126.56 115.05 127.46 115.05 128.33C115.06 129.34 115.08 130.06 115.13 130.3C115.17 130.51 115.31 130.84 115.43 131.04C115.55 131.24 115.79 131.53 115.96 131.69C116.13 131.84 116.47 132.06 116.71 132.18C116.95 132.29 117.34 132.43 117.58 132.48C117.95 132.56 118.72 132.58 122.22 132.58L126.42 132.58L126.42 130.58C119.99 130.58 118.24 130.56 118.11 130.52C117.99 130.49 117.81 130.37 117.71 130.27L117.52 130.07C117.49 126.85 117.5 126.65 117.6 126.46C117.66 126.32 117.8 126.19 117.96 126.11C118.2 125.99 118.35 125.99 121.86 125.97L125.52 125.96C126.12 126.35 126.32 126.46 126.36 126.46C126.4 126.46 126.42 126 126.42 125.21L126.42 123.96C119.05 123.97 117.99 123.99 117.68 124.05Z" />
		<path class="shp2" d="M146.95 134.97C146.7 135.36 146.18 136.08 145.81 136.58C145.44 137.08 144.84 137.85 144.48 138.3C144.11 138.74 143.59 139.36 143.32 139.67C143.05 139.98 142.35 140.75 141.76 141.38C141.17 142.01 140.19 143.01 139.57 143.6C138.95 144.18 138.02 145.03 137.51 145.48C136.99 145.94 136.09 146.7 135.51 147.18C134.93 147.65 133.89 148.46 133.21 148.97L131.98 149.89C131.97 156.95 131.99 157.65 132.06 157.6C132.1 157.56 132.5 157.24 132.95 156.88C133.39 156.52 134.06 155.98 134.42 155.67C134.78 155.36 135.47 154.75 135.95 154.32C136.43 153.88 137.37 152.97 138.04 152.28C138.71 151.6 139.47 150.8 139.73 150.51C139.99 150.22 140.46 149.67 140.77 149.29C141.08 148.92 141.62 148.21 141.98 147.73C142.34 147.25 142.85 146.53 143.11 146.14C143.37 145.74 143.78 145.07 144.03 144.64C144.28 144.21 144.72 143.39 145 142.83C145.29 142.26 145.67 141.4 145.86 140.92C146.05 140.44 146.33 139.68 146.47 139.23C146.61 138.79 146.81 138.1 146.92 137.7C147.02 137.31 147.17 136.58 147.26 136.08C147.34 135.58 147.43 134.97 147.45 134.72C147.47 134.47 147.47 134.27 147.45 134.27C147.44 134.27 147.21 134.58 146.95 134.97ZM52.56 134.66C52.58 134.84 52.67 135.42 52.76 135.95C52.84 136.49 53.02 137.34 53.15 137.86C53.29 138.38 53.5 139.11 53.63 139.48C53.75 139.86 54.01 140.54 54.19 140.98C54.37 141.43 54.79 142.34 55.12 143.01C55.46 143.68 55.9 144.51 56.11 144.86C56.32 145.2 56.71 145.82 56.99 146.23C57.26 146.64 57.82 147.42 58.22 147.95C58.62 148.48 59.21 149.23 59.52 149.61C59.84 149.98 60.55 150.79 61.11 151.39C61.67 151.99 62.55 152.87 63.06 153.36C63.57 153.84 64.26 154.47 64.58 154.77C64.91 155.06 65.53 155.59 65.96 155.96C66.39 156.32 67.01 156.83 67.33 157.09C67.66 157.35 67.96 157.57 68 157.57C68.07 157.57 68.08 156.76 68.08 153.73L68.08 149.89C66.8 148.95 66.05 148.38 65.58 148.02C65.12 147.66 64.33 147.03 63.84 146.61C63.34 146.2 62.55 145.52 62.09 145.11C61.62 144.7 60.94 144.06 60.56 143.7C60.18 143.34 59.34 142.5 58.69 141.83C58.04 141.16 57.01 140.03 56.41 139.33C55.8 138.62 54.94 137.55 54.49 136.95C54.04 136.35 53.45 135.52 53.16 135.1C52.88 134.67 52.63 134.33 52.59 134.33C52.55 134.33 52.54 134.45 52.56 134.66Z" />
		<path class="shp3" d="M70.78 155.74L70.77 159.67C73.07 161.18 74.27 161.96 74.92 162.37C75.57 162.77 76.77 163.49 77.58 163.96C78.38 164.43 79.55 165.09 80.17 165.43C81.07 165.93 81.31 166.04 81.39 165.98C81.44 165.94 82.86 164.77 84.53 163.37C86.2 161.97 87.57 160.8 87.57 160.77C87.57 160.75 87.16 160.55 86.65 160.33C86.14 160.11 85 159.59 84.1 159.18C83.21 158.77 81.58 157.98 80.48 157.42C79.38 156.86 77.96 156.11 77.33 155.76C76.69 155.41 75.83 154.92 75.42 154.68C75.01 154.44 74.21 153.96 73.64 153.62C73.07 153.27 72.3 152.79 71.92 152.54C71.55 152.3 71.14 152.04 71.01 151.96L70.79 151.81L70.78 155.74ZM128.04 152.55C127.44 152.95 126.28 153.67 125.45 154.16C124.63 154.66 123.34 155.4 122.58 155.82C121.82 156.24 120.32 157.02 119.24 157.57C118.16 158.11 116.67 158.84 115.93 159.18C115.19 159.52 114.1 160.01 113.51 160.26C112.91 160.52 112.43 160.75 112.43 160.77C112.43 160.8 113.84 162 115.56 163.43C117.28 164.86 118.71 166.03 118.75 166.02C118.78 166.01 119.37 165.69 120.07 165.31C120.76 164.93 121.91 164.28 122.61 163.86C123.32 163.45 124.45 162.76 125.14 162.34C125.83 161.91 127.03 161.13 127.81 160.61L129.23 159.67C129.24 153.51 129.22 151.88 129.19 151.87C129.16 151.86 128.64 152.16 128.04 152.55Z" />
	</g>
</svg>