<?xml version="1.0" encoding="UTF-8" standalone="no"?>
<svg
   viewBox="0 0 340.61078 293.59019"
   version="1.1"
   id="svg7"
   sodipodi:docname="Toronto Blue Jays Primary Logo.svg"
   width="340.61078"
   height="293.59018"
   inkscape:version="1.3.2 (091e20e, 2023-11-25, custom)"
   xmlns:inkscape="http://www.inkscape.org/namespaces/inkscape"
   xmlns:sodipodi="http://sodipodi.sourceforge.net/DTD/sodipodi-0.dtd"
   xmlns="http://www.w3.org/2000/svg"
   xmlns:svg="http://www.w3.org/2000/svg">
  <defs
     id="defs7" />
  <sodipodi:namedview
     id="namedview7"
     pagecolor="#505050"
     bordercolor="#eeeeee"
     borderopacity="1"
     inkscape:showpageshadow="0"
     inkscape:pageopacity="0"
     inkscape:pagecheckerboard="0"
     inkscape:deskcolor="#d1d1d1"
     inkscape:zoom="3.9953652"
     inkscape:cx="170.32235"
     inkscape:cy="146.79509"
     inkscape:window-width="2560"
     inkscape:window-height="1369"
     inkscape:window-x="-8"
     inkscape:window-y="-8"
     inkscape:window-maximized="1"
     inkscape:current-layer="svg7" />
  <title
     id="title1">Toronto Blue Jays hat light logo</title>
  <path
     fill="#ffffff"
     d="m 274.47729,178.59026 h 2.06813 v 5.65631 h 1.3885 v -5.65631 h 2.07544 v -1.22187 h -5.53207 m 10.84053,4.48704 h -0.0351 l -1.59604,-4.48704 h -2.42622 v 6.87818 h 1.40311 v -5.46338 h 0.0263 l 1.93805,5.46338 h 1.34465 l 1.98044,-5.46338 h 0.0351 v 5.46338 h 1.39435 v -6.87818 h -2.40868"
     id="path1"
     style="stroke-width:1" />
  <path
     d="m 103.84532,105.67796 c 0,0 -1.98044,-4.97521 0.55978,-10.070271 0.99388,-2.008208 2.88808,-3.841028 5.41077,-5.342069 18.71259,-12.535958 58.34621,0.312778 58.34621,0.312778 -9.40818,-0.856485 -17.1487,-0.698634 -23.65273,0.190005 11.04954,3.423017 22.87663,8.100068 30.889,10.022047 9.84373,2.40868 16.39014,3.63202 26.19149,4.20934 l -0.31424,-3.84103 5.45753,0.92372 14.52371,2.4613 2.13975,-5.410763 2.36483,-5.988087 4.60982,4.466583 c 0.10231,0.08769 7.23481,7.053577 10.99691,10.684137 -0.65478,-6.84311 -2.34875,-24.2622 -2.36483,-24.45659 l -0.68109,-7.052116 6.55517,2.670304 7.14128,2.864694 10.7426,-17.546249 3.63202,-5.953009 3.67587,5.953009 8.65693,14.156848 c 3.01085,-12.288951 5.17691,-25.310153 11.50262,-31.333317 -6.33448,0.226544 -10.80399,2.025747 -17.71433,6.876726 3.9258,-10.611059 9.7195,-18.503582 17.57694,-27.49229 -7.62067,1.154647 -14.89787,3.352861 -22.03768,7.401433 2.72292,-6.493792 2.90854,-14.523704 2.90854,-14.523704 -33.45553,38.842907 -126.74077,38.338663 -150.89335,46.260418 -15.84789,5.203219 -23.974271,13.841147 -29.620349,22.362149 -0.540784,8.816241 5.858007,17.194004 13.396829,17.194004 z"
     fill="#134a8e"
     id="path2"
     style="stroke-width:1" />
  <path
     fill="#1d2d5c"
     d="m 238.78116,161.34364 -6.24094,7.50667 6.24094,-7.50521"
     id="path3"
     style="stroke-width:1" />
  <path
     d="m 222.73011,173.96437 6.52741,-7.83845 3.52678,-4.27511 -13.67745,-11.81686 c -7.43651,11.38131 -14.68009,23.68634 -18.13818,33.21875 l 15.04695,-0.0877 c -7.73175,9.5821 -22.63985,25.45046 -32.65897,42.95871 C 173.3273,201.52827 149.85727,169.84709 107.45688,152.46016 95.16062,147.41771 83.570304,140.72953 85.080114,131.00711 63.83461,127.96995 40.61013,125.52619 14.278333,124.65217 c -2.016978,-0.0336 -3.865875,-0.0512 -5.5335361,-0.0702 -1.5448883,-0.0512 -1.9380529,0.61094 -0.2630841,1.90297 7.2289672,5.25292 31.7089442,14.73272 61.7663032,20.31887 14.46378,2.6893 21.078884,6.63264 31.438554,13.89376 22.59015,15.81428 53.38269,58.12697 72.1552,113.27233 35.59382,-69.14289 76.93018,-100.17951 80.20265,-102.55457 l -21.17388,1.71004 -10.14336,0.84041 z M 7.7962325,122.81936 c 15.0732585,-0.61094 36.2369135,-1.36219 73.2002315,-0.12131 3.124855,0.0322 6.197092,0.11984 9.193328,0.17246 1.866436,-2.47884 5.251451,-4.67705 11.702858,-4.67705 h 1.92052 c 11.99955,0.17539 14.227,12.4965 26.98512,12.4965 12.70988,0 14.95194,-12.2188 26.86673,-12.48188 0.32155,0 0.68694,-0.0146 0.99387,-0.0146 h 44.02275 l -0.59925,-7.3152 h -44.07682 c -12.2188,0 -14.38193,-12.481879 -27.2219,-12.481879 -12.6485,0 -14.92564,12.360569 -26.68111,12.448259 -12.734736,-0.76881 -17.778643,-11.414943 -18.773978,-20.476729 -5.568613,2.375065 -8.433307,5.149141 -12.613421,11.765709 -45.507705,7.52566 -61.080823,14.80432 -65.1630121,19.34399 -0.6021703,0.80387 -0.3478556,1.1868 0.2455452,1.34465 z M 125.91077,104.07315 c -0.89156,3.61302 -0.39463,6.68526 -0.18416,8.29007 h -4.27365 c -0.0965,-3.21255 1.80651,-6.52887 4.45781,-8.29007 z"
     fill="#1d2d5c"
     id="path4"
     style="stroke-width:1" />
  <path
     d="m 125.91077,104.07315 c -2.65277,1.76267 -4.55574,5.07752 -4.45781,8.29007 h 4.27365 c -0.20754,-1.60481 -0.70448,-4.67705 0.18562,-8.29007 z"
     fill="#ffffff"
     id="path5"
     style="stroke-width:1" />
  <path
     d="m 340.60641,126.83577 -7.04189,-2.42622 -3.84834,-1.33003 1.35927,-16.42522 0.44578,-5.49846 -5.44584,0.92372 -14.55001,2.4613 -2.12221,-5.410767 -2.36484,-5.988086 -4.62589,4.468045 c -0.0877,0.0877 -7.21728,7.053578 -10.99692,10.684138 0.68987,-6.84311 2.36484,-24.262201 2.37361,-24.456591 l 0.68986,-7.050655 -6.54787,2.670304 -2.95824,1.186802 c 0.29671,-1.395808 0.58464,-2.791615 0.85649,-4.153806 1.73635,-8.65839 6.08309,-23.809112 14.30593,-35.384813 0,0 -5.24707,-1.256958 -13.30036,1.081568 -2.28007,0.66648 -0.17539,0.03654 -0.25286,0.05554 2.66884,-6.372482 14.58217,-22.708544 14.58217,-22.708544 0,0 -16.87246,-0.2967 -23.22448,3.542866 C 281.88749,10.070275 278.59748,0 278.59748,0 L 265.48712,15.1858 C 242.89989,41.421132 187.82761,48.650099 151.39047,53.449922 136.65776,55.405514 125.00605,56.940171 117.83263,59.299159 100.472,64.970083 91.386825,74.693964 85.984831,82.286864 l -3.456633,1.465963 C 75.904325,86.564904 72.14076,90.176464 68.441505,95.536072 30.937404,101.92317 9.2724267,108.83644 2.2130031,116.62226 l -0.4720899,0.57587 c -1.58435094,2.16313 -2.10613443,4.71212 -1.48788676,7.03603 -0.2236215,2.02575 0.18562045,5.06145 3.76356436,7.8896 l 0.2513915,0.19001 c 8.5619267,6.19709 34.1351637,15.88736 64.6748447,21.57874 13.702297,2.53146 19.58515,4.57182 28.322466,12.48188 43.438107,39.34569 64.777157,98.43292 74.457187,127.21579 l 10.86684,-19.98563 c 36.29976,-63.71312 71.85704,-93.161 72.27505,-93.56148 l 7.52713,-6.84311 0.19877,0.38294 3.80011,7.31374 3.81472,-7.32982 1.42065,-2.74192 28.29616,2.30345 10.15797,0.83894 -6.52741,-7.83844 -3.53702,-4.27512 34.94634,-30.1319 5.649,-4.88898 z M 120.06884,66.121807 c 24.15258,-7.921755 117.43782,-7.417511 150.88312,-46.258957 0,0 -0.18416,8.029912 -2.90854,14.523705 7.14127,-4.048572 14.41993,-6.249709 22.0406,-7.399971 -7.85744,8.988707 -13.65114,16.88123 -17.57986,27.492289 6.91327,-4.85244 11.38131,-6.650181 17.71725,-6.878188 -6.32863,6.021703 -8.49177,19.044367 -11.50262,31.333318 l -8.65839,-14.156848 -3.67441,-5.953009 -3.63202,5.953009 -10.7426,17.544787 -7.14127,-2.864694 -6.55664,-2.668842 0.68109,7.052116 c 0.0146,0.192928 1.71005,17.612018 2.36484,24.456588 -3.76211,-3.63056 -10.89315,-10.59644 -10.99692,-10.684135 l -4.60982,-4.468045 -2.36483,5.986625 -2.13829,5.410765 -14.52517,-2.4613 -5.45607,-0.92372 0.31278,3.83957 c -9.80281,-0.57732 -16.34776,-1.79774 -26.19149,-4.20935 -8.01383,-1.920511 -19.83946,-6.597562 -30.889,-10.019117 6.50403,-0.891562 14.24455,-1.047951 23.65419,-0.190005 0,0 -39.63362,-12.850197 -58.34621,-0.315701 -2.52415,1.49958 -4.41835,3.332399 -5.41222,5.339146 -2.53877,5.097987 -0.55833,10.070277 -0.55833,10.070277 -7.541743,0 -13.939072,-8.374846 -13.396826,-17.192548 5.650462,-8.521002 13.775376,-17.158931 29.626196,-22.36215 z M 7.5521489,121.47617 C 11.634338,116.9365 27.205994,109.65784 72.713699,102.1351 c 4.180114,-6.616567 7.044808,-9.392104 12.613422,-11.765708 0.993873,9.058863 6.036319,19.706458 18.772509,20.476718 11.75694,-0.0877 14.03408,-12.448267 26.68112,-12.448267 12.83558,0 15.00018,12.481877 27.22043,12.481877 h 44.07536 l 0.60217,7.31228 h -44.02274 c -0.30693,0 -0.67232,0.0175 -0.99387,0.0175 -11.91479,0.26308 -14.15831,12.48188 -26.86674,12.48188 -12.75958,0 -14.9841,-12.32403 -26.98512,-12.49942 h -1.91905 c -6.451408,0 -9.836424,2.19821 -11.704321,4.67705 -2.993313,-0.0497 -6.06555,-0.13739 -9.193328,-0.17247 -36.963318,-1.24234 -58.126973,-0.48963 -73.19877,0.12131 -0.5919393,-0.15346 -0.8477155,-0.53786 -0.2440836,-1.34026 z M 173.84469,273.96849 C 155.07218,218.82606 124.27965,176.51336 101.69095,160.69616 91.331285,153.4365 84.714719,149.4917 70.252401,146.80386 40.19358,141.21771 15.712142,131.73937 8.484636,126.48792 c -1.6749689,-1.2935 -1.2818043,-1.95852 0.2630841,-1.90444 1.6661999,0.0146 3.5180199,0.0336 5.5335359,0.0687 26.333258,0.87402 49.557739,3.31778 70.801781,6.35494 -1.508349,9.72242 10.081968,16.40914 22.379693,21.45305 42.40039,17.38693 65.86895,49.06811 75.89976,73.66355 10.01766,-17.50971 24.9243,-33.37515 32.65751,-42.95871 l -15.04695,0.0877 c 3.45663,-9.52949 10.70168,-21.83598 18.13819,-33.21729 l 13.67599,11.81686 -3.52679,4.27512 -6.52741,7.83844 10.14335,-0.83895 21.17389,-1.71004 c -3.27393,2.37506 -44.6103,33.41168 -80.20411,102.55165 z m 120.1856,-112.62339 6.22194,7.50667 -31.11701,-2.53146 -1.31542,2.549 -1.41335,2.72292 -0.0175,0.019 -0.70595,-1.41335 -0.35808,-0.68109 -1.6662,-3.19355 -16.64446,1.36219 -0.0175,-0.0175 -12.26264,1.01141 -2.19237,0.17539 6.24387,-7.5052 -38.15451,-32.89136 6.99073,-2.40869 -1.60774,-19.743 17.94819,3.08832 3.42886,-8.69201 c 0,0 11.57278,11.27608 13.10744,12.74497 0.99387,0.94125 2.10467,1.48204 3.06346,1.48204 1.49081,0 2.61038,-1.3622 2.30345,-4.64344 -0.0248,-0.2967 -0.0789,-0.78487 -0.13154,-1.39581 -0.58463,-5.953 -2.45984,-25.416844 -2.47007,-25.468 l 10.50875,4.223962 12.61342,-20.615563 h 0.0175 l 12.61927,20.615563 4.82613,-1.938053 5.68262,-2.284447 c -0.009,0.05115 -1.89275,19.514998 -2.47007,25.468008 -0.0512,0.61094 -0.10231,1.0991 -0.13154,1.3958 -0.30401,3.28125 0.80387,4.64344 2.31514,4.64344 0.94272,0 2.05059,-0.55979 3.0547,-1.4835 1.53465,-1.46889 13.11766,-12.74497 13.11766,-12.74497 l 3.41279,8.69201 17.97157,-3.08832 -1.63259,19.743 6.99804,2.40722 -38.14135,32.88552 z"
     fill="#ffffff"
     id="path6"
     style="stroke-width:1" />
  <path
     d="m 326.8018,106.30644 -17.97011,3.08832 -3.41425,-8.69201 c 0,0 -11.58301,11.27608 -13.11766,12.74497 -1.00557,0.92079 -2.11491,1.48204 -3.0547,1.48204 -1.51127,0 -2.62061,-1.3622 -2.31514,-4.64344 0.0263,-0.2967 0.0789,-0.78487 0.13154,-1.39581 0.57586,-5.953 2.45984,-25.416844 2.47007,-25.468 l -5.68554,2.285909 -4.82321,1.939514 -12.62073,-20.615563 h -0.0146 L 253.77405,87.647933 243.2653,83.423972 c 0.009,0.05115 1.88544,19.514998 2.47007,25.468008 0.0512,0.61094 0.10523,1.0991 0.13154,1.3958 0.30401,3.28125 -0.81263,4.64344 -2.30491,4.64344 -0.96025,0 -2.06813,-0.54079 -3.06346,-1.4835 -1.53466,-1.46889 -13.11036,-12.74497 -13.11036,-12.74497 l -3.4274,8.69201 -17.94819,-3.08832 1.60774,19.743 -6.99073,2.40722 38.1472,32.88552 -6.24094,7.50666 2.19236,-0.17538 12.26265,-1.01142 16.66199,-1.34465 1.6662,3.19355 0.35809,0.67963 0.7264,1.39581 1.41335,-2.72292 1.31542,-2.54899 31.11408,2.53145 -6.22194,-7.5052 38.14281,-32.88844 -7.00096,-2.40722 1.63405,-19.74008 z"
     fill="#e8291c"
     id="path7"
     style="stroke-width:1" />
</svg>
