<?xml version="1.0" encoding="UTF-8" standalone="no"?>
<svg xmlns:rdf="http://www.w3.org/1999/02/22-rdf-syntax-ns#" xmlns="http://www.w3.org/2000/svg" height="196.39619" width="297.73751" version="1.1" xmlns:cc="http://creativecommons.org/ns#" xmlns:dc="http://purl.org/dc/elements/1.1/" viewBox="0 0 297.73751 196.39619"><path d="M271.53118,143.529a25.51928,25.51928,0,0,0,10.98243-20.98023A25.752,25.752,0,1,0,241.91648,143.529h-11.2854L171.2502,0H112.32377C58.32048,0,0,46.12621,0,120.50379v75.8924H121.33694V145.42254a12.98962,12.98962,0,0,1,25.97912,0v50.97365H297.73751V143.529Z" fill="#fff"/><path d="M134.28864,117.09547a28.38106,28.38106,0,0,0-28.32711,28.32711v35.59823H15.3754v-60.517c0-64.91,50.292-105.12837,96.94837-105.12837h31.65969L212.529,181.02081H162.61572V145.42258A28.33236,28.33236,0,0,0,134.28864,117.09547Zm95.585,74.98351L152.16348,4.31725H112.32377C60.3655,4.31725,4.31721,48.77717,4.31721,120.50381V192.079h112.7025v-46.6564a17.30683,17.30683,0,0,1,34.61358,0V192.079Z" fill="#0072ce"/><circle cx="256.76169" cy="122.54879" r="21.43469" transform="translate(78.49947 344.28592) rotate(-76.71748)" fill="#0072ce"/><path d="M227.75292,147.84625,168.37205,4.31725H156.85944L234.56962,192.079H293.496V147.84625ZM112.32378,19.38966c-46.42919,0-92.93411,40.36992-92.93411,101.11413v56.50272h82.5576v-31.584a32.37926,32.37926,0,0,1,64.75847,0v31.584H202.304L137.09105,19.38966Z" fill="#c8102e"/></svg>