<?xml version="1.0" encoding="UTF-8" standalone="no"?>
<svg xmlns:rdf="http://www.w3.org/1999/02/22-rdf-syntax-ns#" xmlns="http://www.w3.org/2000/svg" height="193.87589" width="251.12663" version="1.1" xmlns:cc="http://creativecommons.org/ns#" xmlns:dc="http://purl.org/dc/elements/1.1/" viewBox="0 0 251.12663 193.87589"><polygon points="175.815 8.122 175.815 51.408 185.35 51.408 172.94 116.437 147.564 8.122 102.513 8.122 77.137 116.437 64.777 51.408 74.261 51.408 74.261 8.122 8.122 8.122 8.122 51.408 20.23 51.408 50.146 185.855 96.509 185.855 125.063 77.793 153.567 185.855 199.98 185.855 229.846 51.408 242.004 51.408 242.004 8.122 175.815 8.122" fill="#fff"/><path d="M242.00432,51.40764H229.84609L199.98024,185.85449H153.56707L125.06332,77.94387,96.50914,185.85449H50.14642L20.2301,51.40764H8.12232V8.12231H74.26109V51.40764H64.77666l12.36,65.02889L102.66393,8.12231h44.8997l25.52724,108.31422,12.36-65.02889h-9.48443V8.12231h66.13877V51.40764ZM82.13115,59.429,77.89343,77.54027,74.41243,59.429Zm93.43172,0-3.481,18.11123L167.84416,59.429ZM167.69282,0V58.92455L153.92021,0H96.2569L82.38339,58.92455V0H0V59.429H13.72216L43.63848,193.87589h59.12635l22.29849-84.40134,22.24806,84.40134h59.1768L236.354,59.429h13.77261V0Z" fill="#002f87"/></svg>