<?xml version="1.0" encoding="UTF-8" standalone="no"?>
<svg xmlns:rdf="http://www.w3.org/1999/02/22-rdf-syntax-ns#" xmlns="http://www.w3.org/2000/svg" height="184.75923" width="240.08217" version="1.1" xmlns:cc="http://creativecommons.org/ns#" xmlns:dc="http://purl.org/dc/elements/1.1/" viewBox="0 0 240.08217 184.75923"><path d="M72.27709,105.88361H68.97782l5.44763-11.96943c4.91054,0,6.21491.23017,3.45273,6.29161C76.03672,104.1956,74.19527,105.88361,72.27709,105.88361Zm7.28909-4.91054c3.45272-7.596,1.53454-8.97707-6.36837-8.97707l-7.21236,15.72907h6.21491C74.50218,107.72507,77.03418,106.49744,79.56618,100.97307Z" fill="#fff"/><path d="M211,79.25924l-6.90544,5.52437c-5.67782-6.752-6.90545-12.27637-18.41454-15.4989,0-1.15094-.07674-2.37856-.07674-3.83636a21.01349,21.01349,0,0,1,3.14582-.23017c4.29673,0,11.50909,3.60615,16.18944,3.60615a35.01275,35.01275,0,0,0,4.14328-.3069c.46037,5.67782-4.06653,13.73417-4.06653,13.73417ZM2.91563,131.81743l10.972-24.09236c7.82618,0,13.27381-.76728,14.6549-3.91309L48.72181,59.46363H35.83163L46.80363,35.448H77.57127c4.5269-3.22253,13.73418-9.59091,21.1-13.96434A22.54481,22.54481,0,0,1,95.52544,9.82108c0-7.36583,10.58837-7.82617,17.724-7.82617,10.43492,0,21.944,3.1458,21.944,3.1458a161.51891,161.51891,0,0,1,30.07709-2.99236c27.23818,0,40.35854,12.50651,43.65781,16.1127,17.03347,5.064,28.31236,15.4989,28.31236,19.71892,0,14.57818-16.57309,24.55271-16.57309,24.55271-.53709,10.51167-11.73927,15.72911-11.73927,15.72911s3.22253-6.90545,1.76472-11.89275a34.089,34.089,0,0,1-5.75455.53711c-4.45017,0-11.2789-3.60616-16.18944-3.60616s-4.98726.99742-4.98726.99742c0,2.532,0,4.68037.15345,6.52182,11.35564,2.22512,13.73417,9.66764,19.87235,16.49636,1.30437-.99742,7.28909-4.83378,11.50909-9.82108,0,0,1.38109,4.60364-4.22,15.95928l3.83636,2.22508s-4.45018,9.66763-17.87745,9.66763c-5.67782,0-11.43236-2.68546-16.41965-5.37088l-16.57308,36.292H139.49017s9.97455-28.38906-1.30437-28.38906c-6.82872,0-15.192,8.28652-20.94654,21.02327-6.82872,14.9618-8.44,27.08472.99746,27.08472,9.36072,0,14.88509-8.67018,16.95673-13.27383h25.93381s-13.504,40.2051-47.49418,40.2051c-33.83672,0-43.73454-30.07708-37.67308-51.10035Zm110.71745,52.9418c25.39673,0,42.89055-22.09745,50.10292-43.96473H133.96581s-5.064,13.27383-15.72909,13.27383c-5.60109,0-7.51927-6.52183.69054-24.55274,5.60109-12.12289,13.42727-19.87234,19.25854-19.87234,8.74692,0-1.30436,28.38907-1.30436,28.38907h28.3891L181.46,102.43087c4.68037,2.45529,10.05127,4.75709,15.57564,4.75709,15.88254,0,20.33274-12.42982,20.33274-12.42982L213.532,92.60979c3.60617-8.44,4.68035-13.27382,2.91561-17.57053a19.59389,19.59389,0,0,0,5.98474-11.43237s16.64982-10.51164,16.64982-25.78036c0-4.91055-10.35819-15.42218-29.15636-21.33021-4.06654-4.37344-17.724-16.4196-44.732-16.34287A167.92878,167.92878,0,0,0,135.27017,3.069,91.897,91.897,0,0,0,113.01926,0c-14.80835,0-19.412,3.4527-19.412,9.43742A25.08862,25.08862,0,0,0,96.216,20.63961c-6.82872,4.14326-14.88509,9.66764-19.18181,12.73672H45.65273L32.916,61.22833H45.80618L26.85454,103.0447c-.53709,1.1509-2.22509,2.76219-14.19454,2.76219L0,133.65888H73.58145C68.13382,161.35743,83.8629,184.75923,113.63308,184.75923Z" fill="#fff"/><path d="M89.464,63.53017c1.688-3.83637.99744-3.98981-.844-3.98981h-.61383L84.4,67.36653C85.78108,67.36653,87.776,67.21308,89.464,63.53017Z" fill="#fff"/><path d="M92.68653,64.988c-2.30182,5.14072-5.21745,6.13817-10.89527,6.13817H78.87562l6.82872-15.11528H88.62C92.30289,56.01089,96.13926,57.46873,92.68653,64.988ZM88.62,52.02108H83.17235L72.73745,75.03926h8.97709c10.05126,0,12.66-4.29671,14.57817-8.44C101.20325,55.85744,94.45127,52.02108,88.62,52.02108Zm-5.83128,50.40979c-3.376,7.36583-7.21236,8.82367-10.58835,8.82367H60.46108L70.81926,88.3898H73.428C82.63526,88.46653,87.92944,91.30544,82.78871,102.43087Zm-9.284-17.87743H68.364L54.3229,115.24435H72.20036c4.91054,0,10.128-2.45529,14.11781-11.2022C93.22362,89.15709,84.47671,84.55344,73.50472,84.55344Zm110.71744-9.97453c.69054,4.68033,1.76472,7.0589,2.91562,8.67014.69056-.15345,4.83383-.844,4.83383-.844s.844,4.22.99746,4.83381c1.53454,0,5.29418-.07672,5.29418-.07672s1.22762,2.68546,1.30437,2.91563c.38362-.23017.76726-.46038,1.22762-.76728C196.49851,84.78361,193.6596,76.65054,184.22216,74.57891Zm45.65272-40.97237c-1.22764.53707-4.68036,2.3018-4.68036,6.13817,0,3.376,2.91563,7.90293,1.53454,13.35054,4.45017-5.064,6.90546-10.972,6.90546-15.11528A22.30368,22.30368,0,0,0,229.87488,33.60654Z" fill="#f15623"/><path d="M199.64436,28.23562a1.44139,1.44139,0,0,1-1.688-1.30439l-.30691-2.99236c-9.74436-2.68542-14.80835-.76724-14.80835-.76724l-1.22764-2.14839c12.9669-3.91309,18.72145.23021,18.72145.23021l.69053,5.37088A1.5218,1.5218,0,0,1,199.64436,28.23562ZM159.20909,128.74834h-9.74437s7.44255-28.3891-11.27892-28.3891c-11.20217,0-21.4069,11.43237-27.69853,25.32-11.20219,24.55274-6.13818,37.74984,7.74946,37.74984,13.96436,0,21.48363-13.27382,21.48363-13.27382h9.74436S137.11163,175.3985,113.94,175.3985c-29.07963,0-38.05672-26.77782-28.23564-48.41489.38364-.92073.844-1.76473,1.22763-2.68546H14.57819l4.06654-9.0538s12.89018,0,16.72654-8.28656L56.62472,60.23087c3.75964-8.20979-1.07418-8.20979-1.07418-8.20979H47.49418l4.14328-9.05384h52.71163c11.12545,0,17.34036,13.96438,12.27636,25.08981a25.6276,25.6276,0,0,1-12.58327,12.58326,14.69878,14.69878,0,0,1,8.67017,11.66258c5.83128-2.91563,12.73674-4.45019,21.25347-4.45019,14.57817,0,20.71636,8.13311,25.85708,8.13311,4.45019,0,6.67528-4.68037,6.67528-4.68037h9.66764ZM132.73817,73.12108s4.7571,10.58836,10.05128,14.57817c0,0-6.59854,1.91818-12.35309-13.58072ZM227.18944,31.3047a57.95152,57.95152,0,0,0-20.33272-9.89781s-11.816-15.72911-41.66291-15.72911a136.30509,136.30509,0,0,0-22.2509,1.688c2.83891.92073,5.75454,1.99491,8.82363,3.14581l-1.22764,3.29929C113.24944-.46038,99.20836,7.9029,99.20836,7.9029,96.90655,23.632,119.38763,36.9058,119.38763,36.9058l-1.76473,3.06908c-.69054-.38362-10.74182-6.36838-17.03345-15.42218C92.84,29.15635,82.55854,36.292,78.72217,38.97743H49.10546L41.43274,56.01089H50.64c1.99491,0,2.99236,1.53452,2.14836,3.29925L31.84183,105.3465c-2.60872,5.75455-12.12292,5.98476-15.65237,5.98476L8.44,128.288H80.94727c-8.59346,22.2509,1.07418,51.10035,32.83927,51.10035,21.86727,0,36.292-19.56544,41.96981-33.06943H137.41854s-6.36836,13.27382-19.18181,13.27382c-11.89273,0-12.96692-12.8902-4.22-32.22547,6.29164-13.65744,15.42218-23.01818,24.16908-23.01818,15.34546,0,6.29165,28.38911,6.29165,28.38911h17.34036l17.18692-37.74984c5.44763,3.06912,12.04618,6.82876,18.10762,6.82876,8.97709,0,12.58328-4.98731,12.58328-4.98731l-3.29927-1.84145,3.98981-8.28652c-7.596,6.44506-12.42982,8.28652-12.42982,8.28652l-1.91818-4.22-5.908.15345-.92073-4.37343-3.45273.69051c-2.76218-3.1458-5.60109-6.67527-5.60109-22.86473,0-3.60615.76728-5.29416,3.45272-5.29416a49.09923,49.09923,0,0,1,7.13564,1.4578,16.15854,16.15854,0,0,1-2.60874-9.3607c0-10.05129,5.75455-13.1971,9.8211-14.11783V33.6065a1.78469,1.78469,0,0,1,1.76473-1.76469,1.83858,1.83858,0,0,1,1.76472,1.76469v6.52183s-9.82108-.69056-9.82108,11.04874c0,5.064,2.532,12.19961,13.19708,12.19961a27.02863,27.02863,0,0,0,8.44-1.30435c1.61127,3.91309.46037,8.82363.46037,8.82363a39.17212,39.17212,0,0,0,5.3709-11.43237,32.23122,32.23122,0,0,0,4.37346-3.22253,13.34549,13.34549,0,0,0,.76728-4.68037c0-5.064-2.532-9.20725-2.532-11.66253C221.81854,37.05924,225.27126,35.29451,227.18944,31.3047Z" fill="#f15623"/><path d="M142.86616,87.69929C137.572,83.70948,132.8149,73.12108,132.8149,73.12108l-2.30182.99749C136.26762,89.61747,142.86616,87.69929,142.86616,87.69929Zm-63.3,13.27382c-2.532,5.52433-5.064,6.752-7.28909,6.752H66.06217L73.27453,91.996C81.10072,91.996,83.0189,93.37711,79.56617,100.97311ZM73.50472,88.46653H70.896L60.46108,111.33126h11.816c3.29927,0,7.21236-1.4578,10.58836-8.82363C87.92944,91.30544,82.63526,88.46653,73.50472,88.46653ZM84.4,67.36653l3.60618-7.82617H88.62c1.91818,0,2.60873.15344.844,3.98981C87.776,67.21308,85.78108,67.36653,84.4,67.36653ZM92.68653,64.988c3.45273-7.51927-.38364-8.97707-4.06654-8.97707H85.70435L78.87563,71.12617h2.91563C87.46908,71.04945,90.38471,70.12872,92.68653,64.988Z"/><path d="M8.44,128.288l7.74946-17.03346c3.52945,0,13.04363-.23018,15.65236-5.908L52.78836,59.31014c.844-1.91818-.15345-3.376-2.14837-3.376H41.43273l7.67272-16.95673H78.72217C82.55854,36.292,92.84,29.07962,100.58945,24.476c6.29163,9.0538,16.41963,15.03852,17.03345,15.42218l1.76473-3.06909S96.90654,23.632,99.20836,7.9029c0,0,13.96436-8.44,51.33054,5.83127l1.22763-3.2993c-2.99236-1.1509-5.98472-2.22507-8.82363-3.1458a136.304,136.304,0,0,1,22.2509-1.688c29.8469,0,41.6629,15.72911,41.6629,15.72911,9.59091,2.68542,16.18946,6.59851,20.33274,9.97453-1.91818,3.98981-5.3709,5.67782-5.3709,8.44,0,2.45529,2.532,6.52182,2.532,11.58581a13.84474,13.84474,0,0,1-.76728,4.75709,30.17292,30.17292,0,0,1-4.37345,3.14581,37.89321,37.89321,0,0,1-5.44763,11.50909s1.1509-4.91054-.46037-8.82363a29.36485,29.36485,0,0,1-8.36328,1.22763c-10.66508,0-13.19708-7.0589-13.19708-12.19965,0-11.66254,9.74436-10.972,9.74436-10.972V33.45305a1.73631,1.73631,0,0,0-1.76473-1.76473,1.78473,1.78473,0,0,0-1.76472,1.76473v3.376c-3.98983.99746-9.74437,4.14326-9.74437,14.11779a15.8623,15.8623,0,0,0,2.60873,9.43746,49.8557,49.8557,0,0,0-7.21236-1.4578c-2.68544,0-3.376,1.61125-3.376,5.29416,0,16.11274,2.83891,19.64221,5.52436,22.788l3.52944-.61379.844,4.29671,5.908-.07673,1.99491,4.22s4.83381-1.84146,12.42981-8.36325l-3.98981,8.28652,3.29928,1.84146s-3.68292,5.064-12.58327,5.064c-6.1382,0-12.66-3.83633-18.18436-6.90545L161.89453,132.508H144.47744s9.05382-28.3891-6.2149-28.3891c-8.74692,0-17.95418,9.43746-24.16909,23.0949-8.74692,19.25854-7.74945,32.14875,4.22,32.14875,12.81345,0,19.18182-13.27383,19.18182-13.27383h18.33781c-5.75455,13.58072-20.10255,33.06944-41.96982,33.06944-31.76509,0-41.43272-28.84945-32.916-51.02363H8.44ZM233.63454,37.98c0,4.14326-2.45529,10.0513-6.90546,15.11528,1.38109-5.44764-1.53455-9.97456-1.53455-13.35054,0-3.91309,3.45273-5.6011,4.68035-6.13821A22.3028,22.3028,0,0,1,233.63454,37.98Zm-32.8393,51.33052c-.46034.30694-.844.53711-1.22762.76728-.07673-.23017-1.30435-2.91563-1.30435-2.91563s-3.75964.07672-5.2942.07672c-.15345-.61379-.99746-4.83381-.99746-4.83381s-4.14326.76728-4.83381.844c-1.1509-1.61128-2.22508-3.91308-2.91564-8.67018C193.65962,76.6505,196.49853,84.78361,200.79524,89.31049Zm-87.16216,93.53056c33.99018,0,47.49418-40.12837,47.49418-40.12837H135.19345c-2.07164,4.60365-7.67273,13.27383-16.95673,13.27383-9.43745,0-7.74945-12.19965-.99746-27.16144,5.83127-12.73676,14.19455-21.02328,20.94654-21.02328,11.27892,0,1.30437,28.38907,1.30437,28.38907h24.55272l16.49636-36.292c4.98728,2.76215,10.81855,5.44761,16.49637,5.44761,13.35053,0,17.87745-9.74435,17.87745-9.74435L211,93.45379c5.6011-11.35564,4.22-15.95928,4.22-15.95928-4.14328,4.9873-10.128,8.82366-11.43237,9.74435-6.13818-6.82872-8.51671-14.19451-19.9491-16.41963-.0767-1.91818-.15344-4.06653-.15344-6.52182,0,0,.15344-.99742,5.064-.99742,4.83382,0,11.73927,3.52943,16.18944,3.52943a34.71879,34.71879,0,0,0,5.67784-.53711c1.53452,5.064-1.688,11.89275-1.688,11.89275s11.12545-5.21743,11.73927-15.65238c0,0,16.49637-10.05126,16.49637-24.62943,0-4.22-11.27892-14.6549-28.31236-19.6422C205.62908,14.57813,192.432,2.07163,165.1938,2.07163a162.31569,162.31569,0,0,0-30.07708,3.06908s-11.50909-3.22253-21.944-3.22253c-7.05891,0-17.724.46035-17.724,7.9029a22.88457,22.88457,0,0,0,3.14582,11.66254c-7.28909,4.29671-16.57309,10.74181-21.02327,13.88762H46.80363L35.75491,59.46363h12.9669L28.46581,103.812c-1.38108,3.06909-6.752,3.83637-14.6549,3.83637L2.83891,131.7407H75.96C69.89854,152.8407,79.79636,182.84105,113.63308,182.84105Z"/><path d="M86.3949,104.11888c-3.98982,8.67022-9.284,11.12547-14.11782,11.12547H54.39962L68.364,84.55344h5.14074C84.47672,84.55344,93.22363,89.15709,86.3949,104.11888Zm-3.22255-52.0978H88.62c5.83128,0,12.58327,3.83636,7.67272,14.57821-1.84144,4.14326-4.45017,8.44-14.50145,8.44H72.73744Zm2.532,74.96253c-9.89781,21.63711-.844,48.41493,28.23564,48.41493,23.17164,0,35.52472-25.24326,35.52472-25.24326h-9.74436s-7.51927,13.27378-21.48364,13.27378c-13.88763,0-18.95163-13.1971-7.74944-37.7498,6.29163-13.88765,16.49635-25.32,27.69853-25.32,18.72146,0,11.27891,28.38906,11.27891,28.38906h9.74437l17.03344-37.36618h-9.74436s-2.07163,4.68037-6.59855,4.68037c-5.14072,0-11.27889-8.13307-25.93381-8.13307-8.51672,0-15.42218,1.61128-21.17672,4.45016a14.69482,14.69482,0,0,0-8.74691-11.66254,26.04551,26.04551,0,0,0,12.58327-12.58327c5.064-11.20219-1.07418-25.16653-12.19963-25.16653H51.63744l-4.06654,9.0538h8.05637s4.83381,0,1.07418,8.28656L35.37127,107.03455c-3.75963,8.2098-16.72654,8.2098-16.72654,8.2098l-4.06656,9.05384H86.932C86.54836,125.21888,86.088,126.06292,85.70435,126.98361ZM197.64944,23.93891l.30691,2.99236a1.44132,1.44132,0,0,0,1.688,1.30435,1.52178,1.52178,0,0,0,1.38109-1.61125l-.69053-5.44765s-5.75455-4.14326-18.72145-.23017l1.22762,2.22508S187.90508,21.25345,197.64944,23.93891Z"/></svg>