<?xml version="1.0" encoding="UTF-8" standalone="no"?><svg xmlns:rdf="http://www.w3.org/1999/02/22-rdf-syntax-ns#" xmlns="http://www.w3.org/2000/svg" height="228.81233" width="287.71072" version="1.1" xmlns:cc="http://creativecommons.org/ns#" xmlns:dc="http://purl.org/dc/elements/1.1/" viewBox="0 0 287.71072 228.81233"><defs><style>.cls-1{fill:#fff;}.cls-2{fill:#b79257;}.cls-3{fill:#da1a32;}</style></defs><title>Ottawa Senators 2020-2021 logo</title><path class="cls-1" d="M260.89061,60.32176A90.95905,90.95905,0,0,0,196.896,33.50762a154.42838,154.42838,0,0,1,8.08717-25.364l.06538-.16789A5.76161,5.76161,0,0,0,199.86012.049l-.16938-.003C198.615.01634,197.51256,0,196.40862,0A135.45328,135.45328,0,0,0,150.0147,8.32491c-20.33755,7.65183-36.60551,19.99284-48.35368,36.68425A98.89421,98.89421,0,0,0,86.71244,77.349c-.49922,1.98056-.95387,3.9849-1.361,5.98329q-1.00292.01783-2.01325.01932a187.82748,187.82748,0,0,1-28.76053-2.64026c-9.8107-1.56009-26.15146-7.02483-29.66091-8.35314-2.453-.92713-5.00861-1.96422-7.61172-3.09342l-2.96565-1.309L0,61.58914l8.61761,16.7865a156.74888,156.74888,0,0,0,8.66366,16.45072,87.39406,87.39406,0,0,0,20.50248,22.67471l7.84053,14.51918a105.15086,105.15086,0,0,0,14.28443,20.90958,77.04677,77.04677,0,0,0,7.952,7.481,61.4008,61.4008,0,0,0,9.57149,6.429l4.083,8.85682a67.6264,67.6264,0,0,0,11.10929,14.84309,58.68356,58.68356,0,0,0,15.33191,10.33073l.48437.20354a57.67825,57.67825,0,0,0,23.64493,4.64461c2.34459,0,4.80951-.12778,7.32645-.37592l.31944-.03269c1.89884,2.41442,2.88838,4.21818,3.02508,5.50635.101.92712-.2511,1.78591-.936,3.33412a13.0519,13.0519,0,0,1-2.33418,2.67147l-.0416.0416c-.63147.624-1.3491,1.33126-2.04891,2.11576l-.20355.22883a5.74169,5.74169,0,0,0-.88851,6.36069,5.80184,5.80184,0,0,0,5.18394,3.24349c.11886,0,.23922-.003.364-.00891l.30311-.02081A30.56156,30.56156,0,0,0,162.595,218.02545a36.05618,36.05618,0,0,0,4.08-6.21955A91.58924,91.58924,0,0,0,260.89061,60.32176"/><path d="M258.62032,62.595a87.77012,87.77012,0,0,0-62.47319-25.87659c-1.03708,0-2.10538.02377-3.18109.06091A154.20532,154.20532,0,0,1,202.0071,6.93717l.06539-.16641a2.54979,2.54979,0,0,0-2.29557-3.508l-.17532-.003c-1.049-.02972-2.12171-.04606-3.193-.04606a132.17748,132.17748,0,0,0-45.26175,8.11987c-19.7254,7.42154-35.49117,19.37476-46.859,35.52831A95.60854,95.60854,0,0,0,89.82517,78.135c-.71913,2.86313-1.31344,5.64156-1.80821,8.3264l-.30755.01038c-1.42488.06241-2.89582.0951-4.36972.0951A191.15653,191.15653,0,0,1,54.074,83.885C44.0226,82.28774,27.35942,76.716,23.78014,75.36245c-2.823-1.06829-5.76637-2.27326-8.76173-3.59265l-1.3595-.60174-6.5063-2.88987,3.768,7.78259a148.29618,148.29618,0,0,0,9.06632,17.03165C28.76052,106.79294,39.638,116.65119,53.236,123.2288c8.03369,3.88534,17.34516,5.597,22.17845,6.26856a120.33469,120.33469,0,0,0,12.69314.98063h.003l.56015-.00594q.37887,1.47093.8261,2.98348c-.17236,0-.34619.0015-.51706.0015a106.37429,106.37429,0,0,1-16.68547-1.3283,99.57534,99.57534,0,0,1-14.54889-3.29252A57.036,57.036,0,0,1,51.878,126.771l-7.12289-3.12017,3.6922,6.84209a102.1176,102.1176,0,0,0,13.84017,20.27664,74.1721,74.1721,0,0,0,7.61172,7.15854,58.477,58.477,0,0,0,9.28622,6.21061,55.60344,55.60344,0,0,0,27.82892,7.13626c.13075,0,.26-.00149.39374-.003l1.70866-.01634c.75925.97469,1.53186,1.94342,2.31784,2.89729-.936.06092-1.81861.08767-2.774.08767-1.3179,0-2.823-.05348-4.73374-.16641-5.13491-.30309-13.58907-2.15589-15.91286-3.26429L81.32348,167.608l3.10828,6.73808a65.03241,65.03241,0,0,0,10.457,13.91151,55.72985,55.72985,0,0,0,14.31266,9.65022l.49774.208a54.62489,54.62489,0,0,0,22.38944,4.389h.00148c2.2391,0,4.59557-.12184,7.00552-.36254l1.9241-.19316a13.90359,13.90359,0,0,1,1.153,1.25847c5.11856,6.4736,4.11267,8.7974,2.56745,12.289a14.15228,14.15228,0,0,1-2.99536,3.609l-.03715.03714c-.63.62256-1.28076,1.26441-1.91519,1.97314l-.20356.22583a2.55,2.55,0,0,0,1.90033,4.24937c.0535,0,.107,0,.162-.003l.3031-.02081a27.13727,27.13727,0,0,0,18.146-9.573,32.73688,32.73688,0,0,0,4.90015-8.212A88.3695,88.3695,0,0,0,258.62032,62.595"/><path class="cls-2" d="M281.94731,125.06673A85.89711,85.89711,0,0,1,165.834,205.37688c.413-1.2243.74587-2.407,1.03114-3.52727a40.80687,40.80687,0,0,0,.95091-5.95952,36.87815,36.87815,0,0,0,4.47373-1.78295c2.83192-1.27481,4.68768-2.15589,4.98484-2.297A69.3556,69.3556,0,0,0,242.55,73.53048a8.75286,8.75286,0,0,1,.422-2.75169c.107-.35065.21545-.731.32094-1.10544.107-.37738.208-.73695.31053-1.06828,5.23742,5.23742,8.28627,4.26868,8.39325,4.21816a1.26985,1.26985,0,0,1,.65376-.17681,3.94284,3.94284,0,0,1,2.30892,1.34612l.01635.01932.01932-.0208-.01932.01783.08767-.09063.08914-.09211v-.00149c-.15155-.17235-1.39368-1.65963-.81422-2.826.055-.13075,1.29116-3.24646-4.2449-9.12426l-.13669-.14561-.07726.18721a6.46974,6.46974,0,0,0-.02676,3.48419l.01932.14412a2.935,2.935,0,0,1-.53786,2.04,2.10082,2.10082,0,0,1-1.65814.64038l-.59728-.0416a8.80369,8.80369,0,0,0-2.65065-.44723l-.53339.02377c.09805-.2511.211-.50963.34025-.78747a7.84246,7.84246,0,0,0,.57352-1.52443l.34767-.055a4.286,4.286,0,0,1,2.25691,1.02669l.01932.01783.01635-.02377-.01782.0208.07726-.10549.0743-.10549c-.16641-.14412-1.6121-1.45013-1.19458-2.68483.03566-.13669.82907-3.395-5.46475-8.45269l-.159-.12777-.04754.19613a6.48,6.48,0,0,0,.45465,3.456l.03566.13967a2.84416,2.84416,0,0,1-.31944,2.19154,2.48651,2.48651,0,0,1-2.07863.80976,9.72177,9.72177,0,0,0-1.64626-.14858,5.44374,5.44374,0,0,0-2.28811.39968l-.17829.08914.159.12481a23.55125,23.55125,0,0,0,3.46635,2.31932l-.33282.1248c-.29568.11292-.60027.2303-.92712.34619-.80085.28825-1.58981.62107-2.1128.84839a16.1197,16.1197,0,0,0-1.48132.75628,69.10651,69.10651,0,0,0-37.31721-10.88939c-1.5274,0-3.06964.052-4.603.15154a80.79719,80.79719,0,0,1,.97319-16.53094c1.20943-.052,2.42333-.07875,3.62831-.07875a85.79639,85.79639,0,0,1,85.79855,85.80314"/><path class="cls-2" d="M177.30726,149.44564c4.03095,4.29395,7.58647,8.08123,8.95191,11.09739.07281.16047.13967.318.1991.47247.06834.17979.12778.35808.1783.53192.03863.13521.07727.26743.10549.39968.11441.50666.20207.99547.27041,1.465s.1159.92118.14562,1.35355q.04235.65079.04161,1.24956c-.0015.419-.01932.81866-.04755,1.20052-.02081.309-.05349.60027-.08766.88552-.0104.08914-.02377.17532-.03417.26149-.13372.95241-.32094,1.78889-.4918,2.52585,1.34612-1.10247,3.22565-2.7829,4.69807-4.12457.13372-.12183.26149-.2392.39077-.3566.50516-.46209.94347-.8662,1.27184-1.16782.17829-.16641.35957-.33135.5438-.49776.18722-.1664.37442-.33578.56758-.50516.38482-.34025.7845-.68645,1.19308-1.043a58.10563,58.10563,0,0,0,4.30285-3.99976,11.47558,11.47558,0,0,0,1.70866-2.27327l.11589-.214a4.193,4.193,0,0,0,.71171-2.31933,5.95314,5.95314,0,0,0-.06389-.7414,5.65257,5.65257,0,0,0-.38036-1.39071,10.36291,10.36291,0,0,0-1.38774-2.22572c-.6582-.86473-1.30751-1.676-1.94491-2.44414q-.71987-.86474-1.416-1.66408c-.29271-.33579-.5854-.66119-.87067-.9821q-.49923-.55272-.9836-1.08018c-.20207-.21989-.40117-.43387-.59878-.64485-.159-.17087-.318-.34025-.474-.50963-.19019-.20207-.37739-.40117-.56461-.59877l-.09658-.10549c-.12331-.13225-.24814-.26-.36848-.39077-.13371-.14115-.26446-.2823-.39523-.419-2.60905-2.77249-4.43806-4.81248-5.21662-7.07387a6.44377,6.44377,0,0,1-.30459-1.16782c-.01635-.08024-.02377-.162-.03418-.24368-.003-.02675-.00742-.052-.00891-.07726a8.253,8.253,0,0,1-.0416-1.83643c.82908-5.747,8.01438-9.59675,13.0943-3.20634l1.985,2.46791s9.3501,11.80165,14.34831,17.85628l2.57339,3.034c.09211.09806.17234.18722.24217.25556,4.21521,4.95214,11.90121,8.87019,13.7451,9.71708-.13372-.159-.28675-.34025-.45466-.5438a35.6994,35.6994,0,0,1-3.38167-4.87637c-.30309-.53786-.58836-1.08909-.83947-1.64774-.05052-.10846-.09806-.21989-.14859-.32984-.17088-.38036-.34173-.76518-.51111-1.16486-.10995-.257-.21989-.51707-.32835-.7845a31.25147,31.25147,0,0,1-1.45013-4.49007c-.14115-.59431-.26-1.17676-.36254-1.74729-.05348-.30162-.101-.59728-.14412-.89-.00744-.052-.01635-.101-.02378-.15156q-.0624-.45688-.1144-.89742c-.02378-.20355-.04457-.40414-.06242-.60324-.02822-.3031-.05348-.59878-.06982-.89-.0015-.02082-.003-.03864-.003-.06092-.02082-.30013-.03417-.58987-.04458-.87514-.01782-.45465-.02378-.89-.02081-1.30454.0015-.416.01188-.80975.02972-1.17823.03864-.94644.11887-1.73541.19761-2.32527.00149-.02526.00594-.04607.00891-.06836.055-.43087.11292-.7518.14859-.94347a8.99808,8.99808,0,0,1-1.08612-.32835,10.23231,10.23231,0,0,1-3.53323-2.17668,9.12075,9.12075,0,0,1-1.679-2.16332,19.51,19.51,0,0,1-2.621-9.24313c-.2823.20653-.56164.42048-.84542.63444a23.80863,23.80863,0,0,1-4.25384,2.75764,14.77672,14.77672,0,0,1-4.50789,1.309,11.61027,11.61027,0,0,1-1.34317.08023,10.48729,10.48729,0,0,1-1.13069-.06092,9.255,9.255,0,0,1-1.07721-.18572c-4.6758-1.08464-7.55972-3.25389-9.08117-6.82426a10.57648,10.57648,0,0,1-.72508-2.52882c-.03269-.21544-.05942-.43089-.07874-.64929-.02081-.2199-.03269-.43682-.03863-.65672a10.783,10.783,0,0,1,.04754-1.32979,17.713,17.713,0,0,1,.55568-3.083c.06389-.23327.13521-.471.21395-.70278s.16194-.46357.25258-.69536a11.18867,11.18867,0,0,1,1.0252-1.988c.13966-.208.28528-.416.44277-.61363a8.39373,8.39373,0,0,1,1.34762-1.37139,7.82238,7.82238,0,0,1,.98954-.68346c.11737-.06983.2392-.1367.364-.20207.24814-.12778.50666-.24813.77559-.35659.19019-.07726.38333-.14115.57946-.1991a7.06915,7.06915,0,0,1,7.52405,2.54369c.03566-.09807.0728-.20653.11293-.32094.27339-.80975.61215-2.01771,1.00885-3.44853a114.39455,114.39455,0,0,1,3.86011-11.96807q.37666-.936.75627-1.90181c.19316-.4918.3863-.98806.5854-1.48134a36.46712,36.46712,0,0,1,5.15124-9.69184,33.48689,33.48689,0,0,0-8.67109-4.53762c-.214-.07429-.42643-.14264-.63888-.208a26.47971,26.47971,0,0,0-8.37541-1.2555l-.49032.00149a43.92189,43.92189,0,0,0-13.91149,2.24355q-.42569.14487-.84987.3031-1.87434.6909-3.716,1.58386-.58837.28527-1.17675.58987c-.18721.09806-.37442.19315-.56311.2927a40.17067,40.17067,0,0,0-9.37091,7.02334c-.00742.00743-.01189.01635-.0208.0208a43.66505,43.66505,0,0,0-9.07078,13.36176,42.044,42.044,0,0,0-2.13359,6.18388,46.92219,46.92219,0,0,0-1.39368,7.33239,32.71655,32.71655,0,0,0-.16047,3.28954,31.52774,31.52774,0,0,0,.32984,4.46184q.13372.93383.33282,1.90182c.18127.90039.416,1.82455.68792,2.774.052.17978.107.364.16344.54528a46.59291,46.59291,0,0,0,3.655,8.573,45.01054,45.01054,0,0,0,2.57785,4.15576,117.41506,117.41506,0,0,0,11.206,13.19538"/><path class="cls-1" d="M248.25839,143.4668l-.93309,4.01758,2.59717,10.94289s-7.60132,1.19161-10.98448,1.70124c-1.04155,3.49162-6.25371,17.19362-6.25371,17.19362l-1.043-.51557c-.75775-7.48543-4.65351-11.31433-9.10643-14.18043a33.95289,33.95289,0,0,0-8.07529-3.57334,71.91357,71.91357,0,0,0-11.35593-2.44116,6.43318,6.43318,0,0,0-.0015-4.64014,18.82526,18.82526,0,0,0-3.0652-4.64014c4.75157-.80975,5.30131-4.16914,5.10964-6.21954-.59877,1.046-3.13949,5.3459-6.88962,4.499-7.7083-9.08267-9.02175-9.57445-9.76762-12.50591a6.10881,6.10881,0,0,1,2.65066-6.26857c4.022-2.49911,6.533.03714,10.60113,5.15422,2.16331,2.719,9.9771,13.08687,15.11647,18.91565a41.90356,41.90356,0,0,0,12.73177,9.882,47.26171,47.26171,0,0,0,5.76786,2.462l.64037-1.02223a37.78813,37.78813,0,0,1-6.23885-8.625,33.13807,33.13807,0,0,1-2.664-7.33389,32.31248,32.31248,0,0,1-.055-12.43461s-3.609.5958-6.96985-4.35635a18.46479,18.46479,0,0,1-1.9672-6.25074,30.51155,30.51155,0,0,1-.33579-3.58671c6.17644-5.63413,14.58455-15.71375,17.80278-16.46112.97172,2.01771,15.02882,31.82721,15.02882,31.82721l-3.14988,1.51255.01188,3.42921-8.22832,6.03382Z"/><path class="cls-3" d="M152.93726,213.20405c.03715-.27487.05943-.4695.06389-.52745a15.69616,15.69616,0,0,0-1.83793-9.044,23.59346,23.59346,0,0,0-3.72935-5.30429,43.2541,43.2541,0,0,0-7.056-6.2032c-.27934-.1991-28.05923-20.29743-40.03473-49.43386a95.163,95.163,0,0,1-5.52419-55.03679A105.727,105.727,0,0,1,98.107,75.199l.04457-.14115a90.9681,90.9681,0,0,1,17.91719-31.94458c17.54872-19.88884,45.72681-31.85691,77.47675-32.943a144.27491,144.27491,0,0,0-6.30422,20.97051c-.35064,1.53334-3.36977,15.04812-2.60608,26.0534a70.16149,70.16149,0,0,0-26.01477,14.10762,56.87583,56.87583,0,0,0-13.04824,16.48638,50.78953,50.78953,0,0,0-5.40235,18.7537q-.10252.838-.20356,1.60614c-.893,6.646,1.28372,23.51419,10.54468,34.25648,2.53922,2.9478,6.062,7.31754,10.52537,12.85063l.05646.0728c2.96714,3.67883,6.31314,7.82717,10.07963,12.43759a32.70509,32.70509,0,0,0-7.01741,10.85372,33.30379,33.30379,0,0,0-2.49465,9.01728c-.13223,1.12029-.22287,2.29258-.32094,3.53173a48.48806,48.48806,0,0,1-1.75323,10.96368,27.58761,27.58761,0,0,1-2.87056,6.44983,22.64742,22.64742,0,0,1-3.77836,4.62232"/><path class="cls-2" d="M199.71008,5.81093l-.17978-.003c-1.01777-.02971-2.06823-.04457-3.12018-.04457a129.542,129.542,0,0,0-44.36433,7.95643c-19.2351,7.2373-34.60267,18.88147-45.67183,34.60861A93.09234,93.09234,0,0,0,92.30051,78.756c-5.56876,22.16954-3.70111,38.98427-2.09348,47.02985a104.96281,104.96281,0,0,0,9.01282,25.3209c.80233,1.569,4.90313,8.787,7.62659,12.73771a128.841,128.841,0,0,0,9.04106,11.62189,127.71469,127.71469,0,0,0,9.27135,9.64132c.75627.71467,1.40853,1.33423,2.03108,1.95826a94.47021,94.47021,0,0,0,9.62795,8.13918c3.1053,2.38619,5.78568,4.447,7.35319,6.42605,6.08879,7.6994,4.60448,11.05135,2.88542,14.93224a16.06373,16.06373,0,0,1-3.52134,4.3608c-.61512.60622-1.24956,1.23322-1.84387,1.89588l-.20207.22882.30459-.02081a24.43061,24.43061,0,0,0,16.32591-8.634,32.21877,32.21877,0,0,0,6.276-12.99773,53.60094,53.60094,0,0,0,1.12029-8.07826c.153-1.72649.315-3.50647.5542-5.25822a29.62259,29.62259,0,0,1,2.35944-8.18228,30.02006,30.02006,0,0,1,5.88226-8.87466c-.66118-.67751-1.30453-1.37881-1.9449-2.08307a37.16411,37.16411,0,0,0-6.37852,9.671,32.76354,32.76354,0,0,0-2.89581,11.29055c-.055.64187-.10549,1.19458-.18721,1.72649-.08766.57055-.13966,1.309-.20207,2.16331a33.85057,33.85057,0,0,1-3.869,14.67816,23.34777,23.34777,0,0,1-9.31444,9.41846,12.06646,12.06646,0,0,0,1.71015-7.66374c-.60323-6.68757-5.78716-11.867-10.0306-15.03476A140.40812,140.40812,0,0,1,109.22519,162.421c-8.16444-11.876-13.58461-24.214-16.109-36.66643A99.93894,99.93894,0,0,1,94.6228,79.8495,94.544,94.544,0,0,1,115.259,41.60516C134.12264,20.63466,162.01249,9.21484,195.9213,8.567L195.529,9.674c-1.82455,5.16165-3.71,10.5016-5.26714,16.38386-1.20646,4.56138-2.19006,9.16586-3.00725,14.08087a71.27416,71.27416,0,0,0-.90782,16.7033l2.6462-.60472c-.99548-17.7181,5.25526-37.06165,10.65314-50.26145Z"/><polygon class="cls-2" points="230.6 194.175 230.558 194.104 230.61 194.217 230.6 194.175"/><polygon points="245.174 133.825 238.873 137.64 239.03 138.021 249.535 135.49 245.174 133.825"/><path d="M238.21293,119.55444a6.32477,6.32477,0,0,0-.523-2.245c-.422-.63295,1.89141-1.621,1.89141-1.621l-1.19606-.65375-.28824.51854-5.40235,1.89142-4.502,3.69072,3.86011-1.24213,7.93266,1.01332Z"/><path d="M216.47281,51.40253a1.72534,1.72534,0,0,1,1.6834-.77707,5.50726,5.50726,0,0,1,1.45013.21544l.02526.00594.03416-.12184.01635-.13075c-.211-.06537-2.05932-.676-2.17818-1.97611-.02378-.14115-.61215-3.43961-8.41108-5.52864l-.19463-.052.03416.19762A6.44816,6.44816,0,0,0,210.751,46.223l.0832.104a2.8565,2.8565,0,0,1,.58986,2.13658,2.48811,2.48811,0,0,1-1.5779,1.57791,6.7223,6.7223,0,0,0-3.49757,1.81712l-.12778.1575.19464.05051a21.39087,21.39087,0,0,0,5.32062.783c3.5585-.00445,4.67729-1.36841,4.73674-1.44716"/><path d="M227.70094,54.28051a5.06436,5.06436,0,0,1,1.86616.44575l.02378.0104.05348-.11738.03269-.12481c-.1991-.09509-1.94638-.95387-1.88844-2.25691-.00149-.14115-.12777-3.49162-7.56418-6.63408l-.18722-.07875.00744.1991a6.44,6.44,0,0,0,1.38477,3.20634l.06982.11738a2.844,2.844,0,0,1,.29122,2.199,2.48928,2.48928,0,0,1-1.78148,1.34316,6.72791,6.72791,0,0,0-3.71448,1.31939l-.14859.13521.18722.07875a18.20027,18.20027,0,0,0,6.7574,1.624c2.33865,0,3.239-.83947,3.29252-.893a1.521,1.521,0,0,1,1.31789-.57354"/><path d="M237.479,57.24022c.01782-.13967.3551-3.47527-6.57762-7.61469L230.729,49.52l-.02082.20207a6.45811,6.45811,0,0,0,.92863,3.36086l.055.13224a2.83051,2.83051,0,0,1-.01634,2.2168,2.48413,2.48413,0,0,1-1.94936,1.08463l-.34173-.00594a6.4929,6.4929,0,0,0-3.51835.79936l-.16641.11292.17235.104c3.67882,2.17223,6.17347,2.62837,7.61767,2.62837a3.92018,3.92018,0,0,0,2.2376-.51409,1.37174,1.37174,0,0,1,1.04451-.41156,4.69712,4.69712,0,0,1,2.12171.72506l.02378.01189.06836-.10846.05051-.11886c-.18575-.12184-1.79782-1.2139-1.55712-2.49911"/><path d="M258.60844,80.9743l.48437-.09807c1.13813,0,2.17372,1.49619,2.28812,1.66707l.01188.01931.107-.07281.09212-.08914c-.11887-.18572-1.15595-1.835-.41752-2.91216.0728-.12183,1.7265-3.037-2.94187-9.625l-.11737-.16343-.101.17531a6.45615,6.45615,0,0,0-.50666,3.46042l-.003.13075c0,.09658-.052,2.38321-2.10239,2.38321a3.97285,3.97285,0,0,1-1.02667-.153,7.85991,7.85991,0,0,0-3.349-.8677,2.97193,2.97193,0,0,0-.5022.03418l-.1976.03715.11737.16343c3.8482,5.36224,6.747,5.94318,7.81677,5.94318Z"/><path d="M264.03605,89.95889l.32093-.0416c1.2139,0,2.10686,1.77552,2.20788,1.97759l.01041.02081.1144-.055.107-.07875c-.09508-.19762-.89-1.9776-.0104-2.94038.08914-.10995,2.12914-2.771-1.58682-9.93849l-.09211-.1783-.12184.16047a6.44029,6.44029,0,0,0-.98063,3.343l-.02081.14412c-.01635.08618-.34026,2.095-2.06972,2.095a3.43945,3.43945,0,0,1-1.33721-.31944,7.02158,7.02158,0,0,0-3.65357-1.358l-.24813.01041.09211.17681c3.56739,6.79156,6.83466,6.98621,7.19571,6.98621Z"/><path d="M268.171,99.60616l.1575-.00891c1.30453,0,2.00286,2.03108,2.08307,2.27178l.00744.02674.12183-.0416.1159-.05944c-.06389-.211-.60918-2.08308.39523-2.91512.104-.09658,2.49018-2.45156-.1991-10.0618l-.06539-.19018-.14412.14115a6.444,6.444,0,0,0-1.43528,3.18257l-.03714.13371c-.00594.01783-.5542,1.80822-2.05337,1.80822a3.058,3.058,0,0,1-1.566-.52,6.71247,6.71247,0,0,0-3.47825-1.85278l-.20207-.01932.06983.19018c2.72644,7.59538,6.06651,7.90442,6.22995,7.91483"/><path d="M269.19472,103.19436a6.76672,6.76672,0,0,0-3.19-2.31784l-.19464-.04457.03864.19613c1.65814,7.90294,4.92094,8.67109,5.08141,8.7023,1.41447.02674,1.85575,2.28367,1.90182,2.54963l.00594.02674.1248-.02377.12184-.04606c-.03417-.21693-.315-2.14549.7949-2.83192.1144-.08024,2.80518-2.08309,1.19161-9.99345l-.0416-.19613-.16194.11886a6.45178,6.45178,0,0,0-1.86021,2.95376l-.055.12332c-.00744.01783-.7117,1.5274-2.03256,1.5274a2.76036,2.76036,0,0,1-1.725-.7444"/><path d="M207.24008,48.11448c.28527-4.22412-12.67383-.85433-12.67383-.85433s12.399,4.93729,12.67383.85433"/><path d="M199.65361,202.019l.02525.12331V202.126l.003.01634-.00743-.257-.11293.0015c-.41752,0-2.50209-.06538-2.79924-1.38477-.05348-.13075-1.4531-3.17513-9.52542-3.239h-.20207l.0832.18126a6.67986,6.67986,0,0,0,2.88095,2.65511,2.49218,2.49218,0,0,1,1.13069,1.94639,2.83784,2.83784,0,0,1-1.12919,1.90776l-.06983.055a6.47233,6.47233,0,0,0-2.57042,2.43077l-.08617.18125.27636.0015c8.00993,0,9.43034-3.01319,9.48976-3.1484.45316-1.21836,2.3966-1.32533,2.615-1.33127Z"/><path d="M210.32309,200.98488l-.02081-.12184.0416.11737-.00149-.01188.00594.01188-.04457-.25258-.02526.003.02081.08171v.03863l-.02081-.12183a5.69108,5.69108,0,0,1-.87364.06538c-.81719,0-1.85131-.17532-2.17521-1.04005-.05348-.08767-1.34614-2.12468-6.588-2.12468a25.71567,25.71567,0,0,0-3.297.2318l-.19761.02675.107.16938a6.70675,6.70675,0,0,0,3.2212,2.23018,2.49587,2.49587,0,0,1,1.38774,1.77255,2.83762,2.83762,0,0,1-.85285,2.04446l-.10846.104a6.39161,6.39161,0,0,0-2.16331,2.72644l-.06092.19316.1991-.02675c8.001-1.09653,8.99648-4.29692,9.03661-4.441.27933-1.26441,2.18114-1.63883,2.407-1.67746l.003.00143Z"/><path d="M220.67165,198.11432l-.02676.00743a5.58748,5.58748,0,0,1-1.4947.23327,1.714,1.714,0,0,1-1.65814-.77706c-.04457-.055-1.14407-1.36249-4.56437-1.36249a21.02328,21.02328,0,0,0-5.487.85285l-.19463.05349.13074.153a6.691,6.691,0,0,0,3.502,1.76363,2.49258,2.49258,0,0,1,1.61654,1.56306,2.84551,2.84551,0,0,1-.56311,2.14549l-.07874.101a6.45709,6.45709,0,0,0-1.78295,3.0117l-.03269.1991.19463-.055c7.7707-2.18709,8.31749-5.49744,8.33678-5.64306.101-1.29413,1.94342-1.92707,2.15143-1.99542l-.03713-.11737.05942.11293-.003-.01188.00743.0104Z"/><path d="M230.58042,194.09227l-.02378.01041.04457.07279.0104.03714-.055-.11a5.01236,5.01236,0,0,1-1.89735.471,1.517,1.517,0,0,1-1.30157-.572,4.75263,4.75263,0,0,0-3.16475-.83057,17.89923,17.89923,0,0,0-6.85992,1.71462l-.18572.08023.15006.13372a6.69571,6.69571,0,0,0,3.70855,1.2659,2.49516,2.49516,0,0,1,1.81861,1.32533,2.846,2.846,0,0,1-.26149,2.20046l-.04161.08321a6.47163,6.47163,0,0,0-1.36989,3.25983l-.00594.20207.18572-.08171c7.39481-3.239,7.47948-6.594,7.478-6.741-.07726-1.29413,1.65964-2.17668,1.86021-2.27326l-.05348-.11293.0728.104-.00594-.01041.00743.01041Z"/><path d="M239.83691,188.74342l-.01932.01188.052.06539.01635.03713-.06539-.10549a4.62634,4.62634,0,0,1-2.14251.75478,1.40158,1.40158,0,0,1-1.043-.41155,3.87389,3.87389,0,0,0-2.13212-.471c-1.4531,0-3.96706.47247-7.67411,2.72644l-.17088.10549.16791.11a6.39918,6.39918,0,0,0,3.39058.75477l.45614-.0104a2.50161,2.50161,0,0,1,1.98652,1.05936,2.84019,2.84019,0,0,1,.04457,2.21682l-.02972.0832a6.48839,6.48839,0,0,0-.90781,3.42178l.02378.1991.17088-.10549c6.87774-4.23156,6.49738-7.56122,6.47806-7.70978-.25555-1.27185,1.34317-2.38619,1.5259-2.508l-.06835-.10549.08617.09211-.00743-.01188.0104.01041Z"/><path d="M248.26732,182.16728l-.01931.01635v.0015a4.2553,4.2553,0,0,1-2.26583,1.05789,1.31909,1.31909,0,0,1-.83948-.28378,3.186,3.186,0,0,0-1.34017-.2303c-1.54078,0-4.19143.66267-8.06044,3.82148l-.153.12777.17978.08767a5.32574,5.32574,0,0,0,2.18412.36848,9.14834,9.14834,0,0,0,1.72947-.1679h.0728a2.43871,2.43871,0,0,1,2.04446.78747,2.84743,2.84743,0,0,1,.34469,2.17818l-.01931.08767a6.489,6.489,0,0,0-.42643,3.51391l.05051.19463.1575-.12777c6.227-5.14086,5.39047-8.38732,5.35034-8.52994-.42939-1.22431.99845-2.54814,1.16189-2.69523l-.08171-.09064.09806.07874-.00891-.01041.0104.00891Z"/><path d="M255.70818,174.4902l-.01635.01931a3.88864,3.88864,0,0,1-2.30893,1.37584,1.29816,1.29816,0,0,1-.65819-.17829,2.45218,2.45218,0,0,0-.734-.08914c-1.30751,0-4.09484.64334-8.08273,4.94323l-.13521.14859.1887.06241a4.3894,4.3894,0,0,0,1.19605.13669,8.656,8.656,0,0,0,2.7086-.47547,2.423,2.423,0,0,1,2.29111.57055,2.93757,2.93757,0,0,1,.55867,2.02365l-.01782.14562a6.45165,6.45165,0,0,0,.07279,3.48269l.07874.18723.13521-.14859c5.4603-5.95062,4.184-9.053,4.12457-9.18964-.59431-1.153.64038-2.65956.78153-2.82746l-.09211-.08171.10846.06389-.01041-.00891.01188.00743Z"/><path d="M262.01983,165.85624l-.01188.02081c-.11737.17829-1.13813,1.6953-2.2807,1.6953l-.49328-.09805-.28675-.02082c-.835,0-3.86158.43534-7.77517,6.0457l-.1144.16641.19761.03417a2.73063,2.73063,0,0,0,.44425.02822,7.74053,7.74053,0,0,0,3.3772-.90336,3.81618,3.81618,0,0,1,1.07868-.17682c2.01474,0,2.09645,2.25842,2.09795,2.355l.003.1144a6.47149,6.47149,0,0,0,.5542,3.47081l.104.17532.11292-.16791c4.58369-6.64744,2.89136-9.54029,2.81409-9.6651-.74586-1.05789.26-2.716.38333-2.91216h.0015l-.10549-.06539.11589.04754-.01188-.00743.01635.00594Z"/><path d="M267.30182,156.56705l-.11293-.052.12184.03269-.01188-.00744.01188.003-.23179-.107-.01041.02379c-.09658.20653-.97469,2.00433-2.196,2.00433l-.33134-.0416H264.507c-.35957,0-3.6179.1976-7.11844,7.07831l-.0728.1887h.208a6.85993,6.85993,0,0,0,3.63425-1.39219,3.37964,3.37964,0,0,1,1.38328-.34916c1.70421,0,2.05337,1.982,2.06675,2.06675l.02525.14562a6.46808,6.46808,0,0,0,1.02224,3.33116l.1248.159.08915-.17979c3.62237-7.218,1.54968-9.84932,1.4531-9.96522-.88552-.94941-.11291-2.7398-.02079-2.9389"/><path d="M270.93607,146.948h0v-.00149l-.11737-.03714.12481.01782-.01188-.003h.01188l-.24368-.07429-.00743.02378c-.07727.2392-.76371,2.28961-2.07713,2.28961l-.16791-.00891c-.14115.0104-3.47675.34469-6.15713,7.96089l-.06538.19019.1991-.01932a6.70668,6.70668,0,0,0,3.44853-1.86468,3.04669,3.04669,0,0,1,1.59278-.54529c1.48876,0,2.04743,1.777,2.05337,1.79335l.02972.08171a6.50972,6.50972,0,0,0,1.465,3.22417l.14413.14115.06538-.19019c2.63728-7.63251.23327-9.96669.12481-10.07071-1-.82161-.47844-2.68332-.41158-2.90768"/><path d="M274.06219,139.75529c-1.10394-.68049-.82313-2.61055-.79044-2.82747l-.12184-.02081.09806-.003.02675.003-.01188-.003h.01188l-.25111-.0416-.003.02525h-.0015c-.04606.26-.48437,2.52288-1.92559,2.55557-.13669.02823-3.398.80085-5.05022,8.70526l-.0416.19613.19613-.04607a6.68911,6.68911,0,0,0,3.17069-2.303,2.81031,2.81031,0,0,1,1.74878-.76668c1.31938,0,2.02365,1.50808,2.03256,1.52442l.03863.08024a6.445,6.445,0,0,0,1.87806,2.99834l.16194.11886.03863-.1976c1.60913-7.9148-1.08313-9.91319-1.205-9.99789"/><path d="M174.54518,198.80967s11.6308,6.63407,12.45838,2.48127c.79786-4.01313-12.45838-2.48127-12.45838-2.48127"/><path d="M274.02356,120.57072a3.93141,3.93141,0,1,0,3.9314,3.93142,3.93016,3.93016,0,0,0-3.9314-3.93142"/><path class="cls-2" d="M241.397,70.33007a22.2377,22.2377,0,0,1,1.54374-3.976,3.71428,3.71428,0,0,0,.50666-1.34613L243.44,64.947l-.05052-.03269-.33728-.06092c-2.01177,0-10.53427,2.3743-18.78638,9.64577a31.73747,31.73747,0,0,0-8.77955,13.2726l-.22139.5542a152.1022,152.1022,0,0,0-7.24771,24.4012,16.30628,16.30628,0,0,0-1.9984-5.11411,5.222,5.222,0,0,0-4.135-2.13657,6.13488,6.13488,0,0,0-1.0237.08765,6.37054,6.37054,0,0,0-4.6758,4.19143l-.02379.06389a12.48073,12.48073,0,0,0-.98954,5.34143,8.34037,8.34037,0,0,0,.98954,3.77392,10.15012,10.15012,0,0,0,9.32335,5.17651,16.5093,16.5093,0,0,0,1.66558-.08618,11.13357,11.13357,0,0,0,4.97445-1.91964c3.77838-2.52436,6.83467-5.76786,10.07221-9.2,1.835-1.94342,3.73231-3.95519,5.77528-5.82134a45.97034,45.97034,0,0,1,7.21352-5.58808,24.37271,24.37271,0,0,1,6.68458-2.73832l.34619-.19018-.0728-.44426-.08023-.20207a39.59786,39.59786,0,0,1-1.884-7.62956,43.94385,43.94385,0,0,1-.53191-9.40062,57.25873,57.25873,0,0,1,1.7503-10.561"/><path class="cls-2" d="M178.82278,185.03635c2.44412-1.11285,4.97443-2.26435,7.62955-3.395a107.823,107.823,0,0,1,15.44781-5.389,66.24981,66.24981,0,0,1,17.6646-2.74426h.11737a29.0345,29.0345,0,0,1,6.276.734c-2.41739-7.18233-10.86709-9.65617-14.0675-10.59223a99.77762,99.77762,0,0,0-12.38411-2.27476l-.32985-.02972.26744-.19463a8.22678,8.22678,0,0,0,1.71461-1.75026l.42493-.526.04458-.052.06835.00891a69.68752,69.68752,0,0,1,12.05276,2.50653,31.60238,31.60238,0,0,1,9.64429,4.73523,16.27128,16.27128,0,0,1,3.85861,4.26868c1.50511,2.3,2.02662,5.89267,2.01324,8.26993v.23029l-.19316-.12777a13.36932,13.36932,0,0,0-5.49149-2.17372,31.12093,31.12093,0,0,0-4.21521-.27486,54.4159,54.4159,0,0,0-12.56983,1.6938,118.49763,118.49763,0,0,0-13.37215,4.0488c-5.1037,1.86318-9.1198,3.62978-14.66331,6.11552-.8677.38927-1.70569.77262-2.53031,1.15149-2.70711,1.23915-5.27754,2.41591-8.11095,3.395.09212-1.02817.19315-2.07119.312-3.10827,3.69672-1.47834,7.09622-3.025,10.39172-4.52572"/><path class="cls-2" d="M132.09008,199.95818h0a52.2124,52.2124,0,0,1-21.39841-4.19l-.50666-.211a53.47484,53.47484,0,0,1-13.50289-9.11089,63.08307,63.08307,0,0,1-9.937-13.17008l-.14412-.3135.312.15006c2.86461,1.36693,11.69171,3.20635,16.86377,3.51094,1.96718.1159,3.51836.16938,4.88529.16938a48.15245,48.15245,0,0,0,5.19286-.28378c.11589.13372.23029.26743.34767.40264.71913.82164,1.3907,1.57644,2.03108,2.2807-1.78146.17088-3.85267.27784-6.56127.34173l-.46356.00594c-3.37275,0-12.93978-.7102-15.76131-1.41744,5.40384,7.004,10.25792,11.769,18.76112,15.30369a45.57176,45.57176,0,0,0,9.69481,2.81558,68.7724,68.7724,0,0,0,11.66794.84542c.6478,0,1.32236-.00744,2.03108-.01782,1.1604.893,2.25692,1.73541,3.24348,2.53773-2.28811.22732-4.55395.35063-6.7559.35063"/><path class="cls-2" d="M91.5591,138.83857q-.91154.03567-1.99839.03566a130.67162,130.67162,0,0,1-20.0612-1.829c-6.19576-1.03263-10.6576-2.12914-12.968-3.1796.15007.23921.33133.53192.53637.86621,2.10389,3.41733,7.03524,11.41536,13.41672,16.68844,5.597,4.62528,12.54456,9.7067,21.66882,12.31722a61.975,61.975,0,0,0,13.49992,2.2807c.6389.90634,1.28521,1.80673,1.95086,2.69969-.19613.0015-.39374.00744-.58838.00744a53.16587,53.16587,0,0,1-26.615-6.8287,56.03257,56.03257,0,0,1-8.88059-5.93724,71.43606,71.43606,0,0,1-7.34131-6.90152A99.805,99.805,0,0,1,50.6938,129.28193l-.17087-.31944.33133.14561a58.54644,58.54644,0,0,0,6.14228,2.16479,102.27559,102.27559,0,0,0,14.91886,3.3772,108.58329,108.58329,0,0,0,17.0688,1.358c.52894,0,1.07126-.00594,1.61506-.01188.30312.945.62554,1.8929.95984,2.84234"/><path class="cls-2" d="M66.8444,91.11039l-.20207-.02081a194.7732,194.7732,0,0,1-32.47649-6.66675c-5.58213-1.676-10.882-3.51539-15.74794-5.46327l-.18721-.08172A92.8147,92.8147,0,0,0,24.1189,89.65133a79.26861,79.26861,0,0,0,21.0745,22.70294A73.90577,73.90577,0,0,0,70.706,123.41452l.003-.04754h.11441l.05646.00742.42642.08766A89.58527,89.58527,0,0,0,86.289,125.1529c.51705,0,1.01034-.01041,1.48282-.0327.06389.34174.12778.679.19018.99548.11887.59432.2511,1.202.39076,1.81564-.07875.00149-.159.00149-.24367.00149a117.18664,117.18664,0,0,1-12.34547-.95536c-4.68768-.65376-13.70051-2.306-21.41772-6.03976-13.16563-6.36663-23.70139-15.92475-32.218-29.21815a109.94616,109.94616,0,0,1-8.98608-17.4447l-.13372-.32836-.01932-.00743-.01188-.05646-.15155-.29122.28824.13075H13.173l.01932.03418c3.3148,1.47688,6.57166,2.82,9.68292,3.9953,3.62831,1.37138,20.55151,7.02483,30.79605,8.65475a193.52747,193.52747,0,0,0,29.66389,2.716c1.55116,0,3.05479-.03418,4.48413-.09807-.14413.89-.27785,1.77107-.39968,2.63729a59.8706,59.8706,0,0,1-6.9.37442,131.47707,131.47707,0,0,1-13.67523-.92564"/></svg>