<?xml version="1.0" encoding="UTF-8" standalone="no"?>
<svg xmlns:rdf="http://www.w3.org/1999/02/22-rdf-syntax-ns#" xmlns="http://www.w3.org/2000/svg" height="156.29877" width="192.87402" version="1.1" xmlns:cc="http://creativecommons.org/ns#" xmlns:dc="http://purl.org/dc/elements/1.1/" viewBox="0 0 192.87402 156.29877"><path d="M187.01251,114.45338c-.617,1.17231-1.78929,2.8999-3.27009,2.65311a5.88289,5.88289,0,0,0,.49361-.98722,3.89183,3.89183,0,0,1-.55531.24682,4.459,4.459,0,0,1-1.5425.617,4.03794,4.03794,0,0,1-4.07218,1.234,3.25387,3.25387,0,0,0,1.1106-1.5425,4.67045,4.67045,0,0,1-1.1106-.55531,3.77538,3.77538,0,0,1-1.4808.49361,4.086,4.086,0,0,1-4.5658,1.5425,4.82481,4.82481,0,0,0,1.1723-2.468,11.84332,11.84332,0,0,1-.92551-.8638,12.184,12.184,0,0,1-2.52969.24679,5.78689,5.78689,0,0,1-5.0594,1.91272,5.065,5.065,0,0,0,1.41909-2.34463,6.83384,6.83384,0,0,1-2.77649-1.66589,70.66048,70.66048,0,0,1-96.12851,20.361,57.52357,57.52357,0,0,1-.98719,11.106,5.70834,5.70834,0,0,1-.9872.67871,7.41159,7.41159,0,0,1-1.9127,3.085,8.60621,8.60621,0,0,0-.0617-1.66589l-.9255,1.5425-1.0489.30849a7.297,7.297,0,0,1-2.83819,2.468,5.2766,5.2766,0,0,0,.3085-2.28293l-1.4191,1.04892c-.617,0-1.3574-.0617-1.3574-.0617a5.00829,5.00829,0,0,1-2.8382,1.6042,5.88127,5.88127,0,0,0,.4936-2.15951,2.82845,2.82845,0,0,1-1.3574-.92549l-.0617-1.851-.1234-.06169a5.37775,5.37775,0,0,1-2.9616,1.17228,4.84337,4.84337,0,0,0,1.1106-2.52969,2.67532,2.67532,0,0,1-.8638-1.72759,11.94989,11.94989,0,0,0,4.1339-9.1316,27.5608,27.5608,0,0,1,1.6659-10.05712,68.74675,68.74675,0,0,1-5.6764-6.29339,88.88637,88.88637,0,0,0-11.106,11.2911,10.25261,10.25261,0,0,1-8.3295.37022,89.17638,89.17638,0,0,0-2.468,16.53557,8.31615,8.31615,0,0,1-4.50409,2.03611,5.408,5.408,0,0,1-3.2084,2.71478,3.17416,3.17416,0,0,0,.617-1.66589,5.0021,5.0021,0,0,1-2.5914.43191,4.76944,4.76944,0,0,1-3.27009,1.4191,5.03563,5.03563,0,0,0,1.11059-2.0978l-1.11059-.617-.3085.37019a5.03407,5.03407,0,0,1-2.468-.617,5.33835,5.33835,0,0,1-3.4552.74037,7.45672,7.45672,0,0,0,1.5425-2.40626,5.44661,5.44661,0,0,1-1.0489-2.15954l.4936-.55527-.8021-1.11062a4.78833,4.78833,0,0,1-3.51689-.24679,5.08041,5.08041,0,0,0,2.71479-1.91268,8.26944,8.26944,0,0,1,0-3.702c10.18049-8.76138,5.9232-19.80569,11.106-26.59269,3.3318-.49358,4.1956-1.4808,4.1956-1.4808-.617-2.59138,1.4191-5.92317,1.4191-5.92317a19.2923,19.2923,0,0,1-3.8871.49361c-7.34229,0-12.15489-5.05941-12.15489-11.9698,0-15.425,20.23758-19.127,25.72888-19.8057a70.5753,70.5753,0,0,1,141.10776,2.468,72.10689,72.10689,0,0,1-2.77648,19.80566,37.5848,37.5848,0,0,0,9.93368,7.21888s7.404,1.72762,7.404,8.2678A6.39793,6.39793,0,0,1,187.01251,114.45338Zm-3.39349-16.659a38.70822,38.70822,0,0,1-7.77419-5.36789,73.59524,73.59524,0,1,0-144.563-23.93958c-11.29109,1.78929-25.79058,8.3912-25.79058,22.212,0,10.55066,7.8976,15.17816,14.62289,15.17816l-.0617.55531-2.6531.49358c-6.91039,7.89761-2.34459,20.2376-12.34,27.765a12.67517,12.67517,0,0,0-.4319,4.25731A15.57645,15.57645,0,0,1,0,141.478c.7404,2.34457,5.49129,3.82537,6.23169,3.88707a4.68683,4.68683,0,0,0,.2468.67873,7.45973,7.45973,0,0,1-1.97439,3.57858c.98719,1.4808,5.67639,1.72759,6.84869,1.4191a6.16685,6.16685,0,0,1-.9255,2.3446s4.0722.8021,6.787-.9255a5.47689,5.47689,0,0,1-.1234,1.91269,14.17268,14.17268,0,0,0,7.8359-3.94879s5.30619-1.29568,5.67639-4.44241c.5553-5.3062.8638-9.37838,1.6042-13.14208a14.4693,14.4693,0,0,0,8.021-1.6042,84.22266,84.22266,0,0,1,8.9465-9.44008c.80209.92549,1.60419,1.78928,2.40629,2.65311-2.2829,7.46567.9255,12.64848-5.42959,17.276a10.97843,10.97843,0,0,0,.617,3.57858,9.727,9.727,0,0,1-1.6659,3.51691s1.2957,1.4808,4.936,1.35741a11.55349,11.55349,0,0,1-.617,3.33178,9.95385,9.95385,0,0,0,5.86149-.30852,7.18152,7.18152,0,0,1-.5553,2.09784s4.25731-.80213,6.7253-2.9616a6.00509,6.00509,0,0,1-.0617,1.91268c2.8999-1.97438,5.67639-4.62749,6.23169-7.09548.06171-.12343,1.234-.9255,1.2957-.98719a50.8871,50.8871,0,0,0,1.0489-7.77419,73.31543,73.31543,0,0,0,92.05632-18.81851,11.07269,11.07269,0,0,0,6.23169-.49361,18.81,18.81,0,0,1-1.72759,1.234s5.67638,2.2212,8.82307,0a3.52166,3.52166,0,0,1-.55529,1.11061s5.2445,1.29568,7.9593-1.5425a4.306,4.306,0,0,1-.37022,1.04889s5.18281.0617,6.91041-4.5041a9.28288,9.28288,0,0,0,3.5786-7.5274C192.874,100.139,183.619,97.79441,183.619,97.79441Z" fill="#fff"/><path d="M98.3497,127.65719c-.74039-.06169-.9872.24679-1.0489.98719l-.617,5.05941c-.06171.74037.0617,1.11059.7404,1.234.74039.0617.9872-.24682,1.04889-.98719l.617-5.1211C99.2135,128.15077,99.0284,127.71889,98.3497,127.65719Zm10.0571.24679c-.67871.0617-.8638.43188-.80212,1.234l.30851,5.05938c.06171.7404.3085,1.11062,1.0489,1.04892.67869-.06173.8638-.43191.8021-1.17231l-.3085-5.12111C109.394,128.21247,109.14718,127.84229,108.4068,127.904ZM21.96518,89.95849c-.1851-.80206,3.3318-5.12107,9.93369-5.79977a13.36188,13.36188,0,0,0,.2468,1.54249C27.39477,88.53942,22.829,90.4521,21.96518,89.95849Zm11.41449-8.88477c-6.54019,0-14.49949,4.4424-14.49949,9.56351,0,1.60419,1.1106,2.28287,2.9616,2.28287,3.64029,0,8.638-2.52969,13.574-5.67639-.3702-2.03611-.6787-4.07218-.9255-6.17Z" fill="#fff"/><path d="M139.01,26.71609,135.36967,28.999l2.5914,1.851Zm12.5868,89.21809-7.7125-6.54018,1.1723-1.29571,6.47848,5.553,1.78932-2.09784,1.1723.98723Zm-6.35509,6.1083-6.66359-7.5274,1.29568-1.17229,5.6764,6.41679,2.03609-1.851.98721,1.17228Zm-5.6147,4.19561-1.4808-1.72759-1.6042.98719.92549,2.03611-1.4191.86376-3.82538-9.44008,1.78929-1.17228,7.0338,7.52737Zm-10.489,5.553-2.5297,1.04889-3.8871-9.255,2.3446-1.04888c1.7276-.67871,2.89989-.1234,3.51689,1.4808a1.95106,1.95106,0,0,1-.30848,2.34459,2.38172,2.38172,0,0,1,2.22118,1.6659C131.17407,129.63157,130.92727,131.05068,129.138,131.79108Zm-10.73579,3.45521-1.9744-8.32953-1.60419.37022-.3702-1.41911,4.936-1.17228.37019,1.4808-1.66589.37019,1.9744,8.32949Zm-9.3784,1.48077a2.34413,2.34413,0,0,1-2.77648-2.3446l-.37022-5.18277a2.433,2.433,0,0,1,2.468-2.77651,2.40833,2.40833,0,0,1,2.83819,2.4063l.3085,5.1211A2.37622,2.37622,0,0,1,109.02379,136.72706Zm-8.20609-7.71249-.617,5.1828a2.64211,2.64211,0,0,1-5.24448-.617l.617-5.18281a2.39035,2.39035,0,0,1,2.96161-2.22117A2.34243,2.34243,0,0,1,100.8177,129.01457ZM91.68612,126.67l-2.9616-.92549-.7404,2.52969,2.2212.6787-.3702,1.4191-2.2829-.6787-1.234,4.25731-1.66589-.49361,2.83819-9.62521,4.6275,1.41911Zm67.438-18.51c-1.04891-.67867-2.03611-1.97438-1.5425-4.5041,0,0-9.7486-3.0233-15.1165-9.0699,0,0-10.67408.43191-15.61009-2.96157a40.86075,40.86075,0,0,1-11.723,8.39119,13.22026,13.22026,0,0,0-9.255-3.39351c-5.79978,0-7.09548,2.468-13.574,3.085l1.35739,2.40629a19.71923,19.71923,0,0,0,9.19329-2.71478s9.37839-.43191,10.92089,6.29339a6.24481,6.24481,0,0,1-.49359,2.0978,6.35883,6.35883,0,0,1-.24681,5.3679,3.88257,3.88257,0,0,0-1.29569-2.65311,5.00861,5.00861,0,0,1-.55531.617c0,.24679.06171.55531.06171.8638a5.21256,5.21256,0,0,1-.4319.98719,4.82258,4.82258,0,0,1-.06171,4.87431,4.93612,4.93612,0,0,0-1.60419-2.65308,1.87807,1.87807,0,0,1-.4936.49358v.18509a4.69675,4.69675,0,0,1-.74041,1.41911,5.13541,5.13541,0,0,1,0,4.319,5.92019,5.92019,0,0,0-1.78929-2.52972c-.24681.1234-.4936.30852-.8021.43192a3.18729,3.18729,0,0,1-1.234,1.5425,3.78019,3.78019,0,0,1-.8021,3.7637,3.9789,3.9789,0,0,0-1.234-2.65312,15.50726,15.50726,0,0,1-3.20841.74043l-3.39348-1.3574s-8.0827,2.22117-11.7847-1.234a38.93435,38.93435,0,0,1-10.30388,11.16767c-1.234,0-2.28291,0-3.14671-.0617a67.44684,67.44684,0,0,0,89.52662-19.127A6.14335,6.14335,0,0,1,159.12416,108.16Z" fill="#fff"/><path d="M74.78032,37.20506c-4.07219,3.45518-8.94648,2.8999-11.84638-.43189-3.4552-4.01052-3.085-8.69971,1.04889-12.21659,3.27011-2.77651,6.17-2.40629,6.17-2.40629l-.1234,4.01049a4.4712,4.4712,0,0,0-3.88709,1.29571c-2.5914,2.15947-1.6042,5.05937-.3085,6.60187a4.37548,4.37548,0,0,0,6.47849.55531,6.37619,6.37619,0,0,0,1.851-2.468l-1.4191-1.6042-2.0978,1.851L68.30184,29.616l4.936-4.19558,5.49129,6.41678A14.7504,14.7504,0,0,1,74.78032,37.20506ZM64.97,47.509,52.07475,38.254l2.2212-3.085,12.89528,9.19329ZM60.77444,55.53,49.48335,50.34714l-1.851,4.01049-3.14671-1.41907,5.24451-11.53789,3.14669,1.4808-1.851,4.01049L62.31694,52.013ZM85.57781,12.957l1.3574,3.27009L80.395,18.94186l.92551,2.22124,6.17-2.59142,1.41909,3.33179-6.17,2.59141.98721,2.52969,6.91039-2.8999,1.4191,3.33182-10.489,4.38067L75.52073,17.15258ZM98.4731,10.489c3.8871-.43188,6.17,1.04892,6.4785,4.25731a4.20837,4.20837,0,0,1-2.7148,4.6892l4.6275,6.17-4.5041.49361-3.8871-5.79981-1.29569.1234.67869,6.17-3.82539.43191-1.7276-15.7952Zm9.0082,6.66361,5.79978.617-.30849,3.0233-5.7998-.55531Zm8.39118,1.78928c1.6042-4.62749,5.8615-6.97209,10.85919-5.18277a6.74282,6.74282,0,0,1,4.319,4.13389l-3.51689,1.29571a3.27991,3.27991,0,0,0-2.34461-2.15951c-2.468-.86379-4.62749.6787-5.553,3.20839a4.33024,4.33024,0,0,0,2.468,5.73812,3.60314,3.60314,0,0,0,3.51689-.67871l2.2212,3.27009a6.88928,6.88928,0,0,1-6.72529.8638C116.85967,27.88837,114.26828,23.56936,115.87248,18.94186ZM143.51406,23.446,139.627,40.29005l-3.4552-2.52968.8638-3.45522-4.5658-3.39348-2.9616,1.91268-3.3935-2.52969L141.04606,21.595Zm6.0466,4.936,8.021,9.74857-2.6531,2.1595-2.77649-3.39348-9.62519,7.89758-2.4063-2.9616,9.5635-7.89758-2.77651-3.39349Zm12.52508,17.52279a6.793,6.793,0,0,1,.617,5.30617l-3.76368-1.04889a3.20312,3.20312,0,0,0-.0617-2.71478c-.37022-.74043-1.234-1.72762-2.1595-1.234-.8638.43188-.7404,1.4191-.4936,3.0233.3702,2.09777.8638,4.75089-2.1595,6.17-2.83819,1.41911-5.7998.1234-7.46569-3.20839a7.51288,7.51288,0,0,1-.49361-5.86151l3.88709,1.11062a3.95316,3.95316,0,0,0-.12339,3.33179c.4319.80209,1.29571,1.78928,2.2212,1.3574.8638-.43191.7404-1.5425.55531-3.27012-.30852-2.09777-.74042-4.75089,2.03609-6.10829C157.95186,41.15385,160.85175,43.25166,162.08574,45.90477Zm-80.27162-6.17s10.79749-6.97213,23.93958-5.12111a11.09537,11.09537,0,0,0-.9255-1.851c6.29339.30852,10.92087,4.13392,13.14208,6.35509,2.468-.24679,6.10829,1.29571,8.32949,2.28293,0,0,9.06989-2.9616,10.42729-1.04892,1.2957,1.78932.617,9.1933-2.34459,12.46338l.617.43192a23.29845,23.29845,0,0,1,3.702.49361l-2.7148.12339c4.44241,3.085,10.79749,9.0699,14.99309,19.62057,10.5507,3.33182,13.1421,10.11879,18.94188,16.96748a69.35416,69.35416,0,0,0,2.1595-16.90578A67.31875,67.31875,0,0,0,37.45186,72.49743c1.9744.43188,4.0722,1.4191,4.0722,3.7637,0,2.89987-1.6042,4.01049-3.7637,4.50407.18511,1.4808.43191,3.0233.6787,4.4424,4.0105-2.77647,7.77419-5.73808,10.489-7.89758,7.03379-9.56348,12.89529-24.68,29.92447-35.72426C79.03762,40.78366,79.03762,39.54965,81.81412,39.73478Zm-24.063,82.06091a6.122,6.122,0,0,0,2.03609-1.41911,23.69121,23.69121,0,0,1,1.6042-11.16767,70.69379,70.69379,0,0,0-9.37839,6.23169A62.74833,62.74833,0,0,0,57.75115,121.79569Zm69.22733,5.9849-.4936.24679,1.17228,2.83821.67871-.24683c.86379-.37021.9872-.98719.55531-1.91271C128.45928,127.71889,127.904,127.41037,126.97848,127.78059Zm.06169-2.9616c-.3085-.80213-.8638-1.11062-1.54249-.86383l-.617.24682,1.04889,2.52969.55531-.24679A1.16666,1.16666,0,0,0,127.04017,124.819Z" fill="#fff"/><path d="M92.61161,48.31107a6.654,6.654,0,0,0,3.3318,2.15947,12.38379,12.38379,0,0,1,1.97439-1.04889c.80211-.18509,1.1723-1.35741.1851-1.35741-.8021,0-1.11059.67871-.9872.98723l-1.851-.86383Zm41.03046-5.67642a18.13572,18.13572,0,0,0-6.787,5.9849c3.3935-2.59138,4.56579-2.468,4.56579-2.468a24.77493,24.77493,0,0,1-.06169,4.5658C134.32077,47.69406,133.64207,42.63465,133.64207,42.63465Zm-10.18049,5.67642-2.5914-.12343-1.851.86383a1.003,1.003,0,0,0-1.0489-.92553c-.80209,0-.617.98722.1851,1.29571a9.79492,9.79492,0,0,1,1.9127,1.04889A5.90729,5.90729,0,0,0,123.46158,48.31107ZM137.159,123.39988l-2.89989-3.33178,1.72759,4.01049ZM98.53481,16.96748c1.60419-.18509,2.59139-.5553,2.468-1.78928-.12339-1.48081-1.60419-1.41911-2.52969-1.29571l-2.03609.18509.37019,3.085Z" fill="#fff"/><path d="M126.79337,67.93163a18.19549,18.19549,0,0,1,.55531,2.9616,24.05191,24.05191,0,0,0-4.1339-.43188,31.21935,31.21935,0,0,1,.1234,5.73808,21.05939,21.05939,0,0,0-2.3446-7.65079,12.23072,12.23072,0,0,1,3.3318-.0617,14.324,14.324,0,0,0-.67871-3.39351,13.3833,13.3833,0,0,1,2.9616-.1234,19.13283,19.13283,0,0,0-1.72759-7.404c4.13389,3.27009,6.2317,10.67406,6.2317,10.67406A19.24545,19.24545,0,0,0,126.79337,67.93163ZM128.521,56.27035a19.30086,19.30086,0,0,1,3.3935-.37022c-.24682-.49358-.67872-1.04889-1.04891-1.66589a47.16877,47.16877,0,0,0-7.52739,1.17231,7.92616,7.92616,0,0,1-1.41911,4.936,5.35147,5.35147,0,0,1,1.3574,2.71482s-6.10828,3.33178-3.3935,9.62517c0,0-2.40629-.43188-3.085-.43188a38.28583,38.28583,0,0,0,.18511,4.87429c.2468,1.17231,1.851,8.638-3.702,10.11878-.86379.24679-1.35739-.18509-1.78929-.24679a10.15587,10.15587,0,0,0-6.9721,0,2.461,2.461,0,0,1-1.72759.24679c-5.6147-1.4808-4.0105-9.872-3.7637-11.106-1.6042-.8638-5.92319.30848-5.92319.30848a43.34245,43.34245,0,0,1,1.04889-6.10829c-3.27009.6787-5.36789,1.234-5.36789,1.234.8021-3.20843,1.1723-4.6275,1.1723-4.6275-3.8254.98719-5.18279,2.2212-5.18279,2.2212A21.21459,21.21459,0,0,1,90.20531,59.849a5.45751,5.45751,0,0,1,.617-4.81262,53.58637,53.58637,0,0,0-5.6147-.7404c-.43189.617-.80209,1.234-1.1106,1.66589a9.98262,9.98262,0,0,1,4.1339.37021s-5.73809,4.81259-6.35509,16.53558a14.38179,14.38179,0,0,1,5.05939-2.15948s-1.1106,3.085-.8021,4.19558a32.72522,32.72522,0,0,1,5.8615-1.72759s-1.3574,3.7637-.5553,5.92318a15.60674,15.60674,0,0,1,5.67639-.80207s-1.4191,8.69968,2.34459,10.05706a21.75907,21.75907,0,0,0,8.51459,1.78932,20.42294,20.42294,0,0,0,8.5146-1.78932c3.94879-1.78929,2.34459-10.05706,2.34459-10.05706a12.437,12.437,0,0,1,6.3551.80207c.80211-2.22117-.5553-5.92318-.5553-5.92318a25.5174,25.5174,0,0,1,4.7509.8638,14.53079,14.53079,0,0,0-.7404-2.40629,13.37016,13.37016,0,0,1,5.9849,1.4191C135.06117,66.08065,128.521,56.27035,128.521,56.27035ZM113.89809,46.892l-2.15951-1.11062,5.6147-1.41907Zm5.79979-3.20839c-2.52969-1.04892-10.24219,1.234-10.24219,3.27009l4.38069.92549,6.2934-2.71481,4.9977,3.20842C124.38707,46.08986,120.74679,44.11545,119.69788,43.68357ZM102.1751,46.892l-3.4552-2.52969,5.67639,1.41907Zm-5.7998-3.20839c-1.04889.43188-4.62749,2.3446-5.42959,4.68919l5.05939-3.20842,6.2317,2.71481,4.38069-.92549C106.61749,44.91755,98.8433,42.69635,96.3753,43.68357Z" fill="#fff"/><path d="M139.01,91.2542a23.82547,23.82547,0,0,0,3.7637.30852A10.188,10.188,0,0,1,144.563,87.799a41.16737,41.16737,0,0,1-5.86151-.43191A14.526,14.526,0,0,0,139.01,91.2542Zm-3.8254-4.62749a11.09766,11.09766,0,0,1-3.64029-1.4808,26.115,26.115,0,0,1-1.54249,2.59141,23.68677,23.68677,0,0,0,4.75089,2.4063A14.06285,14.06285,0,0,1,135.18456,86.62671Zm48.49616,17.52279c.3702,1.17228-.49359,1.66589-3.085,1.66589-5.30619,0-13.38887-3.39348-16.41217-6.6019a50.98824,50.98824,0,0,1-13.38889-6.97207,10.24564,10.24564,0,0,0-.67871,1.851c-.06169-.8638-.06169-1.66589-.06169-2.40629a22.64844,22.64844,0,0,1-3.702-3.57861,13.52638,13.52638,0,0,0-.3085,5.1211c2.89991,2.59139,9.0082,7.28058,15.23989,8.26781,0,0-1.54249,3.51687,4.319,5.73808a20.54729,20.54729,0,0,0,1.97439,3.45521,5.70489,5.70489,0,0,0,5.18281.86376,3.769,3.769,0,0,0-.24679-5.05937s3.085,1.54249,1.91268,5.49129c0,0,.98721,1.851,3.94879.92549,0,0,1.35741-3.33179-.12339-5.553a5.19887,5.19887,0,0,1,1.60419,5.86151,3.4599,3.4599,0,0,0,3.1467.18509s1.851-2.9616.30852-5.12111a4.10846,4.10846,0,0,1,1.41909,3.702C187.07422,110.011,187.25933,106.80258,183.68072,104.1495ZM11.59959,136.17175a14.74832,14.74832,0,0,1-1.4191,1.35741,5.94525,5.94525,0,0,0,.9255,4.07222,14.0866,14.0866,0,0,0,.9872-1.17232,4.51885,4.51885,0,0,1-.7404,3.39349,3.81372,3.81372,0,0,0,2.8999,1.97441,11.631,11.631,0,0,0,2.52969-3.20839,9.81106,9.81106,0,0,1-.7404,3.20839,4.30486,4.30486,0,0,0,3.5169.92549,6.63522,6.63522,0,0,0,1.851-2.8999,5.28006,5.28006,0,0,1,.2468,2.03611,5.90908,5.90908,0,0,0,2.5297-1.11059,14.90108,14.90108,0,0,0,.8021-3.45521A14.25632,14.25632,0,0,1,11.59959,136.17175Zm27.64157-18.63337a.06043.06043,0,0,1,.0617.06169,75.68667,75.68667,0,0,1,10.61239-11.66125,14.32191,14.32191,0,0,1-1.851-2.59142A49.36182,49.36182,0,0,0,39.24116,117.53838ZM50.40885,100.756a20.21957,20.21957,0,0,0,2.468,2.59142,80.40764,80.40764,0,0,1,9.19329-6.7253,13.68336,13.68336,0,0,0-2.1595-4.01049A92.27717,92.27717,0,0,0,50.40885,100.756Zm59.97234,5.24454A7.82558,7.82558,0,0,0,103.1623,101.99c-.4936,8.76141-12.64849,12.957-12.64849,12.957s-5.67639.617-7.09549-3.51691c.3085,3.39351,2.3446,7.71249,11.59959,6.47851a12.56028,12.56028,0,0,1,2.8382,1.97441,4.99956,4.99956,0,0,0,4.319-2.65311,8.35591,8.35591,0,0,0-3.085-3.51688,8.51615,8.51615,0,0,1,5.0594,2.89987,4.98884,4.98884,0,0,0,1.29569-2.40629s.55531-2.03608-3.02329-4.4424a9.05261,9.05261,0,0,1,4.56579,2.52972,10.59941,10.59941,0,0,0,1.5425-2.15951,7.02679,7.02679,0,0,0-3.33178-4.3807,11.61518,11.61518,0,0,1,4.319,2.34459A3.671,3.671,0,0,0,110.38119,106.00052Zm-6.787-46.21326s-1.29571,1.17228.30849,2.71478l1.4191-.617.92549.49361.92551-.49361.8638.49361.92549-.49361.9255.49361.8638-.49361,1.41911.617c1.60419-1.6042.30848-2.71478.30848-2.71478l-1.851.98719h-5.1211Zm4.44239-8.14441,4.8126-1.3574h-9.6869Zm-2.89989,32.39247a7.84943,7.84943,0,0,0,5.79978,0l1.97441.55531a6.14934,6.14934,0,0,0,1.9127-6.35509,9.80022,9.80022,0,0,1-3.82541,4.75089L109.9493,82.246l-1.04891.74043-.8021-.74043-.80209.74043-1.04891-.74043-1.11058.74043a10.17634,10.17634,0,0,1-3.82541-4.75089,6.10568,6.10568,0,0,0,1.9744,6.35509ZM101.4964,68.91885c-2.34459-3.94882.18509-8.76141.18509-8.76141a5.1944,5.1944,0,0,0-3.64028.98719C97.79441,67.37636,101.4964,68.91885,101.4964,68.91885Zm16.47389-7.77422a4.982,4.982,0,0,0-3.57859-.98719s2.468,4.81259.18509,8.76141C114.51509,68.91885,118.21708,67.37636,117.97029,61.14463ZM97.42421,59.417l8.39119-1.5425,1.17229-2.65308c-1.35739-1.851-6.97208-4.13392-6.97208-4.13392a18.49217,18.49217,0,0,0-2.52971,1.11062,35.28531,35.28531,0,0,1,4.8126,1.78929l-6.1083-.617h-.18509a3.3864,3.3864,0,0,0-.7404,1.29571c4.7509.98719,8.20609,2.09781,8.20609,2.09781l-7.89759.18509A11.10138,11.10138,0,0,0,97.42421,59.417Zm22.70557-6.17a.47124.47124,0,0,1-.3085.12339l-6.10828.617a36.726,36.726,0,0,1,4.99768-1.78929,17.021,17.021,0,0,0-2.468-1.11062s-5.67639,2.2829-6.97208,4.13392l1.11059,2.65308,8.3912,1.5425a9.45572,9.45572,0,0,0,1.851-2.468L112.479,56.764a84.32689,84.32689,0,0,1,8.3912-2.15951A2.94143,2.94143,0,0,0,120.12978,53.24705Z" fill="#fff"/><path d="M103.40909,39.98157a4.76613,4.76613,0,0,0-1.17229-1.04892s4.87429-.0617,7.52739,1.78932c.9872-.24682,2.2829-.55531,3.57859-.8638a12.5576,12.5576,0,0,0-4.1956-2.65311l.37022,1.3574c-7.46571-3.39348-17.21429-.92549-23.19919,1.91269,1.851.43191,3.3935.92552,3.3935.92552C94.52431,39.056,97.4859,38.37737,103.40909,39.98157ZM19.49718,94.70942A9.5647,9.5647,0,0,1,14.74629,98.288a9.09107,9.09107,0,0,0,6.10829,1.66593c.6787-1.04892,1.6042-2.65312,1.3574-3.64031a4.2663,4.2663,0,0,1,1.4808,3.20839,21.15262,21.15262,0,0,0,3.51689-1.04888,5.13462,5.13462,0,0,0-1.35739-4.44241A12.85616,12.85616,0,0,1,19.49718,94.70942ZM17.15258,93.352a3.90109,3.90109,0,0,1-.7404-2.83821,5.83982,5.83982,0,0,1-5.12109-2.59138,11.01822,11.01822,0,0,0,.4936,6.84869A6.441,6.441,0,0,0,17.15258,93.352Zm.3702-6.29339s1.4191-3.0233,5.8615-5.553a6.181,6.181,0,0,1-1.4191-4.99771,18.75638,18.75638,0,0,0-3.6403,2.09781,5.652,5.652,0,0,0,1.1106,3.8254s-1.7276.49361-3.39349-2.03611a23.47281,23.47281,0,0,0-2.71481,3.0233A6.06009,6.06009,0,0,0,17.52278,87.05862Zm14.99309-8.08271a6.25539,6.25539,0,0,1,1.0489-4.75089,22.90662,22.90662,0,0,0-2.9616.43191,13.30078,13.30078,0,0,1,.9872-1.17231,48.43561,48.43561,0,0,0-4.936,1.17231,8.77109,8.77109,0,0,0,.18511,5.3062A28.78624,28.78624,0,0,1,32.51587,78.97591Zm-3.702,13.94419a5.84345,5.84345,0,0,1,1.5425,3.6403c.5553-.43191,1.234-.8021,1.9127-1.234a4.49165,4.49165,0,0,0-1.6042-3.27012C30.04787,92.36482,29.43087,92.67331,28.81387,92.9201Zm12.03149-5.4296a2.29576,2.29576,0,0,0-.5553-1.234c-1.91269,1.35741-3.64029,2.468-5.18279,3.39349a3.85045,3.85045,0,0,1,1.2957,2.52972C37.637,91.00741,39.11776,89.40322,40.84536,87.4905Zm78.85252-43.807c1.04891.43191,4.6275,2.34463,5.36789,4.68922l-1.60419-.06173a6.3143,6.3143,0,0,1-3.4552,2.15951c.43189.30852.8638.6787,1.2957,1.04892a35.29625,35.29625,0,0,1,7.09549-.7404c-.86379-1.234-1.5425-2.09781-1.5425-2.09781a18.13543,18.13543,0,0,1,6.787-5.9849c-3.085.30852-8.5763,3.27012-8.5763,3.27012a17.828,17.828,0,0,0-5.1211-3.51691c-4.50408-1.41911-11.90807,1.60419-11.90807,1.60419s-7.404-3.0233-11.96979-1.60419a22.48623,22.48623,0,0,0-5.8615,4.25728l-.3085-1.6659a18.72758,18.72758,0,0,0-6.23169-1.91268A18.73251,18.73251,0,0,1,89.15641,48.743s-.6787.86379-1.54249,2.03611a32.52505,32.52505,0,0,1,6.72529.7404,14.35416,14.35416,0,0,1,1.60419-1.04892A5.942,5.942,0,0,1,92.6116,48.311l-1.66589.12343c.8021-2.2829,4.3807-4.319,5.42959-4.75092,2.468-.98719,10.18049,1.234,10.18049,3.33182l-2.4063,1.72759h7.7742l-2.468-1.72759C109.45569,44.91755,117.16819,42.69635,119.69788,43.68354Zm2.5297,8.8848a4.89846,4.89846,0,0,1,.80209,1.6042,66.66707,66.66707,0,0,1,7.15721-.92549c-.49361-.67871-.98722-1.35741-1.41911-2.03611A65.4644,65.4644,0,0,0,122.22758,52.56834Zm-29.12237-.18509a51.69885,51.69885,0,0,0-5.86149-1.17231c-.4319.6787-.92551,1.3574-1.41911,2.03611,1.9127.12339,3.8871.37021,5.7381.6787C92.05631,53.37044,92.6116,52.87683,93.10521,52.38325Z" fill="#ffb819"/><path d="M173.13,100.139a7.75637,7.75637,0,0,1,2.77651-.49361c-6.60189-4.13389-8.021-7.71249-10.73579-10.85919-3.7637.1234-7.58908,3.8254-7.58908,3.8254a8.475,8.475,0,0,1,5.49129-6.35509,25.74629,25.74629,0,0,0-2.2212-2.2829c-5.92319.24679-8.94649,5.3679-10.11879,8.2678a52.63573,52.63573,0,0,0,13.45059,6.97207c3.0233,3.20842,11.04428,6.6019,16.35048,6.6019,2.5914,0,3.45519-.49361,3.14669-1.66589C181.58293,102.5453,178.18943,101.1262,173.13,100.139Zm-16.59727-19.6206a22.70739,22.70739,0,0,0-4.936-2.71478c-4.38069,1.234-7.2189,5.98487-7.2189,5.98487.4319-4.87429,2.5914-7.15715,4.1339-8.20607a46.99825,46.99825,0,0,0-4.68921-8.69969c-.30849,6.54018-2.65308,7.83589-2.65308,7.83589,1.0489-5.42959-.67871-10.67409-1.6659-13.08039a28.09576,28.09576,0,0,0-3.82539-3.27009,12.0406,12.0406,0,0,0-2.59141-.06169,34.17165,34.17165,0,0,1,5.24449,20.361,35.00092,35.00092,0,0,0-6.47848-3.57857s.7404,2.40626.92549,3.57857a12.28375,12.28375,0,0,0-3.45519-1.4808,14.34445,14.34445,0,0,1,.06169,6.17,23.89727,23.89727,0,0,0-5.12109-1.29571c-.4319,4.19561-3.085,8.08271-5.73809,10.85919,6.6636-5.553,7.89759-8.32947,7.89759-8.32947a9.33,9.33,0,0,1-.4319,3.51688,50.179,50.179,0,0,0,7.21889-7.09549,25.88382,25.88382,0,0,1-1.6042,4.01049,9.76708,9.76708,0,0,0,3.64029,1.5425c.8638-3.45518,3.0233-6.787,7.0955-7.71249a12.72849,12.72849,0,0,0-3.57859,8.39119,40.30982,40.30982,0,0,0,5.86149.43192,8.48578,8.48578,0,0,1,2.89989-2.40633,9.52963,9.52963,0,0,0-1.1723,2.71481,19.82931,19.82931,0,0,0,3.702,3.64031A13.52536,13.52536,0,0,1,156.53275,80.51841ZM93.41371,104.458a13.831,13.831,0,0,0-4.13389,1.851,13.96,13.96,0,0,1,1.2957-2.2212,62.53214,62.53214,0,0,0-4.3807-9.19329c-5.1211-.617-9.255,4.62749-9.255,4.62749a10.18271,10.18271,0,0,1,7.404-7.89758c-1.1106-1.97441-1.91269-3.33182-1.91269-3.33182a14.98267,14.98267,0,0,0,.86379-2.9616c-6.60189-3.51688-14.37609,3.085-14.37609,3.085,3.3935-7.52737,11.16769-7.83589,14.62289-7.58907-.1234-2.09781-.617-5.05941-.617-5.05941a34.594,34.594,0,0,0-5.36789,2.9616,36.98457,36.98457,0,0,1,2.40629-14.06758c-3.45519-1.04892-7.95929.30849-7.95929.30849,4.319-2.468,7.3423-3.14669,9.19329-3.27009a23.60566,23.60566,0,0,1,2.0361-3.51688,35.99841,35.99841,0,0,0-4.75089.18509,16.57067,16.57067,0,0,1,3.20839-4.5041c-2.468-.12339-4.319-.18509-4.319-.18509a21.60588,21.60588,0,0,1,4.62749-.55531c-1.851-1.78932-2.96159-5.2445-3.2084-8.2061-.98719.7404-2.03609,1.5425-3.085,2.3446,1.97439,2.59141,1.35739,4.25731,1.35739,4.25731A4.80881,4.80881,0,0,0,73.85483,48.928c-.7404.617-1.4808,1.29571-2.22119,1.97441,5.12109,3.33179,2.65309,8.76138,2.65309,8.76138A6.9561,6.9561,0,0,0,68.672,53.98745a101.26042,101.26042,0,0,0-8.32949,10.18048,52.45178,52.45178,0,0,0-2.5914,12.64851,13.50781,13.50781,0,0,1-.9872-6.787c-.8638,1.41907-1.851,3.0233-2.9616,4.68919a23.198,23.198,0,0,0,1.9744,9.44009,9.09529,9.09529,0,0,1-4.5041-5.553c-.7404,1.17231-1.54249,2.2829-2.4063,3.51688,1.5425,8.32949,5.3679,12.89529,5.3679,12.89529a17.95379,17.95379,0,0,1-8.08269-9.31669,64.19944,64.19944,0,0,1-6.7253,7.34228c.6787,5.05941,5.8615,8.51462,4.4424,12.58681-.8021-3.94879-6.17-5.3679-8.021-9.6869-.4936.43191-3.5169,2.2212-5.1211,3.5786a7.18414,7.18414,0,0,1,4.2573,7.09549s-2.468-4.4424-7.2806-3.94879a10.88154,10.88154,0,0,0-1.91269,8.1444s-3.8254,1.5425-4.7509,1.04889a24.97537,24.97537,0,0,0-1.9744,4.81259,16.25416,16.25416,0,0,0,3.3935,6.41681,6.7444,6.7444,0,0,1-4.2573-2.8382q-.1851.8329-.3702,1.851a13.83809,13.83809,0,0,0,5.1828,4.75089c-3.1467.86383-4.9977-.06169-5.9849-1.11058a26.34612,26.34612,0,0,1-5.42959,10.36557,14.34221,14.34221,0,0,0,13.32719,5.12111c.2468-1.78929.3085-3.57861.617-4.99771-5.553-.30849-6.4168-5.79978-6.4168-5.79978,3.0233,2.89991,5.6764,2.89991,7.0338,2.71478a49.95461,49.95461,0,0,1,2.03609-7.21888,10.25937,10.25937,0,0,1-2.65309-6.23169,13.21329,13.21329,0,0,0,8.51459,6.23169c.2468-.37018.4319-.8021.6787-1.234a10.03366,10.03366,0,0,1-4.5041-6.7253,12.80208,12.80208,0,0,0,5.7998,4.4424c.2468-.37021.49359-.8021.74039-1.17231-4.87429-5.05941-2.59139-11.3528-7.89759-14.00588,6.9721.80209,6.9721,8.0827,10.36559,10.24218a49.362,49.362,0,0,1,8.82309-14.191,16.43825,16.43825,0,0,1-1.66589-9.8103,22.58025,22.58025,0,0,0,3.94879,7.21889,92.27534,92.27534,0,0,1,9.50179-8.14438c-1.4808-1.78929-2.7765-1.66589-2.7765-1.66589a45.37193,45.37193,0,0,1,5.9849-21.1014,17.44412,17.44412,0,0,0-1.851.49361,23.02428,23.02428,0,0,1,8.8848-11.90808,22.29247,22.29247,0,0,0-5.2445,8.45287,27.01519,27.01519,0,0,1,3.4552-1.04889,34.3575,34.3575,0,0,0-4.936,9.99539c2.0978-1.5425,8.45289-5.73808,12.77188-3.64027,0,0-8.69968,1.4808-14.74628,11.35276-.2468,1.35741-.4936,2.468-.5553,3.39349,1.2957-2.15948,5.553-7.95929,11.47619-7.15716,0,0-6.97209,1.11059-9.50179,10.61237,2.0978,2.40629,2.0978,5.3062,4.07219,7.71249.4936-1.29567,3.085-6.54021,9.0699-6.35508a11.34172,11.34172,0,0,0-5.7998,9.99539,20.222,20.222,0,0,0,5.6764,5.36789,7.10852,7.10852,0,0,1,5.553-4.87431s-2.8382,2.1595-2.4063,6.91042c1.7893,1.04889,3.2084,1.72759,3.6403,1.97438.3085-1.11061.7404-2.2829,1.234-3.57857a13.36584,13.36584,0,0,0-.3702,3.88706c1.4191,4.07222,7.0955,3.51691,7.0955,3.51691s12.15488-4.19558,12.64847-12.957C103.1623,101.99,99.5837,104.7665,93.41371,104.458Z" fill="#ffb819"/><path d="M111.862,64.72324c-3.45519-1.29571-3.82539,4.4424-3.82539,6.1083-.0617-1.6659-.3702-7.404-3.8871-6.1083,0,0,2.2212,4.4424.4936,7.404-1.72759,2.83817-.2468,7.21888.80209,7.58906a8.04168,8.04168,0,0,0,2.59141.24682,7.83372,7.83372,0,0,0,2.52969-.24682c1.0489-.37018,2.5297-4.75089.8638-7.58906C109.64079,69.16564,111.862,64.72324,111.862,64.72324Z" fill="#a93439"/><path d="M10.18049,137.52916a14.74832,14.74832,0,0,0,1.4191-1.35741,26.34612,26.34612,0,0,0,5.42959-10.36557c1.0489,1.04888,2.8382,1.97441,5.9849,1.11058a13.24527,13.24527,0,0,1-5.1828-4.75089l.3702-1.851a6.311,6.311,0,0,0,4.2573,2.8382,16.25418,16.25418,0,0,1-3.3935-6.41678,24.97484,24.97484,0,0,1,1.9744-4.81262c.9255.55531,4.7509-.98719,4.7509-.98719a11.11115,11.11115,0,0,1,1.91269-8.2061c4.8126-.43192,7.2806,4.01049,7.2806,4.01049a7.30308,7.30308,0,0,0-4.2573-7.15719c1.6042-1.4191,4.6275-3.14669,5.1211-3.57861,1.851,4.319,7.21889,5.79981,8.021,9.68691,1.4191-4.13389-3.7637-7.5274-4.4424-12.58678a64.20229,64.20229,0,0,0,6.7253-7.34231,17.73042,17.73042,0,0,0,8.08269,9.31669s-3.8254-4.56577-5.3679-12.8953q1.29572-1.75842,2.4063-3.51688a8.94093,8.94093,0,0,0,4.5041,5.553,23.0872,23.0872,0,0,1-1.9744-9.37838c1.1106-1.72759,2.0978-3.33179,2.9616-4.75089a13.427,13.427,0,0,0,.9872,6.787,52.45178,52.45178,0,0,1,2.5914-12.64851A108.74308,108.74308,0,0,1,68.672,54.04915a7.0548,7.0548,0,0,1,5.61469,5.67641s2.5297-5.42962-2.65309-8.76141c.74039-.6787,1.48079-1.35741,2.22119-1.97438a4.80869,4.80869,0,0,1,3.20839,2.59138s.617-1.60419-1.35739-4.19561c1.0489-.86379,2.0978-1.66589,3.085-2.3446.24681,2.89991,1.3574,6.35512,3.2084,8.14441a26.40053,26.40053,0,0,0-4.62749.55531s1.78929.0617,4.319.24679a14.8391,14.8391,0,0,0-3.20839,4.5041,32.20853,32.20853,0,0,1,4.75089-.24679,28.72389,28.72389,0,0,0-2.0361,3.51688c-1.851.12339-4.8743.86379-9.19329,3.33179,0,0,4.5041-1.41911,7.95929-.37019a36.98468,36.98468,0,0,0-2.40629,14.06758,35.07937,35.07937,0,0,1,5.36789-2.89991,40.84759,40.84759,0,0,1,.617,4.99772c-3.4552-.18513-11.29109.12339-14.62289,7.58909,0,0,7.7742-6.54021,14.37609-3.085a16.9427,16.9427,0,0,1-.86379,3.02327s.80209,1.3574,1.91269,3.27012a10.2707,10.2707,0,0,0-7.404,7.89758s4.13389-5.1828,9.255-4.62749a62.53214,62.53214,0,0,1,4.3807,9.19329,13.95955,13.95955,0,0,0-1.2957,2.2212,13.08306,13.08306,0,0,1,4.13389-1.78929,16.47055,16.47055,0,0,0,9.74859-2.468,7.93222,7.93222,0,0,1,7.21889,4.01052,4.39976,4.39976,0,0,1-.86379,2.09778,10.65435,10.65435,0,0,0-4.319-2.3446,7.02682,7.02682,0,0,1,3.33178,4.38071,12.6192,12.6192,0,0,1-1.5425,2.1595,8.52764,8.52764,0,0,0-4.56579-2.52972c3.5786,2.40633,3.02329,4.4424,3.02329,4.4424a4.98912,4.98912,0,0,1-1.29569,2.40633,8.93759,8.93759,0,0,0-5.0594-2.89991,7.99433,7.99433,0,0,1,3.085,3.45519,4.9722,4.9722,0,0,1-4.319,2.71481,14.10136,14.10136,0,0,0-2.8382-1.97441c-9.255,1.234-11.35279-3.085-11.59959-6.47852a12.211,12.211,0,0,1,.4319-3.88706,28.52216,28.52216,0,0,0-1.2957,3.57858,37.86692,37.86692,0,0,1-3.6403-1.97438,7.86007,7.86007,0,0,1,2.468-6.9104,7.00536,7.00536,0,0,0-5.553,4.87429,20.22163,20.22163,0,0,1-5.6764-5.3679,11.06929,11.06929,0,0,1,5.7381-9.93369c-6.0466-.24679-8.5146,4.936-9.0699,6.29342-1.91269-2.40633-1.91269-5.30623-4.07219-7.7125,2.5297-9.50181,9.56349-10.61239,9.56349-10.61239-5.98489-.86383-10.18049,4.99768-11.53789,7.15718.1234-.86379.30851-2.03611.5553-3.39351,6.04659-9.872,14.808-11.35277,14.808-11.35277-4.319-2.09781-10.73578,2.15947-12.83358,3.64027a35.6135,35.6135,0,0,1,4.936-9.93366,27.42765,27.42765,0,0,0-3.4552.98719,21.91321,21.91321,0,0,1,5.3062-8.3912,22.70137,22.70137,0,0,0-8.8848,11.84641,15.37931,15.37931,0,0,1,1.7893-.49361,46.21531,46.21531,0,0,0-5.9849,21.10137,3.76957,3.76957,0,0,1,2.7765,1.66589,10.76291,10.76291,0,0,1,2.1595,4.01053,86.98575,86.98575,0,0,0-9.13159,6.66357,19.55722,19.55722,0,0,1-2.52969-2.52969,22.58053,22.58053,0,0,1-3.9488-7.21888,16.41044,16.41044,0,0,0,1.66589,9.81027,17.67624,17.67624,0,0,0,1.7893,2.59141,86.18728,86.18728,0,0,0-10.55069,11.66126c0-.0617-.0617-.0617-.1234-.1234-3.3318-2.15947-3.39349-9.44008-10.30389-10.18048,5.2445,2.59138,3.0233,8.9465,7.89759,14.00591l-.74039,1.11059a12.63556,12.63556,0,0,1-5.7998-4.38071,9.77592,9.77592,0,0,0,4.5041,6.7253c-.2468.43189-.4319.8021-.6787,1.234a13.811,13.811,0,0,1-8.57629-6.29338,10.5841,10.5841,0,0,0,2.71479,6.29338,52.18346,52.18346,0,0,0-2.09779,7.15719c-1.2957.30849-3.9488.24679-6.9721-2.71481,0,0,.8638,5.49129,6.41679,5.79981-.30849,1.4808-.37019,3.27009-.617,4.99768a16.177,16.177,0,0,1-.7404,3.51691,6.82313,6.82313,0,0,1-2.5914,1.04888,6.31488,6.31488,0,0,0-.1851-1.97441,6.94508,6.94508,0,0,1-1.9127,2.83821,4.08542,4.08542,0,0,1-3.5169-.92549,9.4332,9.4332,0,0,0,.7404-3.1467,10.46359,10.46359,0,0,1-2.52969,3.20839,4.01624,4.01624,0,0,1-2.8999-1.97441,4.61145,4.61145,0,0,0,.7404-3.45518,14.08159,14.08159,0,0,1-.9872,1.17231A6.54614,6.54614,0,0,1,10.18049,137.52916ZM23.63108,99.522a4.05461,4.05461,0,0,0-1.4808-3.20839c.3085.98719-.617,2.59139-1.3574,3.64031a9.00318,9.00318,0,0,1-6.04659-1.6659,8.73247,8.73247,0,0,0,4.68919-3.5786,13.05659,13.05659,0,0,0,6.41679-.67871,4.89405,4.89405,0,0,1,1.2957,4.44241A21.14948,21.14948,0,0,1,23.63108,99.522ZM11.78469,94.77111a11.26228,11.26228,0,0,1-.4936-6.91039,5.83976,5.83976,0,0,0,5.12109,2.59138,3.82827,3.82827,0,0,0,.7404,2.83821A6.30333,6.30333,0,0,1,11.78469,94.77111Zm4.319-14.37609c1.6659,2.468,3.3935,2.03611,3.3935,2.03611a5.6232,5.6232,0,0,1-1.1723-3.8254,23.27945,23.27945,0,0,1,3.702-2.09781,5.779,5.779,0,0,0,1.4191,4.99771c-4.5041,2.52969-5.9232,5.553-5.9232,5.553A5.88362,5.88362,0,0,1,13.38889,83.48,15.20833,15.20833,0,0,1,16.10368,80.395Zm10.5507-5.67639a37.13947,37.13947,0,0,1,4.99769-1.17228,7.78741,7.78741,0,0,0-.9872,1.17228s1.3574-.30852,2.9616-.49361a6.00283,6.00283,0,0,0-1.0489,4.75089,22.03232,22.03232,0,0,0-5.6764,1.11062A8.58915,8.58915,0,0,1,26.65438,74.71863Zm13.574,11.53789a1.6627,1.6627,0,0,1,.5553,1.234,57.85491,57.85491,0,0,1-4.4424,4.6892A3.98257,3.98257,0,0,0,35.04557,89.65,56.44558,56.44558,0,0,0,40.22836,86.25652Zm-7.95929,9.0699c-.6787.43188-1.2957.80207-1.9127,1.234a6.22046,6.22046,0,0,0-1.5425-3.6403c.5553-.30849,1.234-.55528,1.851-.9255A4.76565,4.76565,0,0,1,32.26907,95.32642ZM21.84178,92.9201c-1.851,0-2.9616-.617-2.9616-2.28287,0-5.12111,7.89759-9.56351,14.49949-9.56351h1.1106c.2468,2.09781.5553,4.13388.9255,6.17C30.47977,90.39041,25.54378,92.9201,21.84178,92.9201Zm82.863-86.68841a67.35756,67.35756,0,0,1,67.31465,67.31466,66.11967,66.11967,0,0,1-2.15951,16.90575c-5.73808-6.84869-8.32948-13.63566-18.88018-16.96748C146.72245,62.934,140.36737,56.94905,135.925,53.86405l2.71479-.12339a21.5122,21.5122,0,0,0-3.702-.49361l-.617-.43192c2.9616-3.20839,3.6403-10.67406,2.40629-12.46338-1.35739-1.91268-10.489,1.04892-10.489,1.04892-2.2212-.98722-5.86149-2.468-8.32949-2.2829-2.2212-2.2212-6.84869-6.0466-13.08039-6.35512a14.45634,14.45634,0,0,1,.8638,1.851c-13.08039-1.851-23.87788,5.12111-23.87788,5.12111-2.8382-.18513-2.8382,1.04888-3.0233,1.78929C61.76164,52.63,55.90015,67.68484,48.86635,77.31c-2.77649,2.09781-6.47849,5.05941-10.489,7.89758-.30851-1.4808-.49361-2.9616-.67871-4.5041,2.1595-.43188,3.7637-1.60419,3.7637-4.50407,0-2.34459-2.1595-3.33181-4.07219-3.702A67.3412,67.3412,0,0,1,104.70479,6.23169ZM175.90653,99.6454a7.75637,7.75637,0,0,0-2.77651.49361c5.05941.98719,8.45291,2.40629,10.5507,4.01049,3.57861,2.65308,3.3935,5.86147.92549,7.89758a4.00723,4.00723,0,0,0-1.41908-3.702c1.5425,2.15951-.30851,5.12111-.30851,5.12111a3.5765,3.5765,0,0,1-3.085-.18509,5.23942,5.23942,0,0,0-1.6659-5.92321c1.5425,2.2212.1234,5.553.1234,5.553-2.89991.98722-3.8871-.92549-3.8871-.92549,1.234-3.9488-1.9127-5.4296-1.9127-5.4296a3.69787,3.69787,0,0,1,.24681,4.99768,5.86379,5.86379,0,0,1-5.2445-.80206,25.62251,25.62251,0,0,1-1.9127-3.51691c-5.86149-2.15951-4.38069-5.73808-4.38069-5.73808-6.17-.92553-12.21659-5.61472-15.1782-8.20611a13.90368,13.90368,0,0,1,.30852-5.1828,9.33967,9.33967,0,0,1,1.11059-2.71478,8.48549,8.48549,0,0,0-2.89991,2.40629,9.27966,9.27966,0,0,0-1.72759,3.7637,25.27775,25.27775,0,0,1-3.8254-.30852,14.78825,14.78825,0,0,1-.3085-3.94879,12.47016,12.47016,0,0,1,3.57861-8.3295c-4.0722.92553-6.23169,4.19562-7.0955,7.6508a17.86487,17.86487,0,0,0-.4936,3.51691,20.139,20.139,0,0,1-4.6892-2.4063c.5553-.86382,1.0489-1.72759,1.5425-2.59141a24.41826,24.41826,0,0,0,1.54249-4.01049,53.43088,53.43088,0,0,1-7.15718,7.03379,8.19592,8.19592,0,0,0,.3702-3.45519s-1.234,2.71482-7.83589,8.32947c2.6531-2.83817,5.2445-6.72527,5.6764-10.92088a27.56994,27.56994,0,0,1,5.12109,1.29571,13.481,13.481,0,0,0,0-6.1083,10.46947,10.46947,0,0,1,3.3935,1.4191c-.18509-1.17231-.92551-3.57857-.92551-3.57857a36.758,36.758,0,0,1,6.54019,3.57857,34.26144,34.26144,0,0,0-5.30618-20.361,12.62143,12.62143,0,0,1,2.65308.0617,32.39563,32.39563,0,0,1,3.8254,3.27009c.92551,2.40629,2.6531,7.71249,1.66591,13.14209,0,0,2.3446-1.35741,2.6531-7.89759a49.804,49.804,0,0,1,4.6275,8.69969c-1.5425,1.04891-3.702,3.33178-4.1339,8.2061,0,0,2.89989-4.68923,7.21889-5.92321a27.80279,27.80279,0,0,1,4.9977,2.65309,13.723,13.723,0,0,0-6.5402,11.1677c0,.8021,0,1.5425.0617,2.4063a10.24446,10.24446,0,0,1,.67869-1.851c1.17231-2.83821,4.1956-8.021,10.1188-8.2061l2.22119,2.2212a8.48232,8.48232,0,0,0-5.49129,6.41678s3.7637-3.702,7.5274-3.88709C167.88555,91.9946,169.30464,95.51151,175.90653,99.6454ZM93.10521,52.38325a12.13889,12.13889,0,0,0-1.5425,1.5425c-1.851-.30849-3.82539-.55531-5.7381-.6787.4936-.67871.98721-1.35741,1.41911-2.03611C88.90961,51.45776,91.06911,51.88964,93.10521,52.38325Zm21.40988,16.5356c2.3446-3.94882-.1851-8.76141-.1851-8.76141a5.19442,5.19442,0,0,1,3.6403.98719C118.21708,67.37636,114.51509,68.91885,114.51509,68.91885ZM101.2496,78.23554a10.17635,10.17635,0,0,0,3.8254,4.75089l1.1106-.74043.9872.74043.8638-.74043.80209.74043,1.0489-.74043,1.0489.74043a10.17635,10.17635,0,0,0,3.8254-4.75089,6.1493,6.1493,0,0,1-1.91269,6.35509l-1.97441-.55531a7.84945,7.84945,0,0,1-5.79979,0l-1.97439.55531A6.19555,6.19555,0,0,1,101.2496,78.23554ZM98.04121,61.14463a5.1944,5.1944,0,0,1,3.64028-.98719s-2.52968,4.81259-.18509,8.76141C101.4964,68.91885,97.79441,67.37636,98.04121,61.14463Zm5.12109-10.85918h9.6869l-4.8126,1.3574ZM112.10879,62.502l-1.41909-.617-.8638.49361-.92551-.49361-.86379.49361-.9255-.49361-.9255.49361-.8638-.49361-1.4191.617c-1.6659-1.6042-.30849-2.71478-.30849-2.71478l1.851.98719h5.1211l1.851-.98719S113.77469,60.89784,112.10879,62.502Zm-7.89759,2.2212c3.4552-1.29571,3.8254,4.4424,3.8254,6.1083.06169-1.6659.3702-7.404,3.88709-6.1083,0,0-2.2829,4.4424-.4936,7.404,1.7276,2.83817.2468,7.21888-.80209,7.58909a8.292,8.292,0,0,1-2.5914.24679,8.54731,8.54731,0,0,1-2.59141-.24679c-1.04889-.37021-2.468-4.75092-.80209-7.58909C106.4324,69.16564,104.2112,64.72324,104.2112,64.72324ZM95.26471,54.60445a3.52316,3.52316,0,0,1,.8021-1.2957.21542.21542,0,0,0,.12339.06169l6.17.55531a48.48487,48.48487,0,0,0-4.81259-1.72759,17.68142,17.68142,0,0,1,2.468-1.17231s5.67639,2.34459,6.97208,4.13391l-1.1106,2.71478L97.4859,59.417a9.605,9.605,0,0,1-1.851-2.52969l7.9593-.18509C103.5325,56.764,100.01561,55.59164,95.26471,54.60445Zm25.35868,2.3446a9.45572,9.45572,0,0,1-1.851,2.468l-8.3912-1.5425-1.11059-2.65308c1.29569-1.851,6.97208-4.13392,6.97208-4.13392a17.021,17.021,0,0,1,2.468,1.11062,36.726,36.726,0,0,0-4.99768,1.78929l6.10828-.617a.47124.47124,0,0,0,.3085-.12339,3.77181,3.77181,0,0,1,.80211,1.3574,84.32689,84.32689,0,0,0-8.3912,2.15951Zm9.56349-3.702a66.66688,66.66688,0,0,0-7.1572.92549,4.89858,4.89858,0,0,0-.8021-1.6042,65.464,65.464,0,0,1,6.5402-1.3574C129.19968,51.88964,129.69327,52.56834,130.18688,53.24705Zm-40.29007-8.3295.3085,1.72759a23.54559,23.54559,0,0,1,5.8615-4.319c4.56579-1.4191,11.96979,1.6659,11.96979,1.6659s7.404-3.085,11.90809-1.6659a17.82842,17.82842,0,0,1,5.12109,3.51688s5.42959-2.96157,8.57629-3.20839c0,0,.6787,5.05941-2.28289,8.08271a24.7765,24.7765,0,0,0,.0617-4.5658s-1.1723-.12339-4.56581,2.468c0,0,.67871.9255,1.5425,2.09781a32.00966,32.00966,0,0,0-7.09549.8021,9.662,9.662,0,0,0-1.2957-1.04889A15.291,15.291,0,0,0,118.09369,49.36c-.8021-.30848-.98721-1.29571-.1234-1.29571a1.06485,1.06485,0,0,1,1.0489.92553l1.78929-.86383,2.6531.12343,1.6042.0617-4.99769-3.20843-6.2934,2.71481-4.319-.86379,2.4063,1.72759H104.1495l2.4063-1.72759-4.319.86379-6.29339-2.71481-4.9977,3.20843,1.6042-.0617,2.6531-.12343,1.851.86383a.9545.9545,0,0,1,.9872-.98722c.9872,0,.617,1.234-.1851,1.3574-.55531.30849-1.234.67871-1.9744,1.04889-.4936.30852-1.0489.617-1.5425.98722a33.28112,33.28112,0,0,0-6.787-.6787c.86379-1.17231,1.5425-2.09781,1.5425-2.09781a18.24613,18.24613,0,0,0-5.4296-5.553A20.161,20.161,0,0,1,89.89681,44.91755Zm19.25039-7.71249a11.53374,11.53374,0,0,1,4.1956,2.65311c-1.35741.30849-2.59141.617-3.5786.8638-2.6531-1.851-7.5274-1.78932-7.5274-1.78932a4.76618,4.76618,0,0,1,1.1723,1.04892c-5.9232-1.6042-8.88479-.9255-13.69739,1.4191,0,0-1.54249-.49361-3.3935-.92552,5.9849-2.89988,15.7952-5.30617,23.19919-1.91269ZM86.13311,74.842c-.3085-1.11059.86381-4.19558.86381-4.19558a13.204,13.204,0,0,0-5.1211,2.15947c.617-11.723,6.4168-16.59727,6.4168-16.59727a10.69052,10.69052,0,0,0-4.1339-.30852,14.39681,14.39681,0,0,1,1.0489-1.72759,51.22044,51.22044,0,0,1,5.6147.8021,5.5567,5.5567,0,0,0-.617,4.75092A21.94048,21.94048,0,0,0,84.83742,69.104s1.3574-1.234,5.18279-2.22121c0,0-.37019,1.41908-1.17229,4.6275,0,0,2.09779-.55531,5.30619-1.234a38.76394,38.76394,0,0,0-.9872,6.1083s4.2573-1.17229,5.92319-.30852c-.2468,1.234-1.851,9.6252,3.702,11.106a3.118,3.118,0,0,0,1.7893-.30852,13.9859,13.9859,0,0,1,3.4552-.617,13.98579,13.98579,0,0,1,3.45519.617,2.6874,2.6874,0,0,0,1.78931.30852c5.61468-1.48081,4.01049-8.94648,3.76368-10.18049a37.10373,37.10373,0,0,1-.18509-4.81259c.6787,0,3.085.43189,3.085.43189-2.7765-6.29339,3.39349-9.62518,3.39349-9.62518a5.92553,5.92553,0,0,0-1.3574-2.71481,8.339,8.339,0,0,0,1.3574-4.936,42.85492,42.85492,0,0,1,7.5274-1.17231q.64785.92552,1.11059,1.66589a19.30094,19.30094,0,0,0-3.3935.37022s6.4785,9.8103,6.17,16.72066a13.69935,13.69935,0,0,0-5.98489-1.41907,14.53143,14.53143,0,0,1,.74039,2.40629,34.12269,34.12269,0,0,0-4.75089-.86379s1.3574,3.7637.5553,5.92317a12.59112,12.59112,0,0,0-6.4168-.80206s1.66591,8.26776-2.2829,10.05705a20.42276,20.42276,0,0,1-8.51459,1.78932A20.68972,20.68972,0,0,1,99.5837,88.2309C95.82,86.8735,97.23911,78.17385,97.23911,78.17385a15.32182,15.32182,0,0,0-5.6764.80206c-.8021-2.15947.55531-5.92317.55531-5.92317A45.9826,45.9826,0,0,0,86.13311,74.842ZM104.70479,140.861a67.20081,67.20081,0,0,1-34.49026-9.44009c.8638.0617,1.9127.0617,3.1467.0617a40.9157,40.9157,0,0,0,10.36559-11.106c3.702,3.45518,11.78469,1.234,11.78469,1.234L98.905,122.968a17.27625,17.27625,0,0,0,3.27009-.74043,4.0905,4.0905,0,0,1,1.1723,2.65311,3.96161,3.96161,0,0,0,.8638-3.7637,3.29553,3.29553,0,0,0,1.234-1.5425c.24681-.12339.49361-.30851.74041-.43191a5.3627,5.3627,0,0,1,1.7893,2.52972,4.74557,4.74557,0,0,0,0-4.25731,5.62716,5.62716,0,0,0,.7404-1.4191v-.24679c.18509-.1234.30849-.30849.5553-.49358a5.30589,5.30589,0,0,1,1.5425,2.65308,4.68317,4.68317,0,0,0,.06169-4.81262,6.77113,6.77113,0,0,0,.43191-1.04889,3.79425,3.79425,0,0,0-.0617-.86379c.18509-.18509.37019-.43188.5553-.617a3.58332,3.58332,0,0,1,1.29569,2.65309,6.35814,6.35814,0,0,0,.24681-5.3679,6.24481,6.24481,0,0,0,.49359-2.0978c-1.48079-6.72531-10.92088-6.29339-10.92088-6.29339a18.81507,18.81507,0,0,1-9.1933,2.71478l-1.3574-2.40627c6.47849-.617,7.77419-3.085,13.574-3.085a13.04351,13.04351,0,0,1,9.255,3.39348,41.43093,41.43093,0,0,0,11.723-8.39119c4.936,3.39348,15.61009,2.9616,15.61009,2.9616,5.36788,6.04657,15.17817,9.06987,15.17817,9.06987-.5553,2.52972.37021,3.82542,1.48081,4.56579a5.68006,5.68006,0,0,0,.67869,4.07222A67.65993,67.65993,0,0,1,104.70479,140.861ZM59.84894,120.37658a6.95307,6.95307,0,0,1-2.09779,1.41911,60.78433,60.78433,0,0,1-5.6764-6.29339,70.945,70.945,0,0,1,9.37839-6.29339A22.82538,22.82538,0,0,0,59.84894,120.37658ZM8.638,142.21835l.8021,1.11062-.5553.55527a6.72281,6.72281,0,0,0,1.0489,2.22124A7.58444,7.58444,0,0,1,8.39119,148.45a6.18125,6.18125,0,0,0,3.4552-.67867,7.61338,7.61338,0,0,0,2.5297.617l.3085-.43189,1.11059.617a5.51755,5.51755,0,0,1-1.17229,2.15953,4.69047,4.69047,0,0,0,3.33179-1.4808,4.69165,4.69165,0,0,0,2.5297-.43191,3.86474,3.86474,0,0,1-.5553,1.72759,6.09085,6.09085,0,0,0,3.2084-2.71478,8.79109,8.79109,0,0,0,4.50409-2.03611,94.53842,94.53842,0,0,1,2.4063-16.53557,10.41725,10.41725,0,0,0,8.3295-.43191,87.14774,87.14774,0,0,1,11.16769-11.2911,78.4509,78.4509,0,0,0,5.61469,6.29338,28.24446,28.24446,0,0,0-1.6659,10.11882,11.95227,11.95227,0,0,1-4.0722,9.0699,2.66023,2.66023,0,0,0,.8021,1.72759,4.53874,4.53874,0,0,1-1.1106,2.52969,5.01841,5.01841,0,0,0,2.9616-1.17228l.1234.12339.0617,1.78929a3.70731,3.70731,0,0,0,1.4191.98719,5.12726,5.12726,0,0,1-.5553,2.09781,4.12079,4.12079,0,0,0,2.8382-1.6042s.7404.0617,1.41909.0617l1.41911-1.04892a5.906,5.906,0,0,1-.3702,2.28293,6.69513,6.69513,0,0,0,2.89989-2.468l1.0489-.30849.9255-1.4808a7.9899,7.9899,0,0,1,.0617,1.6042,7.4118,7.4118,0,0,0,1.9127-3.085s.80209-.49358.98719-.617a61.06237,61.06237,0,0,0,.9255-11.16767,70.54082,70.54082,0,0,0,96.12851-20.2993,7.30866,7.30866,0,0,0,2.83821,1.60419,5.04405,5.04405,0,0,1-1.41911,2.40633,6.00037,6.00037,0,0,0,4.9977-1.91272,10.08876,10.08876,0,0,0,2.5914-.30848,5.92413,5.92413,0,0,0,.92549.86379,4.82463,4.82463,0,0,1-1.1723,2.468,4.07933,4.07933,0,0,0,4.5658-1.4808,3.76376,3.76376,0,0,0,1.4808-.55531,5.0007,5.0007,0,0,0,1.1106.617,3.57971,3.57971,0,0,1-1.17229,1.5425,4.061,4.061,0,0,0,4.07218-1.234,3.46364,3.46364,0,0,0,1.6042-.6787.76179.76179,0,0,0,.49361-.24683c-.24681.617-.4319,1.04892-.4319,1.04892,1.41909.1851,2.65309-1.5425,3.27009-2.71481a6.44507,6.44507,0,0,0,2.83819-5.61469c0-6.54021-7.404-8.2678-7.404-8.2678a39.06083,39.06083,0,0,1-9.99537-7.21888,69.85606,69.85606,0,0,0,2.83817-19.80569,70.60669,70.60669,0,0,0-141.16945-2.468c-5.4296.7404-25.66718,4.38071-25.66718,19.80569,0,6.97209,4.8126,11.96977,12.15489,11.96977a19.2923,19.2923,0,0,0,3.8871-.49361s-2.0978,3.33182-1.4191,5.9849c0,0-.8638.92553-4.1956,1.41911-5.12109,6.787-.9255,17.893-11.16769,26.65439a8.97224,8.97224,0,0,0,0,3.6403,4.87379,4.87379,0,0,1-2.71479,1.91268A4.4522,4.4522,0,0,0,8.638,142.21835Z"/><path d="M121.117,29.36917c4.19559,1.4808,6.72528-.8021,6.72528-.8021L125.62109,25.297a3.972,3.972,0,0,1-3.5169.67871,4.42107,4.42107,0,0,1-2.468-5.79981c.92551-2.52969,3.085-4.07219,5.553-3.2084a3.30123,3.30123,0,0,1,2.34459,2.22121l3.51689-1.35741a6.74272,6.74272,0,0,0-4.319-4.13389c-5.05941-1.78932-9.255.55528-10.8592,5.18278A8.11584,8.11584,0,0,0,121.117,29.36917ZM98.4731,13.88249c.92551-.1234,2.4063-.1851,2.52971,1.29571.18509,1.234-.86381,1.60419-2.468,1.78928l-1.7276.1851-.3702-3.085ZM97.79441,26.531l-.67871-6.10829,1.3574-.1851,3.8254,5.79981,4.5658-.49361-4.6892-6.17a4.28945,4.28945,0,0,0,2.7765-4.6892c-.3702-3.20839-2.5914-4.62749-6.54019-4.19558l-6.17.617,1.6659,15.7952Zm56.949,16.22709c-2.77649,1.3574-2.40629,4.01052-2.09779,6.10829.3085,1.72762.43188,2.77651-.49361,3.27012-.92549.43188-1.851-.55531-2.22119-1.3574a3.55556,3.55556,0,0,1,.1234-3.33179l-3.8871-1.11062a7.49193,7.49193,0,0,0,.4936,5.86151c1.66591,3.33179,4.5658,4.6275,7.46568,3.20839,2.96162-1.4808,2.52971-4.07222,2.15951-6.17-.24679-1.6042-.4319-2.59142.49359-3.0233.9255-.49361,1.72761.49361,2.15951,1.234a3.21,3.21,0,0,1,0,2.71478l3.7637,1.04889a7.03724,7.03724,0,0,0-.55531-5.30617C160.85175,43.25166,157.95186,41.15385,154.74345,42.75805Zm-14.62287-.9255,2.40629,2.9616,9.62518-7.89758,2.77651,3.39348,2.6531-2.1595-8.021-9.74857-2.65311,2.1595,2.77651,3.39349ZM139.01,26.71609l-1.04889,4.19558-2.5914-1.851Zm-9.56349,6.10829,2.96162-1.91271,4.62749,3.39348-.86381,3.45522,3.4552,2.52968L143.51406,23.446l-2.52969-1.851L126.053,30.29466ZM113.2811,17.76958l-5.7998-.617-.3085,3.0233,5.79979.617ZM91.99461,27.45649l-1.35739-3.33182-6.9104,2.8999-1.04889-2.52969,6.23168-2.59141-1.41909-3.27009-6.17,2.52969L80.395,18.9419l6.54018-2.71482L85.57781,12.957,75.459,17.09088l6.10829,14.68458ZM67.19123,44.36227,54.296,35.169l-2.2212,3.085L64.97,47.509ZM49.48335,50.34714,60.77444,55.53l1.6042-3.51688L51.02585,46.83026l1.851-3.94879-3.14669-1.4808L44.48565,52.93856l3.14671,1.41907Zm25.297-13.14208a14.17339,14.17339,0,0,0,3.9488-5.4296l-5.42959-6.41678-4.936,4.25728,2.3446,2.71481,2.0978-1.78929,1.3574,1.6042a6.25957,6.25957,0,0,1-1.7893,2.468,4.5053,4.5053,0,0,1-6.54019-.617c-1.2957-1.5425-2.2212-4.38071.3085-6.60188a4.85776,4.85776,0,0,1,3.9488-1.29571l.12339-4.01049s-2.8999-.37022-6.17,2.40629c-4.1339,3.57858-4.50409,8.20608-1.0489,12.2166C65.77213,40.16666,70.70813,40.66027,74.78032,37.20506Zm76.81644,76.44625-6.5402-5.553-1.1723,1.29571,7.7125,6.54018,2.8999-3.39348-1.1723-.98723Zm-6.0466,6.10827-5.7381-6.35509-1.234,1.11059,6.66359,7.5274,3.27009-2.89991-.98721-1.17228Zm-11.29109.30852,2.89989,3.27008-1.17228.74041Zm-1.97439-1.11062,3.82538,9.50178,1.41912-.86376-.92551-2.03611,1.60419-1.04889,1.48081,1.72759,1.4191-.86383-6.97209-7.52737Zm-3.9488,11.66132-.6787.24679-1.1723-2.83821.4936-.24679c.98719-.37022,1.4808-.0617,1.9127.92549C129.32308,129.63157,129.19968,130.24858,128.33588,130.6188Zm-3.4552-6.41682.617-.24679c.6787-.30852,1.234,0,1.54249.8638a1.16665,1.16665,0,0,1-.55529,1.66589l-.55531.18509Zm3.39351,2.2212a2.144,2.144,0,0,0,.30848-2.40629c-.617-1.5425-1.7276-2.15951-3.51689-1.41911l-2.3446.98719,3.8871,9.31669,2.5297-1.04888c1.78929-.74041,2.03609-2.22121,1.41909-3.7637A2.42605,2.42605,0,0,0,128.27419,126.42318Zm-8.51461-.30849-.37019-1.4808-4.936,1.234.3702,1.41911,1.60419-.37022,1.9744,8.32953,1.6659-.37022-1.9744-8.39119Zm-10.79749,9.1316c-.67869.0617-.92549-.30852-.98719-1.04892l-.3702-5.05938c0-.74043.18509-1.11061.86379-1.234.67871,0,.9255.30849.9872,1.04889l.37021,5.12111C109.88759,134.81438,109.64079,135.18456,108.96209,135.24629Zm-.617-8.82311a2.46672,2.46672,0,0,0-2.468,2.77651l.3702,5.18277a2.632,2.632,0,0,0,5.2445-.43188l-.3085-5.1211A2.40652,2.40652,0,0,0,108.34509,126.42318Zm-9.19328,2.468-.617,5.05941c-.06171.74037-.37021,1.11059-1.04891,1.04889-.67869-.1234-.8638-.49361-.80209-1.234l.617-5.05941c.12341-.7404.3702-1.11058,1.04891-.98719C99.02841,127.71889,99.2135,128.15077,99.15181,128.89117Zm-.617-2.71478a2.42184,2.42184,0,0,0-2.9616,2.22117l-.617,5.18281a2.41845,2.41845,0,0,0,2.34459,2.8382,2.33748,2.33748,0,0,0,2.8999-2.2212l.617-5.1828A2.34244,2.34244,0,0,0,98.53481,126.17639Zm-13.88249,7.34228,1.66589.43191,1.234-4.25731,2.22119.6787.4319-1.4191-2.22119-.6787.7404-2.52969,2.9616.92549.4319-1.4191-4.6275-1.41911Zm32.701-89.21813-5.61469,1.41911,2.1595,1.17231Zm-13.0187,1.41911L98.6582,44.30054l3.5169,2.59142Zm18.88019,24.7417a24.05191,24.05191,0,0,1,4.1339.43188,18.19578,18.19578,0,0,0-.5553-2.9616,24.83144,24.83144,0,0,1,4.38069.30849s-2.1595-7.404-6.23169-10.67406a19.95786,19.95786,0,0,1,1.6659,7.404,13.3832,13.3832,0,0,0-2.96159.1234,13.54857,13.54857,0,0,1,.74038,3.39351,10.122,10.122,0,0,0-3.33178.0617,21.56407,21.56407,0,0,1,2.28289,7.65079A31.21935,31.21935,0,0,0,123.21478,70.46135Z"/></svg>