<?xml version="1.0" encoding="UTF-8" standalone="no"?>
<svg xmlns:rdf="http://www.w3.org/1999/02/22-rdf-syntax-ns#" xmlns="http://www.w3.org/2000/svg" height="134.07652" width="257.13095" version="1.1" xmlns:cc="http://creativecommons.org/ns#" xmlns:dc="http://purl.org/dc/elements/1.1/" viewBox="0 0 257.13095 134.07652"><path d="M202.35276,11.93348l5.52763-10.28034H181.32707l-2.16972,2.16971a6.852,6.852,0,0,1-5.011,2.583c-2.11806,0-4.02948-.67158-6.66415-1.91143C162.21282,2.583,156.01361,0,144.28676,0c-10.28037,0-20.76739,2.8413-28.67138,7.85234a44.83042,44.83042,0,0,0-5.26933,4.08114H94.12476c-10.28038,0-35.12889,2.11808-45.66756,21.49062L0,123.51939H50.162l-5.011,9.55713H71.6526l2.16973-2.893c2.37636-3.30625,3.82285-3.82284,6.19921-3.82284,3.82284,0,6.66417.98154,10.28036,2.16971a51.14092,51.14092,0,0,0,18.856,3.56456,63.04228,63.04228,0,0,0,32.02928-8.36895h21.02568c10.28037,0,35.1289-2.11806,45.66757-21.49061l48.25056-89.837H202.35276Z" fill="#fff"/><path d="M182.9802,106.78149s-5.21767,9.81543-21.49062,9.81543H26.0367l47.269-87.92555S78.57506,18.856,94.848,18.856h55.43132l3.56456-.25829,3.82284.25829h72.63415ZM94.12477,15.29138c-32.02929,0-41.32811,16.94454-42.7746,19.78585L5.73427,120.16147H161.95453c32.02928,0,41.37977-16.94452,42.77459-19.8375l45.66756-85.03259Z"/><path d="M209.53354,84.82594l-7.904,5.011h-.46493c-.25831,0-.25831-.2583-.25831-.51661V80.02156l3.61621-6.71582V71.18767l-8.11064,15.0331c0,.25831-.2583.25831-.2583.5166V97.68932l-2.63467,5.26934c-.2583.25829,0,.46493.2583.72324.20664.2583.46494,0,.72324-.25831l2.84131-5.011,9.29883-5.94093c.25829,0,.25829-.2583.51659-.51659l6.45752-12.1918-1.91142,1.18818Z" fill="#fff"/><path d="M220.74378,64.00688l-7.85235,5.011h-.51659c-.20665,0-.20665-.20664-.20665-.46493V59.25416l3.56455-6.71582V50.36861L207.6221,65.19507c0,.2583-.2583.2583-.2583.465V76.66363l-2.84131,5.011c-.25831.25831,0,.51661.20664.72324.2583.25831.51661,0,.72324-.20663l2.893-5.0627,9.29883-5.94091c.2583,0,.2583-.2583.46493-.465l6.45751-12.19178-1.91143,1.18818Z" fill="#fff"/><path d="M232.00568,42.98122l-7.904,5.011c-.25829,0-.46493.2583-.46493,0-.25831,0-.25831-.20664-.25831-.46493V38.2285l3.61622-6.71582V29.343l-8.1623,14.82646c0,.2583-.20664.2583-.20664.465V55.638l-2.893,5.011c-.20665.25831,0,.51661.2583.72324.20665.2583.46494,0,.72324-.20663l2.84131-5.0627,9.35048-5.94091c.20664,0,.20664-.2583.46493-.465l6.45751-12.19178-1.91142,1.18817Z" fill="#fff"/><path d="M244.40413,19.57918A35.84387,35.84387,0,0,0,229.836,27.94813v7.3874l-2.8413,5.011c-.25831.2583,0,.46493.20664.72324.25829.2583.46495,0,.72324-.25831l2.89295-5.011,5.94094-3.82285v-7.6457a60.95217,60.95217,0,0,1,6.92244-3.30624Z" fill="#fff"/><path d="M39.41669,84.82594l-7.904,5.011h-.46494c-.2583,0-.2583-.2583-.2583-.51661V80.02156l2.16973-4.08116V73.82233L26.24335,86.22077c0,.25831-.20664.25831-.20664.5166V97.68932l-2.893,5.011c-.20664.2583,0,.51659.2583.72323.20664.25831.46494,0,.72324-.20664l2.84131-5.011,9.35048-5.99258c.20665,0,.20665-.25829.465-.46493L45.6159,75.21716,43.70448,76.457Z" fill="#fff"/><path d="M54.70809,56.36119l-4.5461,8.369-7.904,5.011h-.46494c-.2583,0-.2583-.2583-.2583-.46494V59.92575l2.16973-4.02949V53.72653L37.247,65.91832c0,.25831-.2583.25831-.2583.465V77.38688l-2.84131,5.011c-.2583.2583,0,.5166.2583.72324.20664.2583.46494,0,.67158-.20664l2.893-5.06269L47.269,71.9109c.2583,0,.2583-.2583.5166-.5166l8.83388-16.47959Z" fill="#fff"/><path d="M45.151,63.542c.20664.20664.46494,0,.72324-.25829l2.84131-5.011,9.29882-5.99257c.2583,0,.2583-.20665.5166-.465l8.83389-16.47958L65.45339,36.5237l-4.54609,8.369-7.904,5.011h-.46494c-.2583,0-.2583-.20663-.2583-.46493V40.13991l2.16973-4.08115V33.889L47.99227,46.08082c0,.25831-.20664.25831-.20664.46495V57.54938l-2.893,5.011C44.89266,63.077,44.89266,63.28366,45.151,63.542Z" fill="#fff"/><path d="M55.638,42.05132c.2583.20665.46494,0,.72324-.25829l2.893-5.011,5.94092-3.82285v-7.439a36.00952,36.00952,0,0,1,6.92246-3.30625l.72324-1.44648a39.15744,39.15744,0,0,0-14.56816,8.83387v6.71582l-2.84131,5.011A1.046,1.046,0,0,0,55.638,42.05132Z" fill="#fff"/><path d="M182.9802,106.7815s-5.21768,9.81543-21.49062,9.81543H26.0367l47.269-87.92555S78.57507,18.856,94.848,18.856h55.43132l3.56455-.25829,4.08115.25829h72.37585Z" fill="#006241"/><path d="M160.55971,69.48287h20.30244l-1.91143,3.82284h21.95556l4.08115-7.3874H158.85492C159.37152,67.1065,160.0431,68.29468,160.55971,69.48287Zm2.37636,18.18437h17.92608l-1.91143,3.82285H191.1425l4.0295-7.3874H163.19437C163.19437,85.29086,162.93607,86.47905,162.93607,87.66724ZM147.64467,47.7856c.46494.46495.72324,1.18819,1.18819,1.65313.46494.72325.98154,1.18818,1.44648,1.91142h30.78944L178.95072,55.173h31.771l4.08116-7.3874Zm-22.9371,36.31709h-47.579L79.04,80.27983H45.3576l-4.0295,7.38741h84.826A14.749,14.749,0,0,0,124.70757,84.10269ZM104.87008,47.7856H77.12858L79.04,43.96275H64.47185l-4.02949,7.3874h45.40926A10.2428,10.2428,0,0,0,104.87008,47.7856Zm9.09219,18.13271H77.12858L79.04,62.09547H55.173l-4.08115,7.3874h65.24676A35.59952,35.59952,0,0,1,113.96227,65.91831Z" fill="#fff"/><path d="M144.08013,3.30622c-9.81544,0-19.37256,2.63469-26.76,7.43907C107.96969,16.6862,103.217,25.5201,103.217,36.05876c0,13.12168,7.12909,24.38359,13.58661,34.14735,5.52763,8.36893,10.53867,16.53124,10.53867,24.38358a20.47531,20.47531,0,0,1-5.73428,13.38,23.41842,23.41842,0,0,1-17.46113,7.18076c-3.82285,0-13.38-.72324-18.6493-6.92247-1.65313-2.16973-2.84131-5.26933-1.18818-8.62724H66.89988L50.62693,129.71859H69.74118l1.18819-1.44648c2.63466-3.82285,5.26933-5.21769,8.83388-5.21769,4.33945,0,7.6457,1.18819,11.26191,2.37637a47.9825,47.9825,0,0,0,17.92607,3.35791c15.03309,0,28.878-5.0627,39.15838-14.36151,9.55713-8.57559,15.08476-19.8375,15.08476-31.04775,0-12.915-7.6457-24.12528-14.36152-33.94071-4.75272-6.92246-9.29883-13.63828-9.29883-18.85595,0-5.52763,3.82285-11.72683,14.30987-11.72683,15.75634,0,17.66776,10.28034,17.66776,10.487l.5166,3.15128H187.7846L199.51145,10.487l2.84131-5.26935h-19.5792l-1.18818.98155a10.1492,10.1492,0,0,1-7.439,3.56454c-2.63468,0-5.011-.92987-7.85236-2.11806A55.384,55.384,0,0,0,144.08013,3.30622Z"/><path d="M184.22,8.57555A13.5232,13.5232,0,0,1,173.93968,13.38c-8.36894,0-12.65674-6.45752-29.85957-6.45752-16.53124,0-37.29861,8.57558-37.29861,29.13632,0,23.1954,24.12529,39.675,24.12529,58.53093,0,10.28036-8.57559,24.12528-26.76,24.12528-17.92606,0-25.10683-10.95194-24.38358-15.75634h-10.952L56.3612,125.89572H67.57145c2.893-4.08114,6.25087-6.66415,11.98515-6.66415,10.487,0,15.29141,5.73428,29.13632,5.73428,30.5828,0,50.6786-21.74893,50.6786-41.58641,0-21.54227-23.66035-38.74511-23.66035-52.79666,0-9.81543,8.11064-15.2914,17.92607-15.2914,19.11425,0,21.23232,13.38,21.23232,13.38h10.53866l10.74531-20.0958Z" fill="#fff"/></svg>