<svg xmlns="http://www.w3.org/2000/svg" viewBox="0 0 179 200" width="179" height="200">
	<style>
		tspan { white-space:pre }
		.shp0 { fill: #0b233f } 
		.shp1 { fill: #ffffff } 
		.shp2 { fill: #5f8eb5 } 
	</style>
	<g >
		<path fill-rule="evenodd" class="shp0" d="M114.32 0.07C118.68 0.1 124 0.19 126.14 0.28C128.28 0.36 131.42 0.5 133.11 0.59C134.81 0.67 137.55 0.84 139.21 0.96C140.86 1.09 143.5 1.32 145.08 1.48C146.65 1.64 148.97 1.91 150.22 2.07C151.47 2.23 153.98 2.59 155.8 2.88C157.62 3.16 160.72 3.72 162.7 4.11C164.68 4.5 167.75 5.17 169.53 5.59C171.31 6.01 174.15 6.74 175.84 7.23C177.54 7.71 178.94 8.13 178.96 8.16C178.98 8.2 177.79 9.03 176.32 10.01C174.85 10.99 172.88 12.37 171.95 13.06C171.02 13.75 169.3 15.11 168.13 16.08C166.96 17.06 165.11 18.68 164.02 19.7C162.93 20.71 161.32 22.29 160.44 23.21C159.56 24.14 158.17 25.68 157.35 26.65C156.52 27.62 155.42 28.98 154.9 29.66C154.38 30.35 153.55 31.51 153.06 32.23C152.57 32.96 151.79 34.18 151.32 34.95C150.86 35.72 150.11 37.07 149.67 37.96C149.22 38.85 148.58 40.27 148.23 41.12C147.88 41.96 147.36 43.45 147.07 44.42C146.77 45.39 146.34 47.14 146.1 48.31C145.87 49.48 145.57 51.46 145.44 52.72C145.25 54.46 145.21 55.86 145.27 58.66C145.31 60.78 145.45 63.11 145.59 64.17C145.72 65.18 146.06 67.13 146.33 68.5C146.6 69.88 147.09 71.96 147.41 73.13C147.74 74.3 148.39 76.38 148.86 77.75C149.34 79.13 150.15 81.27 150.67 82.53C151.18 83.78 152.64 86.88 153.92 89.43C155.19 91.97 156.22 94.07 156.2 94.09C156.18 94.11 155.31 94.39 154.26 94.72C153.21 95.04 151.22 95.53 149.85 95.81C148.48 96.09 146.43 96.45 145.3 96.61C144.17 96.77 142.15 97.01 140.82 97.15C139.32 97.3 136.37 97.42 133.04 97.47C129.73 97.51 126.67 97.48 125.04 97.37C123.58 97.28 121.4 97.1 120.19 96.98C118.98 96.86 116.8 96.59 115.34 96.39C113.89 96.18 111.48 95.79 109.98 95.5C108.49 95.22 106.14 94.73 104.77 94.41C103.4 94.09 101.2 93.53 99.89 93.17C98.58 92.81 96.36 92.15 94.97 91.71C93.58 91.27 91.35 90.52 90.01 90.04C88.68 89.56 86.7 88.8 85.61 88.36C84.52 87.91 82.47 87.04 81.06 86.43C79.64 85.81 78.44 85.31 78.38 85.31C78.32 85.31 78.27 85.37 78.27 85.43C78.26 85.49 79.17 86.14 80.28 86.87C81.4 87.61 83.03 88.64 83.92 89.16C84.81 89.69 86.56 90.65 87.81 91.3C89.06 91.96 91.08 92.93 92.29 93.47C93.5 94.01 95.32 94.78 96.33 95.19C97.34 95.59 99.42 96.34 100.95 96.86C102.49 97.38 104.93 98.13 106.39 98.53C107.84 98.92 110.09 99.48 111.38 99.77C112.67 100.05 114.95 100.48 116.45 100.73C117.94 100.97 120.35 101.3 121.81 101.46C123.26 101.62 125.77 101.83 127.39 101.92C129.22 102.03 132.06 102.06 134.95 102.01C137.49 101.96 140.66 101.82 142 101.69C143.33 101.57 145.24 101.37 146.25 101.24C147.26 101.12 149.28 100.81 150.73 100.57C152.19 100.33 154.45 99.91 158.15 99.12L159.14 99.98C159.68 100.45 160.99 101.73 162.04 102.82C163.09 103.91 164.39 105.42 164.94 106.18C165.48 106.94 166.22 108.12 166.58 108.81C166.93 109.5 167.37 110.52 167.54 111.09C167.77 111.79 167.87 112.5 167.87 113.36C167.87 114.3 167.8 114.81 167.56 115.42C167.39 115.86 167.02 116.54 166.74 116.92C166.46 117.31 165.88 117.89 164.68 118.82L165.78 118.73C166.69 118.65 166.98 118.68 167.4 118.9C167.72 119.07 168.01 119.38 168.19 119.75C168.38 120.17 168.44 120.58 168.41 121.15C168.37 121.79 168.15 122.38 167.42 123.87C166.91 124.92 165.96 126.7 165.31 127.83C164.66 128.96 163.46 130.91 162.63 132.16C161.8 133.41 160.48 135.29 159.69 136.34C158.9 137.39 157.56 139.08 156.71 140.09C155.86 141.1 154.03 143.05 152.65 144.42C151.27 145.8 149.43 147.52 146.95 149.56L148.11 150.06C148.74 150.34 150.39 151.14 151.76 151.84C153.13 152.54 155.25 153.69 156.46 154.4C157.67 155.11 159.51 156.23 160.54 156.88C161.57 157.54 163.43 158.79 164.65 159.67C165.88 160.54 167.84 162.03 169.01 162.97C170.18 163.91 171.83 165.31 172.68 166.08C173.53 166.84 175.01 168.26 175.98 169.23C177.15 170.42 177.84 171.24 178.07 171.73C178.26 172.14 178.41 172.65 178.41 172.87C178.41 173.09 178.31 173.47 178.19 173.72C178.07 173.96 177.79 174.23 177.57 174.32C177.32 174.43 175.42 174.54 172.61 174.61C170.11 174.67 167.5 174.77 166.81 174.82C166.13 174.87 164.57 175.01 163.36 175.12C162.15 175.24 160 175.51 158.59 175.71C157.18 175.92 154.7 176.35 153.08 176.67C151.47 176.99 148.82 177.58 147.21 177.99C145.59 178.4 143.02 179.12 141.48 179.59C139.95 180.06 137.5 180.89 136.05 181.42C134.6 181.96 132.38 182.83 131.13 183.36C129.88 183.88 127.57 184.94 125.99 185.71C124.42 186.48 121.77 187.69 120.12 188.4C118.46 189.11 115.95 190.13 114.54 190.67C113.12 191.21 110.41 192.18 108.52 192.81C106.62 193.44 103.81 194.32 102.28 194.76C100.74 195.2 98.26 195.86 96.77 196.23C95.27 196.6 92.9 197.14 91.48 197.43C90.07 197.72 87.72 198.15 86.27 198.39C84.82 198.63 82.6 198.96 81.35 199.12C80.1 199.28 77.49 199.54 75.55 199.7C72.93 199.93 70.79 200 67.22 200C63.6 200 61.54 199.93 58.92 199.7C57 199.53 54.62 199.24 53.63 199.04C52.64 198.84 51.06 198.42 50.11 198.11C49.16 197.8 47.56 197.2 46.55 196.77C45.54 196.35 44.18 195.74 43.54 195.41C42.89 195.09 41.6 194.39 40.68 193.87C39.75 193.34 38.03 192.29 36.86 191.52C35.69 190.75 33.87 189.48 32.82 188.69C31.77 187.9 30.18 186.65 29.29 185.91C28.41 185.17 26.82 183.78 25.77 182.82C24.72 181.87 22.64 179.84 21.15 178.32C19.65 176.8 17.47 174.46 16.3 173.12C15.13 171.78 13.37 169.7 12.4 168.49C11.42 167.29 10.05 165.54 9.35 164.61C8.65 163.68 7.68 162.16 7.21 161.23C6.73 160.3 6.16 159.02 5.94 158.37C5.65 157.49 5.57 157.03 5.63 156.53C5.68 156.17 5.83 155.76 5.98 155.61C6.16 155.43 6.46 155.35 6.97 155.35C7.38 155.35 8.07 155.48 8.52 155.64C8.96 155.79 10.28 156.38 11.45 156.95C12.62 157.52 14.44 158.32 15.49 158.74C16.54 159.16 18.66 159.92 20.19 160.43C21.73 160.94 24.24 161.7 25.77 162.11C27.31 162.52 29.85 163.12 31.42 163.44C33 163.76 35.41 164.19 36.78 164.39C38.16 164.59 40.27 164.85 41.48 164.97C42.69 165.08 44.68 165.23 45.89 165.28C47.41 165.35 48.05 165.33 47.94 165.23C47.86 165.14 47.1 164.77 46.26 164.39C45.41 164.02 43.26 162.97 41.48 162.06C39.71 161.15 37.26 159.82 36.05 159.11C34.84 158.4 32.89 157.2 31.72 156.45C30.55 155.7 28.56 154.36 27.31 153.46C26.06 152.57 24.18 151.15 23.13 150.32C22.08 149.48 20.39 148.07 19.38 147.18C18.37 146.29 16.42 144.41 15.05 143.01C13.67 141.6 12 139.79 11.33 138.99C10.65 138.18 9.66 136.92 9.11 136.2C8.56 135.47 7.74 134.31 7.28 133.63C6.82 132.94 6.09 131.65 5.65 130.76C5.22 129.88 4.6 128.36 4.27 127.39C3.95 126.42 3.55 125 3.38 124.23C3.22 123.46 3.03 122.07 2.95 121.15C2.86 120.09 2.86 118.82 2.95 117.77C3.02 116.84 3.25 115.42 3.44 114.61C3.63 113.8 3.96 112.71 4.15 112.19C4.35 111.66 4.79 110.67 5.14 109.99C5.48 109.3 6.1 108.24 6.51 107.64C6.91 107.03 7.65 106.04 8.16 105.43C8.66 104.83 9.66 103.77 10.37 103.08C11.09 102.39 12.14 101.46 12.7 101.01C13.27 100.56 14.39 99.74 15.2 99.19C16.01 98.64 16.7 98.17 16.74 98.14C16.78 98.12 16.19 97.45 15.43 96.66C14.66 95.87 13.38 94.43 12.57 93.47C11.77 92.5 10.54 90.94 9.84 90.01C9.15 89.09 8.21 87.76 7.75 87.08C7.3 86.39 6.49 85.1 5.96 84.21C5.42 83.33 4.57 81.74 4.05 80.69C3.54 79.64 2.82 78.02 2.45 77.09C2.09 76.16 1.59 74.74 1.35 73.94C1.11 73.13 0.78 71.81 0.61 71C0.44 70.19 0.23 68.87 0.13 68.06C0.03 67.16 -0.01 65.66 0.04 64.17C0.1 62.64 0.22 61.42 0.37 60.87C0.5 60.38 0.77 59.56 0.98 59.03C1.19 58.51 1.77 57.22 2.28 56.17C2.79 55.12 3.78 53.3 4.48 52.13C5.18 50.96 6.3 49.21 6.97 48.24C7.64 47.27 8.7 45.81 9.32 45.01C9.95 44.2 11.1 42.78 11.88 41.85C12.65 40.92 14.48 38.95 15.93 37.46C17.39 35.97 19.5 33.93 20.63 32.92C21.76 31.91 23.61 30.35 24.74 29.44C25.87 28.54 27.53 27.27 28.41 26.62C29.3 25.98 31.15 24.7 32.53 23.79C33.9 22.87 36.05 21.54 37.3 20.82C38.55 20.1 40.86 18.87 42.44 18.07C44.01 17.27 46.42 16.11 47.8 15.49C49.17 14.87 51.32 13.93 52.57 13.4C53.82 12.88 56.13 11.95 57.71 11.35C59.28 10.75 62.22 9.7 64.24 9.01C66.26 8.33 69.2 7.38 70.78 6.91C72.35 6.44 74.9 5.72 76.43 5.31C77.97 4.9 80.64 4.23 82.38 3.83C84.11 3.43 86.89 2.84 88.55 2.51C90.2 2.19 92.94 1.69 94.64 1.41C96.34 1.13 98.58 0.8 99.63 0.67C100.68 0.53 102.63 0.34 103.96 0.23C105.74 0.08 108.51 0.04 114.32 0.07ZM44.93 78.99C44.33 79.09 43.24 79.33 42.51 79.52C41.78 79.71 40.69 80.08 40.09 80.33C39.48 80.59 38.59 81.03 38.11 81.32C37.62 81.6 36.76 82.21 36.2 82.66C35.64 83.11 34.78 83.99 34.29 84.6C33.81 85.22 33.13 86.26 32.78 86.92C32.44 87.57 32.19 88.16 32.23 88.22C32.27 88.28 36.06 86.85 40.64 85.04C45.22 83.23 50.49 81.15 52.35 80.42C55.08 79.35 55.66 79.08 55.36 78.99C55.16 78.94 54.27 78.85 53.38 78.8C52.49 78.75 51.23 78.68 50.59 78.65C49.94 78.62 48.65 78.64 47.72 78.7C46.79 78.76 45.54 78.89 44.93 78.99Z" />
		<path class="shp1" d="M115.2 4.2C114.55 4.23 112.4 4.32 110.42 4.41C108.45 4.49 105.44 4.66 103.74 4.78C102.05 4.9 99.24 5.13 97.5 5.29C95.77 5.45 92.93 5.75 91.19 5.95C89.45 6.16 86.94 6.49 85.61 6.69C84.28 6.9 81.7 7.36 79.88 7.72C78.06 8.08 75.39 8.68 73.93 9.04C72.48 9.4 70.3 9.99 69.09 10.35C67.88 10.71 65.63 11.43 64.1 11.95C62.56 12.47 60.22 13.32 58.88 13.84C57.55 14.37 55.6 15.17 54.55 15.64C53.5 16.1 51.35 17.12 49.78 17.9C48.2 18.69 45.89 19.91 44.64 20.62C43.39 21.33 41.14 22.73 39.65 23.74C38.15 24.74 35.77 26.36 34.36 27.34C32.95 28.31 30.8 29.85 29.59 30.76C28.38 31.67 26.66 33.03 25.77 33.77C24.88 34.51 23.18 36.02 21.98 37.13C20.78 38.23 19.06 39.93 18.15 40.9C17.24 41.86 15.82 43.45 14.99 44.42C14.16 45.39 12.83 47.04 12.04 48.09C11.26 49.14 10.05 50.86 9.36 51.91C8.67 52.96 7.7 54.54 7.2 55.43C6.71 56.32 6.01 57.64 5.66 58.37C5.31 59.1 4.85 60.12 4.64 60.65C4.43 61.17 4.19 62.13 4.11 62.78C4.03 63.42 3.96 64.5 3.96 65.16C3.96 65.83 4.06 67.12 4.18 68.02C4.3 68.93 4.59 70.44 4.83 71.37C5.06 72.29 5.5 73.72 5.8 74.52C6.09 75.33 6.86 77.08 7.51 78.41C8.16 79.75 9.02 81.4 9.44 82.09C9.85 82.77 10.65 84.03 11.21 84.88C11.77 85.72 12.81 87.18 13.52 88.11C14.23 89.03 15.25 90.32 15.78 90.97C16.32 91.62 17.45 92.89 18.29 93.8C19.13 94.7 19.89 95.45 19.97 95.45C20.05 95.45 21.59 94.55 23.38 93.45C25.18 92.35 26.76 91.34 26.89 91.21C27.01 91.08 27.27 90.41 27.45 89.72C27.64 89.03 28.05 87.85 28.36 87.08C28.68 86.31 29.29 85.09 29.73 84.36C30.17 83.63 30.97 82.48 31.52 81.8C32.07 81.12 33.01 80.16 33.59 79.67C34.18 79.18 35.27 78.4 36.02 77.93C36.76 77.46 38.03 76.82 38.84 76.51C39.65 76.19 41 75.77 41.85 75.56C42.7 75.35 44.15 75.07 45.08 74.94C46.24 74.77 47.76 74.69 49.93 74.69C51.66 74.69 53.88 74.77 54.85 74.88C55.81 74.98 57.6 75.22 58.81 75.42C60.02 75.62 62.07 76.02 63.36 76.3C64.65 76.59 66.83 77.15 68.21 77.54C69.58 77.93 72.09 78.72 73.79 79.3C75.48 79.88 78.03 80.81 79.44 81.38C80.85 81.94 82.94 82.82 84.07 83.34C85.2 83.85 87.05 84.63 88.18 85.07C89.31 85.51 91.09 86.17 92.14 86.54C93.19 86.91 95.01 87.51 96.18 87.88C97.35 88.25 99.4 88.86 100.73 89.22C102.07 89.59 104.11 90.11 105.29 90.38C106.46 90.65 108.41 91.07 109.62 91.31C110.83 91.56 112.91 91.92 114.24 92.13C115.58 92.34 117.82 92.64 119.24 92.79C120.65 92.95 122.83 93.17 124.08 93.27C125.34 93.37 128.69 93.45 131.57 93.45C135.28 93.44 137.59 93.37 139.57 93.19C141.11 93.05 143.49 92.78 144.86 92.58C146.23 92.39 148.02 92.09 148.82 91.92C149.63 91.75 150.31 91.6 150.33 91.59C150.35 91.57 149.81 90.37 149.13 88.91C148.45 87.46 147.46 85.21 146.92 83.92C146.38 82.63 145.51 80.32 144.99 78.78C144.47 77.25 143.78 75.03 143.46 73.86C143.14 72.69 142.66 70.58 142.38 69.16C142.1 67.75 141.76 65.77 141.64 64.76C141.51 63.75 141.34 61.7 141.26 60.21C141.16 58.36 141.16 56.64 141.27 54.85C141.35 53.39 141.52 51.48 141.64 50.59C141.77 49.7 142.04 48.18 142.24 47.21C142.44 46.24 142.83 44.69 143.1 43.76C143.36 42.83 143.83 41.41 144.13 40.6C144.43 39.79 145.02 38.41 145.44 37.52C145.86 36.63 146.61 35.18 147.12 34.29C147.63 33.4 148.72 31.65 149.55 30.4C150.38 29.14 151.86 27.1 152.83 25.84C153.8 24.59 155.48 22.58 156.55 21.37C157.63 20.15 159.43 18.24 160.57 17.11C161.7 15.98 163.42 14.36 164.39 13.5C165.36 12.65 166.83 11.43 167.66 10.79C168.48 10.14 169.15 9.6 169.12 9.59C169.1 9.57 167.83 9.26 166.3 8.9C164.76 8.54 162.19 7.97 160.57 7.65C158.96 7.33 156.21 6.82 154.48 6.54C152.74 6.25 149.8 5.82 147.94 5.58C146.09 5.34 143.08 5.02 141.26 4.85C139.44 4.69 137.03 4.48 135.9 4.39C134.77 4.3 129.91 4.21 125.11 4.19C120.3 4.17 115.84 4.18 115.2 4.2Z" />
		<path class="shp2" d="M105.14 11.56C104.61 11.58 102.4 11.7 100.22 11.82C98.04 11.95 95 12.15 93.46 12.27C91.93 12.39 89.35 12.62 87.74 12.78C86.12 12.95 83.58 13.24 82.08 13.44C80.59 13.64 78.44 13.97 77.31 14.18C76.18 14.38 74.5 14.72 73.57 14.92C72.64 15.13 70.99 15.59 69.9 15.94C68.81 16.3 67.62 16.78 67.25 17C66.69 17.35 65.86 18.47 61.71 24.42C59.02 28.27 56.83 31.49 56.83 31.57C56.83 31.66 57.13 31.69 57.6 31.64C58.02 31.6 59.1 31.5 59.98 31.42C60.87 31.34 61.61 31.29 61.62 31.31C61.63 31.33 57.88 37.07 53.28 44.05C48.67 51.04 44.87 56.79 44.83 56.83C44.79 56.87 43.51 57.1 42 57.34C40.48 57.58 39.2 57.82 39.15 57.86C39.1 57.9 37.81 61.63 36.28 66.15C34.75 70.68 33.51 74.39 33.52 74.42C33.54 74.44 34.91 74.16 36.56 73.8C38.22 73.44 40.66 72.98 42 72.77C43.33 72.57 45.41 72.3 46.62 72.18C47.83 72.05 49.88 71.89 51.17 71.81C52.47 71.73 55.41 71.66 57.71 71.66C60.01 71.66 63.02 71.73 64.39 71.81C65.76 71.89 68.04 72.06 69.46 72.18C70.87 72.31 73.31 72.57 74.89 72.77C76.46 72.97 78.98 73.33 80.47 73.58C81.96 73.83 84.34 74.26 85.76 74.54C87.17 74.82 89.28 75.28 90.45 75.56C91.63 75.84 93.48 76.3 94.57 76.59C95.66 76.88 96.58 77.07 96.62 77.02C96.66 76.96 96.83 73.08 97 68.38C97.16 63.68 97.3 59.82 97.29 59.8C97.29 59.78 96.03 59.56 94.49 59.32C92.96 59.09 91.67 58.85 91.63 58.8C91.59 58.75 91.64 56.89 91.74 54.65C91.85 52.42 92.03 48.57 92.15 46.11C92.26 43.65 92.43 40.41 92.51 38.91C92.6 37.42 92.77 34.91 92.89 33.33C93.01 31.76 93.2 29.71 93.33 28.78C93.45 27.85 93.62 26.84 93.69 26.54L93.83 25.99L99.49 25.99C105.18 14.93 106.84 11.66 106.86 11.59C106.88 11.51 106.72 11.47 106.5 11.48C106.27 11.5 105.66 11.53 105.14 11.56Z" />
		<path class="shp1" d="M99.63 13.6C97.86 13.7 95.08 13.9 93.46 14.02C91.85 14.15 89.57 14.35 88.4 14.47C87.23 14.59 85.18 14.82 83.85 14.99C82.51 15.16 80.23 15.49 78.78 15.73C77.33 15.97 75.28 16.36 74.23 16.6C73.18 16.84 71.69 17.24 70.92 17.48C70.16 17.73 69.14 18.11 68.67 18.33L67.81 18.72C61.8 27.09 60.07 29.55 60.09 29.58C60.12 29.62 61.22 29.55 62.55 29.43C63.89 29.31 65 29.23 65.02 29.25C65.04 29.28 60.76 35.84 55.5 43.83C50.24 51.83 45.88 58.4 45.82 58.44C45.75 58.48 44.52 58.71 43.08 58.94C41.64 59.18 40.44 59.37 40.42 59.38C40.41 59.39 39.43 62.24 38.26 65.71C37.08 69.19 36.14 72.04 36.16 72.05C36.18 72.06 37.15 71.88 38.33 71.65C39.5 71.41 41.61 71.06 43.02 70.86C44.44 70.66 46.75 70.39 48.16 70.25C50.02 70.08 52.76 69.99 58.04 69.95C62.06 69.92 65.35 69.88 65.35 69.86C65.36 69.84 65.84 66.92 66.43 63.36C67.35 57.73 67.46 56.89 67.26 56.81C67.14 56.76 65.71 56.67 64.1 56.61C62.48 56.55 61.11 56.48 61.05 56.45C60.99 56.41 61.12 56.02 61.34 55.58C61.67 54.92 61.82 54.77 62.11 54.77C62.32 54.77 65.36 54.91 68.87 55.08C72.38 55.25 75.28 55.4 75.3 55.41C75.32 55.42 75.29 55.82 75.23 56.29L75.11 57.15C71.81 57.01 70.5 56.94 70.08 56.9C69.43 56.84 69.3 56.87 69.25 57.09C69.21 57.23 68.83 60.23 68.4 63.76C67.97 67.28 67.65 70.2 67.69 70.24C67.73 70.28 68.92 70.42 70.34 70.55C71.75 70.68 74.23 70.95 75.84 71.16C77.46 71.36 80.1 71.76 81.72 72.03C83.33 72.3 85.81 72.76 87.22 73.06C88.64 73.35 90.95 73.88 92.36 74.23C93.78 74.58 94.94 74.86 94.96 74.84C94.97 74.83 95.09 71.78 95.22 68.06C95.36 64.35 95.44 61.29 95.42 61.27C95.39 61.25 94.25 61.07 92.88 60.87C91.5 60.66 90.25 60.47 90.09 60.43C89.81 60.37 89.8 60.26 89.83 58.71C89.85 57.79 89.93 54.87 90.02 52.2C90.1 49.54 90.27 45.54 90.39 43.32C90.51 41.1 90.71 37.99 90.83 36.42C90.95 34.84 91.15 32.63 91.27 31.5C91.39 30.37 91.66 28.42 91.87 27.17C92.08 25.91 92.31 24.74 92.38 24.56C92.51 24.23 92.55 24.23 95.48 24.19L98.46 24.16C102.62 16.08 103.86 13.65 103.9 13.55C103.94 13.42 103.8 13.37 103.41 13.38C103.11 13.39 101.41 13.49 99.63 13.6Z" />
		<path class="shp0" d="M97.65 15.66C97.12 15.69 95.51 15.78 94.05 15.86C92.6 15.95 90.12 16.15 88.55 16.31C86.97 16.47 84.72 16.73 83.55 16.89C82.38 17.06 80.47 17.35 79.29 17.56C78.12 17.76 76.14 18.15 74.89 18.43C73.64 18.71 71.82 19.17 70.85 19.45C69.88 19.74 69.08 19.99 69.08 20.01C69.07 20.03 68.19 21.28 67.13 22.8C66.07 24.31 65.16 25.65 65.12 25.77C65.08 25.89 65.1 25.99 65.16 25.99C65.22 25.99 66.79 25.65 68.65 25.25C70.51 24.84 72.08 24.53 72.16 24.55C72.23 24.58 72 24.93 71.66 25.33C71.31 25.73 70.39 26.86 69.61 27.83C68.83 28.8 67.59 30.38 66.87 31.35C66.14 32.32 64.63 34.4 63.52 35.98C62.41 37.55 60.49 40.36 59.26 42.22C58.03 44.07 56.16 46.95 55.11 48.6C54.06 50.26 52.09 53.47 50.74 55.73C49.38 57.99 48.23 59.89 48.18 59.95C48.13 60.01 46.77 60.3 45.15 60.58C43.54 60.87 42.18 61.15 42.13 61.2C42.07 61.26 41.53 62.83 40.91 64.68C40.3 66.54 39.8 68.13 39.8 68.21C39.8 68.3 40.32 68.26 41.15 68.11C41.9 67.97 43.6 67.76 44.93 67.63C46.27 67.5 49.31 67.35 51.69 67.31C54.08 67.26 57.66 67.29 59.69 67.38C61.71 67.47 63.4 67.5 63.44 67.45C63.48 67.41 63.79 65.68 64.13 63.6C64.47 61.53 64.73 59.83 64.71 59.81C64.7 59.8 62.85 59.73 60.61 59.67C58.37 59.6 56.55 59.5 56.57 59.44C56.59 59.37 57.47 57.73 58.52 55.79L60.43 52.26C70.33 52.37 74.03 52.47 75.04 52.57C76.05 52.66 77.2 52.78 77.61 52.84L78.34 52.94L78.41 60.65C77.33 60.53 75.8 60.4 74.3 60.28C72.81 60.16 71.57 60.08 71.55 60.1C71.52 60.12 71.34 61.88 71.14 64.02C70.94 66.16 70.8 67.93 70.82 67.96C70.84 67.98 71.61 68.06 72.54 68.14C73.47 68.21 75.15 68.38 76.28 68.51C77.41 68.63 79.43 68.9 80.76 69.1C82.1 69.3 84.47 69.73 86.05 70.05C87.62 70.37 89.77 70.86 90.82 71.14C91.87 71.42 92.76 71.61 92.8 71.57C92.84 71.52 92.94 69.58 93.02 67.25C93.1 64.92 93.14 62.98 93.1 62.94C93.06 62.9 91.96 62.68 90.65 62.45L88.28 62.04C88.11 56.69 88.11 53.45 88.16 51.4C88.22 49.34 88.33 46.36 88.41 44.79C88.49 43.21 88.65 40.64 88.77 39.06C88.89 37.49 89.16 34.58 89.37 32.6C89.58 30.62 89.96 27.55 90.21 25.77L90.67 22.54L97.36 22.39C99.86 17.27 100.58 15.74 100.58 15.68C100.59 15.61 100.14 15.58 99.6 15.59C99.05 15.61 98.17 15.64 97.65 15.66Z" />
		<path class="shp1" d="M78.22 27.79C77.37 28.7 75.97 30.27 75.11 31.28C74.24 32.29 72.86 33.97 72.03 35.02C71.2 36.07 69.95 37.76 69.24 38.77C68.54 39.78 67.54 41.3 67.04 42.14C66.53 42.99 65.88 44.16 65.59 44.75C65.29 45.34 65.05 45.88 65.05 45.96C65.05 46.06 67.38 46.11 71.73 46.11L78.41 46.11C78.53 44.8 78.86 40.59 79.22 35.9C79.58 31.22 79.9 27.11 79.93 26.76C79.96 26.42 79.94 26.14 79.87 26.14C79.81 26.14 79.07 26.88 78.22 27.79Z" />
		<path class="shp2" d="M73.61 36.39C71.25 39.59 69.12 42.5 68.87 42.84L68.43 43.47L76.57 43.39C77.64 34.63 77.99 31.74 78.03 31.31C78.07 30.89 78.06 30.55 78 30.55C77.95 30.55 75.97 33.18 73.61 36.39Z" />
		<path class="shp1" d="M73.9 38.95C73.1 40.02 72.34 41.08 72.2 41.3L71.95 41.7C74.34 41.7 75.04 41.65 75.04 41.59C75.04 41.53 75.13 40.66 75.25 39.65C75.37 38.64 75.49 37.63 75.52 37.41C75.55 37.19 75.52 37 75.46 37C75.4 37 74.69 37.88 73.9 38.95ZM110.47 118.9C110.3 119.29 109.78 120.4 109.32 121.37L108.47 123.13C111.52 130.13 112.37 132.18 112.33 132.21C112.29 132.24 110.67 132.4 108.74 132.56C106.8 132.72 105.18 132.83 105.14 132.79C105.1 132.76 105.18 132.09 105.32 131.31C105.47 130.52 105.58 129.77 105.58 129.63C105.58 129.48 104.85 127.73 103.95 125.73C103.05 123.74 102.24 122.02 102.15 121.93C102.06 121.83 100.63 121.18 98.97 120.49C97.32 119.8 95.89 119.23 95.81 119.24C95.73 119.24 95.09 120.46 94.38 121.95L93.1 124.67C96.16 131.33 97.03 133.28 97.02 133.3C97 133.32 95.34 133.4 93.32 133.47C91.3 133.55 89.63 133.6 89.61 133.58C89.59 133.57 89.81 132.86 90.09 132.01L90.6 130.47C87.28 123.98 86.24 122.03 86.14 121.94C86.05 121.85 84.62 121.44 82.97 121.03C81.31 120.62 79.91 120.33 79.86 120.38C79.8 120.44 79.18 121.54 78.48 122.83L77.19 125.18L81.16 133.99C78.06 134.06 76.23 134.06 75.09 134.03L73.02 133.99C74.01 131.38 74.3 130.52 74.3 130.4C74.3 130.28 73.49 128.4 72.5 126.24L70.7 122.3C69.22 121.87 67.71 121.41 66.37 121.01C65.04 120.6 63.9 120.32 63.85 120.38C63.8 120.44 63.12 121.59 62.34 122.94C61.57 124.3 60.94 125.45 60.94 125.51C60.94 125.57 61.72 127.51 62.67 129.81L64.41 133.99C62 134.07 59.82 134.02 58 133.93C56.19 133.84 53.15 133.63 51.25 133.47C49.35 133.31 46.94 133.08 45.89 132.96C44.84 132.84 42.76 132.57 41.26 132.37C39.77 132.17 36.96 131.73 35.02 131.41C33.08 131.08 30.04 130.52 28.27 130.16C26.49 129.79 23.32 129.08 21.22 128.57C19.12 128.05 16.67 127.43 15.79 127.17C14.9 126.92 14.1 126.74 14.02 126.77C13.94 126.8 14.74 127.26 15.79 127.78C16.84 128.31 18.52 129.07 19.53 129.48C20.54 129.89 22.29 130.53 23.42 130.9C24.55 131.28 26.67 131.9 28.12 132.29C29.57 132.69 32.02 133.27 33.55 133.6C35.09 133.93 37.7 134.44 39.35 134.72C41.01 135 43.82 135.43 45.59 135.67C47.37 135.91 50.51 136.28 52.57 136.48C54.63 136.69 57.7 136.95 59.4 137.07C61.09 137.2 63.84 137.36 65.49 137.44C67.15 137.53 69.08 137.59 69.79 137.59L71.07 137.59C81.25 156.65 84.36 162.6 84.54 163.11C84.72 163.61 84.98 164.63 85.11 165.38C85.28 166.35 85.32 167.15 85.26 168.17C85.21 168.96 85.1 169.74 85.02 169.9C84.92 170.11 84.3 170.38 82.78 170.87C81.63 171.24 79.68 171.8 78.45 172.11C77.22 172.43 75.14 172.88 73.82 173.12C72.51 173.36 70.25 173.69 68.8 173.85C67.34 174.02 64.63 174.22 62.77 174.29C60.73 174.37 58.02 174.37 55.91 174.29C53.99 174.22 51.12 174.02 49.52 173.86C47.93 173.69 45.73 173.43 44.64 173.26C43.55 173.1 41.57 172.77 40.23 172.52C38.9 172.28 36.95 171.88 35.9 171.64C34.85 171.41 32.87 170.92 31.5 170.56C30.12 170.21 27.78 169.54 26.28 169.08C24.79 168.62 22.44 167.83 21.07 167.32C19.7 166.82 18.05 166.19 17.4 165.93C16.75 165.66 15.91 165.41 15.53 165.36C14.93 165.28 14.83 165.31 14.83 165.53C14.83 165.67 15.01 166 15.23 166.25C15.46 166.51 16.23 167.18 16.96 167.74C17.69 168.3 18.84 169.1 19.53 169.52C20.22 169.95 21.54 170.68 22.47 171.15C23.4 171.61 24.68 172.22 25.33 172.5C25.98 172.78 27.38 173.33 28.45 173.73C29.52 174.13 31.64 174.81 33.15 175.24C34.66 175.68 37.09 176.31 38.55 176.63C40 176.96 42.54 177.46 44.2 177.74C45.85 178.02 47.97 178.35 48.9 178.48C49.83 178.6 51.58 178.82 52.79 178.96C54.47 179.15 56.11 179.22 59.69 179.21C62.28 179.21 65.28 179.13 66.37 179.03C67.46 178.93 69.45 178.71 70.78 178.55C72.11 178.38 74.16 178.08 75.33 177.88C76.5 177.68 78.68 177.25 80.18 176.92C81.67 176.6 83.82 176.07 84.95 175.75C86.08 175.43 87.73 174.94 88.62 174.65C89.51 174.35 91.59 173.6 93.24 172.97C94.9 172.34 98.24 171.11 100.66 170.22C103.08 169.34 106.39 168.21 108 167.72C109.62 167.22 112.13 166.49 113.58 166.1C115.04 165.7 117.61 165.07 119.31 164.69C121 164.31 123.38 163.81 124.6 163.58C125.81 163.35 127.92 163 129.29 162.79C130.67 162.59 132.98 162.29 134.43 162.13C135.89 161.96 138.17 161.75 139.5 161.66C140.83 161.56 143.94 161.48 146.4 161.48C148.86 161.48 151.87 161.56 153.08 161.66C154.29 161.76 156.41 162 157.78 162.19C159.15 162.38 160.41 162.59 160.57 162.66C160.75 162.73 160.83 162.71 160.77 162.63C160.72 162.55 159.87 162.11 158.87 161.65C157.87 161.2 156.35 160.58 155.51 160.29C154.66 159.99 153.24 159.56 152.35 159.32C151.46 159.08 149.77 158.73 148.6 158.53C147.43 158.33 145.48 158.09 144.27 157.99C142.98 157.89 141.11 157.86 139.76 157.91C137.59 158 137.4 157.98 136.82 157.69C136.48 157.52 135.77 157.1 135.24 156.76C134.72 156.42 133.79 155.72 133.19 155.19C132.58 154.66 131.61 153.68 131.04 153C130.46 152.32 129.63 151.23 129.2 150.59C128.76 149.94 126.67 146.04 124.56 141.92C122.44 137.8 120.71 134.35 120.71 134.25C120.71 134.15 120.75 134.07 120.81 134.07C120.87 134.07 122.21 133.84 123.79 133.56C125.36 133.28 127.81 132.81 129.22 132.52C130.63 132.22 132.98 131.69 134.43 131.33C135.89 130.97 137.97 130.42 139.06 130.1C140.15 129.79 141.93 129.22 143.02 128.85C144.11 128.48 145.7 127.89 146.55 127.54C147.4 127.19 148.77 126.57 149.59 126.16C150.42 125.74 151.08 125.37 151.06 125.32C151.04 125.27 149.87 125.54 148.46 125.91C147.04 126.27 144.8 126.83 143.46 127.15C142.13 127.47 139.42 128.06 137.44 128.47C135.47 128.87 132.06 129.5 129.88 129.86C127.7 130.22 124.6 130.69 122.98 130.9C121.36 131.11 120.01 131.25 119.97 131.2C119.93 131.16 120.08 130.51 120.31 129.77L120.73 128.41L116.59 120.12C112.32 118.72 111.02 118.29 110.93 118.25C110.85 118.22 110.64 118.51 110.47 118.9Z" />
		<path class="shp0" d="M111.37 121.99C111.06 122.7 110.81 123.34 110.81 123.42C110.81 123.5 111.62 125.25 112.6 127.31L114.39 131.06C115.81 130.99 116.54 130.95 116.92 130.91C117.59 130.84 117.63 130.81 117.77 130.29C117.85 129.98 117.99 129.37 118.08 128.93L118.24 128.12L115.31 121.81C113.06 120.97 112.3 120.72 112.17 120.71C112.02 120.71 111.75 121.14 111.37 121.99ZM96.11 123.14C95.6 124.22 95.54 124.45 95.68 124.79C95.76 125.01 96.52 126.69 97.37 128.52L98.9 131.86C101.29 131.86 102.11 131.83 102.28 131.78C102.52 131.72 102.6 131.5 102.75 130.46L102.94 129.22L100.57 123.42C97.74 122.23 96.87 121.88 96.81 121.89C96.74 121.89 96.43 122.46 96.11 123.14ZM64.21 123.97L63.62 125.18L66.9 132.53L70.63 132.6C70.87 131.63 71 131.17 71.08 130.95C71.2 130.6 71.02 130.08 69.74 127.13L68.26 123.72C65.72 122.97 64.94 122.76 64.89 122.76C64.85 122.76 64.54 123.31 64.21 123.97ZM80.67 123.6C80.46 124.07 80.21 124.61 80.1 124.82C79.93 125.15 80.04 125.48 81.56 128.85L83.2 132.53L87 132.61L87.62 130.47L84.62 123.86C82.03 123.01 81.22 122.76 81.16 122.76C81.1 122.76 80.87 123.14 80.67 123.6ZM110.87 135.27C108.08 135.59 105.78 135.86 105.76 135.88C105.74 135.89 107.65 139.47 110.01 143.83C112.36 148.19 114.62 152.26 115.02 152.86C115.42 153.47 116.49 154.7 117.39 155.6C118.48 156.69 119.5 157.55 120.48 158.19C121.29 158.72 122.18 159.26 122.47 159.4C122.96 159.65 123.05 159.65 124.93 159.31C126.76 158.98 126.89 158.93 126.99 158.59C127.05 158.39 127.08 157.5 127.07 156.61C127.06 155.51 126.96 154.64 126.76 153.89C126.59 153.29 126.26 152.26 126.01 151.62C125.76 150.97 123.68 146.91 121.38 142.58L117.21 134.73C116.22 134.69 113.65 134.94 110.87 135.27ZM94.57 136.6C92.43 136.68 90.64 136.76 90.6 136.79C90.56 136.82 93.04 141.36 96.11 146.88L101.69 156.9C104.42 159.65 105.77 160.87 106.46 161.38C107.15 161.88 107.99 162.44 108.33 162.61L108.95 162.92L112.62 161.75C112.89 160.22 112.93 159.28 112.88 158.44C112.83 157.68 112.69 156.65 112.55 156.17C112.42 155.68 112.14 154.85 111.92 154.32C111.7 153.79 109.48 149.54 106.97 144.88L102.42 136.42C99.35 136.45 96.71 136.53 94.57 136.6ZM75.04 137.37C75.04 137.41 77.82 142.55 81.23 148.79C85.58 156.76 87.66 160.43 88.24 161.15C88.69 161.71 89.75 162.86 90.6 163.7C91.45 164.55 92.7 165.61 93.39 166.07C94.08 166.53 94.84 166.96 95.08 167.01C95.4 167.09 95.95 166.97 97.14 166.56C98.73 166.01 98.75 166 98.95 165.42C99.05 165.09 99.14 164.18 99.14 163.36C99.15 162.34 99.05 161.47 98.82 160.5C98.56 159.4 98.2 158.54 97.12 156.46C96.38 155.01 93.82 150.12 91.44 145.59L87.11 137.37C77.76 137.31 75.04 137.33 75.04 137.37Z" />
		<path class="shp2" d="M131.43 150.29C131.42 150.33 131.77 150.87 132.19 151.49C132.62 152.11 133.5 153.12 134.15 153.73C134.81 154.34 135.89 155.18 136.57 155.58C137.65 156.23 137.88 156.31 138.54 156.29C138.94 156.27 140.67 156.24 142.36 156.23C144.63 156.21 145.88 156.26 147.06 156.44C147.95 156.58 149.44 156.86 150.37 157.06C151.29 157.27 152.93 157.73 154 158.09C155.07 158.45 155.95 158.67 155.95 158.59C155.95 158.51 155.63 158.17 155.25 157.84C154.86 157.51 154.06 156.91 153.45 156.51C152.84 156.1 151.49 155.36 150.44 154.85C149.39 154.34 147.57 153.59 146.4 153.19C145.23 152.79 143.45 152.26 142.44 152.01C141.43 151.76 139.71 151.39 138.62 151.19C137.53 150.99 135.71 150.72 134.58 150.6C133.45 150.47 132.28 150.33 131.98 150.29C131.67 150.25 131.43 150.25 131.43 150.29ZM121.29 151.1C120.04 151.32 118.54 151.58 117.95 151.67L116.89 151.84C117.72 153.03 118.27 153.73 118.64 154.16C119.01 154.59 119.77 155.34 120.34 155.82C120.9 156.3 121.79 157 122.32 157.36L123.27 158.03L125.48 157.82C125.32 155.74 125.16 154.61 125.03 153.96C124.9 153.32 124.6 152.31 124.36 151.73C124.13 151.14 123.85 150.67 123.75 150.67C123.65 150.68 122.54 150.87 121.29 151.1ZM106.31 155.04C104.74 155.49 103.47 155.89 103.49 155.94C103.51 155.98 103.92 156.5 104.41 157.09C104.89 157.67 105.81 158.56 106.45 159.07C107.09 159.57 107.94 160.16 108.32 160.37L109.03 160.75L111.09 160.28C111.15 158.8 111.07 157.87 110.94 157.27C110.81 156.66 110.5 155.72 110.24 155.17C109.87 154.41 109.7 154.18 109.47 154.2C109.31 154.21 107.89 154.59 106.31 155.04ZM93.31 159.58C91.7 160.2 90.35 160.72 90.31 160.75C90.27 160.78 90.66 161.23 91.19 161.76C91.71 162.29 92.7 163.15 93.39 163.67C94.08 164.19 94.9 164.75 95.23 164.93L95.81 165.25L97.7 164.54C97.55 162.6 97.38 161.55 97.23 160.94C97.08 160.33 96.79 159.53 96.6 159.15L96.24 158.47L93.31 159.58ZM12.55 161.31C12.72 161.45 13.84 162.05 15.05 162.63C16.26 163.22 18.18 164.09 19.31 164.57C20.44 165.05 22.42 165.83 23.71 166.3C25.01 166.77 26.99 167.44 28.12 167.8C29.25 168.15 31.43 168.76 32.97 169.16C34.5 169.56 36.88 170.11 38.25 170.39C39.63 170.67 41.61 171.04 42.66 171.2C43.71 171.37 45.76 171.63 47.21 171.8C48.66 171.96 50.99 172.16 52.39 172.24C53.78 172.32 56.26 172.39 57.89 172.39C59.53 172.39 61.96 172.33 63.29 172.24C64.62 172.16 66.67 172 67.84 171.87C69.01 171.75 71.19 171.45 72.69 171.21C74.18 170.97 76.46 170.54 77.75 170.25C79.04 169.96 80.83 169.53 81.72 169.29C82.61 169.05 83.4 168.79 83.48 168.71C83.56 168.63 83.62 168.02 83.61 167.36C83.6 166.69 83.51 165.86 83.41 165.49C83.31 165.13 83.1 164.5 82.95 164.1L82.67 163.36C79.31 164.31 77.28 164.82 75.99 165.11C74.7 165.4 72.48 165.83 71.07 166.07C69.66 166.32 67.41 166.65 66.08 166.81C64.75 166.97 62.4 167.2 60.87 167.33C59.33 167.45 56.36 167.59 54.26 167.64C52.01 167.7 48.96 167.66 46.84 167.56C44.86 167.47 42.22 167.29 40.97 167.17C39.72 167.06 37.67 166.82 36.42 166.66C35.16 166.5 33.15 166.2 31.94 166C30.73 165.8 28.78 165.44 27.61 165.2C26.44 164.96 24.25 164.46 22.76 164.09C21.27 163.72 19.35 163.22 18.5 162.98C17.65 162.74 16 162.24 14.83 161.87C13.66 161.5 12.6 161.17 12.48 161.13C12.34 161.09 12.37 161.16 12.55 161.31ZM140.75 163.24C140.34 163.26 139.19 163.35 138.18 163.44C137.17 163.52 135.29 163.73 133.99 163.89C132.7 164.05 130.62 164.35 129.37 164.55C128.12 164.75 125.8 165.17 124.23 165.49C122.65 165.81 119.91 166.43 118.13 166.87C116.36 167.31 113.85 167.98 112.55 168.36C111.26 168.73 109.38 169.3 108.37 169.63C107.36 169.95 105.58 170.55 104.4 170.95C103.23 171.35 100.39 172.43 98.09 173.34C95.79 174.26 92.78 175.37 91.41 175.82C90.04 176.27 88.05 176.88 87 177.17C85.95 177.47 83.91 177.99 82.45 178.35C81 178.7 78.69 179.21 77.31 179.5C75.94 179.78 73.66 180.14 72.25 180.31C70.83 180.47 68.69 180.69 67.47 180.79C66.22 180.9 62.91 180.98 59.76 180.98C56.47 180.98 53.4 180.91 52.13 180.79C50.96 180.69 48.94 180.48 47.65 180.32C46.36 180.17 44.31 179.87 43.1 179.66C41.89 179.46 39.84 179.05 38.55 178.77C37.25 178.48 34.96 177.88 33.44 177.45C31.93 177.01 29.85 176.35 28.82 175.98C27.79 175.61 26.15 174.97 25.18 174.57C24.21 174.16 22.84 173.54 22.14 173.18C21.43 172.83 20.8 172.57 20.74 172.62C20.68 172.66 20.86 172.93 21.15 173.22C21.43 173.51 22.29 174.27 23.05 174.92C23.82 175.57 25.34 176.69 26.43 177.41C27.52 178.14 29.37 179.21 30.54 179.8C31.71 180.4 33.4 181.19 34.29 181.57C35.18 181.95 36.96 182.61 38.25 183.05C39.54 183.48 41.63 184.1 42.88 184.42C44.13 184.74 46.18 185.21 47.43 185.45C48.68 185.69 50.63 186.02 51.76 186.18C52.89 186.34 54.97 186.58 56.39 186.7C57.8 186.82 60.31 186.96 61.97 187.01C63.73 187.07 66.14 187.04 67.77 186.94C69.3 186.85 71.42 186.68 72.47 186.55C73.52 186.43 75.37 186.16 76.58 185.96C77.79 185.75 79.8 185.35 81.06 185.08C82.31 184.8 84.42 184.27 85.76 183.9C87.09 183.53 89.33 182.85 90.75 182.38C92.16 181.91 94.41 181.1 95.74 180.58C97.07 180.05 99.25 179.12 100.59 178.49C101.92 177.87 103.93 176.96 105.07 176.47C106.2 175.99 108.21 175.16 109.54 174.64C110.88 174.12 113.49 173.14 115.34 172.47C117.2 171.8 119.65 170.95 120.78 170.58C121.91 170.21 123.92 169.64 125.26 169.32C126.59 169 128.8 168.51 130.18 168.22C131.55 167.94 133.86 167.51 135.31 167.27C136.77 167.03 138.68 166.73 139.57 166.61C140.46 166.49 142.18 166.29 143.39 166.16C144.6 166.04 146.65 165.87 147.94 165.79C149.24 165.71 151.55 165.64 153.08 165.64C154.62 165.64 156.76 165.71 157.85 165.79C158.95 165.87 160.83 166.1 162.04 166.3C163.36 166.52 164.3 166.61 164.39 166.53C164.48 166.44 164.38 166.32 164.1 166.18C163.85 166.07 163.16 165.8 162.55 165.59C161.95 165.39 160.79 165.05 159.98 164.85C159.18 164.65 157.82 164.35 156.97 164.19C156.13 164.03 154.57 163.8 153.52 163.67C152.47 163.55 150.52 163.38 149.19 163.29C147.86 163.21 145.58 163.16 144.13 163.17C142.67 163.18 141.15 163.22 140.75 163.24Z" />
		<path class="shp1" d="M145.81 167.21C145.29 167.23 143.77 167.36 142.44 167.48C141.1 167.6 139.09 167.83 137.96 168C136.83 168.16 134.75 168.52 133.33 168.81C131.92 169.09 129.74 169.59 128.49 169.91C127.23 170.24 124.92 170.93 123.35 171.45C121.77 171.96 119.36 172.84 117.99 173.4C116.61 173.96 113.71 175.19 111.53 176.13C109.35 177.07 105.35 178.73 102.64 179.81C99.94 180.89 96.17 182.33 94.27 183.01C92.37 183.7 89.67 184.63 88.25 185.08C86.84 185.53 84.96 186.09 84.07 186.34C83.18 186.58 81.43 187.02 80.18 187.31C78.92 187.6 77.24 187.96 76.43 188.11C75.62 188.26 74.04 188.49 72.91 188.62C71.59 188.78 69.08 188.89 65.93 188.95C62.88 189 59.92 188.96 58.15 188.85C56.57 188.76 54 188.55 52.42 188.39C50.85 188.23 48.2 187.91 46.55 187.67C44.89 187.43 42.25 186.99 40.68 186.69C39.1 186.4 37.45 186.15 37 186.14C36.56 186.13 36.19 186.19 36.18 186.27C36.17 186.35 36.53 186.57 36.99 186.76C37.44 186.94 38.87 187.45 40.16 187.89C41.45 188.32 43.67 188.97 45.08 189.34C46.49 189.7 48.61 190.2 49.78 190.44C50.95 190.68 53 191.04 54.33 191.25C55.66 191.45 57.75 191.72 58.96 191.85C60.17 191.97 62.78 192.15 64.76 192.25C67.51 192.38 69.24 192.38 72.1 192.24C74.16 192.15 77.03 191.93 78.49 191.77C79.94 191.6 81.92 191.34 82.89 191.19C83.86 191.03 85.65 190.7 86.86 190.46C88.07 190.21 90.08 189.74 91.34 189.42C92.59 189.09 95.43 188.23 97.65 187.49C99.87 186.76 102.78 185.77 104.11 185.29C105.44 184.81 107.79 183.92 109.32 183.31C110.86 182.7 113.04 181.77 114.17 181.25C115.3 180.73 117.81 179.62 119.75 178.79C121.69 177.96 124.69 176.75 126.43 176.1C128.17 175.45 131.01 174.46 132.74 173.89C134.48 173.32 136.99 172.56 138.32 172.19C139.66 171.82 141.64 171.32 142.73 171.08C143.82 170.84 145.64 170.48 146.77 170.28C147.9 170.08 149.91 169.78 151.25 169.62C152.58 169.45 154.91 169.21 156.42 169.09C157.94 168.97 159.66 168.87 160.24 168.87C160.83 168.87 161.52 168.82 161.79 168.76C162.05 168.7 162.27 168.62 162.27 168.58C162.27 168.54 161.89 168.39 161.42 168.25C160.95 168.1 159.68 167.86 158.59 167.7C157.5 167.54 155.55 167.34 154.26 167.26C152.96 167.18 150.75 167.12 149.34 167.14C147.92 167.15 146.34 167.18 145.81 167.21Z" />
		<path class="shp2" d="M150.51 171.61C150.15 171.64 149.03 171.76 148.02 171.89C147.01 172.02 145.35 172.29 144.35 172.49C143.34 172.69 141.58 173.08 140.45 173.37C139.32 173.65 137.31 174.22 135.98 174.62C134.64 175.02 132.36 175.78 130.91 176.31C129.46 176.84 127.47 177.59 126.5 177.97C125.53 178.36 123.19 179.35 121.29 180.18C119.39 181.01 116.19 182.38 114.17 183.22C112.15 184.06 109.01 185.31 107.19 186C105.38 186.7 102.44 187.75 100.66 188.34C98.88 188.93 95.98 189.81 94.2 190.29C92.42 190.77 90.11 191.37 89.06 191.61C88.01 191.86 85.99 192.29 84.58 192.57C83.17 192.85 80.92 193.25 79.59 193.45C78.26 193.66 75.98 193.96 74.52 194.12C73.07 194.28 70.59 194.49 69.02 194.58C67.34 194.68 64.78 194.72 62.85 194.66C61.03 194.62 58.65 194.47 57.56 194.34C56.47 194.21 55.39 194.13 55.15 194.15C54.91 194.18 54.7 194.27 54.67 194.35C54.64 194.43 55.67 194.7 57.01 194.97C58.32 195.23 60.42 195.58 61.67 195.73C62.93 195.89 64.97 196.1 66.23 196.2C67.48 196.3 70.55 196.38 73.05 196.38C75.56 196.38 78.6 196.3 79.81 196.2C81.02 196.1 82.9 195.92 83.99 195.8C85.08 195.67 87.1 195.39 88.47 195.16C89.85 194.93 92.06 194.5 93.39 194.2C94.72 193.9 97.04 193.31 98.53 192.88C100.02 192.45 102.27 191.73 103.52 191.29C104.78 190.84 108.18 189.49 111.09 188.28C113.99 187.07 117.92 185.42 119.82 184.61C121.72 183.8 124.17 182.73 125.26 182.23C126.35 181.73 128.36 180.91 129.73 180.4C131.11 179.89 133.39 179.1 134.8 178.64C136.21 178.18 139.09 177.31 141.19 176.71C143.29 176.1 147.42 175.01 150.37 174.28C153.31 173.55 156.04 172.81 156.43 172.64C156.82 172.46 157.13 172.24 157.13 172.14C157.12 172.04 157 171.92 156.86 171.89C156.72 171.85 156.04 171.75 155.36 171.66C154.67 171.58 153.45 171.52 152.64 171.54C151.83 171.55 150.88 171.59 150.51 171.61Z" />
	</g>
</svg>