<?xml version="1.0" encoding="UTF-8" standalone="no"?>
<svg xmlns:rdf="http://www.w3.org/1999/02/22-rdf-syntax-ns#" xmlns="http://www.w3.org/2000/svg" height="187.47998" width="187.47999" version="1.1" xmlns:cc="http://creativecommons.org/ns#" xmlns:dc="http://purl.org/dc/elements/1.1/" viewBox="0 0 187.47999 187.47998"><path d="M179.52,101.64c2.16.96,4.32,1.92,6.48,3a96.77792,96.77792,0,0,0-6.36-18c2.4.48,4.68,1.08,6.84,1.68a112.03686,112.03686,0,0,0-9.24-16.68c2.28.12,4.68.24,7.08.6A96.84747,96.84747,0,0,0,172.2,57.48c2.28-.36,4.68-.6,7.08-.84a100.27312,100.27312,0,0,0-14.52-12.36c2.28-.84,4.56-1.44,6.84-2.04a103.78312,103.78312,0,0,0-16.44-9.72c2.16-1.08,4.2-2.04,6.36-3a101.46733,101.46733,0,0,0-17.88-6.84c1.92-1.44,3.84-2.76,5.76-4.08a93.3604,93.3604,0,0,0-18.72-3.48c1.56-1.8,3.24-3.48,4.92-5.16a101.62147,101.62147,0,0,0-19.08-.24c1.32-1.92,2.52-3.84,3.96-5.88a108.32356,108.32356,0,0,0-18.84,3.12c.96-2.16,1.92-4.32,3-6.48a96.77446,96.77446,0,0,0-18,6.36c.48-2.4,1.08-4.56,1.68-6.84A112.03294,112.03294,0,0,0,71.64,9.24005a68.07765,68.07765,0,0,1,.6-6.96,96.15637,96.15637,0,0,0-14.76,12c-.36-2.28-.6-4.56-.84-6.96a99.40384,99.40384,0,0,0-12.36,14.4,64.30623,64.30623,0,0,1-2.04-6.84,109.45307,109.45307,0,0,0-9.72,16.44c-1.08-2.04-2.04-4.2-3-6.36a101.46834,101.46834,0,0,0-6.84,17.88c-1.44-1.92-2.76-3.72-4.08-5.76a94.49422,94.49422,0,0,0-3.48,18.84c-1.8-1.68005-3.48-3.24-5.16-5.04a101.61848,101.61848,0,0,0-.24,19.08C7.8,68.64,5.88,67.44,3.84,66A106.46684,106.46684,0,0,0,6.96,84.84c-2.16-.96-4.32-1.92-6.48-3a96.7772,96.7772,0,0,0,6.36,18c-2.28-.48-4.56-.96-6.84-1.68a112.037,112.037,0,0,0,9.24,16.68,68.06222,68.06222,0,0,1-6.96-.6,97.16824,97.16824,0,0,0,12,14.88c-2.28.24-4.56.6-6.96.72a100.32071,100.32071,0,0,0,14.4,12.48c-2.28.6-4.44,1.32-6.84,1.92a100.18493,100.18493,0,0,0,16.44,9.72c-2.04,1.08-4.2,2.16-6.36,3.12a111.23219,111.23219,0,0,0,17.88,6.72A62.67246,62.67246,0,0,1,37.08,167.88a103.00039,103.00039,0,0,0,18.72,3.6c-1.56,1.68-3.24,3.36005-4.92,5.04a100.35185,100.35185,0,0,0,18.96.24c-1.2,1.92-2.52,3.96-3.96,5.88a95.04441,95.04441,0,0,0,18.84-3.12q-1.26,3.24-2.88,6.48a103.32507,103.32507,0,0,0,18-6.36c-.6,2.4-1.08,4.68-1.8,6.84a101.19122,101.19122,0,0,0,16.68-9.24c0,2.28-.24,4.68-.48,7.08A96.84554,96.84554,0,0,0,129,172.2c.24,2.28.48,4.68.72,7.08a94.14006,94.14006,0,0,0,12.48-14.52c.72,2.28,1.32,4.56,1.92,6.84a88.31927,88.31927,0,0,0,9.72-16.44c1.2,2.16,2.16,4.2,3.12,6.36a92.37151,92.37151,0,0,0,6.72-17.88c1.44,1.92005,2.88,3.84,4.2,5.76a93.35661,93.35661,0,0,0,3.48-18.72c1.68,1.55994,3.48,3.24,5.16,4.92a101.47361,101.47361,0,0,0,.12-19.08,63.00838,63.00838,0,0,1,5.88,3.96A81.28241,81.28241,0,0,0,179.52,101.64Z" fill="#fff"/><path d="M175.08,96.72c2.04.72,4.2,1.56,6.24,2.4a97.28915,97.28915,0,0,0-6.84-16.68c2.16.48,4.32.84,6.48,1.32a86.594,86.594,0,0,0-9.72-15.24c2.28,0,4.44,0,6.72.12a91.937,91.937,0,0,0-12.12-13.32c2.16-.48,4.32-.72,6.6-1.08a100.23428,100.23428,0,0,0-14.28-10.92c2.16-.84,4.2-1.56,6.36-2.28a97.81917,97.81917,0,0,0-16.08-8.4c1.92-1.07995,3.84-2.16,5.88-3.12A101.90493,101.90493,0,0,0,137.16,24c1.68-1.44,3.36-2.88,5.16-4.2a91.433,91.433,0,0,0-17.88-2.4c1.44-1.68,2.88-3.36,4.44-5.04a88.99384,88.99384,0,0,0-18,.72,53.74214,53.74214,0,0,1,3.36-5.64,92.834,92.834,0,0,0-17.52,3.84,55.82925,55.82925,0,0,1,2.4-6.24,93.4826,93.4826,0,0,0-16.68,6.84c.36-2.16.72-4.44,1.2-6.6A85.58806,85.58806,0,0,0,68.52,15c0-2.16,0-4.44.12-6.72A92.67515,92.67515,0,0,0,55.32,20.52c-.48-2.28-.84-4.44-1.08-6.6A88.26217,88.26217,0,0,0,43.2,28.08a64.12379,64.12379,0,0,1-2.16-6.24,92.16285,92.16285,0,0,0-8.4,15.96,56.09331,56.09331,0,0,1-3.24-5.88,101.906,101.906,0,0,0-5.52,17.16c-1.44-1.56-2.76-3.36-4.2-5.16a92.66343,92.66343,0,0,0-2.4,17.88c-1.68-1.44-3.36-2.88-5.04-4.44a89.68092,89.68092,0,0,0,.84,18C11.04,74.28,9.24,73.08,7.32,71.88a94.073,94.073,0,0,0,3.84,17.64,66.53557,66.53557,0,0,1-6.24-2.4,93.48581,93.48581,0,0,0,6.84,16.68,62.04675,62.04675,0,0,1-6.48-1.32,93.5551,93.5551,0,0,0,9.6,15.24c-2.16,0-4.44,0-6.6-.12A85.53426,85.53426,0,0,0,20.4,130.92c-2.16.48-4.32.72-6.6,1.08a89.13685,89.13685,0,0,0,14.28,11.04c-2.16.72-4.2,1.43994-6.36,2.16a101.75582,101.75582,0,0,0,15.96,8.4c-1.8,1.08-3.84,2.28-5.76,3.24a88.88676,88.88676,0,0,0,17.16,5.4c-1.68,1.44006-3.36,2.88-5.16,4.2a83.0904,83.0904,0,0,0,17.76,2.4,59.4307,59.4307,0,0,1-4.32,5.04,89.724,89.724,0,0,0,18-.72c-1.08,1.92-2.28,3.84-3.48,5.76a104.63327,104.63327,0,0,0,17.64-3.84,66.5517,66.5517,0,0,1-2.4,6.24,93.48286,93.48286,0,0,0,16.68-6.84,62.02724,62.02724,0,0,1-1.32,6.48,86.5936,86.5936,0,0,0,15.24-9.72c0,2.28,0,4.44006-.12,6.72a91.93588,91.93588,0,0,0,13.32-12.12c.48,2.16.72,4.32,1.08,6.6a94.80254,94.80254,0,0,0,11.04-14.28c.72,2.16,1.44,4.2,2.16,6.36a97.81579,97.81579,0,0,0,8.4-16.08c1.08,1.92,2.28,3.84,3.24,5.88a91.57662,91.57662,0,0,0,5.4-17.16c1.44,1.68,2.88,3.36,4.2,5.16a83.16288,83.16288,0,0,0,2.4-17.88,60.51133,60.51133,0,0,1,5.04,4.44,88.99383,88.99383,0,0,0-.72-18c1.92.96,3.84,2.16,5.76,3.36A94.93394,94.93394,0,0,0,175.08,96.72Z"/><path d="M24.12,93.24a69.423,69.423,0,0,0,7.92,32.28l1.08-5.88a67.07106,67.07106,0,0,1-5.52-26.4A64.97808,64.97808,0,0,1,45.84,47.88L46.92,42A68.51349,68.51349,0,0,0,24.12,93.24Zm130.8-31.2a46.61887,46.61887,0,0,1-.36,8.04,64.56627,64.56627,0,0,1,4.32,23.16,65.37891,65.37891,0,0,1-7.2,29.88l-1.8,9.72a69.09807,69.09807,0,0,0,5.04-70.8ZM93.24,27.6a65.08159,65.08159,0,0,1,26.88,5.76c3,.12,6.12.36,9,.72a69.59719,69.59719,0,0,0-70.32-.84h7.8A65.82132,65.82132,0,0,1,93.24,27.6Zm0,131.28a65.68815,65.68815,0,0,1-35.28-10.32H51.72a68.70321,68.70321,0,0,0,82.92,0h-6.12A65.6882,65.6882,0,0,1,93.24,158.88Z" fill="#ac1f2d"/><path d="M144.24,73.68c5.04-28.68-9.6-30.6-31.2-30.6H56.52L52.92,63.6h81.36l-17.04,5.28a18.38749,18.38749,0,0,1-.12,6.24c-1.8,9.6-6,12.12-11.88,12.12H85.44l17.28,31.56006-3.48,20.04h39.72l3.48-20.04H133.8l-10.2-18.36C135.48,96.48,141.48,88.80005,144.24,73.68Z" fill="#fff"/><path d="M86.88,71.16,59.52,75.84l-7.68,42.84H43.2l-3.48,20.04H83.64l3.6-20.04H78.48Z" fill="#fff"/></svg>