<?xml version="1.0" encoding="UTF-8" standalone="no"?>
<svg xmlns:rdf="http://www.w3.org/1999/02/22-rdf-syntax-ns#" xmlns="http://www.w3.org/2000/svg" height="149.03238" width="262.47839" version="1.1" xmlns:cc="http://creativecommons.org/ns#" xmlns:dc="http://purl.org/dc/elements/1.1/" viewBox="0 0 262.47839 149.03238"><path d="M137.31635,131.50059Zm4.41566-29.83267a23.92888,23.92888,0,0,0-2.0463-1.45392,45.61543,45.61543,0,0,1-7.162-7.2697,33.93956,33.93956,0,0,1-2.74632-4.09256,6.01152,6.01152,0,0,0-.5385-.86159,2.6356,2.6356,0,0,1-.5385-1.02315c-.2154-.53849-.5385-.96929-.75389-1.40009,0-.10769-.10769-.2154-.10769-.32309a80.28872,80.28872,0,0,0,8.34667,1.50779c2.96172.43079,5.8696.8616,8.83133,1.18468,2.80017.26924,5.65419.48464,8.34667.59235a7.31136,7.31136,0,0,1,1.29239,1.29239,14.14564,14.14564,0,0,1,.9693,1.8309,11.36125,11.36125,0,0,1,.5385,2.04626.80709.80709,0,0,0,.10769.5385l-7.162,2.20784c-.10768,0-.21539.1077-.32308.1077a18.73112,18.73112,0,0,0-1.93859,1.18468c-.75389.43081-1.40008.96929-2.154,1.4001-.75389.53849-1.34624,1.077-2.20782,1.61547C142.27051,101.12943,141.9474,101.34483,141.732,101.66792ZM257.83162,46.79524a48.87253,48.87253,0,0,1-4.84646-5.2234,60.34573,60.34573,0,0,1-3.931-5.9773,66.06867,66.06867,0,0,1-3.2848-7.05429,77.91624,77.91624,0,0,1-2.58481-8.02359,1.93684,1.93684,0,0,0-.64619-.96928l-13.13928-9.36982c-.32311-.21542-.64619-.5385-1.077-.86158-.32308-.32312-.64617-.75392-.96928-1.077-.32311-.4308-.59235-.86158-.80776-1.18469-.32309-.43078-.64617-.96928-.86157-1.29239-.4308-.6462-.8616-1.23855-1.18469-1.777-.4308-.6462-.96929-1.1847-1.4001-1.7232A5.20174,5.20174,0,0,0,221.26778.86159,5.73184,5.73184,0,0,0,218.95225,0h-.32308a.39569.39569,0,0,0-.32311.10769h-.21541l-9.20826,3.87718a1.97485,1.97485,0,0,0-.9693,1.02313,1.08512,1.08512,0,0,1-.10769.32311.68292.68292,0,0,1-.05385.32308.6476.6476,0,0,1-.10769.43081v.43078a3.66421,3.66421,0,0,0,.10769,1.077,3.04933,3.04933,0,0,0,.16154.96928c.10771.32311.10771.64619.2154.86161,0,.1077.10771.21539.10771.32308h-.2154c-1.23854-.21538-2.53094-.43077-3.71562-.64619s-2.47709-.5385-3.60792-.86159c-1.18468-.32308-2.36938-.64619-3.44637-.9693-.2154,0-.43079-.10767-.53849,0-.32311,0-.64621.10772-.8616.10772l-.91544.32308a.10549.10549,0,0,0-.10771.1077l-8.56207,3.60794c-.10771,0-.10771.10769-.21539.10769l-.86159-.10769c-.32311,0-.75391-.10773-1.18469-.10773h-1.1847c-.10771,0-.6462-.10766-.70006-.10766h-.32308c-.1077,0-.43081.10766-.5385.10766a2.76385,2.76385,0,0,1-.53849.21542.37607.37607,0,0,1-.2154.10769l-1.077.43081-5.11569,2.154c-.86159-.1077-1.61551-.32309-2.47709-.43081a27.17116,27.17116,0,0,0-3.28483-.21539h-1.18468c-.5385,0-1.077.1077-1.5078.1077-.53848.10769-1.077.10769-1.40008.21541a6.17253,6.17253,0,0,0-1.50778.43078,4.36641,4.36641,0,0,0-1.13085.5385L158.15611,16.478l-4.1464,1.777c-.64621.32309-1.1847.6462-1.83089.96928-.6462.43081-1.1847.86162-1.61549,1.1847a7.55752,7.55752,0,0,0-1.13084,1.40009,4.42114,4.42114,0,0,0-.7539,1.83089,1.12377,1.12377,0,0,0,.5385,1.23854l.6462.32309-4.308,1.83089a.376.376,0,0,0-.21539.10769c.1077,0,.1077-.10769.21539-.10769-.10769,0-.10769.10769-.21539.10769a2.34856,2.34856,0,0,0-.5385.43081.55946.55946,0,0,0-.21539.43078h-4.68493l-12.60078-.32309h-.6462l-3.39252-.10769-3.12327-.10772-3.39252-.10767-3.44638-.10772h-7.162s-2.31553,0-3.50021.10772c-1.077,0-2.04628.10767-3.231.21539h-.59234a27.544,27.544,0,0,0-6.73119,2.47709H91.975l-6.62349,3.06941a31.9503,31.9503,0,0,0-4.73877,2.80015,37.40022,37.40022,0,0,0-4.68491,3.39254c-.96929.75389-2.04628,1.61547-3.06942,2.58477-.3231-.32309-.5385-.75389-.86159-1.077-.3231-.5385-.64621-1.077-.9693-1.50779-.4308-.6462-.7539-1.18468-1.18469-1.83089a10.71367,10.71367,0,0,0-1.40009-1.56165A4.56665,4.56665,0,0,0,66.558,34.62525a7.74564,7.74564,0,0,0-2.58478-.53849H62.46547c-.21539,0-.32309.10768-.5385.21539l-.64619.3231-6.3004,3.06942c-.10769,0-1.88473,1.077-1.88473,1.077l-1.18469.64619c-1.18469.53849-2.26168,1.077-3.44637,1.50778-4.46951,2.0463-9.15442,3.82333-13.73164,5.54651-4.63105,1.72319-9.316,3.17714-13.89318,4.46951C16.20871,52.234,11.6315,53.41873,7.26969,54.28034a.82261.82261,0,0,0-.5385.21539L.5385,57.56515C.3231,57.34976,0,57.88825,0,58.42674a1.41011,1.41011,0,0,0,.64619,1.2924,8.19226,8.19226,0,0,0,2.04629,1.29238,8.50025,8.50025,0,0,0,2.10013,1.077c.64619.26925,1.29239.59235,2.154.91546.75389.32308,1.50779.53849,2.154.86158h.05385a1.085,1.085,0,0,1,.3231.10768l.64619.21541,1.077.4308a11.17446,11.17446,0,0,1,1.077.4308,7.42615,7.42615,0,0,0,1.077.4308c.1077,0,.2154.1077.43079.1077a8.44741,8.44741,0,0,0,1.50779.21539c.48465.10769,1.02314.10769,1.45394.2154.4308,0,.96929.10769,1.50779.10769h2.58477c1.13084,0,2.20783-.10769,3.39253-.2154a24.72579,24.72579,0,0,0,4.14641-.64618c1.40009-.32311,2.80018-.75389,4.20027-1.1847,1.29238-.43079,2.74632-.96929,3.931-1.50778l1.077-.48465,5.7619-2.58477a.10549.10549,0,0,0,.10771-.10771l2.36937-1.1847c.1077,0,.2154-.10768.3231-.21537.75389-.43081,1.29239-.75391,1.99243-1.1847.2154-.2154.5385-.3231.7539-.5385a7.42612,7.42612,0,0,0,1.50779-1.02314,13.456,13.456,0,0,0,1.29238-.96928,10.17052,10.17052,0,0,0,.9693.32308,10.49435,10.49435,0,0,1,1.18468.53851c.377.21538.80775.43079,1.13084.64619a5.08815,5.08815,0,0,1,1.29239.7c.5385.3231,1.077.4308,1.40009.6462a13.06329,13.06329,0,0,0,1.50779.53849c.4308.10771.8616.10771,1.18469.2154a10.7967,10.7967,0,0,1,1.777,1.72318,6.60828,6.60828,0,0,1,1.18469,2.47708,15.70494,15.70494,0,0,1,.75389,2.96173c.2154,1.077.32309,2.154.43079,3.231a3.43245,3.43245,0,0,0,.1077.48466l.1077,1.29238c.1077.5385.1077,1.18469.2154,1.72318q.16156.96931.3231,1.61547a5.67641,5.67641,0,0,0,.5385,1.61551,26.03709,26.03709,0,0,0,4.14641,8.07743,28.42227,28.42227,0,0,0,5.86961,5.7619,38.25437,38.25437,0,0,0,7.05428,3.98485c.86159.43081,2.58478,1.1847,2.58478,1.1847a5.07343,5.07343,0,0,1,.5385.2154.54374.54374,0,0,0,.26924.10771c1.1847.48464,3.01558,1.13084,4.09256,1.66933,2.31554.96929,4.79262,1.93858,7.162,3.01557a42.61876,42.61876,0,0,1,6.51579,3.60791,35.57057,35.57057,0,0,1,5.54651,5.008,23.393,23.393,0,0,1,4.03872,7.05431,1.16874,1.16874,0,0,0,.86159.86158c2.04628.96931,4.2541,1.7232,6.62349,2.58478a59.21792,59.21792,0,0,0,6.7312,1.99244c2.04627.5385,4.2541,1.18469,6.83889,1.72317l6.51579,1.40011h.2154l1.50778.53847.32311,3.39255a.64767.64767,0,0,0,.10768.43081,1.53039,1.53039,0,0,1,.21541.64617c0,.21541.1077.32308.1077.5385v.32311c0,.10769,0,.10769-.1077.21539a.23164.23164,0,0,1-.21541.21539l-.10768.10769c-.10771.1077-.2154.1077-.2154.21542a.33355.33355,0,0,0-.2154.10769c-.1077.1077-.21541.1077-.3231.21539l-3.55408.96931h.43081a.64769.64769,0,0,0-.43081.10767h-.32308l-.21541.10772h-.2154c-.10769,0-.10769,0-.2154.1077H137.424l-.10769.10769s-.05385,0-.05385.10769a.376.376,0,0,1-.2154.10773c-.1077,0-.21541.10769-.3231.21539a1.51739,1.51739,0,0,0-.75389,1.66932,16.5388,16.5388,0,0,0,1.18468,3.231,15.7763,15.7763,0,0,0,1.454,2.854,24.67827,24.67827,0,0,0,1.83088,2.47708,20.41257,20.41257,0,0,0,2.26168,2.04629c.21539.10769.3231.21541.5385.21541h.80774l8.13128-1.93858h.10769l.21541-.10773a.10547.10547,0,0,0,.10769-.10769,1.82847,1.82847,0,0,0,.6462-.6462,4.51766,4.51766,0,0,1,.96929-1.50778,4.71045,4.71045,0,0,1,1.18468-1.13085c.4308-.43078.9693-.75389,1.23855-1.077a7.24665,7.24665,0,0,1,1.18469-.75389,2593.80051,2593.80051,0,0,0,.21541.43081c.21539.75389.43079,1.40008.64618,1.99243a10.18593,10.18593,0,0,0,1.18468,2.154,5.32487,5.32487,0,0,0,2.0463,1.72317,5.58792,5.58792,0,0,0,1.88474.64619,12.632,12.632,0,0,0,.53848,1.1847,7.04367,7.04367,0,0,0,1.2924,1.45393,6.449,6.449,0,0,0,1.72318.86159.814.814,0,0,1,.43079.10772,6.305,6.305,0,0,0,1.4001.21536h1.13084a8.31608,8.31608,0,0,1,1.077-.10769c.32311-.10767.75389-.10767,1.077-.21539l.96929-.21539c.10768,0,1.18467-.21542,1.18467-.21542a2.982,2.982,0,0,1,.96929-.10769c.26925,0,.59235-.1077.91546-.1077h2.36937l8.56208-1.88474a1.15671,1.15671,0,0,0,1.13084-.96928c.1077-.21542.1077-.32311.3231-.86158a1.171,1.171,0,0,0,.10771-.5385v-.53851a3.66365,3.66365,0,0,0-.10771-1.077c-.1077-.32308-.2154-.64619-.3231-1.077a2.78459,2.78459,0,0,0-.37694-.86159,7.96822,7.96822,0,0,0-.4308-.7l-.3231-.6462-.32311-.64622a1.36594,1.36594,0,0,1-.10769-.64617v-.10772c.10769-.10769.2154-.21539.2154-.32308l.64621-.96928a4.50179,4.50179,0,0,0,.43078-1.077,2.21214,2.21214,0,0,0,0-1.1847,1.12912,1.12912,0,0,0-.2154-.59235c-.43078-.6462-.86159-1.18467-1.29238-1.83089a2.85445,2.85445,0,0,1-.5385-.64617c-.10771-.21542-.32309-.32311-.43079-.5385l-.64619-.6462c-.53851-.5385-1.18469-1.077-1.83089-1.72319l-1.56164-1.34624c-1.1847-1.18467-2.58477-2.154-3.66177-3.44637a19.71211,19.71211,0,0,1-2.74634-3.50022,8.16253,8.16253,0,0,1-1.18467-4.09257v-.3231a11.51163,11.51163,0,0,1,.43078-3.17713H179.319a.64763.64763,0,0,0,.43079-.10768l.3231-.1077a6.86978,6.86978,0,0,0,.75389-.2154c.2154,0,.53848-.10771.86159-.10771a2.38086,2.38086,0,0,0,.80776-.10769h1.93856c.32311,0,.75391.10769,1.077.10769s.75389.10771,1.077.10771.75389.10769,1.077.10769l.91543.10771a5.28478,5.28478,0,0,0,1.1847.1077c.32309,0,.75389.10768,1.077.10768h1.93858a2.37186,2.37186,0,0,0,.8616-.10768c.21538,0,.53849-.1077.86159-.1077.32308-.10771.48465-.10771.80773-.2154l3.98487-1.1847,4.46951-1.18468h.2154l.21541-.1077c.32308-.1077.75389-.2154,1.077-.32311a2.75154,2.75154,0,0,0,1.18468-.7.10548.10548,0,0,0,.10769-.10771c.10771,0,.10771-.10768.21541-.10768l.1077-.10769.7539-.8616c.48463-.5385.91543-1.077,1.34623-1.61551a12.14091,12.14091,0,0,0,1.2924-1.93856,7.38046,7.38046,0,0,0,.75389-2.42324,4.67918,4.67918,0,0,0-.53851-2.69247c-.1077-.3231-.32308-.64619-.43079-.9693l-.96929-1.93858a2.34338,2.34338,0,0,0-.43081-.80776,11.742,11.742,0,0,0-.64618-1.18466,10.4885,10.4885,0,0,1-.48465-1.077c-.3231-.53848-.53849-.96929-.75389-1.40007-.75389-1.1847-1.2924-2.31553-2.04629-3.39253l-2.154-3.44637c-.75391-1.1847-1.34624-2.20782-2.10014-3.39252s-1.40009-2.2617-2.04627-3.44637c-.64621-1.13083-1.29241-2.31553-1.83089-3.39253a23.93162,23.93162,0,0,1-1.5078-3.44637c0-.53849-.10768-1.13084-.10768-1.56164V65.91182c0-.64618.10768-1.29238.10768-1.93859.1077-.64618.1077-1.29237.2154-1.88472l.21541-2.04628c.10769-.75389.10769-1.40009.2154-2.154,0-.75389.10769-1.50778.10769-2.20784V54.17263c2.154-1.50779,4.308-3.12327,6.5158-4.52335a81.19462,81.19462,0,0,1,7.48508-4.36182,10.00918,10.00918,0,0,0,1.077-.5385c.1077-.10769.2154-.10769.32308-.2154.21541,0,.3231-.1077.53851-.1077.96929-.2154,1.72318-.32309,2.63861-.53848.53852-.10771,1.1847-.10771,1.61551-.21541a13.79622,13.79622,0,0,0,1.18468,2.154,12.38132,12.38132,0,0,0,2.47709,2.26168,10.07693,10.07693,0,0,0,2.854,1.40009c.96929.37695,1.83089.7,2.90788,1.02314a24.25317,24.25317,0,0,1,2.96172,1.18468,24.75878,24.75878,0,0,1,2.47706,1.29239,6.8634,6.8634,0,0,1,1.7232,1.8309,6.40117,6.40117,0,0,1,.91543,2.96173,1.53126,1.53126,0,0,0,.21539.64618,4.2176,4.2176,0,0,0,.86159,1.077,3.8685,3.8685,0,0,0,1.077.75389,5.2504,5.2504,0,0,0,1.1847.43081,4.03857,4.03857,0,0,0,1.18469.10769h.86159a5.79946,5.79946,0,0,1,.86161-.10769c.26924,0,.59235-.10771.80771-.10771l.86161-.21541c.21539,0,.53851-.10769.75389-.10769.32309,0,.53851-.10771.86162-.10771s.53847-.10769.86158-.10769h.96928a.97088.97088,0,0,0,.5385-.10771l9.47752-3.12326h.1077a.81657.81657,0,0,0,.4308-.2154c.6462-.43079,1.29237-.91545,2.04626-1.45393a11.12853,11.12853,0,0,0,1.99246-2.26169,8.81864,8.81864,0,0,0,1.50778-3.01557,8.23533,8.23533,0,0,0,.43081-3.60793C258.15473,47.44144,257.93931,47.11834,257.83162,46.79524Z" fill="#231f20"/><path d="M191.81209,98.38312l-9.42367-11.84691-.26927-.1077h-1.18467l-.4308.3231-3.231,12.27769.1077.43079.8616.75391.43078.10768a20.37673,20.37673,0,0,1,2.4771-.53849c.86158-.10769,1.66932-.3231,2.53091-.43078a24.50152,24.50152,0,0,1,2.80018-.2154h5.11571l.43079-.2154v-.53849Zm-24.1246,1.077.10769-.53848a6.58789,6.58789,0,0,1-.53849-1.29241c-.1077-.43078-.2154-.96927-.32309-1.29238-.10771-.53848-.10771-.96929-.21541-1.4001-.1077-.53848-.1077-1.02312-.21539-1.45392-.1077-.86158-.2154-1.6155-.32311-2.47708a15.28415,15.28415,0,0,0-.53848-2.36938,12.739,12.739,0,0,0-1.1847-2.20783,20.51365,20.51365,0,0,0-1.777-1.93858l-.21539-.10771c-3.01559-.1077-5.92346-.32309-8.88519-.64618-3.01557-.32312-5.86959-.6462-8.88518-1.1847-2.96171-.43079-5.86959-1.02314-8.83132-1.56163-3.01556-.64621-5.8696-1.29239-8.88517-2.04628l-.43079.10769a5.06284,5.06284,0,0,0-.9693,1.29238,4.33144,4.33144,0,0,0-.2154,1.56164,7.32692,7.32692,0,0,0,.2154,1.61549,5.71463,5.71463,0,0,0,.3231,1.1847,38.85188,38.85188,0,0,0,5.33109,8.99286,50.66445,50.66445,0,0,0,7.37741,7.43124,62.14032,62.14032,0,0,0,8.45437,5.81576,58.0722,58.0722,0,0,0,8.56208,3.71562c.21539.10769.32309.2154.5385.3231a4.265,4.265,0,0,1,.48464.21539c.2154,0,.32309.10769.53848.10769h1.29241a1.08481,1.08481,0,0,1,.3231-.10769c.10769,0,.21539-.10771.32308-.10771l.96929-.64618c.3231-.32309.53851-.6462.8616-.9693a11.7481,11.7481,0,0,1,.6462-1.18468,13.26006,13.26006,0,0,0,.43079-1.45393l-.2154-.43081-.43079-.10771c-.1077.10771-.21539.10771-.4308.10771-.1077,0-.21539.10769-.32309.10769h-.6462a2.10276,2.10276,0,0,1-.75389-.10769c-.2154-.10771-.43079-.10771-.6462-.2154l-.64619-.32309c-.2154-.10771-.43079-.32311-.6462-.4308s-.43079-.32309-.64619-.4308a3.19807,3.19807,0,0,1-.59235-.4308c-.2154-.1077-.53849-.21541-.75389-.32309a2.09969,2.09969,0,0,0-.86159-.10769h-.64619a.53179.53179,0,0,0-.3231.10769c-.10771,0-.2154.10768-.32311.10768a1.83311,1.83311,0,0,1-.75389-.10768c-.21539-.10769-.53849-.10769-.75389-.2154a2.69886,2.69886,0,0,1-.75389-.43081,4.56235,4.56235,0,0,0-.75389-.53848l-.37695-.43081a4.29441,4.29441,0,0,0-.3231-.43078c-.1077-.10771-.1077-.32311-.2154-.4308a.64748.64748,0,0,1-.10771-.4308c.86161-.59235,1.454-1.23853,2.31553-1.777a22.384,22.384,0,0,1,2.154-1.61548,17.47119,17.47119,0,0,1,2.04629-1.40008c.75389-.43081,1.23854-.86159,1.88474-1.1847a9.60433,9.60433,0,0,1,.5385,1.077l.75389,1.50778c.32308.5385.53848,1.077.75389,1.4001.2154.43078.32308.75389.43079.75389l.2154.21538a6.85893,6.85893,0,0,0,.75389.2154c.21541.10771.5385.10771.75389.2154.21541,0,.5385.05385.75391.05385h.7a7.96408,7.96408,0,0,0,1.18469-.05385c.43081-.10769.8616-.10769,1.1847-.2154a11.17086,11.17086,0,0,0,1.077-.43078A1.83153,1.83153,0,0,0,167.68749,99.46009Zm88.95943-51.58786a7.30239,7.30239,0,0,1-.32308,3.06942,11.60505,11.60505,0,0,1-1.29239,2.58479,10.51408,10.51408,0,0,1-1.8309,1.93858,6.73931,6.73931,0,0,1-1.777,1.34624h-1.077a2.98156,2.98156,0,0,0-.96928.1077c-.32311,0-.64619.10769-.86161.10769-.32308,0-.53847.10771-.86158.10771-.32311.10769-.53848.10769-.86159.2154a6.61768,6.61768,0,0,0-.7.10768c-.21542,0-.5385.10771-.75389.10771h-.75389a2.09943,2.09943,0,0,1-.86161-.10771c-.32309-.10768-.53851-.10768-.75389-.32308a2.85573,2.85573,0,0,1-.6462-.5385,8.28531,8.28531,0,0,1-.6462-.7,8.14416,8.14416,0,0,0-1.18469-3.55407,7.54727,7.54727,0,0,0-2.10013-2.36939,10.51,10.51,0,0,0-2.90787-1.45393,32.02987,32.02987,0,0,0-3.1771-1.18469c-.96931-.32309-1.93859-.64621-2.9079-1.077s-1.83089-.86158-2.63863-1.29239a7.99113,7.99113,0,0,1-2.154-1.88473,6.667,6.667,0,0,1-1.4001-2.90788,40.93008,40.93008,0,0,0-16.9626,5.008c-2.5848,1.4001-5.11571,2.90788-7.70049,4.46953-2.47709,1.61547-4.9003,3.44636-7.26969,5.06185v2.31552c0,.75391-.10771,1.40009-.10771,2.154a11.9307,11.9307,0,0,1-.21538,2.04629c-.1077.75389-.1077,1.23853-.2154,1.99242-.10771.64621-.10771,1.29241-.2154,1.93859a13.0327,13.0327,0,0,0-.10771,2.0463,12.30157,12.30157,0,0,0,0,1.99242,13.03257,13.03257,0,0,0,.10771,2.04629c.53848,1.1847,1.18469,2.58477,1.72318,3.76947.64618,1.13083,1.1847,2.42321,1.93859,3.50021.75389,1.1847,1.23853,2.3694,1.99242,3.39252.75389,1.077,1.4001,2.26167,2.154,3.44637s1.40009,2.2617,2.154,3.39253c.7539,1.1847,1.34623,2.26168,1.99244,3.44637.75389,1.1847,1.29238,2.31553,1.93859,3.50023a25.93969,25.93969,0,0,1,1.61548,3.55406,4.484,4.484,0,0,1,.43079,1.88473,3.96984,3.96984,0,0,1-.53849,1.83089,9.76032,9.76032,0,0,1-1.1847,1.72319c-.43079.5385-.96929,1.18469-1.40008,1.61547l-.64618.64621-1.1847.59234a5.98947,5.98947,0,0,1-1.13084.4308,5.5571,5.5571,0,0,1-1.18469.2154,4.36409,4.36409,0,0,1-1.1847,0h-.96929a8.31578,8.31578,0,0,0-1.077-.1077c-.32311,0-.75391-.1077-1.02315-.1077-.32309,0-.75389-.10771-1.077-.10771s-.75389-.10769-1.077-.10769-.7539-.10771-1.077-.10771-.75389-.10769-1.077-.10769h-2.04628a3.806,3.806,0,0,0-.91543.10769,3.14485,3.14485,0,0,0-.9693.2154c-.32311.10771-.64619.10771-.96929.21541h-6.19271a24.50379,24.50379,0,0,0-2.80018.2154,19.03577,19.03577,0,0,0-2.63862.53849,18.18036,18.18036,0,0,0-2.58477.8616,13.91889,13.91889,0,0,0-1.077,5.86959,11.08983,11.08983,0,0,0,1.40009,4.68491,17.63983,17.63983,0,0,0,3.12328,3.87718,44.80738,44.80738,0,0,0,3.71561,3.39252c.64621.5385,1.18469,1.077,1.72318,1.50778s1.1847,1.077,1.6155,1.50778a44.41746,44.41746,0,0,1,2.53092,3.17713v.75389a1.53079,1.53079,0,0,1-.2154.64622,2.25289,2.25289,0,0,1-.43079.64617l-.64618.6462v1.077a3.145,3.145,0,0,0,.21537.96928c.10771.32311.21541.5385.32311.80776a2.69977,2.69977,0,0,0,.43081.75389c.10768.21539.32308.53848.43078.75389s.2154.53848.32311.75389a1.99655,1.99655,0,0,1,.2154.75389,1.83311,1.83311,0,0,1,.10768.75389v.32312a.39566.39566,0,0,1-.10768.32308c0,.10772-.1077.21539-.1077.32308s-.1077.21542-.1077.32312h-2.36939c-.32309,0-.7.10769-1.02314.10769a3.82653,3.82653,0,0,0-1.077.21542c-.32309.10767-.75389.10767-1.077.21539-.43078.10769-.75389.10769-1.077.21539s-.7539.10769-1.077.21541c-.32311,0-.75389.1077-1.077.1077h-.91543a4.7792,4.7792,0,0,1-1.4001-.21542,2.5674,2.5674,0,0,1-1.1847-.64617,3.841,3.841,0,0,1-1.077-1.18469,8.33746,8.33746,0,0,1-.75391-1.7232,7.2085,7.2085,0,0,1-2.42322-.6462,4.53632,4.53632,0,0,1-1.50778-1.29239,8.46035,8.46035,0,0,1-.9693-1.66935c-.2154-.64617-.43079-1.29236-.64619-2.04625s-.43081-1.29239-.6462-2.04628a4.72392,4.72392,0,0,0-.96929-1.77705,4.21146,4.21146,0,0,0-1.34624-1.40009,4.694,4.694,0,0,0-2.26169-.75389,8.09616,8.09616,0,0,1-.86158,2.58479,5.75964,5.75964,0,0,1-1.18468,1.66932,13.98412,13.98412,0,0,1-1.5078,1.29239c-.59235.43081-1.13085.75389-1.777,1.1847-.5385.32311-1.077.64619-1.50779.96928A14.475,14.475,0,0,0,151.748,138.878a6.04966,6.04966,0,0,0-1.29241,1.34624,15.087,15.087,0,0,0-1.13083,1.83087,16.55064,16.55064,0,0,1-2.04627-1.83087,17.32228,17.32228,0,0,1-1.7232-2.20785,12.79394,12.79394,0,0,1-1.40009-2.69248c-.32309-.96925-.7-1.93856-1.02314-2.96171l.59234-.32308c.2154-.1077.5385-.21539.7539-.32312a2.53491,2.53491,0,0,1,.8616-.21538c.32308-.1077.64618-.1077.86159-.21542.5385-.10767.96929-.21536,1.40008-.32309a8.9763,8.9763,0,0,0,1.29239-.4308,11.74053,11.74053,0,0,0,1.18469-.64617,1.89749,1.89749,0,0,0,.70005-.96931,1.53061,1.53061,0,0,0,.21539-.64619,1.75936,1.75936,0,0,0,0-.75389c0-.21539-.10769-.5385-.10769-.75389-.1077-.32309-.21541-.48463-.3231-.80774l-.43079-4.52337-2.53094-.86159c-2.26167-.5385-4.5772-1.02312-6.83889-1.45393-2.26168-.5385-4.57721-1.1847-6.8389-1.7232-2.26167-.64619-4.5772-1.29239-6.83887-2.04628s-4.46953-1.61549-6.62352-2.53092a27.8097,27.8097,0,0,0-4.3618-7.59279A27.29524,27.29524,0,0,0,110.23,99.8909a45.416,45.416,0,0,0-6.83889-3.87717c-2.36937-1.18469-4.79261-2.10013-7.26968-3.06943-2.58479-1.077-5.11571-2.04629-7.5928-3.231a47.09606,47.09606,0,0,1-6.83889-3.931,30.96,30.96,0,0,1-5.7619-5.54651,26.54107,26.54107,0,0,1-3.931-7.91588,11.05044,11.05044,0,0,1-.4308-1.50779l-.3231-1.61549a8.34923,8.34923,0,0,1-.2154-1.56165c-.1077-.53848-.1077-1.18466-.21539-1.61547-.10771-1.18468-.21541-2.26167-.4308-3.44637a32.37615,32.37615,0,0,0-.7539-3.28482,12.12209,12.12209,0,0,0-1.40009-2.90787,9.98462,9.98462,0,0,0-2.42322-2.31553,6.35619,6.35619,0,0,1-1.50779-.21541c-.5385-.10769-.96929-.32309-1.40009-.4308a14.42366,14.42366,0,0,1-1.29239-.64618c-.3231-.21541-.86159-.4308-1.23854-.6462a11.74943,11.74943,0,0,1-1.18469-.6462L57.88826,50.834a9.04364,9.04364,0,0,0-1.29239-.43079,6.44719,6.44719,0,0,0-1.29239-.21541,2.98168,2.98168,0,0,0-.96929.1077,2.831,2.831,0,0,0-.91544.2154,7.42641,7.42641,0,0,0-1.077.43079c-.32309.21541-.75389.43081-1.077.64621a43.63137,43.63137,0,0,1-6.1927,4.57721,42.41679,42.41679,0,0,1-6.62349,3.33867,31.76286,31.76286,0,0,1-6.9466,1.93859,40.56069,40.56069,0,0,1-7.26968.64618,5.264,5.264,0,0,1-1.40009-.1077c-.5385,0-1.02314-.10771-1.34624-.10771a6.35737,6.35737,0,0,1-1.50779-.21537c-.53849-.10771-1.077-.10771-1.50779-.2154a3.85747,3.85747,0,0,0-1.18469-.43081c-.43079-.10771-.75389-.32308-1.18469-.43079s-.7-.3231-1.13084-.43081-.75389-.32308-1.18469-.43078c-.75389-.2154-1.40009-.53851-2.154-.75389-.75389-.32311-1.40009-.53851-2.04628-.8616-.7-.32309-1.23854-.64621-1.99243-1.077A12.04988,12.04988,0,0,0,5.6542,55.89582c4.46951-.9693,9.10058-1.93859,13.67779-3.33868,4.57721-1.29239,9.26212-2.90786,14.00088-4.46951,4.68491-1.61549,9.26212-3.55407,13.89318-5.6542,4.57722-2.154,9.04672-4.20027,13.51624-6.51581h1.29238a5.14411,5.14411,0,0,1,1.93859.43081,3.75341,3.75341,0,0,1,1.50779,1.02314,13.6421,13.6421,0,0,1,1.18469,1.40009c.37694.5385.7,1.18468,1.13083,1.72318a7.64545,7.64545,0,0,0,1.077,1.5078,4.17952,4.17952,0,0,0,1.18469,1.34623,7.41529,7.41529,0,0,0,1.40008,1.18469,12.85862,12.85862,0,0,0,1.72319.8616c1.99243-1.8309,3.931-3.50023,5.8696-5.22342a60.47052,60.47052,0,0,1,5.8696-4.68491,33.19323,33.19323,0,0,1,6.085-3.66176,25.99056,25.99056,0,0,1,6.40809-2.31551c1.18469-.10773,2.31553-.10773,3.50022-.21542,1.18469,0,2.36938-.1077,3.55407-.1077h7.05429c1.13085,0,2.20782,0,3.39252.1077,1.18469,0,2.26168.10769,3.39252.10769,1.18468,0,2.26168.10773,3.44637.10773s2.26168.10769,3.39253.10769c1.18468,0,2.154.1077,3.33866.1077s2.154.10769,3.28483.10769c1.18468,0,2.154.1077,3.33867.1077a32.38384,32.38384,0,0,1,3.28482.10772h7.0543c1.18468,0,2.36937,0,3.55407-.10772,1.13084,0,2.31553-.1077,3.50022-.21539l1.077-1.077-.10769-.64619c-.10771-.1077-.2154-.1077-.32311-.21539l-.32309-.32311c-.1077-.10767-.1077-.21539-.2154-.43078-.10769-.1077-.10769-.21539-.10769-.43081v-.43078a.39568.39568,0,0,1,.10769-.32311c0-.10769.1077-.21539.1077-.32308.1077-.1077.1077-.21542.2154-.32311a6.22044,6.22044,0,0,1,1.83089-.6462,10.67087,10.67087,0,0,1,1.88473-.43078c.75389-.10772,1.29239-.10772,2.04628-.21542.75389,0,1.40008-.05384,2.154-.05384.5385,0,1.18469-.1077,1.6155-.1077.48464,0,1.13083-.10769,1.56163-.10769.5385-.1077,1.18469-.1077,1.61549-.21542.53848-.10767,1.18468-.21539,1.61548-.32308a8.27818,8.27818,0,0,0-1.29239-1.40009,6.96492,6.96492,0,0,0-1.72318-.96931,13.14513,13.14513,0,0,0-1.777-.53847,11.86863,11.86863,0,0,0-1.93859-.21542h-.8616a3.46322,3.46322,0,0,0-.86158.10773c-.3231,0-.5385.10769-.8616.10769a2.53482,2.53482,0,0,0-.86159.21539,2.23752,2.23752,0,0,1,.53849-1.29239,6.7624,6.7624,0,0,1,1.1847-1.29239c.43079-.32309,1.077-.80774,1.61547-1.13085a14.02433,14.02433,0,0,1,1.83089-.86159l1.23854-.32308a6.448,6.448,0,0,1,1.2924-.21542,5.69156,5.69156,0,0,1,1.29238-.10769h1.29239a22.68342,22.68342,0,0,1,2.74632.21541c.9693.1077,1.83088.32309,2.80018.43078.96929.21542,1.72318.43081,2.69247.6462.80775.21539,1.66935.4308,2.42324.64619l.64619-1.077c0-.32311.1077-.5385.1077-.86161a2.02876,2.02876,0,0,1,.21541-.86159,5.24834,5.24834,0,0,1,.3231-.75389,2.34871,2.34871,0,0,1,.43079-.5385c.10769,0,.10769-.10769.2154-.10769s.1077-.1077.2154-.1077h2.42322c.3231,0,.7539.1077,1.077.1077s.64619.10769.96929.10769a2.0291,2.0291,0,0,1,.8616.21539c.3231.10772.64618.10772.96929.21542a2.98191,2.98191,0,0,0,.96929.10769c.3231,0,.64619.1077.9693.1077h.91543a4.41777,4.41777,0,0,0,1.1847-.1077,3.82647,3.82647,0,0,0,1.077-.21539c.32311-.10772.75389-.32311,1.077-.4308A5.92047,5.92047,0,0,0,193.643,12.17c0-.32312-.10771-.53851-.10771-.86162v-.59232a1.44111,1.44111,0,0,1,.10771-.5385.81662.81662,0,0,1,.21538-.43081,2.35094,2.35094,0,0,1,.4308-.5385c.21541-.10769.4308-.32308.6462-.43077a1.12916,1.12916,0,0,1,.59235-.21542,1.366,1.366,0,0,1,.64618-.1077l3.55408.96931a37.53757,37.53757,0,0,0,3.71563.86159,24.27494,24.27494,0,0,0,3.87714.64619,31.42372,31.42372,0,0,0,3.931.26927h1.83088s1.13087-.10773,1.77705-.10773a7.17153,7.17153,0,0,0,1.83089-.26923,8.0666,8.0666,0,0,0,1.72318-.43081,9.044,9.044,0,0,0,.43081-1.29239,2.21262,2.21262,0,0,0,0-1.18467,4.58071,4.58071,0,0,0-.2154-1.1847c-.10771-.4308-.21541-.75389-.32311-1.077s-.1077-.5385-.21541-.86158c-.10769-.26927-.10769-.48466-.21537-.80774a2.37118,2.37118,0,0,1-.10771-.86159V1.61548a.39561.39561,0,0,1,.10771-.32309A.39572.39572,0,0,1,217.983.96928a4.61244,4.61244,0,0,1,1.83088.6462,4.83865,4.83865,0,0,1,1.34624,1.18469c.4308.5385.86159,1.077,1.18469,1.50778.43081.59235.75389,1.13085,1.1847,1.66935a6.7119,6.7119,0,0,0,.96929,1.29237,6.71189,6.71189,0,0,0,.9693,1.29239,11.78807,11.78807,0,0,0,1.077,1.18469c.4308.43081.80776.7539,1.13087,1.077.1077.10769,1.077.7,2.15395,1.45393,1.1847.86159,2.69248,1.93859,4.14644,3.01556,1.50778,1.1847,3.12328,2.154,4.308,3.06944a23.53131,23.53131,0,0,0,2.42324,1.7232,72.26762,72.26762,0,0,0,2.58476,8.13128,60.009,60.009,0,0,0,3.39255,7.26966,56.0277,56.0277,0,0,0,4.09253,6.19271C253.20055,44.42586,254.92375,46.25674,256.64692,47.87223Z" fill="#fff"/></svg>