<?xml version="1.0" encoding="UTF-8"?>
<svg xmlns="http://www.w3.org/2000/svg" xmlns:xlink="http://www.w3.org/1999/xlink" width="300px" height="300px" viewBox="0 0 300 300" version="1.1">
<g id="surface1">
<path style=" stroke:none;fill-rule:nonzero;fill:rgb(0%,23.921569%,65.098039%);fill-opacity:1;" d="M 150 300 C 232.84375 300 300 232.84375 300 150 C 300 67.15625 232.84375 0 150 0 C 67.15625 0 0 67.15625 0 150 C 0 232.84375 67.15625 300 150 300 Z M 150 300 "/>
<path style=" stroke:none;fill-rule:nonzero;fill:rgb(0%,0%,0%);fill-opacity:1;" d="M 150 227.222656 C 192.648438 227.222656 227.222656 192.648438 227.222656 150 C 227.222656 107.351562 192.648438 72.777344 150 72.777344 C 107.351562 72.777344 72.777344 107.351562 72.777344 150 C 72.777344 192.648438 107.351562 227.222656 150 227.222656 Z M 150 227.222656 "/>
<path style=" stroke:none;fill-rule:nonzero;fill:rgb(0%,0%,0%);fill-opacity:1;" d="M 290.972656 150 C 290.972656 72.152344 227.859375 9.027344 150 9.027344 C 72.140625 9.027344 9.027344 72.152344 9.027344 150 C 9.027344 163.820312 11.027344 177.167969 14.734375 189.777344 L 10.429688 191.265625 C 28.222656 251.527344 83.972656 295.5 150 295.5 C 216.027344 295.5 271.777344 251.527344 289.570312 191.265625 L 285.265625 189.777344 C 288.972656 177.152344 290.972656 163.804688 290.972656 149.984375 Z M 15.417969 150 C 15.417969 75.667969 75.667969 15.417969 150 15.417969 C 224.332031 15.417969 284.582031 75.667969 284.582031 150 C 284.582031 163.082031 282.707031 175.734375 279.222656 187.707031 L 149.984375 143.140625 L 20.777344 187.695312 C 17.292969 175.734375 15.417969 163.082031 15.417969 150 Z M 15.417969 150 "/>
<path style=" stroke:none;fill-rule:nonzero;fill:rgb(75.686275%,77.254902%,78.431373%);fill-opacity:1;" d="M 150 0 C 67.152344 0 0 67.152344 0 150 C 0 232.847656 67.152344 300 150 300 C 232.847656 300 300 232.847656 300 150 C 300 67.152344 232.847656 0 150 0 Z M 150 290.972656 C 72.140625 290.972656 9.027344 227.859375 9.027344 150 C 9.027344 72.140625 72.140625 9.027344 150 9.027344 C 227.859375 9.027344 290.972656 72.140625 290.972656 150 C 290.972656 227.859375 227.859375 290.972656 150 290.972656 Z M 150 290.972656 "/>
<path style=" stroke:none;fill-rule:nonzero;fill:rgb(0%,23.921569%,65.098039%);fill-opacity:1;" d="M 74.140625 177.582031 L 61.792969 181.847656 L 61.792969 251.667969 C 77.265625 265.097656 95.832031 275.054688 116.277344 280.332031 L 116.277344 223.332031 C 96.804688 214.359375 81.515625 197.875 74.140625 177.582031 Z M 74.140625 177.582031 "/>
<path style=" stroke:none;fill-rule:nonzero;fill:rgb(0%,23.921569%,65.098039%);fill-opacity:1;" d="M 238.179688 181.832031 L 225.847656 177.582031 C 218.472656 197.875 203.179688 214.359375 183.707031 223.332031 L 183.707031 280.320312 C 204.152344 275.042969 222.722656 265.082031 238.195312 251.652344 L 238.195312 181.832031 Z M 238.179688 181.832031 "/>
<path style=" stroke:none;fill-rule:nonzero;fill:rgb(0%,0%,0%);fill-opacity:1;" d="M 150 230.695312 C 137.957031 230.695312 126.542969 228.054688 116.277344 223.332031 L 116.277344 280.332031 C 127.054688 283.109375 138.359375 284.597656 150 284.597656 C 161.640625 284.597656 172.945312 283.109375 183.722656 280.332031 L 183.722656 223.347656 C 173.457031 228.070312 162.042969 230.707031 150 230.707031 Z M 150 230.695312 "/>
<path style=" stroke:none;fill-rule:nonzero;fill:rgb(0%,0%,0%);fill-opacity:1;" d="M 23.179688 195.152344 C 31.027344 217.207031 44.472656 236.609375 61.804688 251.652344 L 61.804688 181.832031 Z M 23.179688 195.152344 "/>
<path style=" stroke:none;fill-rule:nonzero;fill:rgb(0%,0%,0%);fill-opacity:1;" d="M 276.820312 195.167969 L 238.179688 181.847656 L 238.179688 251.667969 C 255.515625 236.625 268.957031 217.222656 276.820312 195.167969 Z M 276.820312 195.167969 "/>
<path style=" stroke:none;fill-rule:nonzero;fill:rgb(100%,100%,100%);fill-opacity:1;" d="M 119.695312 251.402344 C 120.222656 251.347656 120.957031 251.234375 121.429688 251.375 L 123.167969 251.875 C 123.722656 252.042969 123.832031 252.207031 123.707031 252.667969 L 119.609375 266.832031 C 119.472656 267.292969 119.277344 267.375 118.734375 267.222656 L 115.859375 266.390625 C 115.304688 266.234375 115.195312 266.054688 115.320312 265.597656 L 118.292969 255.304688 L 115.027344 254.375 C 114.472656 254.207031 114.359375 254.042969 114.484375 253.582031 L 114.792969 252.515625 C 114.859375 252.25 114.945312 252.082031 115.347656 251.984375 C 115.347656 251.984375 119.167969 251.457031 119.695312 251.402344 Z M 119.695312 251.402344 "/>
<path style=" stroke:none;fill-rule:nonzero;fill:rgb(100%,100%,100%);fill-opacity:1;" d="M 132.125 259.5 C 132.429688 256.390625 135.292969 254.054688 139.109375 254.445312 C 144.75 255.015625 145.847656 258.722656 145.402344 263.167969 C 144.945312 267.734375 142.582031 271.445312 137.109375 270.890625 C 134.890625 270.667969 133.195312 269.734375 131.734375 268.152344 C 131.390625 267.777344 131.515625 267.625 131.902344 267.292969 L 133.5 266 C 133.890625 265.695312 134.097656 265.625 134.457031 266.027344 C 135.320312 266.984375 136.222656 267.554688 137.777344 267.707031 C 139.582031 267.890625 141.027344 266.429688 141.277344 263.957031 C 140.722656 264.527344 139.707031 265.265625 137.042969 265 C 134.070312 264.707031 131.820312 262.777344 132.140625 259.484375 Z M 136.167969 259.652344 C 136.042969 260.972656 137.109375 262.109375 138.554688 262.25 C 140.179688 262.417969 141.277344 261.484375 141.417969 260.167969 C 141.554688 258.777344 140.652344 257.707031 139.027344 257.542969 C 137.457031 257.390625 136.304688 258.25 136.167969 259.640625 Z M 136.167969 259.652344 "/>
<path style=" stroke:none;fill-rule:nonzero;fill:rgb(100%,100%,100%);fill-opacity:1;" d="M 153.75 260.875 C 153.457031 257.765625 155.820312 254.929688 159.640625 254.570312 C 165.292969 254.042969 167.070312 257.472656 167.484375 261.929688 C 167.917969 266.5 166.304688 270.597656 160.832031 271.109375 C 158.609375 271.320312 156.765625 270.734375 155.027344 269.457031 C 154.625 269.152344 154.707031 268.984375 155.027344 268.582031 L 156.347656 267.015625 C 156.667969 266.640625 156.859375 266.527344 157.292969 266.859375 C 158.320312 267.640625 159.320312 268.027344 160.859375 267.875 C 162.667969 267.707031 163.804688 266 163.582031 263.515625 C 163.140625 264.179688 162.292969 265.097656 159.625 265.347656 C 156.652344 265.625 154.070312 264.167969 153.765625 260.875 Z M 157.75 260.25 C 157.875 261.570312 159.140625 262.484375 160.597656 262.347656 C 162.222656 262.195312 163.125 261.082031 163 259.765625 C 162.875 258.375 161.777344 257.5 160.152344 257.652344 C 158.582031 257.804688 157.625 258.875 157.75 260.265625 Z M 157.75 260.25 "/>
<path style=" stroke:none;fill-rule:nonzero;fill:rgb(100%,100%,100%);fill-opacity:1;" d="M 178.570312 261.140625 C 178.054688 261.277344 177.875 261.195312 177.75 260.722656 L 177.277344 259.054688 C 177.152344 258.597656 177.25 258.417969 177.765625 258.277344 L 179.777344 257.722656 C 181.472656 257.25 181.929688 256.292969 181.707031 255.472656 C 181.390625 254.332031 180.527344 253.859375 178.832031 254.332031 C 177.332031 254.75 176.890625 255.417969 176.222656 256.582031 C 175.972656 257.015625 175.722656 257.015625 175.292969 256.777344 L 173.582031 255.804688 C 173.152344 255.542969 173 255.417969 173.277344 254.984375 C 174.445312 253.167969 175.609375 251.890625 177.957031 251.234375 C 180.707031 250.457031 184.597656 250.820312 185.5 254.054688 C 185.929688 255.609375 185.277344 257.015625 184.375 257.945312 L 184.375 257.972656 C 185.75 258.207031 187.234375 258.695312 187.777344 260.625 C 188.679688 263.859375 186.097656 266.167969 182.417969 267.195312 C 180.070312 267.847656 178.082031 267.457031 176.152344 266.515625 C 175.695312 266.292969 175.75 266.109375 175.984375 265.652344 L 176.945312 263.957031 C 177.195312 263.527344 177.417969 263.417969 177.847656 263.640625 C 179.082031 264.222656 180.054688 264.515625 181.542969 264.097656 C 183.722656 263.484375 184.097656 262.527344 183.777344 261.390625 C 183.554688 260.570312 182.582031 260.015625 180.890625 260.484375 L 178.542969 261.140625 Z M 178.570312 261.140625 "/>
<path style=" stroke:none;fill-rule:nonzero;fill:rgb(100%,100%,100%);fill-opacity:1;" d="M 48.457031 121.679688 C 48.152344 121.167969 48.292969 120.917969 48.777344 120.597656 L 50.945312 119.195312 C 51.445312 118.875 51.652344 118.804688 51.957031 119.320312 C 53.207031 121.515625 53.640625 124.652344 53.042969 127.445312 C 51.820312 133.125 46.515625 136.902344 41.304688 135.777344 C 36.097656 134.652344 32.804688 129.042969 34.015625 123.359375 C 34.609375 120.570312 36.292969 117.875 38.332031 116.390625 C 38.820312 116.042969 38.972656 116.195312 39.304688 116.695312 L 40.707031 118.859375 C 41.015625 119.347656 41.042969 119.625 40.554688 119.972656 C 39.054688 120.972656 38.097656 122.375 37.707031 124.152344 C 36.945312 127.722656 39.417969 130.402344 42.320312 131.027344 C 45.179688 131.640625 48.570312 130.234375 49.347656 126.652344 C 49.734375 124.859375 49.429688 123.207031 48.472656 121.667969 Z M 48.457031 121.679688 "/>
<path style=" stroke:none;fill-rule:nonzero;fill:rgb(100%,100%,100%);fill-opacity:1;" d="M 59.902344 105.070312 C 60.402344 105.332031 60.457031 105.570312 60.167969 106.109375 L 58.667969 108.957031 C 58.375 109.5 58.152344 109.582031 57.652344 109.332031 L 42.320312 101.292969 C 41.820312 101.027344 41.765625 100.792969 42.054688 100.25 L 48.277344 88.390625 C 48.570312 87.847656 48.792969 87.765625 49.292969 88.015625 L 51.292969 89.054688 C 51.792969 89.320312 51.847656 89.554688 51.554688 90.097656 L 47.195312 98.402344 L 50.542969 100.152344 L 54.765625 92.109375 C 55.054688 91.570312 55.277344 91.484375 55.777344 91.75 L 57.777344 92.792969 C 58.277344 93.054688 58.332031 93.277344 58.042969 93.832031 L 53.820312 101.875 Z M 59.902344 105.070312 "/>
<path style=" stroke:none;fill-rule:nonzero;fill:rgb(100%,100%,100%);fill-opacity:1;" d="M 92.457031 67.777344 C 92.457031 68.332031 92.457031 68.679688 92.234375 68.832031 L 91.929688 69.054688 C 91.707031 69.207031 91.390625 69.109375 90.859375 68.929688 L 81.179688 65.917969 L 84.832031 72.832031 C 85.109375 73.359375 85.109375 73.527344 84.609375 73.890625 L 82 75.765625 C 81.5 76.125 81.167969 76.125 80.929688 75.640625 L 72.402344 59.417969 C 72.320312 59.25 72.304688 59.179688 72.472656 59.070312 L 72.667969 58.929688 C 72.765625 58.859375 72.859375 58.847656 73.097656 58.929688 L 88.304688 63.679688 L 88.667969 47.75 C 88.667969 47.515625 88.722656 47.417969 88.820312 47.347656 L 89.015625 47.207031 C 89.179688 47.082031 89.234375 47.109375 89.375 47.25 L 102 60.527344 C 102.359375 60.929688 102.277344 61.222656 101.777344 61.582031 L 99.167969 63.457031 C 98.667969 63.820312 98.484375 63.777344 98.097656 63.332031 L 92.777344 57.484375 L 92.484375 67.792969 Z M 92.457031 67.777344 "/>
<path style=" stroke:none;fill-rule:nonzero;fill:rgb(100%,100%,100%);fill-opacity:1;" d="M 115.820312 35.875 C 121.390625 34.207031 127.25 37.042969 128.777344 42.152344 C 130.304688 47.265625 126.972656 52.859375 121.402344 54.527344 C 115.832031 56.195312 109.972656 53.359375 108.445312 48.25 C 106.917969 43.140625 110.25 37.542969 115.820312 35.875 Z M 120.320312 50.902344 C 123.929688 49.820312 124.957031 46.347656 124.125 43.554688 C 123.277344 40.707031 120.527344 38.417969 116.902344 39.5 C 113.402344 40.542969 112.25 44 113.097656 46.847656 C 113.929688 49.652344 116.804688 51.945312 120.320312 50.902344 Z M 120.320312 50.902344 "/>
<path style=" stroke:none;fill-rule:nonzero;fill:rgb(100%,100%,100%);fill-opacity:1;" d="M 189.625 37.707031 C 190.222656 37.875 190.347656 38.070312 190.195312 38.625 L 189.542969 40.972656 C 189.390625 41.515625 189.179688 41.625 188.582031 41.457031 L 182.984375 39.902344 L 179.207031 53.542969 C 179.054688 54.082031 178.847656 54.195312 178.25 54.027344 L 175.152344 53.167969 C 174.554688 53 174.429688 52.804688 174.582031 52.265625 L 178.359375 38.625 L 172.765625 37.070312 C 172.167969 36.902344 172.042969 36.707031 172.195312 36.152344 L 172.847656 33.804688 C 173 33.265625 173.207031 33.152344 173.804688 33.320312 L 189.625 37.695312 Z M 145.597656 49.429688 C 145.597656 50 145.417969 50.152344 144.804688 50.152344 L 141.597656 50.152344 C 140.972656 50.152344 140.804688 49.984375 140.804688 49.429688 L 140.804688 31.277344 C 140.804688 31.097656 140.859375 31.042969 141.070312 31.042969 L 141.359375 31.042969 C 141.570312 31.042969 141.707031 31.125 141.917969 31.277344 L 154.417969 41.542969 L 154.417969 32.109375 C 154.417969 31.542969 154.597656 31.390625 155.207031 31.390625 L 158.417969 31.390625 C 159.042969 31.390625 159.207031 31.554688 159.207031 32.109375 L 159.207031 50.265625 C 159.207031 50.445312 159.152344 50.5 158.945312 50.5 L 158.652344 50.5 C 158.445312 50.5 158.304688 50.417969 158.097656 50.265625 L 145.597656 39.859375 Z M 145.597656 49.429688 "/>
<path style=" stroke:none;fill-rule:nonzero;fill:rgb(100%,100%,100%);fill-opacity:1;" d="M 208.527344 59.277344 L 209.222656 67.820312 C 209.265625 68.625 208.695312 68.597656 208.152344 68.277344 L 205.597656 66.75 C 205.070312 66.429688 204.875 66.070312 204.804688 65.429688 L 204.140625 57.125 L 202.722656 56.277344 L 199.234375 62.097656 C 198.945312 62.582031 198.707031 62.625 198.179688 62.304688 L 195.417969 60.652344 C 194.890625 60.332031 194.820312 60.109375 195.109375 59.625 L 204 44.765625 C 204.292969 44.277344 204.527344 44.234375 205.054688 44.554688 L 211.359375 48.320312 C 214.25 50.042969 217.152344 53.277344 214.917969 57.015625 C 213.375 59.597656 210.890625 59.917969 208.515625 59.277344 Z M 207.320312 54.804688 C 209.097656 55.859375 210.222656 55.820312 210.929688 54.625 C 211.652344 53.429688 211.152344 52.417969 209.375 51.359375 L 206.640625 49.722656 L 204.570312 53.167969 L 207.304688 54.804688 Z M 207.320312 54.804688 "/>
<path style=" stroke:none;fill-rule:nonzero;fill:rgb(100%,100%,100%);fill-opacity:1;" d="M 217.707031 76.179688 C 217.277344 75.734375 217.277344 75.5 217.679688 75.109375 L 230.195312 63.140625 C 230.597656 62.75 230.832031 62.765625 231.265625 63.207031 L 240.515625 72.875 C 240.945312 73.320312 240.945312 73.554688 240.542969 73.945312 L 238.917969 75.5 C 238.515625 75.890625 238.277344 75.875 237.847656 75.429688 L 231.359375 68.652344 L 228.625 71.265625 L 234.847656 77.765625 C 235.277344 78.207031 235.277344 78.445312 234.875 78.832031 L 233.25 80.390625 C 232.847656 80.777344 232.609375 80.765625 232.179688 80.320312 L 225.957031 73.820312 L 223.152344 76.5 L 229.640625 83.277344 C 230.070312 83.722656 230.070312 83.957031 229.667969 84.347656 L 228.042969 85.902344 C 227.640625 86.292969 227.402344 86.277344 226.972656 85.832031 L 217.722656 76.167969 Z M 239.875 66.234375 C 239.429688 66.167969 239.042969 65.972656 238.707031 65.640625 L 237 63.847656 C 236.640625 63.457031 236.722656 63.207031 237.597656 63.234375 L 242.820312 63.347656 C 243.390625 63.332031 243.542969 63.722656 243.417969 64.320312 L 243.015625 66.222656 C 242.890625 66.707031 242.75 66.832031 242.097656 66.734375 L 239.890625 66.25 Z M 239.875 66.234375 "/>
<path style=" stroke:none;fill-rule:nonzero;fill:rgb(100%,100%,100%);fill-opacity:1;" d="M 244.265625 113.042969 C 244.054688 113.390625 243.597656 113.320312 243.390625 112.929688 L 241.640625 109.582031 C 241.390625 109.109375 241.457031 108.890625 241.804688 108.332031 L 243.527344 105.667969 L 239.679688 98.320312 L 236.515625 98.207031 C 235.859375 98.179688 235.640625 98.097656 235.390625 97.625 L 233.640625 94.277344 C 233.429688 93.890625 233.652344 93.5 234.042969 93.5 L 254.484375 94.457031 C 255.027344 94.515625 255.304688 94.457031 255.429688 94.695312 L 255.472656 94.777344 C 255.597656 95.015625 255.402344 95.207031 255.125 95.695312 L 244.25 113.027344 Z M 249.597656 97.640625 L 243.304688 97.542969 L 246.125 102.929688 L 249.625 97.707031 L 249.597656 97.652344 Z M 249.597656 97.640625 "/>
<path style=" stroke:none;fill-rule:nonzero;fill:rgb(100%,100%,100%);fill-opacity:1;" d="M 252.695312 134.945312 C 252.820312 135.554688 252.695312 135.75 252.152344 135.875 L 249.945312 136.332031 C 249.390625 136.445312 249.195312 136.304688 249.070312 135.707031 L 246.554688 123.820312 C 246.429688 123.207031 246.554688 123.015625 247.097656 122.890625 L 264.042969 119.320312 C 264.597656 119.207031 264.792969 119.347656 264.917969 119.945312 L 265.582031 123.082031 C 265.707031 123.695312 265.582031 123.890625 265.042969 124.015625 L 251 126.972656 L 252.679688 134.929688 Z M 252.695312 134.945312 "/>
<path style=" stroke:none;fill-rule:nonzero;fill:rgb(0%,0%,0%);fill-opacity:1;" d="M 183.722656 204.125 C 187 199.765625 190.070312 195.042969 192.875 190 C 205.320312 167.609375 212.027344 140.695312 212.292969 112.167969 C 212.320312 108.445312 212.207031 104.082031 211.972656 99.832031 C 206.359375 98.097656 196.265625 95.277344 183.707031 93.167969 L 183.722656 204.152344 Z M 183.722656 216.765625 C 182.472656 218.152344 181.207031 219.5 179.917969 220.792969 L 179.890625 220.820312 C 177.320312 223.402344 174.679688 225.804688 171.945312 228.042969 C 171.902344 228.070312 171.859375 228.109375 171.820312 228.140625 C 169.777344 229.792969 167.695312 231.347656 165.582031 232.792969 C 165.570312 232.792969 165.554688 232.820312 165.527344 232.820312 C 164.859375 233.277344 164.195312 233.707031 163.527344 234.140625 C 163.445312 234.195312 163.375 234.234375 163.292969 234.292969 C 162.625 234.707031 161.972656 235.125 161.304688 235.527344 C 161.277344 235.542969 161.234375 235.570312 161.207031 235.597656 C 159.777344 236.457031 158.320312 237.265625 156.859375 238.015625 C 156.804688 238.042969 156.734375 238.070312 156.679688 238.109375 C 156.042969 238.445312 155.390625 238.765625 154.734375 239.070312 C 154.609375 239.125 154.5 239.179688 154.375 239.234375 C 153.734375 239.542969 153.097656 239.832031 152.457031 240.109375 C 152.375 240.152344 152.304688 240.179688 152.222656 240.222656 C 151.484375 240.542969 150.75 240.847656 150.015625 241.152344 C 149.75 241.042969 149.484375 240.929688 149.222656 240.820312 C 148.832031 240.652344 148.429688 240.5 148.042969 240.332031 C 147.695312 240.179688 147.332031 240.027344 146.984375 239.859375 C 146.652344 239.707031 146.332031 239.570312 146 239.402344 C 145.640625 239.234375 145.277344 239.054688 144.917969 238.890625 C 144.597656 238.734375 144.292969 238.582031 143.972656 238.417969 C 143.609375 238.234375 143.234375 238.054688 142.875 237.859375 C 142.570312 237.707031 142.277344 237.542969 141.984375 237.375 C 141.304688 237 140.609375 236.625 139.929688 236.234375 C 139.652344 236.082031 139.390625 235.929688 139.109375 235.765625 C 138.722656 235.542969 138.347656 235.304688 137.972656 235.070312 C 137.707031 234.902344 137.429688 234.734375 137.167969 234.570312 C 136.777344 234.332031 136.402344 234.082031 136.027344 233.832031 C 135.765625 233.667969 135.515625 233.5 135.25 233.320312 C 134.859375 233.054688 134.472656 232.804688 134.082031 232.542969 C 133.890625 232.402344 133.679688 232.265625 133.484375 232.125 C 132.667969 231.554688 131.859375 230.972656 131.070312 230.375 C 130.902344 230.25 130.734375 230.125 130.554688 230 C 130.152344 229.695312 129.765625 229.390625 129.359375 229.070312 C 129.140625 228.902344 128.917969 228.722656 128.707031 228.554688 C 128.320312 228.234375 127.929688 227.917969 127.542969 227.597656 C 127.332031 227.429688 127.125 227.25 126.917969 227.070312 C 126.515625 226.734375 126.109375 226.390625 125.707031 226.042969 C 125.582031 225.945312 125.472656 225.832031 125.347656 225.722656 C 124.445312 224.929688 123.542969 224.109375 122.652344 223.277344 C 122.570312 223.207031 122.484375 223.125 122.417969 223.054688 C 122.015625 222.667969 121.597656 222.277344 121.195312 221.875 C 121.027344 221.707031 120.847656 221.542969 120.679688 221.375 C 120.292969 220.984375 119.890625 220.582031 119.5 220.195312 C 119.332031 220.027344 119.179688 219.859375 119.015625 219.695312 C 118.609375 219.277344 118.207031 218.847656 117.804688 218.417969 C 117.75 218.359375 117.707031 218.304688 117.652344 218.25 C 117.195312 217.75 116.734375 217.265625 116.277344 216.75 C 115.609375 216 114.945312 215.234375 114.292969 214.472656 C 114.140625 214.292969 113.984375 214.109375 113.832031 213.917969 C 112.527344 212.359375 111.25 210.765625 110 209.109375 C 109.847656 208.917969 109.707031 208.722656 109.554688 208.515625 C 108.320312 206.859375 107.109375 205.152344 105.945312 203.402344 C 105.804688 203.195312 105.652344 202.972656 105.515625 202.765625 C 104.929688 201.890625 104.359375 201 103.792969 200.097656 C 103.222656 199.195312 102.667969 198.277344 102.125 197.359375 C 101.984375 197.140625 101.847656 196.902344 101.722656 196.667969 C 101.179688 195.734375 100.640625 194.804688 100.109375 193.859375 C 87.015625 170.304688 79.957031 142.054688 79.679688 112.195312 C 79.652344 108.957031 79.734375 105.390625 79.890625 101.875 C 80.015625 99.125 80.179688 96.390625 80.390625 93.847656 C 80.390625 93.847656 80.417969 93.847656 80.472656 93.820312 C 80.5 93.820312 80.527344 93.792969 80.570312 93.777344 C 80.597656 93.777344 80.640625 93.75 80.679688 93.734375 C 80.722656 93.722656 80.777344 93.707031 80.832031 93.679688 C 80.875 93.667969 80.929688 93.652344 80.984375 93.625 C 81.027344 93.609375 81.070312 93.597656 81.109375 93.582031 C 81.179688 93.554688 81.25 93.527344 81.332031 93.515625 C 81.375 93.515625 81.402344 93.484375 81.445312 93.472656 C 81.570312 93.429688 81.695312 93.390625 81.832031 93.332031 C 81.875 93.332031 81.902344 93.304688 81.945312 93.292969 C 82.054688 93.25 82.179688 93.207031 82.320312 93.167969 C 82.359375 93.152344 82.417969 93.140625 82.457031 93.125 C 82.804688 93.015625 83.195312 92.875 83.625 92.734375 C 83.667969 92.722656 83.722656 92.707031 83.765625 92.695312 C 83.957031 92.640625 84.152344 92.570312 84.359375 92.5 C 84.402344 92.5 84.429688 92.472656 84.472656 92.457031 C 84.722656 92.375 84.984375 92.292969 85.25 92.207031 C 85.25 92.207031 85.25 92.207031 85.265625 92.207031 C 85.527344 92.125 85.792969 92.042969 86.070312 91.957031 C 86.109375 91.945312 86.167969 91.929688 86.222656 91.917969 C 86.5 91.832031 86.777344 91.75 87.070312 91.652344 C 87.082031 91.652344 87.097656 91.652344 87.109375 91.652344 C 87.429688 91.554688 87.765625 91.457031 88.097656 91.359375 C 88.125 91.359375 88.152344 91.347656 88.179688 91.332031 C 88.484375 91.234375 88.804688 91.152344 89.140625 91.054688 C 89.179688 91.054688 89.234375 91.027344 89.277344 91.015625 C 89.984375 90.804688 90.75 90.597656 91.542969 90.375 C 91.582031 90.375 91.640625 90.347656 91.679688 90.332031 C 92.042969 90.234375 92.402344 90.140625 92.777344 90.027344 C 92.820312 90.027344 92.859375 90 92.917969 89.984375 C 93.75 89.765625 94.609375 89.527344 95.515625 89.304688 C 95.570312 89.292969 95.625 89.277344 95.695312 89.265625 C 96.125 89.152344 96.554688 89.042969 97 88.929688 C 97.027344 88.929688 97.042969 88.929688 97.070312 88.917969 C 97.554688 88.792969 98.042969 88.679688 98.542969 88.554688 C 98.542969 88.554688 98.554688 88.554688 98.570312 88.554688 C 99.042969 88.445312 99.515625 88.332031 100 88.207031 C 100.070312 88.195312 100.125 88.179688 100.195312 88.167969 C 101.207031 87.929688 102.25 87.695312 103.320312 87.457031 C 103.375 87.457031 103.429688 87.429688 103.484375 87.417969 C 103.972656 87.304688 104.472656 87.207031 104.957031 87.097656 C 105.027344 87.082031 105.082031 87.070312 105.152344 87.054688 C 106.25 86.820312 107.359375 86.597656 108.515625 86.359375 C 108.597656 86.347656 108.695312 86.332031 108.777344 86.304688 C 109.304688 86.207031 109.832031 86.097656 110.375 86 C 110.417969 86 110.472656 85.984375 110.515625 85.972656 C 111.109375 85.859375 111.722656 85.75 112.332031 85.640625 C 112.359375 85.640625 112.375 85.640625 112.402344 85.640625 C 112.972656 85.542969 113.542969 85.445312 114.109375 85.332031 C 114.207031 85.320312 114.320312 85.292969 114.417969 85.277344 C 115.015625 85.179688 115.625 85.070312 116.222656 84.972656 C 116.222656 84.972656 116.292969 84.972656 116.320312 84.957031 C 117.429688 84.777344 118.554688 84.609375 119.707031 84.445312 C 119.847656 84.417969 120 84.402344 120.140625 84.390625 C 121.265625 84.222656 122.402344 84.070312 123.554688 83.917969 C 123.640625 83.917969 123.722656 83.890625 123.804688 83.890625 C 125 83.734375 126.222656 83.597656 127.445312 83.457031 C 127.582031 83.445312 127.722656 83.429688 127.859375 83.417969 C 129.070312 83.292969 130.304688 83.167969 131.542969 83.054688 C 131.597656 83.054688 131.667969 83.054688 131.722656 83.042969 C 133 82.929688 134.277344 82.832031 135.582031 82.734375 C 135.707031 82.734375 135.847656 82.722656 135.984375 82.707031 C 137.277344 82.625 138.582031 82.542969 139.902344 82.484375 C 139.929688 82.484375 139.972656 82.484375 140 82.484375 C 141.332031 82.417969 142.695312 82.375 144.042969 82.347656 C 144.167969 82.347656 144.277344 82.347656 144.402344 82.347656 C 145.777344 82.320312 147.152344 82.292969 148.542969 82.292969 C 148.917969 82.292969 149.957031 82.292969 149.957031 82.292969 C 149.957031 82.292969 150.984375 82.292969 151.375 82.292969 C 152.777344 82.292969 154.167969 82.304688 155.542969 82.347656 C 155.640625 82.347656 155.734375 82.347656 155.832031 82.347656 C 158.609375 82.417969 161.332031 82.542969 164.027344 82.722656 C 164.097656 82.722656 164.167969 82.722656 164.234375 82.722656 C 166.957031 82.902344 169.625 83.152344 172.222656 83.429688 C 172.25 83.429688 172.265625 83.429688 172.292969 83.429688 C 176.25 83.859375 180.054688 84.390625 183.679688 84.972656 C 184.292969 85.070312 184.902344 85.179688 185.515625 85.277344 C 185.609375 85.292969 185.707031 85.304688 185.804688 85.332031 C 186.390625 85.429688 186.957031 85.527344 187.527344 85.640625 C 187.554688 85.640625 187.570312 85.640625 187.597656 85.640625 C 188.207031 85.75 188.832031 85.859375 189.429688 85.972656 C 189.472656 85.972656 189.515625 85.984375 189.554688 86 C 190.097656 86.097656 190.640625 86.207031 191.167969 86.304688 C 191.25 86.320312 191.332031 86.332031 191.429688 86.359375 C 192.582031 86.582031 193.707031 86.820312 194.792969 87.054688 C 194.859375 87.054688 194.917969 87.082031 194.984375 87.097656 C 195.484375 87.207031 195.972656 87.304688 196.457031 87.417969 C 196.515625 87.417969 196.570312 87.445312 196.640625 87.457031 C 197.707031 87.695312 198.75 87.929688 199.75 88.167969 C 199.820312 88.179688 199.875 88.195312 199.945312 88.207031 C 200.429688 88.320312 200.902344 88.429688 201.359375 88.554688 C 201.359375 88.554688 201.390625 88.554688 201.402344 88.554688 C 201.902344 88.679688 202.402344 88.804688 202.890625 88.917969 C 202.902344 88.917969 202.917969 88.917969 202.929688 88.917969 C 203.375 89.027344 203.820312 89.140625 204.25 89.25 C 204.304688 89.265625 204.375 89.277344 204.429688 89.292969 C 205.332031 89.527344 206.207031 89.75 207.042969 89.984375 C 207.082031 89.984375 207.125 90.015625 207.167969 90.015625 C 207.542969 90.109375 207.917969 90.222656 208.277344 90.320312 C 208.332031 90.320312 208.375 90.347656 208.429688 90.359375 C 209.222656 90.582031 209.972656 90.792969 210.679688 91 C 210.734375 91.015625 210.777344 91.027344 210.832031 91.042969 C 211.167969 91.140625 211.484375 91.234375 211.792969 91.320312 C 211.804688 91.320312 211.832031 91.320312 211.847656 91.332031 C 212.195312 91.429688 212.527344 91.527344 212.847656 91.625 C 212.847656 91.625 212.875 91.625 212.890625 91.625 C 213.179688 91.707031 213.472656 91.804688 213.75 91.890625 C 213.792969 91.902344 213.847656 91.917969 213.890625 91.929688 C 214.167969 92.015625 214.445312 92.097656 214.707031 92.179688 C 214.984375 92.265625 215.234375 92.347656 215.484375 92.429688 C 215.527344 92.429688 215.570312 92.457031 215.609375 92.472656 C 215.804688 92.542969 216 92.597656 216.179688 92.652344 C 216.234375 92.667969 216.292969 92.679688 216.332031 92.707031 C 216.765625 92.847656 217.152344 92.972656 217.5 93.097656 C 217.542969 93.109375 217.597656 93.125 217.640625 93.140625 C 217.765625 93.179688 217.890625 93.222656 218 93.265625 C 218.042969 93.265625 218.082031 93.292969 218.125 93.304688 C 218.265625 93.347656 218.390625 93.402344 218.515625 93.445312 C 218.554688 93.457031 218.597656 93.472656 218.625 93.484375 C 218.707031 93.515625 218.777344 93.542969 218.847656 93.570312 C 218.890625 93.582031 218.929688 93.597656 218.972656 93.609375 C 219.027344 93.625 219.070312 93.652344 219.109375 93.667969 C 219.179688 93.695312 219.25 93.722656 219.304688 93.734375 C 219.332031 93.734375 219.359375 93.75 219.375 93.765625 C 219.5 93.804688 219.570312 93.832031 219.570312 93.832031 C 219.859375 97.429688 220.082031 101.445312 220.207031 105.359375 C 220.277344 107.707031 220.304688 110.015625 220.277344 112.179688 C 220.027344 139.554688 214.070312 165.570312 203 187.859375 C 201.984375 189.890625 200.945312 191.890625 199.859375 193.847656 C 199.332031 194.792969 198.804688 195.722656 198.265625 196.640625 C 198.125 196.875 197.984375 197.097656 197.859375 197.332031 C 197.320312 198.25 196.765625 199.167969 196.195312 200.070312 C 195.625 200.972656 195.054688 201.847656 194.472656 202.722656 C 194.332031 202.945312 194.179688 203.152344 194.042969 203.375 C 192.875 205.125 191.667969 206.820312 190.429688 208.472656 C 190.277344 208.679688 190.125 208.875 189.972656 209.082031 C 188.734375 210.722656 187.457031 212.320312 186.152344 213.875 C 186 214.070312 185.832031 214.25 185.679688 214.445312 C 185.027344 215.207031 184.375 215.972656 183.695312 216.722656 Z M 116.292969 204.125 L 116.292969 93.152344 C 116.292969 93.152344 116.277344 93.152344 116.265625 93.152344 C 103.734375 95.265625 93.640625 98.070312 88.027344 99.820312 C 87.792969 104.070312 87.679688 108.429688 87.707031 112.152344 C 87.972656 140.679688 94.679688 167.597656 107.125 189.984375 C 109.929688 195.027344 113 199.75 116.277344 204.125 Z M 116.292969 204.125 "/>
<path style=" stroke:none;fill-rule:nonzero;fill:rgb(0%,23.921569%,65.098039%);fill-opacity:1;" d="M 88.027344 99.820312 C 87.792969 104.070312 87.679688 108.429688 87.707031 112.152344 C 87.972656 140.679688 94.679688 167.597656 107.125 189.984375 C 109.929688 195.027344 113 199.75 116.277344 204.125 L 116.277344 93.152344 C 103.734375 95.265625 93.640625 98.070312 88.027344 99.820312 Z M 88.027344 99.820312 "/>
<path style=" stroke:none;fill-rule:nonzero;fill:rgb(0%,23.921569%,65.098039%);fill-opacity:1;" d="M 192.875 190 C 205.320312 167.609375 212.027344 140.695312 212.292969 112.167969 C 212.320312 108.445312 212.207031 104.082031 211.972656 99.832031 C 206.359375 98.097656 196.265625 95.277344 183.707031 93.167969 L 183.707031 204.140625 C 187 199.777344 190.070312 195.054688 192.875 190.015625 Z M 192.875 190 "/>
<path style=" stroke:none;fill-rule:nonzero;fill:rgb(100%,100%,100%);fill-opacity:1;" d="M 210.515625 145.792969 C 196.734375 143.570312 183.652344 155.734375 173.875 178.917969 C 168.554688 191.542969 166.515625 199.695312 164.667969 209.847656 C 161.332031 209.875 156.167969 209.847656 156.167969 209.847656 C 156.167969 209.847656 157.125 203.109375 159.375 193.527344 C 161.609375 183.957031 170.625 159.972656 173.875 148.554688 C 174.332031 146.972656 174.679688 145.417969 174.945312 143.890625 C 178.945312 120.625 161.859375 105.070312 150 97.25 C 138.125 105.070312 121.027344 120.625 125.042969 143.890625 C 125.304688 145.429688 125.640625 146.984375 126.097656 148.554688 C 129.347656 159.984375 138.359375 183.957031 140.609375 193.527344 C 142.847656 203.109375 143.820312 209.847656 143.820312 209.847656 C 143.820312 209.847656 138.640625 209.875 135.320312 209.847656 C 133.457031 199.695312 131.417969 191.554688 126.097656 178.917969 C 116.332031 155.734375 103.25 143.582031 89.457031 145.792969 C 88.179688 146 86.929688 146.332031 85.722656 146.777344 C 88.640625 161.347656 93.320312 175.140625 99.667969 187.695312 C 99.707031 187.695312 99.734375 187.679688 99.777344 187.679688 C 106.609375 186.597656 113.292969 188.417969 118.027344 192.765625 C 125.359375 199.5 125.390625 209.832031 125.390625 209.832031 L 113.722656 209.832031 C 117.234375 214.265625 120.984375 218.332031 124.917969 221.984375 C 131.902344 221.984375 139.625 221.984375 141.890625 221.984375 C 141.332031 225.25 138.972656 228.222656 135.609375 230.570312 C 140.25 233.75 145.070312 236.402344 150 238.457031 C 154.929688 236.417969 159.75 233.765625 164.375 230.582031 C 161.015625 228.234375 158.640625 225.25 158.082031 221.984375 C 160.347656 221.984375 168.097656 221.984375 175.082031 221.984375 C 179.015625 218.332031 182.765625 214.277344 186.277344 209.832031 L 174.570312 209.832031 C 174.570312 209.832031 174.597656 199.5 181.945312 192.765625 C 186.679688 188.417969 193.332031 186.597656 200.179688 187.679688 C 200.234375 187.679688 200.277344 187.695312 200.332031 187.707031 C 206.679688 175.152344 211.375 161.359375 214.292969 146.792969 C 213.054688 146.332031 211.804688 146 210.515625 145.792969 Z M 210.515625 145.792969 "/>
<path style=" stroke:none;fill-rule:nonzero;fill:rgb(75.686275%,77.254902%,78.431373%);fill-opacity:1;" d="M 125.027344 143.875 C 125.292969 145.417969 125.625 146.972656 126.082031 148.542969 C 129.332031 159.972656 138.347656 183.945312 140.597656 193.515625 C 142.832031 203.097656 143.804688 209.832031 143.804688 209.832031 L 149.984375 209.832031 L 149.984375 97.234375 C 138.109375 105.054688 121.015625 120.609375 125.027344 143.875 Z M 125.027344 143.875 "/>
<path style=" stroke:none;fill-rule:nonzero;fill:rgb(75.686275%,77.254902%,78.431373%);fill-opacity:1;" d="M 279.945312 185.195312 L 230.25 168.054688 C 231.554688 162.25 232.25 156.207031 232.25 150 C 232.25 136.207031 228.847656 123.195312 222.847656 111.777344 C 222.875 106.25 222.609375 99.542969 222.125 93.679688 L 222 92.082031 L 220.5 91.527344 C 220.347656 91.472656 213.195312 88.847656 201.792969 86.097656 C 187.652344 74.625 169.640625 67.75 150.015625 67.75 C 130.390625 67.75 112.359375 74.625 98.222656 86.097656 C 86.832031 88.847656 79.667969 91.472656 79.515625 91.527344 L 78.015625 92.082031 L 77.890625 93.679688 C 77.402344 99.542969 77.140625 106.25 77.167969 111.777344 C 71.167969 123.195312 67.75 136.207031 67.75 150 C 67.75 156.207031 68.457031 162.234375 69.75 168.042969 L 20.054688 185.179688 C 20.5 186.820312 20.972656 188.429688 21.472656 190.042969 L 71 172.957031 C 78.554688 198.972656 98.609375 219.667969 124.222656 228.109375 C 131.957031 234.804688 140.332031 240.015625 149.070312 243.5 L 150 243.875 L 150.929688 243.5 C 159.667969 240.015625 168.042969 234.792969 175.777344 228.109375 C 201.390625 219.667969 221.445312 198.972656 229 172.972656 L 278.527344 190.054688 C 279.027344 188.445312 279.5 186.820312 279.945312 185.195312 Z M 150 72.777344 C 164 72.777344 177.429688 76.484375 189.179688 83.417969 C 178.207031 81.390625 165.167969 79.765625 151.417969 79.765625 L 148.597656 79.765625 C 134.847656 79.765625 121.804688 81.375 110.820312 83.417969 C 122.570312 76.472656 136 72.777344 150 72.777344 Z M 95.390625 204.609375 C 80.804688 190.027344 72.765625 170.640625 72.765625 150 C 72.765625 140.679688 74.417969 131.609375 77.554688 123.125 C 79.25 149.375 86.207031 174.082031 97.902344 195.125 C 102.777344 203.890625 108.402344 211.804688 114.609375 218.679688 C 107.609375 215.054688 101.125 210.347656 95.390625 204.609375 Z M 92.695312 171.652344 C 93.179688 172.972656 93.679688 174.277344 94.195312 175.582031 C 93.679688 174.277344 93.179688 172.972656 92.695312 171.652344 Z M 94.304688 175.847656 C 94.832031 177.167969 95.375 178.472656 95.945312 179.777344 C 95.390625 178.484375 94.832031 177.167969 94.304688 175.847656 Z M 95.945312 179.792969 C 97.109375 182.472656 98.347656 185.109375 99.652344 187.679688 C 98.347656 185.097656 97.109375 182.472656 95.945312 179.792969 Z M 135.847656 230.75 C 136.347656 231.097656 136.847656 231.429688 137.347656 231.765625 C 137.027344 231.554688 136.695312 231.347656 136.375 231.125 C 136.195312 231 136.027344 230.875 135.847656 230.75 Z M 150 238.472656 C 149.402344 238.222656 148.792969 237.957031 148.195312 237.695312 C 148.792969 237.957031 149.402344 238.222656 150 238.472656 L 150 221.917969 L 141.890625 222 C 141.332031 225.265625 138.957031 228.234375 135.609375 230.597656 C 132.582031 228.515625 129.625 226.222656 126.765625 223.695312 C 117.445312 215.472656 109.109375 204.972656 102.292969 192.695312 C 101.390625 191.054688 100.5 189.402344 99.652344 187.722656 C 99.695312 187.722656 99.734375 187.707031 99.777344 187.695312 C 106.609375 186.609375 113.292969 188.429688 118.027344 192.777344 C 123.484375 197.792969 124.902344 204.792969 125.265625 208.054688 C 122.972656 179.292969 104.832031 167.304688 92.667969 171.582031 C 86.042969 153.554688 82.472656 133.679688 82.207031 112.984375 C 82.207031 112.734375 82.207031 112.484375 82.207031 112.234375 C 82.179688 109.484375 82.234375 106.402344 82.359375 103.265625 C 82.457031 100.734375 82.597656 98.195312 82.777344 95.75 C 84.292969 95.234375 86.902344 94.390625 90.390625 93.390625 C 93.222656 92.582031 96.640625 91.667969 100.527344 90.75 C 112.917969 87.820312 130.097656 84.820312 148.609375 84.820312 L 151.429688 84.820312 C 169.945312 84.820312 187.125 87.820312 199.515625 90.75 C 203.402344 91.667969 206.820312 92.582031 209.652344 93.390625 C 213.140625 94.390625 215.75 95.234375 217.265625 95.75 C 217.445312 98.195312 217.582031 100.75 217.679688 103.277344 C 217.804688 106.417969 217.859375 109.5 217.832031 112.25 C 217.832031 112.5 217.832031 112.75 217.832031 113.015625 C 217.570312 133.707031 213.984375 153.582031 207.375 171.597656 C 195.207031 167.347656 177.082031 179.332031 174.804688 208.082031 C 175.167969 204.820312 176.582031 197.820312 182.042969 192.804688 C 186.777344 188.457031 193.445312 186.640625 200.292969 187.722656 C 200.320312 187.722656 200.359375 187.722656 200.390625 187.734375 C 199.542969 189.417969 198.667969 191.082031 197.75 192.722656 C 190.929688 205 182.597656 215.5 173.277344 223.722656 C 170.179688 226.457031 166.972656 228.945312 163.667969 231.152344 C 159.265625 234.109375 154.707031 236.570312 150.042969 238.515625 Z M 137.359375 231.765625 C 137.929688 232.140625 138.5 232.5 139.082031 232.847656 C 138.515625 232.484375 137.929688 232.125 137.359375 231.765625 Z M 139.140625 232.890625 C 139.695312 233.222656 140.25 233.554688 140.792969 233.890625 C 140.234375 233.570312 139.679688 233.234375 139.140625 232.890625 Z M 140.929688 233.972656 C 141.457031 234.277344 141.984375 234.570312 142.515625 234.859375 C 141.984375 234.570312 141.457031 234.277344 140.929688 233.972656 Z M 142.734375 235 C 143.234375 235.265625 143.722656 235.527344 144.222656 235.792969 C 143.722656 235.527344 143.234375 235.277344 142.734375 235 Z M 144.554688 235.957031 C 145.027344 236.195312 145.5 236.429688 145.957031 236.667969 C 145.484375 236.429688 145.015625 236.207031 144.554688 235.957031 Z M 146.375 236.859375 C 146.832031 237.082031 147.292969 237.292969 147.765625 237.5 C 147.304688 237.292969 146.832031 237.082031 146.375 236.859375 Z M 207.304688 171.640625 C 206.820312 172.957031 206.320312 174.277344 205.792969 175.582031 C 206.304688 174.277344 206.820312 172.957031 207.304688 171.640625 Z M 205.695312 175.832031 C 204.070312 179.890625 202.277344 183.847656 200.347656 187.695312 C 202.292969 183.847656 204.070312 179.902344 205.695312 175.832031 Z M 204.597656 204.609375 C 198.859375 210.347656 192.390625 215.054688 185.375 218.679688 C 191.582031 211.804688 197.207031 203.890625 202.082031 195.125 C 213.777344 174.082031 220.734375 149.375 222.429688 123.140625 C 225.570312 131.625 227.222656 140.695312 227.222656 150.015625 C 227.222656 170.640625 219.195312 190.027344 204.597656 204.625 Z M 204.597656 204.609375 "/>
</g>
</svg>
