<svg xmlns="http://www.w3.org/2000/svg" viewBox="0 0 200 200" width="200" height="200">
	<style>
		tspan { white-space:pre }
		.shp0 { fill: #071d49 } 
		.shp1 { fill: #d70f27 } 
	</style>
	<g >
		<path class="shp0" d="M199.96 100.08C199.96 155.21 155.29 199.88 100.16 199.88C45.03 199.88 0.36 155.21 0.36 100.08C0.36 44.95 45.03 0.28 100.16 0.28C155.29 0.28 199.96 44.95 199.96 100.08Z" />
	</g>
	<g >
		<path class="shp1" d="M14.37 80.2L17.17 73.09L29.06 72.77C29.22 72.77 29.54 72.81 29.98 72.81C30.42 72.85 30.82 72.85 31.1 72.93L31.14 72.89C30.82 72.69 30.26 72.26 29.54 71.58L21.12 63.27L23.99 56.01L40.76 62.63L39.04 66.99L28.34 62.75C27.35 62.36 26.43 61.92 25.59 61.4L25.55 61.48C25.75 61.64 26.11 61.92 26.59 62.32C27.07 62.71 27.47 63.11 27.86 63.51L36.81 72.69L35.05 77.17L22.36 77.56C21.52 77.56 20.52 77.52 19.28 77.41L19.24 77.49C19.92 77.64 20.92 77.96 22.16 78.44L32.81 82.67L31.18 86.83L14.37 80.2Z" />
		<path fill-rule="evenodd" class="shp1" d="M46.35 55.45C44.51 56.21 42.71 56.41 40.96 56.09C39.24 55.77 37.68 54.93 36.29 53.57C34.93 52.22 34.05 50.66 33.69 48.94C33.33 47.23 33.53 45.43 34.25 43.55C34.97 41.72 36.21 39.92 37.88 38.16C39.56 36.45 41.36 35.21 43.19 34.45C45.03 33.73 46.83 33.49 48.54 33.81C50.3 34.13 51.82 34.93 53.21 36.29C54.57 37.64 55.45 39.2 55.77 40.92C56.09 42.63 55.93 44.43 55.21 46.31C54.49 48.14 53.29 49.94 51.62 51.7C49.94 53.49 48.18 54.69 46.35 55.45ZM50.86 46.07C51.22 44.99 51.3 43.95 51.06 42.95C50.82 41.92 50.3 41.04 49.46 40.24C48.62 39.44 47.7 38.92 46.71 38.68C45.67 38.48 44.63 38.56 43.59 38.92C42.51 39.32 41.56 39.96 40.6 40.92C39.68 41.84 39.04 42.87 38.64 43.91C38.28 44.99 38.2 46.03 38.44 47.03C38.68 48.06 39.2 48.94 40.04 49.74C40.88 50.54 41.8 51.06 42.79 51.3C43.83 51.54 44.87 51.46 45.91 51.06C46.95 50.66 47.94 50.02 48.86 49.06C49.86 48.14 50.5 47.15 50.86 46.07Z" />
		<path class="shp1" d="M55.17 24.55L60.16 22.28L72.97 27.66C73.77 28.02 74.49 28.42 75.13 28.94L75.21 28.9L74.13 26.55L70.1 17.72L74.33 15.77L81.8 32.18L77.17 34.29L63.95 28.9C63.59 28.74 63.19 28.54 62.75 28.3C62.36 28.06 62 27.82 61.8 27.62L61.72 27.66L62.75 29.94L66.87 38.96L62.63 40.92L55.17 24.55Z" />
		<path class="shp1" d="M103.67 15.69L96.21 16.37L97.49 30.34L92.38 30.82L91.1 16.81L83.63 17.49L83.27 13.53L103.31 11.7L103.67 15.69Z" />
		<path fill-rule="evenodd" class="shp1" d="M119.76 26.11L114.65 24.91L113.21 31.14L108.22 29.98L112.3 12.42L124.27 15.21C126.87 15.81 128.62 16.77 129.46 18.12C130.34 19.44 130.62 20.92 130.22 22.48C129.98 23.59 129.42 24.55 128.54 25.35C127.66 26.15 126.51 26.63 125.03 26.75L128.06 34.61L122.44 33.29L119.76 26.11ZM115.37 21.72L121.2 23.07C122.32 23.35 123.19 23.27 123.79 22.95C124.39 22.59 124.75 22.08 124.95 21.36C125.11 20.68 124.99 20.04 124.63 19.48C124.23 18.92 123.51 18.52 122.4 18.24L116.53 16.89L115.37 21.72Z" />
		<path class="shp1" d="M148.86 43.15L146.95 46.19L131.38 36.37L141 21.12L156.41 30.82L154.49 33.85L143.43 26.87L141.48 29.94L152.18 36.69L150.38 39.52L139.68 32.77L137.6 36.05L148.86 43.15ZM151.46 26.19L147.86 23.91L152.69 23.43L156.93 26.07L151.46 26.19Z" />
		<path fill-rule="evenodd" class="shp1" d="M162.71 58.92L156.53 51.02L152.61 51.94L149.18 47.58L168.94 43.55L172.89 48.58L164.27 66.83L160.88 62.51L162.71 58.92ZM164.35 55.73L166.83 50.86C167.03 50.5 167.31 50.02 167.62 49.5C167.94 48.98 168.22 48.46 168.54 48.02L168.5 47.98C167.98 48.18 167.43 48.34 166.87 48.54C166.27 48.7 165.79 48.86 165.35 48.98L160.04 50.22L164.35 55.73Z" />
		<path class="shp1" d="M182.28 64.07L183.95 68.9L170.74 73.53L174.77 85.07L170.98 86.39L165.23 70.02L182.28 64.07Z" />
		<path fill-rule="evenodd" class="shp1" d="M21.68 127.7L19.04 118L15.09 117.33L13.65 112.02L33.45 115.97L35.13 122.16L20.08 135.57L18.64 130.26L21.68 127.7ZM24.43 125.35L28.58 121.8C28.94 121.52 29.34 121.2 29.82 120.84C30.3 120.48 30.78 120.16 31.26 119.84L31.26 119.8C30.7 119.76 30.14 119.72 29.54 119.68C28.94 119.6 28.42 119.56 27.98 119.52L22.59 118.6L24.43 125.35Z" />
		<path class="shp1" d="M39.16 132.77L42 137.05L30.34 144.83L37.17 155.01L33.81 157.25L24.15 142.83L39.16 132.77Z" />
		<path fill-rule="evenodd" class="shp1" d="M42.63 165.19C41.68 163.43 41.28 161.68 41.4 159.92C41.52 158.16 42.16 156.53 43.35 155.01C44.55 153.49 45.99 152.46 47.66 151.94C49.34 151.42 51.14 151.38 53.09 151.9C55.01 152.42 56.93 153.41 58.84 154.89C60.76 156.41 62.16 158 63.11 159.76C64.03 161.52 64.47 163.27 64.35 165.03C64.23 166.79 63.59 168.42 62.4 169.94C61.2 171.46 59.76 172.5 58.08 173.01C56.41 173.53 54.61 173.53 52.65 173.05C50.74 172.53 48.82 171.54 46.91 170.06C45.03 168.58 43.59 166.95 42.63 165.19ZM52.5 168.66C53.61 168.9 54.65 168.86 55.61 168.5C56.61 168.14 57.45 167.5 58.16 166.63C58.88 165.71 59.28 164.75 59.4 163.71C59.52 162.67 59.32 161.64 58.8 160.64C58.28 159.64 57.52 158.72 56.49 157.88C55.45 157.09 54.37 156.53 53.29 156.29C52.18 156.05 51.14 156.09 50.18 156.45C49.18 156.81 48.34 157.45 47.62 158.32C46.91 159.24 46.51 160.2 46.39 161.24C46.27 162.28 46.47 163.31 46.99 164.31C47.5 165.31 48.26 166.23 49.3 167.03C50.34 167.9 51.38 168.42 52.5 168.66Z" />
		<path class="shp1" d="M74.97 165.27L72.1 174.25C71.62 175.73 71.7 177.09 72.3 178.28C72.93 179.48 74.05 180.36 75.73 180.88C76.81 181.24 77.8 181.32 78.72 181.16C79.64 181 80.4 180.6 81.08 179.96C81.72 179.32 82.2 178.56 82.51 177.56L85.39 168.58L90.3 170.14L87.27 179.64C86.75 181.28 85.91 182.59 84.71 183.59C83.51 184.59 82.08 185.19 80.32 185.39C78.6 185.59 76.69 185.35 74.53 184.67C72.42 183.99 70.7 183.07 69.38 181.88C68.1 180.68 67.23 179.36 66.87 177.84C66.47 176.33 66.55 174.77 67.07 173.09L70.06 163.67L74.97 165.27Z" />
		<path class="shp1" d="M112.73 184.47L112.81 188.06L94.45 188.46L94.05 170.42L112.26 170.02L112.34 173.61L99.28 173.89L99.32 177.52L111.98 177.25L112.06 180.6L99.4 180.88L99.48 184.75L112.73 184.47Z" />
		<path class="shp1" d="M134.85 166.99L127.74 169.42L132.3 182.71L127.43 184.39L122.87 171.1L115.77 173.53L114.49 169.74L133.53 163.19L134.85 166.99Z" />
		<path class="shp1" d="M153.73 153.33L147.7 157.88L156.17 169.06L152.1 172.18L143.63 160.96L137.64 165.47L135.25 162.28L151.3 150.14L153.73 153.33Z" />
		<path class="shp1" d="M175.45 141.6L178.36 143.67L167.66 158.64L152.97 148.18L163.55 133.33L166.47 135.41L158.88 146.07L161.84 148.18L169.18 137.88L171.9 139.8L164.55 150.14L167.74 152.38L175.45 141.6Z" />
		<path class="shp1" d="M182.51 132.97C181.16 134.65 179.64 135.73 177.96 136.17L176.61 131.94C177.88 131.5 179 130.74 180.04 129.62C181.08 128.5 181.84 127.07 182.36 125.35C182.83 123.79 183.03 122.59 182.95 121.72C182.87 120.88 182.48 120.36 181.8 120.12C181.28 119.96 180.8 120.04 180.44 120.36C180.04 120.68 179.64 121.36 179.2 122.36L176.97 127.47C176.09 129.54 175.05 130.94 173.89 131.7C172.73 132.46 171.38 132.57 169.82 132.1C168.1 131.54 167.03 130.34 166.55 128.46C166.11 126.59 166.31 124.15 167.23 121.2C168.62 116.69 170.82 113.77 173.81 112.42L175.45 116.29C174.37 116.65 173.41 117.41 172.57 118.48C171.7 119.56 171.02 120.92 170.54 122.51C170.14 123.83 169.94 124.95 170.06 125.71C170.14 126.51 170.46 126.99 171.06 127.19C171.62 127.35 172.06 127.27 172.42 126.91C172.77 126.55 173.21 125.83 173.69 124.75L175.65 120.12C176.29 118.56 176.97 117.37 177.68 116.53C178.36 115.69 179.16 115.13 179.96 114.89C180.8 114.65 181.72 114.69 182.79 115.01C184.67 115.61 185.87 116.89 186.39 118.92C186.91 120.96 186.67 123.51 185.67 126.63C184.95 129.18 183.87 131.3 182.51 132.97Z" />
		<path fill-rule="evenodd" class="shp1" d="M100.16 145.83L86.51 135.93L97.45 114.45L88.9 97.72C87.86 95.69 85.35 94.89 83.35 95.93C81.96 96.65 81.08 98.04 81.08 99.64L81.08 132.06L56.69 114.25L56.69 74.65C56.69 72.06 57.49 69.58 59 67.47C62.95 62.04 70.62 60.8 76.05 64.75L92.02 76.33L100.16 60.36L108.3 76.33L124.27 64.75C129.7 60.8 137.37 62 141.32 67.47C142.83 69.58 143.63 72.06 143.63 74.65L143.63 114.25L119.2 131.98L119.2 99.56C119.2 98 118.32 96.57 116.93 95.89C114.89 94.85 112.38 95.65 111.38 97.68L102.83 114.41L113.77 135.89L100.16 145.83ZM92.65 134.45L100.16 139.92L107.66 134.45L100.16 119.72L92.65 134.45ZM76.29 122.55L76.29 99.56C76.29 96.17 78.16 93.13 81.16 91.62C85.55 89.38 90.94 91.14 93.17 95.53L100.12 109.18L107.07 95.53C109.3 91.14 114.69 89.38 119.08 91.62C122.08 93.13 123.95 96.21 123.95 99.56L123.95 122.55L138.76 111.78L138.76 74.61C138.76 73.05 138.28 71.54 137.37 70.26C134.97 66.95 130.3 66.23 127.03 68.62L106.51 83.51L100.12 70.94L93.69 83.51L73.21 68.62C71.62 67.47 69.66 66.99 67.7 67.31C65.75 67.62 64.03 68.66 62.87 70.26C61.96 71.54 61.48 73.05 61.48 74.61L61.48 111.78L76.29 122.55Z" />
	</g>
</svg>