<svg height="316.227766" viewBox="0 0 640 640" width="316.227766" xmlns="http://www.w3.org/2000/svg"><path d="m320 640c176.734 0 320-143.263 320-320 0-176.717-143.266-320-320-320-176.733 0-320 143.282-320 320 0 176.737 143.268 320 320 320z" fill="#fff"/><g fill="#00205b"><path d="m337.813 15.348c36.537 57.257 53.004 78.363 53.004 110.415 0 38.477-32.335 69.672-70.816 69.672-38.49 0-70.817-31.195-70.817-69.672 0-32.052 16.466-53.158 53.001-110.415-160.258 9.22-287.374 142.082-287.374 304.652 0 168.56 136.636 305.208 305.19 305.208 168.555 0 305.19-136.648 305.19-305.208 0-162.57-127.116-295.432-287.378-304.652zm-17.812 582.06405c-153.21 0-277.403-124.21-277.403-277.412 0-128.525 87.425-236.631 206.047-268.126-6.302 7.84-27.248 36.694-27.248 73.888 0 53.74 44.233 97.46 98.604 97.46 54.375 0 98.603-43.72 98.603-97.46 0-37.194-20.955-66.047-27.248-73.888 118.628 31.49595 206.05 139.60095 206.05 268.12595 0 153.202-124.203 277.412-277.405 277.412z"/><path d="m377.744 353.266h-19.912v31.789a11.537 11.537 0 1 1 -23.074 0v-40.515h23.074v-30.025h-23.074v-23.385a11.537 11.537 0 0 1 23.074 0v14.566h19.912v-67.317h-84.142v41.214a14.74214 14.74214 0 0 1 14.748 14.75v93.814a8.44 8.44 0 0 1 -8.437 8.443h-.005v170c0 12.145-6.35 17.682-9.385 19.644a242.494 242.494 0 0 0 65.328-.876s21.892-4.344 21.892-23.648v-208.454z"/><path d="m293.603 353.266h-19.907v34.92a8.4115 8.4115 0 1 1 -16.823.001v-100.147a8.44 8.44 0 0 1 8.432-8.448h.013v-41.214h-43.292v41.214a8.44 8.44 0 0 1 8.436 8.448v100.116a8.444 8.444 0 0 1 -8.436 8.443v148.073c0 12.366-6.769 16.423-9.983 17.656a235.30708 235.30708 0 0 0 61.62 21.233s19.94 3.037 19.94-16.963z"/><path d="m215.719 544.672v-148.072a8.44484 8.44484 0 0 1 -8.44-8.446v-100.114a8.43994 8.43994 0 0 1 8.44-8.446v-41.218h-43.29v41.218a8.44057 8.44057 0 0 1 8.438 8.446v100.113a8.44637 8.44637 0 0 1 -8.438 8.446v100.867c0 21.058-10.807 24.392-16.447 24.686a229.93169 229.93169 0 0 0 44.746 34.01s14.992 5.67 14.992-11.49m334.149-238.977v-45.351a22.02411 22.02411 0 0 0 -21.958-21.963h-25.915a22.02714 22.02714 0 0 0 -21.96 21.963v60.572a14.91156 14.91156 0 0 0 4.369 9.762l34.692 31.026a15.03691 15.03691 0 0 1 4.37 9.77v13.371a11.759 11.759 0 0 1 -23.518 0v-31.575h-19.914v172.677c43.056-39.966 69.834-95.891 69.834-157.82v-8.923a15.00812 15.00812 0 0 0 -4.353-9.758l-34.7-31.023a14.98769 14.98769 0 0 1 -4.376-9.774v-20.556a8.51353 8.51353 0 0 1 17.027 0v17.603h26.402v-.00094z"/><path d="m166.12 497.466v-237.119a22.02391 22.02391 0 0 0 -21.956-21.97h-32.075a22.03182 22.03182 0 0 0 -21.966 21.97v107.779c0 53.99 20.348 103.412 54.081 141.665 6.596 8.601 21.916 11.06 21.916-12.325zm-26.404-112.455a11.5885 11.5885 0 0 1 -23.177 0v-93.83a11.5885 11.5885 0 1 1 23.177.001zm325.58 3.142v-49.115c0-8.412-9.436-12.265-9.436-12.265s9.436-3.855 9.436-12.257v-54.172a22.02844 22.02844 0 0 0 -21.96-21.963h-59.29l-.008 41.213a8.43917 8.43917 0 0 1 8.446 8.446v100.113a8.44219 8.44219 0 0 1 -8.446 8.446v165.12a27.26974 27.26974 0 0 1 -8.1 19.727 236.10368 236.10368 0 0 0 44.645-15.49s10.156-4.932 10.156-23.415v-145.942a11.8405 11.8405 0 0 1 -11.84-11.842v-36.643a9.071 9.071 0 1 1 18.142 0v196.332a48.81561 48.81561 0 0 1 -1.936 14.115 232.23152 232.23152 0 0 0 33.186-22.415s5.45-4.514 5.45-25.98v-113.567a8.44509 8.44509 0 0 1 -8.445-8.446zm-26.415-83.637a9.991 9.991 0 1 1 -19.982 0v-14.93a9.984 9.984 0 0 1 9.976-9.992h.014a9.98654 9.98654 0 0 1 9.992 9.991z"/></g><path d="m371.599 126.773c0-36.146-31.355-55.454-51.598-105.928-20.245 50.474-51.601 69.78-51.601 105.927 0 24.703 20.402 48.759 51.6 48.759 31.209 0 51.599-24.055 51.599-48.758z" fill="#d14520"/></svg>