<?xml version="1.0" encoding="UTF-8" standalone="no"?>
<svg
   xmlns:dc="http://purl.org/dc/elements/1.1/"
   xmlns:cc="http://creativecommons.org/ns#"
   xmlns:rdf="http://www.w3.org/1999/02/22-rdf-syntax-ns#"
   xmlns:svg="http://www.w3.org/2000/svg"
   xmlns="http://www.w3.org/2000/svg"
   xmlns:sodipodi="http://sodipodi.sourceforge.net/DTD/sodipodi-0.dtd"
   xmlns:inkscape="http://www.inkscape.org/namespaces/inkscape"
   viewBox="0 0 132.24948 199.60001"
   version="1.1"
   id="svg6"
   sodipodi:docname="edmonton-elks.svg"
   width="132.24948"
   height="199.60001"
   inkscape:version="1.0.1 (3bc2e813f5, 2020-09-07)">
  <metadata
     id="metadata12">
    <rdf:RDF>
      <cc:Work
         rdf:about="">
        <dc:format>image/svg+xml</dc:format>
        <dc:type
           rdf:resource="http://purl.org/dc/dcmitype/StillImage" />
      </cc:Work>
    </rdf:RDF>
  </metadata>
  <defs
     id="defs10" />
  <sodipodi:namedview
     pagecolor="#ffffff"
     bordercolor="#666666"
     borderopacity="1"
     objecttolerance="10"
     gridtolerance="10"
     guidetolerance="10"
     inkscape:pageopacity="0"
     inkscape:pageshadow="2"
     inkscape:window-width="1920"
     inkscape:window-height="1136"
     id="namedview8"
     showgrid="false"
     inkscape:zoom="3.4942549"
     inkscape:cx="58.375006"
     inkscape:cy="100.05515"
     inkscape:window-x="0"
     inkscape:window-y="27"
     inkscape:window-maximized="1"
     inkscape:current-layer="svg6" />
  <path
     d="m 89.149477,159.3 -20.3,20.6 c -1.1,-2.7 -2,-5.2 -2.2,-5.8 -3.8,-12 -0.8,-29.2 19,-40.7 l 5.4,18.5 c 0.8,2.7 0,5.5 -1.9,7.4 z"
     id="path853"
     style="fill:#fdb61c;fill-opacity:1" />
  <path
     class="st0"
     d="m 132.24948,57.7 -0.5,12.8 C 97.349477,86.1 55.049477,80.9 33.049477,67.7 19.049477,60.9 -9.9505228,35.3 3.4494772,0 c 0.2,19 14.4999998,41.8 25.2999998,49.7 -1.9,-10.6 1,-27.5 4.8,-34.8 0.8,16.5 6.9,37.2 26.7,48.2 -3,-8.1 -2.3,-23.5 1.5,-30.6 0.5,22.3 17.5,35.4 37.4,35.1 11.300003,0 22.100003,-4.9 33.100003,-9.9 z M 6.5494772,85.5 l 1.9,7.1 c 0.2,0.7 4.2999998,15.3 22.6999998,19.2 l -9.9,15.7 c -7.8,12.5 -7.5,28.3 0.8,40.3 7.5,10.9 20.3,20.6 37.8,29 l -3.9,-9.2 c -1.9,-4.5 -5,-8.4 -9,-11.2 -6.8,-4.7 -12,-9.8 -15.7,-15 -5.7,-8.3 -6,-19.2 -0.5,-27.9 l 22.8,-36.3 c -0.2,-0.1 -0.4,-0.3 -0.6,-0.4 -1.9,-1.2 -4.4,-2.2 -4.4,-2.2 1.5,-0.1 2.9,-0.2 4.4,-0.3 13,-0.5 24.8,2.3 30.5,2.5 h 35.600003 c 0,0.2 -0.3,5.5 -0.8,6.9 -0.1,0.2 -0.2,0.4 -0.4,0.5 -12.2,6.5 -22.300003,11.7 -30.600003,15.8 -11.6,5.7 -21.5,13.4 -27.3,22.9 -6.4,10.5 -7.8,22.2 -4.4,33.9 1.4,5 7,18 10,22.8 l 31.7,-32.2 c 4.800003,-4.8 6.500003,-11.9 4.700003,-18.4 l -5.900003,-20.4 c 9.700003,-4.6 21.300003,-10.9 27.800003,-14.6 6,-3.4 6.4,-10.8 6.6,-15.8 0.2,-5.5 0.6,-12.5 0.6,-12.5 H 6.5494772 Z m 31.1999998,15.8 c -5.3,-0.4 -9.6,-1.9 -13,-4.5 h 15.8 z m 51.4,58 -20.3,20.6 c -1.1,-2.7 -2,-5.2 -2.2,-5.8 -3.8,-12 -0.8,-29.2 19,-40.7 l 5.4,18.5 c 0.8,2.7 0,5.5 -1.9,7.4 z"
     fill="#FFB71B"
     id="path2"
     style="fill:#2a5335;fill-opacity:1" />
  <path
     class="st0"
     d="m 87.149477,107.7 h -15.2 c -2.1,0 -3.4,-2.4 -2.4,-4.2 l 0.4,-0.8 h -4.6 l 3.2,-2.7 c 0.6,-0.5 1.5,-0.6 2.1,-0.2 z m -12.6,89.4 h -0.9 v -0.3 h 2.1 v 0.3 h -0.9 v 2.4 h -0.4 v -2.4 z m 3.9,1.3 v -1.3 c -0.1,0.4 -0.6,1.6 -0.9,2.5 h -0.3 c -0.2,-0.7 -0.7,-2 -0.8,-2.5 v 2.5 h -0.3 v -2.8 h 0.5 c 0.3,0.8 0.7,1.9 0.8,2.3 0.1,-0.3 0.5,-1.5 0.8,-2.3 h 0.5 v 2.7 h -0.4 v -1.1 z"
     fill="#FFB71B"
     id="path4"
     style="fill:#2a5335;fill-opacity:1" />
</svg>
