<svg xmlns="http://www.w3.org/2000/svg" viewBox="0 0 3128.94 3540.67"><title>Asset 1</title><g id="Layer_2" data-name="Layer 2"><g id="Layer_1-2" data-name="Layer 1"><path d="M3082.14,3273.77c-17.6-11.61-18.86-13.3-27.42-33.08-2-4.62-3.71-12-7-13-16.89-4.86-10.65-25.33-23.33-33.24-1.87-1.17,2.51-12.37,4.43-20.85-4.77-1.88-10.32-5.78-16-5.95-12.22-.35-24.95-3.09-30.21-13.09-12.34-23.46-35.48-36.7-51.37-58.95l22.14-35.06c-20.22-15.58-18.81-42.69-26.82-57.38-18.47-14.52-30.86,9.12-46.12-5.78-8,20.46-11.21,42.81-29.22,58.06-12.53-14.54-23.28.07-33.31,2.28-7.27,11.09-13.85,21.11-22.1,33.71l-37.43-13.23-27.85,13.45-25.75-28.1h-18.4c-4.14,9.13-7.88,17.37-12.94,28.5l-31.17-17c-3.89,4.1-8,8.4-10.37,10.9,2.65,9.22,4.42,15.35,6.75,23.43h-57.71c-1.48,7.3-1.51,14.71-11.35,12.3-7.86,13.19-25.17,0-33.46,12l-2.32-2.31v-16.76l-13.47-9v-24.43c-7.93-16.93-21-27.87-21.3-45.69L2475,3045c0-15.92-4.15-30.75.87-41.17,10.18-21.14,2.41-42,6.25-63.22l-19.94-12.09c3.4-24.6-22.74-34.69-29.45-54.82-17.27-2.48-32.86,1.32-47,12.29-6.68-17.91-37.67-6.68-36.74-32.27h-10.7L2271,2803c5-9.15,9.38-17.07,13.81-25.14l-10-10h-33.1c-3.06-10.79-5.75-20.26-8-28.1l20.9-13.4c-16.24-11.18-32.27-17.08-55.29-16.46l-33.3-34.89-38.62,21.56c-15.89-9.68-32.45-8.74-48-1.67l-22.77-15.8v-33l-21.88-14.33,16.85-19.58-16-20.93c7.78-10.17,21.1-16.49,10.63-33.15l-27.8-14.5c-.06-12.91-11.59-15-20.5-19.79v-7.59l-45.85-73.7c.4-24.58-3.69-52.18,12.1-76.69-8.83-14.63-23.47-6.82-35.26-9.29-16-29.56-37-54-73.5-67.75l37.17-19.79c4.46-13.88,11.1-28,13.19-42.79,2.25-15.9,2.26-32.61-17.29-41.37-6.36-2.85-9-13.58-15.39-16.88-8.51-4.42-11.1-11.19-14.8-18.63-2-4.1-7.5-6.5-12.72-10.72-5.06,6.7-9,11.87-13.49,17.89-4-8.06-6.88-13.91-9.67-19.56l22.64-10.28,9.12-18.42c-5.62-10.9-11.08-21.51-18.6-36.12l-21,21c-4.94-6.73-11-15.05-17.63-24.06-18-6.08-38.8-8.15-54-23.35.85-12-3.39-18.27-16-23.12-7.64-3-11.28-16.22-15.72-23.27,2.53-11.21,4.76-21.14,6.84-30.35-13.18-10.76-18.14-27.1-33.52-31.65.54-34.39-19.11-52.25-46-63.85-6.36,2.67-15.8,3.89-16.85,7.52-6.4,22.17-25.71,20.53-41.86,25.17a21.39,21.39,0,0,0-6.84,3.63l-16.23-7.58,24.24-37.93-48.54-32,3.92-3.28L1520,1794.87h-16.42c-1.31-3.72-2.64-7.51-4.45-12.68l-66.42-23.52,17.52-22.22c-1.61-7.59-3.3-15.52-4.86-22.88,6.07-11.28,12.73-23.68,20.8-38.67l-37.71-19.05,16.82-18.15-12.4-15.56c-8.76,3.72-13.22,6.36-18,7.47-5.65,1.3-11.6,1.28-22.38,2.31,30.68-31.23,39.14-71.54,64-90.68,10.2-29,17.92-50.9,26.06-74l-14.37-16.74v-18.52c-8.09-8.09-15.88-15.71-23.47-23.51-8.06-8.28-15.94-16.73-23.7-24.89,32.51-35.43,33.59-39.17,18.21-59-9.26,9.56-18.1,9.51-27-.71-2.58-2.95-6.3-4.89-8.47-6.52l-17.39,8.71-20.77,39.86c-13.83-7.86-4.89-12.27-2.3-18.59s.57-14.38.57-21.09L1335.49,1316l-11.87,15.07h-26.35l-15,20.19-30-2,8.4-27.87L1245,1314l20-38.81c-10.75-8.72-3-21.8-6-32.42l-16.88-17.52h-14.64c-3.8-34.75,7.16-64.08,27.7-91.7-19.85-17.85-34.05-40.1-59.81-51.1h22.94c3.84-10,6.74-17.48,9.26-24l-24.76-47.34c-11.31,0-13.69-11.37-21.28-18.46,14.41.24,24.67-2.65,26.22-21-13.62,0-28-3.8-38.76.83-18.94,8.16-37.67,5.31-56.46,5.49-57.7.57-115.42-.22-173.13.52-14.3.18-30-5.58-42.9,5.91-4.94-8.59-19.59,4.1-20.68-3.06,7.19-22.78,2.33-40.26,5-56.7,2.79-17,8.52-33.43,13.7-52.87-15.91-12.52-14.44-31.69-14.12-50.7.27-16.3.05-32.61.05-48.74L847.8,739.64V592.85c0-47.91,1.26-95.87-.35-143.72s14.08-95.21,4.87-144l-23.44-13.63c-15,11.15-30.55,6.17-48.58,6.9l8.82-10c-9-8.69-19.37-15.31-32.35-15.78-6.75-.24-11.69-1.67-17.11-6.49-10.82-9.61-23.11-17.56-35.08-26.4-7.78-.81-15.46,1.1-23.53-5.77-14.78-12.58-31.42-23.22-48.19-33.13C621.3,194,612.37,187.73,612,172.23c-.21-8.14-6.57-16.13-10.09-24.07l-7.76,1.21c0,8.17,0,16.59,2,24.89,2.35,6.37,2.65,12.72,3,19.08l-4.37.39-2.52-19.25a35.48,35.48,0,0,0,3.94-.22c-11.62-3.28-20.21-6.21-29.06-9.22V149.71L546.89,133.5V118.2c-11.34-4.4-22.47-8.72-19.55-22.54C519.54,84.4,513,73.72,505.18,64.13c-4.54-5.54-11-12.73-17-13.21-12.92-1-24.56-14.7-38.55-4.42-.16,2.12-.31,4.23-.5,7l12,5.72V75.71h-16l-6.62-13.9c1.91-8.77,3.36-15.46,3.74-17.21L418,16.41c-17.63,4.45-35.79-3.35-53.4,7-7.3,4.27-21.67,4.44-28.46-.08-13.57-9-28.37-11-43.06-14.83-10.5-2.72-20.93-5.7-31-8.46l-8.4,6.81c-2.74,30,2.62,58.65-6.26,87.29-4.62,14.9,0,32.47-1.06,48.73-1,15.51-4.6,30.83-6.17,46.33-2.46,24.11,2.82,48.29-5.72,72.74-5.08,14.56-.08,32.4-1.18,48.66-1,15.5-4.72,30.82-6.15,46.32-2.53,27.38,3.62,55-5.92,82.47-4.39,12.64-2.49,28.33-.29,42.14,2.49,15.67-6.83,28.29-7.27,43.09-.86,28.56,1.12,56.82-5.06,85.76-6.09,28.53-1,58.9-6.87,88.68-5.29,26.67-.51,54.54-6.39,82.27s-.62,56.66-6.5,85.49c-6.08,29.78.69,61.13-6.74,92-5.84,24.27-1.3,50.08-6,75.74-5.89,32-1,65.49-7.15,98.45-5.21,27.88.69,56.73-6.2,85.61-6,25.21-1.76,52.28-6.45,78.91-5.48,31-.22,63.37-7,95.25-5.4,25.59-.53,52.28-5.93,79.07-6,29.65-1.1,61.11-7.11,91.91-5,25.68-.7,52.34-6.1,79-5.8,28.65-.94,58.91-6.85,88.7-5.29,26.67-1.2,54.52-6.25,82.26-5.63,31-.22,63.36-7,95.24-5.42,25.59-.53,52.28-5.94,79.08-6,29.65-1.09,61.11-7.11,91.9-5,25.68-.86,52.34-6.09,79.05-6,30.85-.33,63.28-6.85,95.24-5.44,26.62-1,54.52-6.26,82.27-5.43,28.75-.91,59-7,88.69-5.24,25.65-.52,52.29-5.92,79.08-6,29.65-1.17,61.1-7.12,91.9-5.38,27.85.22,56.66-6,85.62-6.17,28.5-1,58.89-6.89,88.67-5.3,26.67-.47,54.54-6.38,82.27-5.86,27.58-.63,56.67-6.52,85.49-6.08,29.78,0,61-6.53,92-5.79,27.56-.44,56.74-6.71,85.46-5.8,26.56,4.06,55.37-7.4,82,4.16,37.58-5.21,74.37-6.65,111.63-.81,20.93-2.87,41.82-4.69,67.27l79.14,50.8c17.12-6.47,6.34-22.28,14.33-33.1l78.17,47.9c28.15,2.27,42.52-23.62,57.08-44.91H335.53c11.88,36-14.39,66.2-10.77,96.27l39.58,39.62c33.17,0,68.14,1.79,102.83-.49,35.6-2.35,69.95,7.17,105.13,7,34.84-.11,69.69,0,104.53,0H993.71c35.93,0,72-1.78,107.77.51,34.52,2.21,67.69-6.75,101.84-7.6,60.08-1.48,120.06,4.57,180.42-4.86,45.07-7,91.73,1.22,137.71-7,33.31-6,67.78,3.14,102-6.24,19.24-5.28,41.16-.1,61.79-1.2,19.85-1.05,39.57-4.35,59.38-6.22,24.13-2.28,48.3,2.87,72.75-5.67,14.56-5.09,32.4-.08,48.66-1.18,15.5-1,30.81-5,46.32-6.11,38.26-2.72,76.58-4.54,114.88-6.69,2.17-.13,5.23.92,6.4-.16,14.09-13,31.06-3.77,46.44-6.32s30.79-5.12,46.3-6.47c30.63-2.67,61.34-4.5,92-6.67,1.09-.07,2.62.47,3.2-.08,11.86-11.11,26.51-4.65,39.82-6.53s26.62-6.57,39.75-6c28.94,1.26,56.47-11.91,85.52-7.05,2.12.36,5.45,1,6.36-.09,10.56-12.41,24.49-4.38,36.69-6.23,13.29-2,25.23-8.8,39.79-7.16,22.05,2.49,43.22-10.49,65.84-6.07,9.57-9.83,21.94-5.25,33.2-6.7s22.3-6.48,33.23-5.9c23.6,1.24,45.45-12,69.18-7,13-10.24,30.48-1.55,42.33-7.91s22.78-3.23,33.92-5.2,22.12-5.85,33.24-6.15c19-.51,36.62-11.3,56.09-6.88,27.09-14.38,58.26-10.16,86.8-19,17.68-5.47,39.26-.68,55.33-8.36,15.83-7.58,32.31-2.62,48-10.8,13.87-7.24,33.17-3.27,48.77-8.31,11.25-3.64,22.82-3.37,33.12-6.82,6.46-2.16,19.78-1.33,20.42-16.11l-45.89-19.17C3082.78,3288.36,3082.42,3280.23,3082.14,3273.77Z"/></g></g></svg>